<svg width="700" height="532" viewBox="0 0 700 532" fill="none" xmlns="http://www.w3.org/2000/svg">
<rect x="100" y="16" width="500" height="500" rx="250" fill="#CBFF96"/>
<rect width="150.81" height="174.987" rx="12.4813" transform="matrix(-0.868151 0.4963 0.4963 0.868151 199.588 63.1816)" fill="black"/>
<rect x="-0.371852" y="1.36445" width="140.799" height="161.321" rx="11.4813" transform="matrix(-0.868151 0.4963 0.4963 0.868151 189.095 67.2248)" fill="white" stroke="black" stroke-width="2"/>
<rect width="108.596" height="33.3483" transform="matrix(-0.868151 0.4963 0.4963 0.868151 186.865 91.5728)" fill="black"/>
<rect x="-0.371852" y="1.36445" width="33.0585" height="31.3483" rx="3.88398" transform="matrix(-0.868151 0.4963 0.4963 0.868151 210.108 134.993)" fill="#F6F6F6" stroke="black" stroke-width="2"/>
<rect x="-0.371852" y="1.36445" width="33.0585" height="31.3483" rx="3.88398" transform="matrix(-0.868151 0.4963 0.4963 0.868151 229.629 169.141)" fill="#EBF3FF" stroke="black" stroke-width="2"/>
<rect x="-0.371852" y="1.36445" width="33.0585" height="31.3483" rx="3.88398" transform="matrix(-0.868151 0.4963 0.4963 0.868151 174.475 155.363)" fill="#EBF3FF" stroke="black" stroke-width="2"/>
<rect x="-0.371852" y="1.36445" width="33.0585" height="31.3483" rx="3.88398" transform="matrix(-0.868151 0.4963 0.4963 0.868151 193.996 189.511)" fill="#F6F6F6" stroke="black" stroke-width="2"/>
<rect x="-0.371852" y="1.36445" width="33.0585" height="70.6822" rx="3.88398" transform="matrix(-0.868151 0.4963 0.4963 0.868151 138.843 175.733)" fill="#F6F6F6" stroke="black" stroke-width="2"/>
<rect x="249.654" y="112.183" width="241.184" height="318.061" fill="black"/>
<rect x="237.088" y="95.0938" width="239.184" height="316.061" fill="#CBFF96" stroke="black" stroke-width="2"/>
<path d="M338.558 184.036L284.994 218.656L290.915 228.355C298.481 236.247 307.909 242.111 318.333 245.409C328.792 248.718 339.916 249.336 350.677 247.208C361.438 245.079 371.489 240.272 379.9 233.231C388.311 226.19 394.812 217.141 398.801 206.923C402.789 196.704 404.137 185.645 402.72 174.767C401.303 163.889 397.167 153.545 390.693 144.689C384.22 135.833 375.618 128.752 365.684 124.101C356.051 119.591 345.467 117.506 334.853 118.021L339.013 183.132L339.051 183.718L338.558 184.036Z" fill="black" stroke="black" stroke-width="2"/>
<mask id="path-13-inside-1_201_685" fill="white">
<path d="M283.463 217.662C291.155 225.679 300.754 231.634 311.372 234.976C321.99 238.319 333.284 238.941 344.21 236.786C355.137 234.631 365.342 229.768 373.884 222.646C382.427 215.524 389.029 206.373 393.082 196.039C397.134 185.706 398.506 174.523 397.07 163.525C395.634 152.526 391.437 142.068 384.867 133.115C378.297 124.162 369.566 117.005 359.48 112.305C349.395 107.604 338.281 105.513 327.166 106.223L331.372 172.066L283.463 217.662Z"/>
</mask>
<path d="M283.463 217.662C291.155 225.679 300.754 231.634 311.372 234.976C321.99 238.319 333.284 238.941 344.21 236.786C355.137 234.631 365.342 229.768 373.884 222.646C382.427 215.524 389.029 206.373 393.082 196.039C397.134 185.706 398.506 174.523 397.07 163.525C395.634 152.526 391.437 142.068 384.867 133.115C378.297 124.162 369.566 117.005 359.48 112.305C349.395 107.604 338.281 105.513 327.166 106.223L331.372 172.066L283.463 217.662Z" fill="white" stroke="black" stroke-width="4" mask="url(#path-13-inside-1_201_685)"/>
<path d="M317.955 160.252L314.961 144.738C296.07 136.164 257.374 124.273 252.442 144.543C247.509 164.813 262.879 187.776 270.431 198.491L317.955 160.252Z" fill="black" stroke="black" stroke-width="2"/>
<path d="M313.893 144.324L264.832 183.666C258.161 175.072 253.807 164.903 252.196 154.132C250.537 143.031 251.851 131.689 256.006 121.262C260.16 110.835 267.005 101.696 275.843 94.7776C284.419 88.0647 294.573 83.6752 305.326 82.0236L313.893 144.324Z" fill="white" stroke="black" stroke-width="2"/>
<path d="M425.882 328.171C425.882 328.723 426.33 329.171 426.882 329.171C427.434 329.171 427.882 328.723 427.882 328.171H425.882ZM427.882 369.149C427.882 368.597 427.434 368.149 426.882 368.149C426.33 368.149 425.882 368.597 425.882 369.149H427.882ZM425.882 320.203V328.171H427.882V320.203H425.882ZM425.882 369.149V377.117H427.882V369.149H425.882Z" fill="black"/>
<path d="M440.162 328.171H420.242C417.777 328.171 415.412 329.25 413.669 331.171C411.926 333.093 410.946 335.698 410.946 338.415C410.946 341.132 411.926 343.738 413.669 345.659C415.412 347.581 417.777 348.66 420.242 348.66H433.522C435.988 348.66 438.352 349.739 440.095 351.66C441.839 353.582 442.818 356.187 442.818 358.904C442.818 361.621 441.839 364.227 440.095 366.148C438.352 368.07 435.988 369.149 433.522 369.149H413.223" stroke="black" stroke-width="2" stroke-linecap="square"/>
<path d="M275.28 277.996H441.094" stroke="black" stroke-width="2"/>
<path d="M275.28 311.159H441.094" stroke="black" stroke-width="2"/>
<path d="M275.28 344.322H374.769" stroke="black" stroke-width="2"/>
<path d="M275.28 377.484H374.769" stroke="black" stroke-width="2"/>
<rect x="419.483" y="132.779" width="23.6258" height="23.6258" rx="3" fill="white" stroke="black" stroke-width="2"/>
<rect x="419.483" y="173.479" width="23.6258" height="23.6258" rx="3" fill="white" stroke="black" stroke-width="2"/>
<rect x="419.483" y="214.178" width="23.6258" height="23.6258" rx="3" fill="white" stroke="black" stroke-width="2"/>
<path d="M633.504 460.067H577.498C590.8 441.865 601.126 345.721 604.626 299.924H611.627L633.504 460.067Z" fill="black" stroke="black" stroke-width="2"/>
<path d="M397.227 392.685C404.228 366.082 407.145 319.76 407.729 299.924H604.626C605.326 377.633 585.082 444.899 574.872 468.818H372.725C377.975 454.525 390.227 419.288 397.227 392.685Z" fill="white" stroke="black" stroke-width="2"/>
<rect x="423.604" y="331.553" width="157.268" height="17.2522" fill="#F6F6F6" stroke="black" stroke-width="2"/>
<path d="M482.986 437.315H524.116C528.735 428.433 532.347 413.616 534.975 398.811H493.845C491.217 413.616 487.605 428.433 482.986 437.315Z" fill="#EBF3FF"/>
<path d="M539.868 361.182C539.149 370.089 537.525 384.444 534.975 398.811M498.738 361.182C498.02 370.089 496.396 384.444 493.845 398.811M460.234 361.182C458.775 379.267 453.583 419.813 444.482 437.315M574.354 398.811H534.975M416.837 398.811H493.845M534.975 398.811C532.347 413.616 528.735 428.433 524.116 437.315H482.986C487.605 428.433 491.217 413.616 493.845 398.811M534.975 398.811H493.845M579.247 361.182C577.789 379.267 572.596 419.813 563.495 437.315H405.978C415.079 419.813 420.271 379.267 421.729 361.182H579.247Z" stroke="black" stroke-width="2"/>
<path d="M429.606 288.548V309.551" stroke="black" stroke-width="2"/>
<path d="M452.359 288.548V309.551" stroke="black" stroke-width="2"/>
<path d="M475.111 288.548V309.551" stroke="black" stroke-width="2"/>
<path d="M497.863 288.548V309.551" stroke="black" stroke-width="2"/>
<path d="M520.616 288.548V309.551" stroke="black" stroke-width="2"/>
<path d="M541.618 288.548V309.551" stroke="black" stroke-width="2"/>
<path d="M564.371 288.548V309.551" stroke="black" stroke-width="2"/>
<path d="M585.374 288.548V309.551" stroke="black" stroke-width="2"/>
</svg>
