<svg width="700" height="524" viewBox="0 0 700 524" fill="none" xmlns="http://www.w3.org/2000/svg">
<rect x="100" y="12" width="500" height="500" rx="250" fill="#FF9E8D"/>
<path d="M366.294 92.4428L244.268 40.6856C220.467 114.793 166.053 180.892 141.822 204.678C172.061 220.185 239.253 254.453 266.11 267.467C321.896 200.662 356.144 122.949 366.294 92.4428Z" fill="white" stroke="black" stroke-width="2"/>
<path d="M227.186 220.207L253.627 188.136L242.437 182.714L215.14 214.345L227.186 220.207Z" fill="#F6F6F6"/>
<path d="M248.696 230.676L282.132 188.908L269.124 183.07L235.79 224.395L248.696 230.676Z" fill="#F6F6F6"/>
<path d="M206.536 210.157L223.799 188.975L212.609 183.553L194.92 204.504L206.536 210.157Z" fill="#F6F6F6"/>
<path d="M211.721 162.318C205.099 174.573 190.017 191.78 183.304 198.851L194.92 204.504M257.3 234.864L248.696 230.676M248.696 230.676L282.132 188.908L269.124 183.07L235.79 224.395M248.696 230.676L235.79 224.395M235.79 224.395L227.186 220.207M227.186 220.207L253.627 188.136L242.437 182.714L215.14 214.345M227.186 220.207L215.14 214.345M215.14 214.345L206.536 210.157M206.536 210.157L223.799 188.975L212.609 183.553L194.92 204.504M206.536 210.157L194.92 204.504" stroke="black" stroke-width="2"/>
<path d="M246.795 75.6792L333.72 113.687" stroke="black" stroke-width="2"/>
<path d="M235.12 101.694L320.435 138.379" stroke="black" stroke-width="2"/>
<path d="M223.86 125.892L308.059 163.278" stroke="black" stroke-width="2"/>
<rect x="309.251" y="131.792" width="256.397" height="337.024" rx="6" fill="black"/>
<path d="M548.716 141.064C550.938 141.064 552.731 142.854 552.701 145.075C552.498 159.948 551.488 215.984 546.953 309.923C546.859 311.875 546.621 313.865 546.621 314.754C538.804 418.961 444.291 442.277 432.703 443.612C427.355 444.056 416.814 446.073 398.541 446.073C376.271 446.945 342.449 447.39 289.948 447.826C288.455 447.838 287.422 446.345 288.048 444.989C321.281 372.999 322.373 175.14 322.343 144.949C322.341 142.728 324.14 141.064 326.361 141.064H548.716Z" fill="#FF9E8D" stroke="black" stroke-width="2" stroke-miterlimit="10" stroke-linejoin="round"/>
<path d="M351.177 242.252H515.255" stroke="black" stroke-width="2"/>
<path d="M351.177 273.697H515.255" stroke="black" stroke-width="2"/>
<path d="M351.177 305.142H515.255" stroke="black" stroke-width="2"/>
<path d="M321.959 214.652L323.136 141.661H440.481V215.445L321.959 214.652Z" fill="#EBF3FF" stroke="black" stroke-width="2"/>
<path d="M338.712 195.682C338.39 195.682 338.1 195.617 337.842 195.488C337.616 195.391 337.503 195.246 337.503 195.053C337.503 194.795 337.616 194.585 337.842 194.424C338.067 194.263 338.39 194.15 338.809 194.085C340.035 193.827 340.938 193.472 341.518 193.021C342.099 192.537 342.389 191.763 342.389 190.699V171.106C342.389 169.784 342.357 168.784 342.292 168.107C342.228 167.43 342.131 166.978 342.002 166.752C341.905 166.494 341.744 166.349 341.518 166.317C341.196 166.188 340.793 166.107 340.309 166.075C339.825 166.043 339.357 166.027 338.906 166.027H337.406C336.471 166.027 335.568 166.252 334.697 166.704C333.826 167.123 333.149 167.704 332.665 168.446C332.536 168.639 332.327 168.913 332.036 169.268C331.778 169.623 331.488 169.945 331.166 170.235C330.875 170.526 330.569 170.671 330.247 170.671C330.021 170.671 329.86 170.59 329.763 170.429C329.698 170.268 329.666 170.09 329.666 169.897C329.666 169.51 329.763 169.123 329.956 168.736C330.505 167.639 330.908 166.688 331.166 165.882C331.456 165.043 331.649 164.059 331.746 162.931C331.811 162.447 331.94 162.14 332.133 162.011C332.359 161.85 332.585 161.77 332.811 161.77C333.004 161.77 333.23 161.979 333.488 162.398C333.778 162.785 334.036 163.108 334.262 163.366C334.552 163.656 335.068 163.882 335.81 164.043C336.552 164.172 337.181 164.237 337.697 164.237L355.548 164.188C356.451 164.188 357.208 164.124 357.821 163.995C358.434 163.834 358.918 163.672 359.273 163.511C359.756 163.221 360.143 162.931 360.434 162.64C360.724 162.318 361.063 162.157 361.45 162.157C361.611 162.157 361.724 162.253 361.788 162.447C361.885 162.608 361.933 162.818 361.933 163.076C361.933 163.237 361.917 163.43 361.885 163.656C361.853 163.85 361.82 164.027 361.788 164.188C361.659 164.801 361.53 165.349 361.401 165.833C361.272 166.285 361.159 166.72 361.063 167.139C360.998 167.526 360.966 167.978 360.966 168.494V169.316C360.966 169.768 360.901 170.155 360.772 170.477C360.643 170.8 360.434 170.961 360.143 170.961C359.885 170.961 359.66 170.816 359.466 170.526C359.305 170.203 359.127 169.719 358.934 169.074C358.644 168.042 358.16 167.284 357.483 166.801C356.805 166.285 355.741 166.027 354.29 166.027H351C350.387 166.027 349.904 166.14 349.549 166.365C349.226 166.591 348.984 167.091 348.823 167.865C348.694 168.607 348.63 169.768 348.63 171.348V190.65C348.63 191.682 348.92 192.44 349.5 192.924C350.081 193.376 351 193.763 352.258 194.085C352.645 194.182 352.951 194.295 353.177 194.424C353.403 194.553 353.516 194.746 353.516 195.004C353.516 195.23 353.403 195.391 353.177 195.488C352.984 195.585 352.726 195.633 352.403 195.633C351.629 195.633 350.855 195.617 350.081 195.585C349.307 195.553 348.533 195.52 347.759 195.488C347.017 195.456 346.291 195.44 345.582 195.44C344.872 195.44 344.131 195.456 343.357 195.488C342.615 195.52 341.841 195.553 341.035 195.585C340.261 195.649 339.486 195.682 338.712 195.682Z" fill="black"/>
<path d="M359.832 195.73C359.445 195.73 359.122 195.665 358.864 195.536C358.606 195.44 358.477 195.262 358.477 195.004C358.477 194.714 358.59 194.488 358.816 194.327C359.074 194.166 359.397 194.021 359.784 193.892C360.719 193.634 361.525 193.247 362.202 192.731C362.912 192.182 363.476 191.441 363.896 190.505C364.702 188.602 365.476 186.78 366.218 185.039C366.959 183.265 367.669 181.507 368.346 179.766C369.023 178.024 369.701 176.25 370.378 174.444C371.088 172.638 371.797 170.735 372.507 168.736C372.861 167.736 373.103 166.962 373.232 166.414C373.361 165.865 373.474 165.462 373.571 165.204C374.055 165.075 374.506 164.946 374.925 164.817C375.345 164.688 375.812 164.527 376.328 164.333C376.78 164.108 377.167 163.817 377.489 163.463C377.812 163.108 378.054 162.834 378.215 162.64C378.312 162.576 378.409 162.544 378.505 162.544C378.602 162.511 378.699 162.576 378.796 162.737C378.892 162.931 378.973 163.124 379.037 163.318C379.102 163.511 379.166 163.721 379.231 163.946C379.941 166.236 380.666 168.558 381.408 170.913C382.182 173.235 382.94 175.541 383.682 177.831C384.423 180.088 385.133 182.265 385.81 184.361C386.52 186.426 387.165 188.328 387.745 190.07C388.036 190.941 388.39 191.634 388.81 192.15C389.261 192.666 389.745 193.069 390.261 193.36C390.809 193.618 391.406 193.827 392.051 193.988C392.47 194.085 392.793 194.214 393.018 194.375C393.244 194.537 393.357 194.762 393.357 195.053C393.357 195.246 393.244 195.391 393.018 195.488C392.825 195.585 392.567 195.633 392.244 195.633C391.664 195.633 390.922 195.617 390.019 195.585C389.148 195.553 388.245 195.52 387.31 195.488C386.375 195.424 385.536 195.391 384.794 195.391C384.149 195.391 383.424 195.407 382.617 195.44C381.843 195.472 381.053 195.504 380.247 195.536C379.473 195.569 378.812 195.585 378.263 195.585C377.941 195.585 377.651 195.536 377.393 195.44C377.167 195.311 377.054 195.133 377.054 194.908C377.054 194.65 377.183 194.44 377.441 194.279C377.699 194.085 378.005 193.956 378.36 193.892C379.521 193.698 380.36 193.408 380.876 193.021C381.392 192.602 381.585 192.005 381.456 191.231C381.36 190.683 381.214 190.038 381.021 189.296C380.827 188.522 380.618 187.732 380.392 186.925C380.199 186.087 379.989 185.329 379.763 184.652C379.699 184.394 379.602 184.216 379.473 184.12C379.344 183.991 379.102 183.926 378.747 183.926H370.039C369.814 183.926 369.636 184.007 369.507 184.168C369.378 184.297 369.282 184.507 369.217 184.797C369.088 185.216 368.927 185.7 368.733 186.248C368.572 186.764 368.395 187.312 368.201 187.893C368.04 188.441 367.879 188.957 367.717 189.441C367.588 189.925 367.492 190.344 367.427 190.699C367.266 191.57 367.411 192.263 367.862 192.779C368.346 193.263 369.169 193.65 370.33 193.94C371.2 194.166 371.636 194.504 371.636 194.956C371.636 195.149 371.523 195.311 371.297 195.44C371.104 195.536 370.813 195.585 370.426 195.585C369.685 195.585 368.911 195.553 368.104 195.488C367.298 195.456 366.411 195.44 365.444 195.44C364.476 195.44 363.525 195.488 362.589 195.585C361.686 195.682 360.767 195.73 359.832 195.73ZM371.346 181.701H378.07C378.521 181.701 378.747 181.604 378.747 181.41C378.747 181.314 378.731 181.233 378.699 181.169C378.699 181.104 378.683 181.007 378.65 180.878L375.264 169.703C375.135 169.252 375.022 169.026 374.925 169.026C374.861 169.026 374.748 169.236 374.587 169.655L370.523 180.878C370.459 181.04 370.426 181.169 370.426 181.265C370.426 181.427 370.507 181.539 370.668 181.604C370.862 181.668 371.088 181.701 371.346 181.701Z" fill="black"/>
<path d="M395.241 195.778C394.854 195.778 394.515 195.73 394.225 195.633C393.934 195.536 393.789 195.359 393.789 195.101C393.789 194.811 393.918 194.601 394.176 194.472C394.467 194.343 394.805 194.214 395.192 194.085C395.805 193.892 396.45 193.618 397.127 193.263C397.837 192.908 398.563 192.424 399.304 191.811C400.046 191.166 400.772 190.392 401.481 189.489L407.432 181.894C407.819 181.41 408.028 180.911 408.06 180.395C408.125 179.879 407.931 179.314 407.48 178.701L400.756 169.22C400.24 168.478 399.74 167.865 399.256 167.381C398.804 166.865 398.337 166.462 397.853 166.172C397.369 165.882 396.821 165.656 396.208 165.495C395.821 165.366 395.499 165.237 395.241 165.108C395.015 164.946 394.902 164.737 394.902 164.479C394.902 164.253 395.015 164.092 395.241 163.995C395.466 163.898 395.741 163.85 396.063 163.85C397.289 163.85 398.643 163.898 400.127 163.995C401.61 164.092 403.045 164.124 404.432 164.092C405.464 164.092 406.464 164.059 407.432 163.995C408.399 163.898 409.318 163.85 410.189 163.85C410.512 163.85 410.802 163.914 411.06 164.043C411.35 164.14 411.495 164.301 411.495 164.527C411.495 164.785 411.35 164.995 411.06 165.156C410.802 165.285 410.463 165.414 410.044 165.543C409.141 165.769 408.464 165.994 408.012 166.22C407.561 166.446 407.335 166.801 407.335 167.284C407.335 167.736 407.69 168.446 408.399 169.413L412.898 175.702C413.221 176.121 413.495 176.347 413.721 176.379C413.946 176.379 414.204 176.186 414.495 175.799L418.897 169.848C419.316 169.3 419.623 168.816 419.816 168.397C420.01 167.946 420.106 167.559 420.106 167.236C420.106 166.849 419.929 166.527 419.574 166.269C419.252 165.978 418.703 165.736 417.929 165.543C417.607 165.478 417.268 165.366 416.913 165.204C416.591 165.011 416.43 164.785 416.43 164.527C416.43 164.301 416.559 164.14 416.817 164.043C417.107 163.946 417.462 163.898 417.881 163.898C418.461 163.898 418.961 163.914 419.381 163.946C419.8 163.946 420.219 163.963 420.638 163.995C421.058 164.027 421.558 164.043 422.138 164.043C423.073 164.043 423.944 163.995 424.75 163.898C425.589 163.769 426.428 163.705 427.266 163.705C427.653 163.705 427.992 163.769 428.282 163.898C428.604 163.995 428.766 164.172 428.766 164.43C428.766 164.688 428.621 164.882 428.33 165.011C428.04 165.14 427.685 165.269 427.266 165.398C426.492 165.624 425.653 166.123 424.75 166.897C423.847 167.639 423.025 168.462 422.283 169.365L415.994 177.057C415.607 177.508 415.381 177.895 415.317 178.218C415.285 178.508 415.414 178.895 415.704 179.379L423.589 190.602C424.17 191.441 424.815 192.166 425.524 192.779C426.234 193.36 426.944 193.763 427.653 193.988C428.072 194.053 428.459 194.182 428.814 194.375C429.169 194.569 429.346 194.811 429.346 195.101C429.346 195.295 429.217 195.44 428.959 195.536C428.733 195.665 428.427 195.73 428.04 195.73C427.105 195.73 426.137 195.698 425.137 195.633C424.17 195.601 423.202 195.553 422.235 195.488C421.3 195.424 420.348 195.407 419.381 195.44C418.413 195.44 417.462 195.456 416.526 195.488C415.623 195.52 414.753 195.536 413.914 195.536C413.592 195.536 413.285 195.488 412.995 195.391C412.705 195.262 412.56 195.101 412.56 194.908C412.56 194.65 412.721 194.44 413.043 194.279C413.398 194.085 413.721 193.956 414.011 193.892C414.591 193.73 415.156 193.505 415.704 193.214C416.285 192.892 416.575 192.44 416.575 191.86C416.575 191.634 416.543 191.424 416.478 191.231C416.414 191.037 416.285 190.812 416.091 190.554L410.915 183.2C410.592 182.684 410.302 182.394 410.044 182.33C409.786 182.265 409.48 182.491 409.125 183.007L403.9 190.118C403.578 190.602 403.368 191.021 403.271 191.376C403.207 191.731 403.191 192.005 403.223 192.198C403.255 192.618 403.465 192.989 403.852 193.311C404.239 193.634 404.771 193.859 405.448 193.988C405.867 194.053 406.222 194.182 406.512 194.375C406.803 194.537 406.948 194.746 406.948 195.004C406.948 195.23 406.803 195.391 406.512 195.488C406.254 195.585 405.932 195.633 405.545 195.633C404.771 195.633 403.948 195.601 403.078 195.536C402.239 195.504 401.481 195.488 400.804 195.488C399.804 195.488 398.853 195.536 397.95 195.633C397.047 195.73 396.144 195.778 395.241 195.778Z" fill="black"/>
<path d="M545.491 312.398C539.118 420.895 442.759 441.96 430.924 443.294C425.462 443.739 414.992 444.628 396.329 444.628C445.49 422.395 471.892 382.376 471.436 351.25C495.107 353.028 533.656 352.862 545.491 312.398Z" fill="black" stroke="white" stroke-width="2" stroke-miterlimit="10" stroke-linejoin="round"/>
<path d="M489.051 129.98V141.559C489.051 142.45 489.051 142.895 489.051 143.786C487.714 151.358 481.475 157.593 473.453 157.593H399.027C391.005 157.593 384.766 151.358 383.429 143.786C383.429 142.895 383.429 142.45 383.429 141.559V129.98C383.429 128.198 384.766 125.971 386.994 125.971H423.539C423.539 125.081 423.539 124.635 423.539 124.19C423.539 117.064 429.778 110.829 436.908 110.829C444.039 110.829 450.278 117.064 450.278 124.19C450.278 125.081 450.278 125.526 450.278 125.971H486.823C487.714 126.417 489.051 127.753 489.051 129.98Z" fill="black" stroke="black" stroke-width="2" stroke-miterlimit="10" stroke-linejoin="round"/>
<path d="M362.167 496.42H160.694C156.828 496.42 153.694 493.286 153.694 489.42V337.774C153.694 333.908 156.828 330.774 160.694 330.774H381.457C385.323 330.774 388.457 333.908 388.457 337.774V489.42C388.457 493.286 385.323 496.42 381.457 496.42H362.167Z" fill="white" stroke="black" stroke-width="2"/>
<path d="M153.43 413.441V391.382L156.738 343.956L367.031 342.642L356.369 411.97L236.15 427.043L153.43 413.441Z" fill="black"/>
<path d="M367.633 330.774H382.782C387.753 330.774 391.782 334.804 391.782 339.774V496.42L356.633 496.42V341.774C356.633 335.699 361.558 330.774 367.633 330.774Z" fill="#E4EEFC" stroke="black" stroke-width="2" stroke-linejoin="round"/>
<path d="M246.784 306.18C243.539 308.335 241.399 312.022 241.399 316.21V317.642V330.245H225.017V321.18C225.017 312.896 231.733 306.18 240.017 306.18H246.784Z" fill="black" stroke="black" stroke-width="2" stroke-linejoin="round"/>
<path d="M287.236 306.18C290.938 308.503 293.399 312.62 293.399 317.312V317.642V330.245H309.781V321.18C309.781 312.896 303.066 306.18 294.781 306.18H287.236Z" fill="black" stroke="black" stroke-width="2" stroke-linejoin="round"/>
<path d="M387.557 330.833L376.948 332.031C367.186 333.133 359.081 340.074 356.491 349.551L342.746 399.836C341.872 403.032 339.119 405.359 335.822 405.687L231.648 416.07C230.975 416.137 230.296 416.119 229.628 416.015L143.497 402.661C139.206 401.996 136.229 398.029 136.79 393.723L144.067 337.8C144.585 333.815 147.981 330.833 152 330.833H387.557Z" fill="white" stroke="black" stroke-width="2" stroke-linejoin="round"/>
<path d="M246.641 385.106L241.611 400.598C241.209 401.834 240.057 402.671 238.757 402.671H230.462C228.46 402.671 227.02 400.748 227.584 398.827L232.128 383.335C232.503 382.057 233.675 381.18 235.007 381.18H243.787C245.825 381.18 247.27 383.168 246.641 385.106Z" fill="black" stroke="black" stroke-width="2"/>
<path d="M288.722 305.916H242.399" stroke="black" stroke-width="2" stroke-linejoin="round"/>
</svg>
