<svg width="700" height="532" viewBox="0 0 700 532" fill="none" xmlns="http://www.w3.org/2000/svg">
<rect x="100" y="16" width="500" height="500" rx="250" fill="#FFEB7F"/>
<path d="M365.545 187.59L226.227 188.601L224.865 288.364L367.317 290.139L365.545 187.59Z" fill="#F6F6F6" stroke="black" stroke-width="2"/>
<path d="M236.039 271.143L260.702 239.909L288.958 267.933L327.062 215.067L341.28 230.561L427.752 100.654M427.752 100.654L431.95 121.217M427.752 100.654L407.353 104.866M458.5 105.805L482.321 85.0301M382 103.804L361.362 79.7781" stroke="black" stroke-width="2"/>
<path d="M417.656 229.353H505.901" stroke="black" stroke-width="2"/>
<path d="M417.656 256.996H505.901" stroke="black" stroke-width="2"/>
<path d="M417.656 284.639H505.901" stroke="black" stroke-width="2"/>
<path d="M308.906 430.027L329.107 358.793H398.214L418.414 430.027M312.331 417.95C280.628 420.127 260 424.16 260 428.963C260 436.01 306.172 441.722 363.129 441.722C420.086 441.722 466.258 436.01 466.258 428.963C466.258 424.268 445.521 420.166 414.989 417.95" stroke="black" stroke-width="2"/>
<path fill-rule="evenodd" clip-rule="evenodd" d="M192.45 367.299V375.804H543.301V135.524H534.796V367.299H192.45Z" fill="black"/>
<path d="M192.45 375.804H191.45V376.804H192.45V375.804ZM192.45 367.299V366.299H191.45V367.299H192.45ZM543.301 375.804V376.804H544.301V375.804H543.301ZM543.301 135.524H544.301V134.524H543.301V135.524ZM534.796 135.524V134.524H533.796V135.524H534.796ZM534.796 367.299V368.299H535.796V367.299H534.796ZM193.45 375.804V367.299H191.45V375.804H193.45ZM543.301 374.804H192.45V376.804H543.301V374.804ZM542.301 135.524V375.804H544.301V135.524H542.301ZM534.796 136.524H543.301V134.524H534.796V136.524ZM533.796 135.524V367.299H535.796V135.524H533.796ZM534.796 366.299H192.45V368.299H534.796V366.299Z" fill="black"/>
<path d="M369.373 135.524H192V337.53H536.472V135.524H450.354" stroke="black" stroke-width="2"/>
<rect x="192" y="318.353" width="342" height="51" fill="#EBF3FF" stroke="black" stroke-width="2"/>
<circle cx="364.687" cy="343.909" r="10.6319" fill="black"/>
<circle cx="189.859" cy="399.397" r="60.1163" fill="black"/>
<circle cx="185.564" cy="395.102" r="56.5399" fill="#F6F6F6" stroke="black" stroke-width="2"/>
<circle cx="185.564" cy="395.102" r="47.9519" fill="#F6F6F6" stroke="black" stroke-width="2"/>
<path d="M168.967 370.779L173.354 378.05M200.305 422.717L195.918 415.446" stroke="black" stroke-width="2" stroke-linecap="round"/>
<path d="M185.473 370.74L167.295 381.708C165.045 383.066 163.481 385.352 162.948 388.066C162.415 390.779 162.956 393.696 164.452 396.176C165.949 398.655 168.277 400.494 170.926 401.287C173.575 402.08 176.327 401.763 178.577 400.406L190.696 393.094C192.946 391.736 195.698 391.419 198.346 392.212C200.995 393.006 203.324 394.844 204.82 397.324C206.316 399.803 206.857 402.721 206.324 405.434C205.791 408.147 204.227 410.434 201.978 411.791L183.453 422.969" stroke="black" stroke-width="2" stroke-linecap="round"/>
<circle cx="29.5776" cy="29.5776" r="29.5776" transform="matrix(-0.346033 -0.938222 -0.938222 0.346033 181.844 326)" fill="black"/>
<circle cx="28.31" cy="28.31" r="27.31" transform="matrix(-0.346033 -0.938222 -0.938222 0.346033 178.401 323.266)" fill="#F6F6F6" stroke="black" stroke-width="2"/>
<circle cx="24.0846" cy="24.0846" r="23.0846" transform="matrix(-0.346033 -0.938222 -0.938222 0.346033 172.975 320.763)" fill="#F6F6F6" stroke="black" stroke-width="2"/>
<path d="M151.872 294.543L149.271 297.74M133.294 317.377L135.895 314.18" stroke="black" stroke-width="2" stroke-linecap="round"/>
<path d="M154.597 302.076L146.605 295.574C145.616 294.769 144.315 294.43 142.989 294.632C141.662 294.833 140.419 295.559 139.532 296.649C138.645 297.739 138.187 299.104 138.26 300.444C138.332 301.784 138.928 302.989 139.917 303.794L145.245 308.129C146.234 308.933 146.831 310.138 146.903 311.478C146.975 312.818 146.517 314.183 145.631 315.273C144.744 316.363 143.5 317.089 142.174 317.291C140.847 317.492 139.546 317.153 138.557 316.349L130.413 309.722" stroke="black" stroke-width="2" stroke-linecap="round"/>
<mask id="path-23-inside-1_201_804" fill="white">
<path d="M441.408 208.861C423.758 175.397 436.578 133.962 470.041 116.312C503.505 98.6618 544.941 111.482 562.591 144.945C580.241 178.409 567.421 219.845 533.957 237.495C500.493 255.145 459.057 242.325 441.408 208.861ZM530.319 161.967C522.07 146.326 502.703 140.335 487.063 148.584C471.422 156.833 465.43 176.199 473.68 191.84C481.929 207.48 501.295 213.472 516.936 205.223C532.576 196.974 538.568 177.607 530.319 161.967Z"/>
</mask>
<path d="M441.408 208.861C423.758 175.397 436.578 133.962 470.041 116.312C503.505 98.6618 544.941 111.482 562.591 144.945C580.241 178.409 567.421 219.845 533.957 237.495C500.493 255.145 459.057 242.325 441.408 208.861ZM530.319 161.967C522.07 146.326 502.703 140.335 487.063 148.584C471.422 156.833 465.43 176.199 473.68 191.84C481.929 207.48 501.295 213.472 516.936 205.223C532.576 196.974 538.568 177.607 530.319 161.967Z" fill="white" stroke="black" stroke-width="4" mask="url(#path-23-inside-1_201_804)"/>
<mask id="path-24-inside-2_201_804" fill="white">
<path d="M485.54 110.407C472.726 113.579 461.102 120.385 452.065 130.008C443.028 139.63 436.964 151.659 434.602 164.647L470.434 171.163C471.54 165.08 474.38 159.447 478.613 154.94C482.845 150.433 488.289 147.246 494.291 145.76L485.54 110.407Z"/>
</mask>
<path d="M485.54 110.407C472.726 113.579 461.102 120.385 452.065 130.008C443.028 139.63 436.964 151.659 434.602 164.647L470.434 171.163C471.54 165.08 474.38 159.447 478.613 154.94C482.845 150.433 488.289 147.246 494.291 145.76L485.54 110.407Z" fill="#EBF3FF" stroke="black" stroke-width="4" mask="url(#path-24-inside-2_201_804)"/>
<path d="M436.557 156.656C432.552 169.599 432.476 183.44 436.337 196.426C440.198 209.413 447.824 220.963 458.25 229.616C468.675 238.269 481.433 243.636 494.908 245.038C508.384 246.441 521.973 243.816 533.957 237.495L516.962 205.272C511.351 208.231 504.989 209.461 498.679 208.804C492.37 208.147 486.397 205.634 481.516 201.583C476.635 197.532 473.064 192.124 471.256 186.044C469.449 179.964 469.484 173.484 471.359 167.424L436.557 156.656Z" fill="black"/>
</svg>
