<svg width="640" height="600" viewBox="0 0 640 600" fill="none" xmlns="http://www.w3.org/2000/svg">
<path d="M432.907 366.807L414.421 315.667L425.903 291.184L449.3 282.727L500.084 264.369L543.258 383.805L451.095 417.121L432.907 366.807Z" fill="white" stroke="black" stroke-width="3"/>
<path d="M436.866 329.223L497.054 307.465" stroke="black" stroke-width="3"/>
<path d="M441.966 343.33L502.154 321.573" stroke="black" stroke-width="3"/>
<path d="M447.405 358.377L507.594 336.62" stroke="black" stroke-width="3"/>
<path d="M452.504 372.483L512.692 350.726" stroke="black" stroke-width="3"/>
<path d="M457.943 387.53L497.442 373.252" stroke="black" stroke-width="3"/>
<path d="M426.769 292.467L432.888 309.395L415.96 315.514L426.769 292.467Z" fill="black"/>
<path d="M423.885 451.948H140.5V226.948H459.5V451.948H423.885Z" fill="white" stroke="black" stroke-width="3"/>
<path d="M141.5 353.448V323.448L144.5 258.948L430.5 242.948L416 351.448L252.5 371.948L141.5 353.448Z" fill="black"/>
<path d="M113.614 426.333L113.622 426.328L113.629 426.323C117.394 423.851 123.69 420.457 127.574 418.668C154.188 406.404 173.394 400.382 188.149 395.755C190.899 394.893 193.494 394.079 195.954 393.282C211.645 388.2 222.001 383.763 231.451 371.748L231.539 371.635L231.605 371.508C233.477 367.873 235.83 361.634 237.055 357.761L237.061 357.742L237.067 357.722C238.53 352.611 239.344 346.221 239.749 336.702L239.75 336.697C240.156 326.357 239.856 321.075 238.608 315.153L238.605 315.141C237.676 310.915 235.624 304.662 234.061 301.228L234.053 301.211L234.045 301.195C232.388 297.783 229.29 292.922 226.944 290.362C224.717 287.825 220.76 284.599 218.081 283.099C214.287 280.936 211.307 280.193 205.322 279.984V273.959C208.093 273.935 211.218 273.952 214.791 274.007C228.804 274.309 234.516 274.913 240.192 276.378C244.295 277.477 250.19 279.374 253.148 280.555C256.133 281.747 260.177 283.621 262.019 284.682C263.901 285.87 267.877 288.648 270.885 290.85C273.783 293.072 278.012 297.485 280.36 300.704C282.645 303.98 285.601 309.11 286.754 311.987L286.76 312.002L286.766 312.017C287.739 314.299 288.272 315.979 288.578 318.328C288.892 320.738 288.969 323.87 288.969 329.075C288.969 338.412 288.462 342.233 287.037 346.216L287.031 346.231L287.026 346.246C286.063 349.132 283.596 354.17 281.7 357.459C279.853 360.561 275.698 365.801 272.542 368.952L272.525 368.969L272.509 368.986C269.467 372.219 263.909 376.777 260.176 379.131L260.169 379.136L260.161 379.141C256.458 381.539 251.178 384.518 248.551 385.684L248.54 385.689L248.528 385.694C240.759 389.295 231.627 392.046 222.001 394.624C218.91 395.452 215.763 396.263 212.598 397.079C205.956 398.79 199.235 400.522 192.787 402.472C173.812 408.209 156.384 416.042 149.02 431.795C147.546 434.948 145.894 440.316 145.267 443.758C144.637 447.218 144.132 455.189 144.132 461.37C144.132 467.659 144.738 476.242 145.575 480.322C146.397 484.421 148.232 491.238 149.666 495.433L149.672 495.449L149.677 495.464C151.225 499.687 154.399 506.333 156.879 510.356C159.387 514.425 164.626 520.569 168.531 524.264C172.362 527.984 178.835 532.706 182.81 534.794L182.817 534.798L182.824 534.802C186.857 536.866 193.721 539.525 198.264 540.762L198.282 540.767L198.301 540.772C204.201 542.218 209.779 542.831 217.848 542.831C225.399 542.831 231.786 542.221 237.389 540.874L237.402 540.871C241.855 539.759 247.398 538.125 249.726 537.174L249.729 537.173C260.815 532.616 272.748 524.117 283.315 514.138C293.888 504.154 303.19 492.599 308.961 481.843L308.976 481.815L308.99 481.786C310.455 478.757 312.906 472.015 314.335 466.921C315.451 463.021 316.132 460.213 316.488 457.466C316.845 454.709 316.867 452.066 316.713 448.5L316.713 448.486L316.712 448.472C316.301 441.81 315.57 438.274 313.44 433.806C311.834 430.387 308.576 426.09 305.495 423.435C304.104 422.208 302.316 420.925 300.559 419.846C298.825 418.782 297.025 417.858 295.598 417.397C293.084 416.498 289.592 415.914 284.495 415.819V408.722H392.419L392.064 415.448L386.865 416.016L386.85 416.017L386.836 416.019C383.49 416.45 377.875 418.333 373.739 420.397C369.645 422.39 363.076 427.01 359.075 430.492L359.073 430.494C354.983 434.067 348.879 440.161 345.409 444.034C341.947 447.896 337.284 453.665 334.942 456.713C332.461 459.813 324.858 470.748 318.011 480.9L318.005 480.91L317.998 480.92C306.381 498.757 283.887 529.682 254.142 542.264C249.391 544.181 243.481 546.48 240.807 547.37L240.799 547.373L240.791 547.375C238.235 548.259 233.145 549.655 229.357 550.451L229.349 550.453C225.679 551.245 218.57 552.346 213.643 552.949C208.624 553.449 200.508 553.948 195.628 553.948C190.645 553.948 182.322 553.449 177.1 552.948C171.859 552.344 163.942 551.242 159.567 550.349C155.193 549.455 147.477 547.356 142.569 545.756C137.565 544.057 130.372 541.163 126.613 539.287C122.716 537.291 116.935 533.905 113.687 531.547L113.675 531.538L113.663 531.529C110.443 529.289 104.564 524.024 100.775 519.942L100.769 519.936C96.3004 515.178 92.5622 509.958 90.3215 505.29L90.3169 505.28C88.3401 501.234 85.9591 494.69 85.0784 490.883C84.1933 486.953 83.5 480.714 83.5 477.1C83.5 473.384 84.1935 467.558 85.0711 464.053L85.0759 464.034L85.0802 464.015C85.8514 460.55 88.2165 454.53 90.1924 450.781C92.3438 446.78 96.4947 441.154 100.23 437.424L100.237 437.417L100.245 437.41C103.813 433.748 109.786 428.783 113.614 426.333Z" fill="white" stroke="black" stroke-width="3"/>
<path d="M416.5 251.448C416.5 237.917 427.469 226.948 441 226.948H459.5V451.948H416.5V251.448Z" fill="#E4EEFC" stroke="black" stroke-width="3"/>
<path d="M266.511 191.948C262.27 194.934 259.5 199.868 259.5 205.448V208.948V225.948H237.5V206.448C237.5 198.44 243.992 191.948 252 191.948H266.511Z" fill="black" stroke="black" stroke-width="3" stroke-linejoin="round"/>
<path d="M322.453 191.948C327.303 195.173 330.5 200.687 330.5 206.948V208.948V225.948H352.5V206.448C352.5 198.44 346.008 191.948 338 191.948H322.453Z" fill="black" stroke="black" stroke-width="3" stroke-linejoin="round"/>
<path d="M129.82 226.948H437.066C424.653 229.299 415.773 240.518 416.486 253.272L394.354 326.555L245.041 341.437L117.674 321.69L129.82 226.948Z" fill="white" stroke="black" stroke-width="3"/>
<path d="M265 315.948L277.5 277.448H247L235.5 315.948H265Z" fill="black"/>
<path d="M324.5 191.948H261.5" stroke="black" stroke-width="3" stroke-linejoin="round"/>
<mask id="path-17-inside-1_201_648" fill="white">
<path d="M529.451 157.194L-nan -nanL529.451 157.194C560.564 152.41 591.952 163.944 612.564 187.735L-nan -nanL612.564 187.735L586.296 259.219L535.557 268.939L503.183 228.678L529.451 157.194Z"/>
</mask>
<path d="M529.451 157.194L-nan -nanL529.451 157.194C560.564 152.41 591.952 163.944 612.564 187.735L-nan -nanL612.564 187.735L586.296 259.219L535.557 268.939L503.183 228.678L529.451 157.194Z" fill="white"/>
<path d="M586.296 259.219L586.861 262.166L588.527 261.847L589.112 260.254L586.296 259.219ZM503.183 228.678L500.367 227.643L499.782 229.236L500.845 230.558L503.183 228.678ZM535.557 268.939L533.219 270.819L534.349 272.225L536.121 271.886L535.557 268.939ZM609.749 186.7L583.48 258.185L589.112 260.254L615.38 188.77L609.749 186.7ZM505.999 229.713L532.267 158.228L526.635 156.159L500.367 227.643L505.999 229.713ZM585.732 256.273L534.992 265.993L536.121 271.886L586.861 262.166L585.732 256.273ZM537.894 267.059L505.521 226.798L500.845 230.558L533.219 270.819L537.894 267.059ZM529.907 160.159C560 155.532 590.36 166.688 610.297 189.699L614.832 185.77C593.544 161.201 561.127 149.289 528.995 154.228L529.907 160.159Z" fill="black" mask="url(#path-17-inside-1_201_648)"/>
<path d="M538.101 258.769L570.439 170.766L566.428 169.669C556.187 166.868 545.617 165.448 535 165.448L512.204 227.848L538.101 258.769Z" fill="black"/>
<path d="M130.983 118.95L-nan -nanL130.983 118.95C144.371 105.699 163.627 100.253 181.972 104.532L-nan -nanL181.972 104.532L194.373 148.387L173.214 170.928L143.384 162.805L130.983 118.95Z" fill="white"/>
<path d="M130.983 118.95L143.384 162.805L173.214 170.928L194.373 148.387L181.972 104.532L-nan -nanL181.972 104.532C163.627 100.253 144.371 105.699 130.983 118.95L-nan -nanL130.983 118.95Z" stroke="black" stroke-width="3"/>
<path d="M171.478 164.988L156.212 110.999L153.883 111.877C147.938 114.12 142.32 117.147 137.178 120.879L148.068 159.113L171.478 164.988Z" fill="black"/>
<path d="M384.618 47.375C384.668 45.4382 387.167 44.6973 388.265 46.2937L401.655 65.7672C402.146 66.4811 403.041 66.7978 403.872 66.5515L426.53 59.8343C428.388 59.2836 429.865 61.4317 428.685 62.969L414.303 81.7215C413.776 82.409 413.751 83.3578 414.242 84.0718L427.632 103.545C428.73 105.142 427.143 107.21 425.317 106.564L403.038 98.6801C402.221 98.391 401.311 98.6608 400.784 99.3483L386.401 118.101C385.222 119.638 382.764 118.769 382.815 116.832L383.428 93.2068C383.451 92.3406 382.913 91.5585 382.096 91.2695L359.817 83.3856C357.99 82.7393 358.058 80.1334 359.916 79.5827L382.574 72.8655C383.404 72.6192 383.982 71.8661 384.005 70.9999L384.618 47.375Z" fill="black"/>
<path d="M41.4876 284.813L61.3518 234.192L86.1366 223.377L109.296 232.465L159.564 252.191L113.172 370.415L21.9444 334.616L41.4876 284.813Z" fill="white" stroke="black" stroke-width="3"/>
<path d="M69.2676 259.19L128.845 282.569" stroke="black" stroke-width="3"/>
<path d="M63.7881 273.154L123.365 296.532" stroke="black" stroke-width="3"/>
<path d="M57.9434 288.048L117.52 311.427" stroke="black" stroke-width="3"/>
<path d="M52.4639 302.011L112.041 325.39" stroke="black" stroke-width="3"/>
<path d="M46.6191 316.906L85.7166 332.248" stroke="black" stroke-width="3"/>
<path d="M85.9416 224.912L79.3663 241.668L62.6103 235.093L85.9416 224.912Z" fill="black"/>
</svg>
