<svg width="150" height="150" viewBox="0 0 150 150" fill="none" xmlns="http://www.w3.org/2000/svg">
<circle cx="75" cy="75" r="75" fill="#EBF3FF"/>
<path fill-rule="evenodd" clip-rule="evenodd" d="M36.7832 61.2021C28.4989 61.2021 21.7832 67.9179 21.7832 76.2021V100.572C21.7832 108.857 28.4989 115.572 36.7832 115.572H38.6811L30.4863 124.57L34.2279 128L54.7488 115.572H78.4962C86.7804 115.572 93.4962 108.857 93.4962 100.572V76.2021C93.4962 67.9179 86.7804 61.2021 78.4962 61.2021H36.7832Z" fill="black"/>
<path fill-rule="evenodd" clip-rule="evenodd" d="M33.665 57C25.3808 57 18.665 63.7157 18.665 72V96.3702C18.665 104.655 25.3808 111.37 33.665 111.37H35.8647L30.5134 124.036L51.6214 111.37H75.378C83.6623 111.37 90.378 104.655 90.378 96.3702V72C90.378 63.7157 83.6623 57 75.378 57H33.665Z" fill="white"/>
<path d="M35.8647 111.37L36.5556 111.662L35.8647 110.62V111.37ZM30.5134 124.036L29.8225 123.744L30.8993 124.679L30.5134 124.036ZM51.6214 111.37V110.62L51.2355 110.727L51.6214 111.37ZM19.415 72C19.415 64.1299 25.795 57.75 33.665 57.75V56.25C24.9666 56.25 17.915 63.3015 17.915 72H19.415ZM19.415 96.3702V72H17.915V96.3702H19.415ZM33.665 110.62C25.795 110.62 19.415 104.24 19.415 96.3702H17.915C17.915 105.069 24.9666 112.12 33.665 112.12V110.62ZM35.8647 110.62H33.665V112.12H35.8647V110.62ZM31.2042 124.328L36.5556 111.662L35.1738 111.078L29.8225 123.744L31.2042 124.328ZM51.2355 110.727L30.1275 123.393L30.8993 124.679L52.0073 112.013L51.2355 110.727ZM75.378 110.62H51.6214V112.12H75.378V110.62ZM89.628 96.3702C89.628 104.24 83.2481 110.62 75.378 110.62V112.12C84.0765 112.12 91.128 105.069 91.128 96.3702H89.628ZM89.628 72V96.3702H91.128V72H89.628ZM75.378 57.75C83.2481 57.75 89.628 64.1299 89.628 72H91.128C91.128 63.3015 84.0765 56.25 75.378 56.25V57.75ZM33.665 57.75H75.378V56.25H33.665V57.75Z" fill="black"/>
<path d="M40.259 75.82C36.8045 82.3358 48.9915 93.8883 55.5168 98.8501C62.0421 93.8883 74.2291 82.3358 70.7745 75.82C66.4563 67.6752 57.2441 74.1349 55.5168 76.9434C53.7895 74.1349 44.5773 67.6752 40.259 75.82Z" fill="#EBF3FF" stroke="black" stroke-width="1.5"/>
<path fill-rule="evenodd" clip-rule="evenodd" d="M97.5266 20C93.1848 20 89.665 23.5197 89.665 27.8615V47.8366C89.665 52.1784 93.1848 55.6982 97.5266 55.6982H119.535L131.448 63.0001L129.911 55.6982H134.539C138.881 55.6982 142.401 52.1784 142.401 47.8366V27.8615C142.401 23.5197 138.881 20 134.539 20H97.5266Z" fill="black"/>
<path d="M119.535 55.6982L119.926 55.0587L119.746 54.9482H119.535V55.6982ZM131.448 63.0001L131.056 63.6395L132.541 64.5494L132.182 62.8456L131.448 63.0001ZM129.911 55.6982V54.9482H128.987L129.177 55.8527L129.911 55.6982ZM90.415 27.8615C90.415 23.9339 93.599 20.75 97.5266 20.75V19.25C92.7706 19.25 88.915 23.1055 88.915 27.8615H90.415ZM90.415 47.8366V27.8615H88.915V47.8366H90.415ZM97.5266 54.9482C93.599 54.9482 90.415 51.7642 90.415 47.8366H88.915C88.915 52.5926 92.7705 56.4482 97.5266 56.4482V54.9482ZM119.535 54.9482H97.5266V56.4482H119.535V54.9482ZM131.84 62.3606L119.926 55.0587L119.143 56.3376L131.056 63.6395L131.84 62.3606ZM129.177 55.8527L130.714 63.1546L132.182 62.8456L130.645 55.5437L129.177 55.8527ZM134.539 54.9482H129.911V56.4482H134.539V54.9482ZM141.651 47.8366C141.651 51.7642 138.467 54.9482 134.539 54.9482V56.4482C139.295 56.4482 143.151 52.5926 143.151 47.8366H141.651ZM141.651 27.8615V47.8366H143.151V27.8615H141.651ZM134.539 20.75C138.467 20.75 141.651 23.9339 141.651 27.8615H143.151C143.151 23.1055 139.295 19.25 134.539 19.25V20.75ZM97.5266 20.75H134.539V19.25H97.5266V20.75Z" fill="black"/>
<path fill-rule="evenodd" clip-rule="evenodd" d="M97.5266 20C93.1848 20 89.665 23.5197 89.665 27.8615V46.214C89.665 50.5558 93.1848 54.0755 97.5266 54.0755H117.101L129.014 61.3775L127.477 54.0755H132.917C137.259 54.0755 140.778 50.5558 140.778 46.214V27.8615C140.778 23.5197 137.259 20 132.917 20H97.5266Z" fill="#EBF3FF"/>
<path d="M117.101 54.0755L117.492 53.4361L117.312 53.3255H117.101V54.0755ZM129.014 61.3775L128.622 62.0169L130.107 62.9268L129.748 61.223L129.014 61.3775ZM127.477 54.0755V53.3255H126.553L126.743 54.23L127.477 54.0755ZM90.415 27.8615C90.415 23.9339 93.599 20.75 97.5266 20.75V19.25C92.7706 19.25 88.915 23.1055 88.915 27.8615H90.415ZM90.415 46.214V27.8615H88.915V46.214H90.415ZM97.5266 53.3255C93.599 53.3255 90.415 50.1416 90.415 46.214H88.915C88.915 50.97 92.7706 54.8255 97.5266 54.8255V53.3255ZM117.101 53.3255H97.5266V54.8255H117.101V53.3255ZM129.406 60.738L117.492 53.4361L116.709 54.715L128.622 62.0169L129.406 60.738ZM126.743 54.23L128.28 61.532L129.748 61.223L128.211 53.921L126.743 54.23ZM132.917 53.3255H127.477V54.8255H132.917V53.3255ZM140.028 46.214C140.028 50.1416 136.844 53.3255 132.917 53.3255V54.8255C137.673 54.8255 141.528 50.97 141.528 46.214H140.028ZM140.028 27.8615V46.214H141.528V27.8615H140.028ZM132.917 20.75C136.844 20.75 140.028 23.9339 140.028 27.8615H141.528C141.528 23.1055 137.673 19.25 132.917 19.25V20.75ZM97.5266 20.75H132.917V19.25H97.5266V20.75Z" fill="black"/>
<path d="M98.665 32H131.665" stroke="black" stroke-width="1.5"/>
<path d="M98.665 41H131.665" stroke="black" stroke-width="1.5"/>
<path d="M20.4395 40.4635C20.5892 40.0029 21.2409 40.0029 21.3906 40.4635L22.206 42.9732C22.2729 43.1792 22.4649 43.3186 22.6815 43.3186H25.3203C25.8047 43.3186 26.0061 43.9385 25.6142 44.2232L23.4794 45.7742C23.3041 45.9015 23.2308 46.1272 23.2977 46.3332L24.1132 48.8428C24.2628 49.3035 23.7356 49.6865 23.3437 49.4018L21.2089 47.8508C21.0337 47.7235 20.7964 47.7235 20.6211 47.8508L18.4863 49.4018C18.0945 49.6865 17.5672 49.3035 17.7169 48.8428L18.5323 46.3332C18.5993 46.1272 18.5259 45.9015 18.3507 45.7742L16.2159 44.2232C15.824 43.9385 16.0254 43.3186 16.5098 43.3186H19.1486C19.3652 43.3186 19.5571 43.1792 19.6241 42.9732L20.4395 40.4635Z" fill="black" stroke="black" stroke-width="0.5"/>
<path d="M34.6055 40.4635C34.7552 40.0029 35.4069 40.0029 35.5566 40.4635L36.372 42.9732C36.4389 43.1792 36.6309 43.3186 36.8475 43.3186H39.4863C39.9707 43.3186 40.1721 43.9385 39.7802 44.2232L37.6454 45.7742C37.4701 45.9015 37.3968 46.1272 37.4638 46.3332L38.2792 48.8428C38.4289 49.3035 37.9016 49.6865 37.5098 49.4018L35.3749 47.8508C35.1997 47.7235 34.9624 47.7235 34.7872 47.8508L32.6523 49.4018C32.2605 49.6865 31.7332 49.3035 31.8829 48.8428L32.6984 46.3332C32.7653 46.1272 32.692 45.9015 32.5167 45.7742L30.3819 44.2232C29.99 43.9385 30.1914 43.3186 30.6758 43.3186H33.3146C33.5312 43.3186 33.7232 43.1792 33.7901 42.9732L34.6055 40.4635Z" fill="black" stroke="black" stroke-width="0.5"/>
<path d="M48.3593 40.3631C48.5147 39.9148 49.1487 39.9148 49.3041 40.3631L50.2119 42.9824C50.2817 43.1837 50.4713 43.3186 50.6844 43.3186H53.5498C54.042 43.3186 54.2381 43.9548 53.8313 44.2319L51.5698 45.7723C51.3831 45.8994 51.3049 46.1359 51.3788 46.3493L52.2555 48.8789C52.4132 49.3339 51.8997 49.727 51.5016 49.4559L49.1132 47.829C48.9434 47.7133 48.7201 47.7133 48.5502 47.829L46.1618 49.4559C45.7637 49.727 45.2502 49.3339 45.4079 48.8789L46.2846 46.3493C46.3585 46.1359 46.2803 45.8994 46.0936 45.7723L43.8321 44.2319C43.4254 43.9548 43.6214 43.3186 44.1136 43.3186H46.9791C47.1921 43.3186 47.3817 43.1837 47.4515 42.9824L48.3593 40.3631Z" fill="black" stroke="black" stroke-width="0.5"/>
<path d="M62.1055 40.4635C62.2552 40.0029 62.9069 40.0029 63.0566 40.4635L63.872 42.9732C63.9389 43.1792 64.1309 43.3186 64.3475 43.3186H66.9863C67.4707 43.3186 67.6721 43.9385 67.2802 44.2232L65.1454 45.7742C64.9701 45.9015 64.8968 46.1272 64.9638 46.3332L65.7792 48.8428C65.9289 49.3035 65.4016 49.6865 65.0098 49.4018L62.8749 47.8508C62.6997 47.7235 62.4624 47.7235 62.2872 47.8508L60.1523 49.4018C59.7605 49.6865 59.2332 49.3035 59.3829 48.8428L60.1984 46.3332C60.2653 46.1272 60.192 45.9015 60.0167 45.7742L57.8819 44.2232C57.49 43.9385 57.6914 43.3186 58.1758 43.3186H60.8146C61.0312 43.3186 61.2232 43.1792 61.2901 42.9732L62.1055 40.4635Z" fill="black" stroke="black" stroke-width="0.5"/>
<path d="M75.4395 40.4635C75.5892 40.0029 76.2409 40.0029 76.3906 40.4635L77.206 42.9732C77.2729 43.1792 77.4649 43.3186 77.6815 43.3186H80.3203C80.8047 43.3186 81.0061 43.9385 80.6142 44.2232L78.4794 45.7742C78.3041 45.9015 78.2308 46.1272 78.2977 46.3332L79.1132 48.8428C79.2628 49.3035 78.7356 49.6865 78.3437 49.4018L76.2089 47.8508C76.0337 47.7235 75.7964 47.7235 75.6211 47.8508L73.4863 49.4018C73.0945 49.6865 72.5672 49.3035 72.7169 48.8428L73.5323 46.3332C73.5993 46.1272 73.5259 45.9015 73.3507 45.7742L71.2159 44.2232C70.824 43.9385 71.0254 43.3186 71.5098 43.3186H74.1486C74.3652 43.3186 74.5571 43.1792 74.6241 42.9732L75.4395 40.4635Z" fill="black" stroke="black" stroke-width="0.5"/>
</svg>
