<svg width="955" height="450" viewBox="0 0 955 450" fill="none" xmlns="http://www.w3.org/2000/svg">
<path d="M924.863 60.8562C761.13 16.0922 728.202 151.299 707.863 233.857C687.524 316.415 601.969 193.683 569.363 173.856C549.225 163.934 435.002 363 32.5019 334.5" stroke="black" stroke-width="1.5"/>
<circle cx="26" cy="334" r="7" stroke="black" stroke-width="1.5"/>
<rect x="210.641" y="254.66" width="152.646" height="152.646" rx="10" transform="rotate(-12.262 210.641 254.66)" fill="#F6F6F6" stroke="black" stroke-width="1.5"/>
<rect x="512.148" y="90.8574" width="152.646" height="152.646" rx="10" transform="rotate(22.0424 512.148 90.8574)" fill="#EBF3FF" stroke="black" stroke-width="1.5"/>
<path d="M386.77 268.99L287.045 245.957C278.861 305.5 246.324 363.048 231.079 384.379C256.15 392.126 311.835 409.196 334 415.499C367.485 357.23 383.132 293.548 386.77 268.99Z" fill="white" stroke="black" stroke-width="1.5"/>
<path d="M335.672 353.612L315.833 389.851L305.178 386.801L298.074 384.767L288.129 381.921L281.025 379.888L271.435 377.143L282.084 358.842L291.32 361.469L281.025 379.888L288.129 381.921L304.656 354.213L313.891 356.84L298.074 384.767L305.178 386.801L324.998 350.913L335.672 353.612Z" fill="black"/>
<path d="M278.567 342.812C275.171 353.018 266.004 368.122 261.845 374.398L271.435 377.143M322.937 391.884L315.833 389.851M315.833 389.851L335.672 353.612L324.998 350.913L305.178 386.801M315.833 389.851L305.178 386.801M305.178 386.801L298.074 384.767M298.074 384.767L313.891 356.84L304.656 354.213L288.129 381.921M298.074 384.767L288.129 381.921M288.129 381.921L281.025 379.888M281.025 379.888L291.32 361.469L282.084 358.842L271.435 377.143M281.025 379.888L271.435 377.143" stroke="black" stroke-width="1.5"/>
<path d="M293.652 272.232L364.843 289.506" stroke="black" stroke-width="1.5"/>
<path d="M288.254 293.578L358.043 310.061" stroke="black" stroke-width="1.5"/>
<path d="M282.926 313.486L351.96 330.651" stroke="black" stroke-width="1.5"/>
<path d="M533.516 238.313L507.696 189.741C507.696 189.741 523.427 163.39 557.874 149.572C591.426 136.114 589.267 156.984 650.707 123.892L672.181 177.367C616.172 203.015 618.513 190.498 586.427 202.33C560.758 211.796 540.458 230.263 533.516 238.313Z" fill="white" stroke="black" stroke-width="1.5"/>
<path d="M541.106 215.268L515.286 166.696C515.286 166.696 531.017 140.345 565.463 126.527C599.016 113.069 596.857 133.939 658.297 100.847L679.77 154.322C623.762 179.97 626.103 167.453 594.017 179.285C568.348 188.751 548.047 207.218 541.106 215.268Z" fill="white" stroke="black" stroke-width="1.5"/>
<ellipse cx="594.327" cy="148.616" rx="20.5107" ry="12.6971" transform="rotate(-21.8789 594.327 148.616)" fill="black" stroke="black" stroke-width="1.5"/>
<path d="M639.074 110.65C642.29 118.659 652.202 122.219 661.212 118.601C662.458 118.1 663.621 117.489 664.693 116.785" stroke="black" stroke-width="1.5"/>
<path d="M527.285 152.028C529.243 153.555 530.806 155.553 531.768 157.95C534.936 165.838 530.428 175.1 521.684 178.835" stroke="black" stroke-width="1.5"/>
<path d="M532.491 199.061C534.487 196.059 537.493 193.543 541.247 192.035C549.041 188.906 557.509 191.147 561.735 196.992" stroke="black" stroke-width="1.5"/>
<path d="M673.721 139.256C672.46 139.49 671.197 139.853 669.951 140.353C660.941 143.971 656.244 153.397 659.46 161.406C659.647 161.872 659.857 162.323 660.088 162.758" stroke="black" stroke-width="1.5"/>
</svg>
