<svg width="151" height="150" viewBox="0 0 151 150" fill="none" xmlns="http://www.w3.org/2000/svg">
<circle cx="75.668" cy="75" r="75" fill="#EBF3FF"/>
<rect x="20.3311" y="45.8911" width="99.1469" height="61.8247" rx="8" transform="rotate(-4.89874 20.3311 45.8911)" fill="black"/>
<rect x="15" y="41.8911" width="99.1469" height="61.8247" rx="8" transform="rotate(-4.89874 15 41.8911)" fill="white" stroke="black" stroke-width="1.5"/>
<path d="M71.9998 51.8762L105.582 49.2399M72.6874 61.1361L106.27 58.4998" stroke="black" stroke-width="1.5"/>
<path d="M33.5347 70.5798C31.4346 76.2721 29.8972 77.8308 30.2949 82.4202L67.8375 79.1667C67.8215 75.7002 66.4189 72.6428 63.3227 69.7322C60.2265 66.8216 61.7799 61.7742 58.4936 53.3892C55.2074 45.0043 40.2468 46.3008 36.8419 52.9537C33.4369 59.6066 36.068 63.7135 33.5347 70.5798Z" fill="black"/>
<path d="M43.4725 54.5483C42.5139 57.0157 39.599 59.454 38.4068 60.3521L38.8255 65.1838C39.003 67.232 39.829 69.1684 41.1795 70.7022L42.0247 71.6622L42.3836 75.8036L53.4379 74.8456L53.079 70.7042L53.751 69.7221C54.9977 67.9 55.5753 65.6895 55.3834 63.475L54.9882 58.9151C47.4591 58.6139 44.1739 55.8784 43.4725 54.5483Z" fill="white" stroke="black" stroke-width="1.47801"/>
<path fill-rule="evenodd" clip-rule="evenodd" d="M75.2181 98.7812L28.2504 102.807C27.0835 102.907 25.9536 102.751 24.9162 102.386L24.2572 94.7827C23.7445 88.8662 27.3799 83.3777 33.0276 81.5418L42.9027 78.3316L42.6525 75.4444L53.6238 74.4936L53.874 77.3808L63.5863 78.8285C69.4686 79.7053 73.9808 84.5039 74.4942 90.429L75.2181 98.7812Z" fill="#EBF3FF"/>
<path d="M75.2181 98.7812L75.2821 99.5285L76.0301 99.4644L75.9653 98.7165L75.2181 98.7812ZM28.2504 102.807L28.3145 103.554L28.2504 102.807ZM24.9162 102.386L24.169 102.451L24.2107 102.933L24.6673 103.094L24.9162 102.386ZM24.2572 94.7827L25.0044 94.7179L24.2572 94.7827ZM33.0276 81.5418L33.2595 82.255L33.0276 81.5418ZM42.9027 78.3316L43.1346 79.0448L43.7014 78.8606L43.6499 78.2668L42.9027 78.3316ZM42.6525 75.4444L42.5878 74.6972L41.8406 74.7619L41.9053 75.5091L42.6525 75.4444ZM53.6238 74.4936L54.371 74.4288L54.3063 73.6816L53.5591 73.7464L53.6238 74.4936ZM53.874 77.3808L53.1268 77.4455L53.1779 78.0353L53.7635 78.1226L53.874 77.3808ZM63.5863 78.8285L63.4757 79.5703L63.5863 78.8285ZM74.4942 90.429L73.747 90.4937L74.4942 90.429ZM75.154 98.034L28.1864 102.059L28.3145 103.554L75.2821 99.5285L75.154 98.034ZM28.1864 102.059C27.1275 102.15 26.1042 102.009 25.1651 101.679L24.6673 103.094C25.8031 103.493 27.0395 103.663 28.3145 103.554L28.1864 102.059ZM23.51 94.8474L24.169 102.451L25.6634 102.321L25.0044 94.7179L23.51 94.8474ZM32.7958 80.8285C26.8162 82.7724 22.9672 88.5833 23.51 94.8474L25.0044 94.7179C24.5218 89.1491 27.9436 83.9831 33.2595 82.255L32.7958 80.8285ZM42.6709 77.6183L32.7958 80.8285L33.2595 82.255L43.1346 79.0448L42.6709 77.6183ZM41.9053 75.5091L42.1555 78.3963L43.6499 78.2668L43.3997 75.3796L41.9053 75.5091ZM53.5591 73.7464L42.5878 74.6972L42.7173 76.1916L53.6886 75.2408L53.5591 73.7464ZM54.6212 77.316L54.371 74.4288L52.8766 74.5583L53.1268 77.4455L54.6212 77.316ZM63.6969 78.0867L53.9846 76.639L53.7635 78.1226L63.4757 79.5703L63.6969 78.0867ZM75.2414 90.3642C74.698 84.0933 69.9225 79.0146 63.6969 78.0867L63.4757 79.5703C69.0147 80.3959 73.2635 84.9144 73.747 90.4937L75.2414 90.3642ZM75.9653 98.7165L75.2414 90.3642L73.747 90.4937L74.4709 98.846L75.9653 98.7165Z" fill="black"/>
<path d="M87.9108 72.64C88.4502 70.7012 90.0276 69.2263 91.9981 68.8182C107.252 65.6585 123.096 70.0075 134.599 80.5117L134.835 80.7273C136.353 82.113 136.962 84.2344 136.411 86.2143L126.327 122.456C125.833 124.235 124.444 125.625 122.666 126.121L100.259 132.379C98.3716 132.906 96.3474 132.343 95.0034 130.917L79.0487 113.986C77.7827 112.642 77.3115 110.734 77.8063 108.956L87.9108 72.64Z" fill="white" stroke="black" stroke-width="1.45432"/>
<path d="M130.236 84.2036C126.093 79.0173 120.104 76.0349 113.211 74.1172L98.1082 128.398L118.898 122.97C120.276 122.61 121.359 121.545 121.741 120.172L130.838 87.4774C131.152 86.3462 130.969 85.121 130.236 84.2036Z" fill="black"/>
<path d="M92.523 91.1753L100.118 106.878L123.534 93.2864" stroke="black" stroke-width="8.7259"/>
<path fill-rule="evenodd" clip-rule="evenodd" d="M103.124 110.371L125.806 97.2325L121.432 89.6819L106.469 98.3497L103.124 110.371Z" fill="white"/>
</svg>
