<svg width="150" height="150" viewBox="0 0 150 150" fill="none" xmlns="http://www.w3.org/2000/svg">
<circle cx="75" cy="75" r="75" fill="#EBF3FF"/>
<path d="M29.8781 34.5242C33.5799 34.5242 38.0193 33.4658 41.289 28.8249C44.5587 24.1841 44.6326 19.7281 44.4401 16.4004C44.6326 19.7281 44.182 25.3188 47.965 29.5517C51.7479 33.7846 55.4485 34.6835 58.2035 34.5242C55.9995 34.6516 51.7992 34.672 48.4782 38.4255C45.1572 42.1789 44.2804 48.6847 44.2572 51.4683C44.1093 45.7267 41.9931 34.5242 29.8781 34.5242Z" stroke="black" stroke-width="1.5"/>
<path d="M96.8234 98.8105C94.3893 98.8105 91.4701 98.1145 89.3202 95.0629C87.1702 92.0113 87.1216 89.0812 87.2481 86.8931C87.1216 89.0812 87.4178 92.7574 84.9304 95.5408C82.4429 98.3242 80.0095 98.9152 78.198 98.8105C79.6472 98.8943 82.4091 98.9077 84.5929 101.376C86.7766 103.844 87.3531 108.122 87.3684 109.952C87.4656 106.177 88.8572 98.8105 96.8234 98.8105Z" stroke="black" stroke-width="1.5"/>
<path d="M55.2637 90.8757C71.4986 87.6288 68.6575 80.3231 68.6575 67.7411C68.6575 55.159 60.54 19.4423 97.4744 34.0537" stroke="black" stroke-width="1.5"/>
<rect x="5.36035" y="84.564" width="54.1172" height="54.1172" rx="10" transform="rotate(-15.14 5.36035 84.564)" fill="black"/>
<rect x="-0.0654297" y="81.4487" width="54.1172" height="54.1172" rx="10" transform="rotate(-15.14 -0.0654297 81.4487)" fill="white" stroke="black" stroke-width="1.5"/>
<path d="M15.7626 111.77C12.231 118.598 16.6843 124.183 19.3524 126.122L54.5406 105.381C50.4802 97.9617 46.0301 99.6555 43.0146 96.8558C39.9992 94.0561 41.081 87.9017 40.222 86.3322C39.3631 84.7627 36.6408 78.0943 28.2737 82.1171C19.9067 86.1399 21.5628 91.5377 21.6764 98.5212C21.79 105.505 20.1772 103.235 15.7626 111.77Z" fill="black" stroke="black" stroke-width="1.5"/>
<path fill-rule="evenodd" clip-rule="evenodd" d="M63.5992 115.464C62.6188 118.627 60.0889 121.236 56.6551 122.165L23.7221 131.076C22.2684 131.469 20.8028 131.521 19.4106 131.28L19.2778 126.406C19.134 121.128 20.3302 115.814 24.0589 112.327C26.5526 109.995 30.0387 107.431 34.6491 105.518C39.9107 103.334 45.5952 102.684 49.6138 102.538C53.0154 102.414 56.1338 104.332 58.1044 107.27L63.5992 115.464Z" fill="#EBF3FF"/>
<path d="M63.5992 115.464L64.3156 115.686L64.4217 115.343L64.2221 115.046L63.5992 115.464ZM19.4106 131.28L18.6609 131.3L18.6776 131.914L19.2827 132.019L19.4106 131.28ZM19.2778 126.406L18.5281 126.426L19.2778 126.406ZM24.0589 112.327L23.5466 111.779L24.0589 112.327ZM34.6491 105.518L34.3616 104.825L34.6491 105.518ZM49.6138 102.538L49.5866 101.788L49.5866 101.788L49.6138 102.538ZM58.1044 107.27L58.7273 106.852L58.7273 106.852L58.1044 107.27ZM62.8828 115.242C61.9753 118.17 59.6347 120.582 56.4592 121.441L56.851 122.889C60.5431 121.89 63.2624 119.084 64.3156 115.686L62.8828 115.242ZM56.4592 121.441L23.5262 130.352L23.918 131.8L56.851 122.889L56.4592 121.441ZM23.5262 130.352C22.1802 130.716 20.8252 130.764 19.5386 130.541L19.2827 132.019C20.7804 132.278 22.3566 132.222 23.918 131.8L23.5262 130.352ZM18.5281 126.426L18.6609 131.3L20.1604 131.259L20.0275 126.385L18.5281 126.426ZM23.5466 111.779C19.592 115.478 18.3817 121.052 18.5281 126.426L20.0275 126.385C19.8864 121.205 21.0684 116.151 24.5712 112.875L23.5466 111.779ZM34.3616 104.825C29.6548 106.778 26.0945 109.397 23.5466 111.779L24.5712 112.875C27.0107 110.594 30.4226 108.084 34.9366 106.21L34.3616 104.825ZM49.5866 101.788C45.5246 101.936 39.7399 102.593 34.3616 104.825L34.9366 106.21C40.0816 104.075 45.6657 103.432 49.6411 103.287L49.5866 101.788ZM58.7273 106.852C56.6442 103.746 53.3006 101.653 49.5866 101.788L49.6411 103.287C52.7302 103.175 55.6234 104.917 57.4815 107.688L58.7273 106.852ZM64.2221 115.046L58.7273 106.852L57.4815 107.688L62.9763 115.881L64.2221 115.046Z" fill="black"/>
<path d="M40.2216 86.3324C39.7519 84.6611 38.6904 83.6475 38.2184 83.3496C38.1538 83.5703 37.987 84.9595 36.2883 86.26C35.5027 86.8614 33.5908 88.107 33.7499 90.4304C33.8798 92.329 31.7659 91.9494 29.8816 92.2159C29.1308 92.3221 28.4987 92.7966 28.2769 93.9818C27.9355 95.8062 29.8693 96.983 31.0281 97.5502C31.4552 97.7593 31.8071 98.0948 32.009 98.5254L32.8029 100.219C34.0417 104.177 31.242 107.192 29.8422 108.7C30.929 109.218 33.9355 109.946 37.2673 108.716C40.599 107.485 40.9545 106.08 40.7157 105.53L37.9828 100.537C43.0951 99.0366 42.1212 95.6759 41.9991 95.0011C41.816 93.9889 41.5036 93.4181 42.2816 92.8069C43.0596 92.1958 43.6169 91.52 43.3045 90.9492C42.9922 90.3785 40.8086 88.4215 40.2216 86.3324Z" fill="white" stroke="black" stroke-width="1.5"/>
<rect x="100.19" y="17.0684" width="54.1172" height="54.1172" rx="10" transform="rotate(19.16 100.19 17.0684)" fill="black"/>
<rect x="97.7363" y="12" width="54.1172" height="54.1172" rx="10" transform="rotate(19.16 97.7363 12)" fill="#EBF3FF" stroke="black" stroke-width="1.5"/>
<path fill-rule="evenodd" clip-rule="evenodd" d="M128.628 77.4438C126.473 78.3028 124.011 78.42 121.648 77.5988L89.4204 66.4013C89.1754 66.3162 88.9357 66.2224 88.7017 66.1206L98.8863 56.8952C101.811 54.2462 105.191 52.151 108.862 50.7116L114.493 48.5037L120.558 50.2589L125.759 57.1362C129.755 62.4198 131.013 69.2899 129.151 75.6564L128.628 77.4438Z" fill="#F6F6F6"/>
<path d="M128.628 77.4438L128.906 78.1405C129.12 78.0551 129.284 77.8758 129.348 77.6544L128.628 77.4438ZM88.7017 66.1206L88.1982 65.5647C88.0094 65.7357 87.9204 65.9908 87.9616 66.2421C88.0029 66.4934 88.1689 66.7066 88.4024 66.8083L88.7017 66.1206ZM98.8863 56.8952L99.3898 57.4511L98.8863 56.8952ZM108.862 50.7116L108.588 50.0134L108.588 50.0134L108.862 50.7116ZM114.493 48.5037L114.702 47.7833C114.543 47.7373 114.373 47.7451 114.22 47.8055L114.493 48.5037ZM120.558 50.2589L121.156 49.8065C121.058 49.6775 120.922 49.5835 120.766 49.5385L120.558 50.2589ZM125.759 57.1362L126.357 56.6838L125.759 57.1362ZM129.151 75.6564L129.871 75.8669L129.151 75.6564ZM128.351 76.7471C126.357 77.5419 124.081 77.6501 121.894 76.8904L121.402 78.3073C123.942 79.1899 126.59 79.0637 128.906 78.1405L128.351 76.7471ZM121.894 76.8904L89.6666 65.6929L89.1743 67.1098L121.402 78.3073L121.894 76.8904ZM89.6666 65.6929C89.4395 65.614 89.2176 65.5272 89.001 65.4329L88.4024 66.8083C88.6538 66.9177 88.9112 67.0184 89.1743 67.1098L89.6666 65.6929ZM98.3828 56.3394L88.1982 65.5647L89.2052 66.6764L99.3898 57.4511L98.3828 56.3394ZM108.588 50.0134C104.833 51.4859 101.375 53.6294 98.3828 56.3394L99.3898 57.4511C102.247 54.863 105.549 52.8161 109.136 51.4099L108.588 50.0134ZM114.22 47.8055L108.588 50.0134L109.136 51.4099L114.767 49.202L114.22 47.8055ZM120.766 49.5385L114.702 47.7833L114.285 49.2242L120.349 50.9793L120.766 49.5385ZM126.357 56.6838L121.156 49.8065L119.96 50.7113L125.161 57.5886L126.357 56.6838ZM129.871 75.8669C131.8 69.273 130.496 62.157 126.357 56.6838L125.161 57.5886C129.013 62.6827 130.227 69.3068 128.431 75.4459L129.871 75.8669ZM129.348 77.6544L129.871 75.8669L128.431 75.4459L127.909 77.2333L129.348 77.6544Z" fill="black"/>
<path d="M124.394 44.8729C123.499 45.4033 122.508 47.1615 122.276 47.4897C118.685 45.9616 119.611 40.2312 120.372 38.0415C118.424 34.4433 115.103 27.3538 116.635 26.6243C118.551 25.7124 121.431 25.789 125.231 27.6353C129.032 29.4815 132.238 32.5239 130.871 37.4825C129.503 42.4412 125.513 44.2099 124.394 44.8729Z" fill="black" stroke="black" stroke-width="1.5" stroke-linejoin="round"/>
<path d="M110.124 49.9727L112.145 44.1578C111.046 43.7762 108.796 43.1703 108.189 41.3743C107.582 39.5782 109.585 36.8465 109.538 36.4776C109.526 36.3787 107.772 34.9832 108.359 34.3064C108.601 34.0267 109.417 33.4196 110.342 32.7626C111.96 31.6137 113.079 29.8958 114.385 28.4028C115.249 27.4152 116.176 26.8122 116.63 26.694C116.869 28.5382 119.515 31.0428 123.587 32.9862L121.335 36.4309C123.443 35.9304 124.958 36.6327 124.405 38.7303C123.936 40.5073 120.776 40.1114 120.372 41.7326C119.834 43.8977 121.663 46.1147 122.459 46.8608L120.984 51.1041C120.245 51.3757 118.664 52.9397 115.477 53.2912C111.722 53.7054 108.116 52.551 107.077 51.6616L110.124 49.9727Z" fill="white" stroke="black" stroke-width="1.5" stroke-linejoin="round"/>
</svg>
