<svg width="126" height="102" viewBox="0 0 126 102" fill="none" xmlns="http://www.w3.org/2000/svg">
<path fill-rule="evenodd" clip-rule="evenodd" d="M15.04 1C7.28592 1 1 7.28594 1 15.04V65.8C1 73.554 7.28592 79.84 15.04 79.84H31.2838L23.14 99.28L55.1898 79.84H110.62C118.374 79.84 124.66 73.554 124.66 65.8V15.04C124.66 7.28592 118.374 1 110.62 1H15.04Z" fill="white"/>
<path d="M31.2838 79.84L31.9756 80.1298L32.4112 79.09H31.2838V79.84ZM23.14 99.28L22.4483 98.9902L21.5572 101.117L23.529 99.9213L23.14 99.28ZM55.1898 79.84V79.09H54.9801L54.8009 79.1987L55.1898 79.84ZM1.75 15.04C1.75 7.70015 7.70013 1.75 15.04 1.75V0.25C6.87171 0.25 0.25 6.87172 0.25 15.04H1.75ZM1.75 65.8V15.04H0.25V65.8H1.75ZM15.04 79.09C7.70013 79.09 1.75 73.1398 1.75 65.8H0.25C0.25 73.9683 6.87171 80.59 15.04 80.59V79.09ZM31.2838 79.09H15.04V80.59H31.2838V79.09ZM23.8318 99.5698L31.9756 80.1298L30.5921 79.5502L22.4483 98.9902L23.8318 99.5698ZM54.8009 79.1987L22.7511 98.6387L23.529 99.9213L55.5788 80.4812L54.8009 79.1987ZM110.62 79.09H55.1898V80.59H110.62V79.09ZM123.91 65.8C123.91 73.1398 117.96 79.09 110.62 79.09V80.59C118.788 80.59 125.41 73.9682 125.41 65.8H123.91ZM123.91 15.04V65.8H125.41V15.04H123.91ZM110.62 1.75C117.96 1.75 123.91 7.70013 123.91 15.04H125.41C125.41 6.87171 118.788 0.25 110.62 0.25V1.75ZM15.04 1.75H110.62V0.25H15.04V1.75Z" fill="black"/>
<path d="M35.2562 43.8982C24.9888 51.4751 27.5236 63.0587 30.0745 67.9034L97.6887 62.829C97.0845 48.8021 89.2153 48.06 86.7784 41.679C84.3416 35.2979 90.467 26.9266 90.3392 23.9593C90.2114 20.9921 91.0489 9.065 75.6383 8.91803C60.2277 8.77106 58.7345 18.0239 53.781 28.5068C48.8276 38.9896 48.0906 34.4271 35.2562 43.8982Z" fill="black"/>
<path fill-rule="evenodd" clip-rule="evenodd" d="M103.694 79.8401L100.073 66.4944C98.8659 62.0456 96.0854 58.1591 91.9221 56.1802C86.3758 53.5439 77.6333 50.2289 67.658 49.5292C59.7329 48.9733 52.9162 49.9987 47.5913 51.4279C38.9757 53.7403 33.0987 60.9684 29.5428 69.1496L25.8948 77.5423L24.9367 79.8401H31.2834L23.1396 99.2801L55.1894 79.8401H103.694Z" fill="#EBF3FF"/>
<path d="M103.694 79.8401V80.5901H104.674L104.418 79.6438L103.694 79.8401ZM100.073 66.4944L100.797 66.298L100.073 66.4944ZM91.9221 56.1802L91.6001 56.8576L91.9221 56.1802ZM67.658 49.5292L67.6055 50.2773L67.658 49.5292ZM47.5913 51.4279L47.3969 50.7035L47.5913 51.4279ZM29.5428 69.1496L28.8549 68.8506L29.5428 69.1496ZM25.8948 77.5423L25.2069 77.2433L25.2026 77.2537L25.8948 77.5423ZM24.9367 79.8401L24.2445 79.5515L23.8114 80.5901H24.9367V79.8401ZM31.2834 79.8401L31.9752 80.1299L32.4108 79.0901H31.2834V79.8401ZM23.1396 99.2801L22.4479 98.9903L21.5568 101.117L23.5286 99.9214L23.1396 99.2801ZM55.1894 79.8401V79.0901H54.9797L54.8004 79.1989L55.1894 79.8401ZM104.418 79.6438L100.797 66.298L99.3491 66.6908L102.97 80.0365L104.418 79.6438ZM100.797 66.298C99.5444 61.6822 96.6431 57.5938 92.2441 55.5029L91.6001 56.8576C95.5277 58.7245 98.1873 62.4089 99.3491 66.6908L100.797 66.298ZM92.2441 55.5029C86.6497 52.8437 77.8126 49.4896 67.7105 48.781L67.6055 50.2773C77.454 50.9681 86.1018 54.2441 91.6001 56.8576L92.2441 55.5029ZM67.7105 48.781C59.6904 48.2185 52.7898 49.2561 47.3969 50.7035L47.7857 52.1522C53.0427 50.7413 59.7754 49.7281 67.6055 50.2773L67.7105 48.781ZM47.3969 50.7035C38.469 53.0998 32.456 60.5658 28.8549 68.8506L30.2306 69.4486C33.7415 61.371 39.4823 54.3809 47.7857 52.1522L47.3969 50.7035ZM28.8549 68.8506L25.207 77.2434L26.5827 77.8413L30.2306 69.4486L28.8549 68.8506ZM25.2026 77.2537L24.2445 79.5515L25.6289 80.1288L26.5871 77.831L25.2026 77.2537ZM24.9367 80.5901H31.2834V79.0901H24.9367V80.5901ZM30.5917 79.5504L22.4479 98.9903L23.8314 99.5699L31.9752 80.1299L30.5917 79.5504ZM23.5286 99.9214L55.5783 80.4814L54.8004 79.1989L22.7507 98.6389L23.5286 99.9214ZM55.1894 80.5901H103.694V79.0901H55.1894V80.5901Z" fill="black"/>
<path d="M90.3389 23.9594C90.8655 21.1261 90.0282 18.838 89.5438 18.0481C89.2857 18.3295 88.0183 20.2758 84.5347 20.9664C82.9237 21.2857 79.163 21.7382 77.6955 25.3147C77.3311 26.2029 76.9279 26.8376 76.5261 27.2832C75.4187 28.5112 73.8303 27.4043 72.5798 26.3226C70.9585 24.9201 68.8372 24.0554 66.9404 26.5887C64.8225 29.4174 67.7862 33.1731 68.9367 34.5652C69.1003 34.7631 69.1861 35.0106 69.1811 35.2674L69.105 39.1972C68.0467 45.9991 61.6657 48.4359 58.4752 49.6544C59.7138 51.2225 63.657 54.5119 69.5208 55.1241C75.3845 55.7363 76.9451 53.9035 76.9924 52.9105L76.5858 43.4693C85.2991 44.9857 86.3139 39.2667 86.6271 38.1723C87.0969 36.5305 87.0504 35.4515 88.6573 35.1121C90.2642 34.7726 91.5897 34.175 91.5432 33.096C91.4967 32.017 89.6807 27.501 90.3389 23.9594Z" fill="white" stroke="black" stroke-width="1.5"/>
</svg>
