<svg width="124" height="113" viewBox="0 0 124 113" fill="none" xmlns="http://www.w3.org/2000/svg">
<path d="M43.6328 86.6767L79.9662 9.60596" stroke="black" stroke-width="1.5"/>
<path fill-rule="evenodd" clip-rule="evenodd" d="M62.7301 112C74.1362 112 83.3827 109.817 83.3827 107.124C83.3827 107.028 83.3709 106.932 83.3476 106.837H83.3827L83.271 106.614C83.2511 106.568 83.2286 106.523 83.2035 106.479L81.3748 102.821H72.4571C69.5586 102.455 66.247 102.248 62.7301 102.248C59.2132 102.248 55.9289 102.455 53.0681 102.821H44.0853L42.3643 106.837H42.3984C42.3758 106.932 42.3643 107.028 42.3643 107.124C42.3643 109.817 51.324 112 62.7301 112Z" fill="black"/>
<path d="M83.3476 106.837V106.087C83.1171 106.087 82.8995 106.193 82.7573 106.374C82.6152 106.556 82.5643 106.792 82.6192 107.016L83.3476 106.837ZM83.3827 106.837V107.587C83.6426 107.587 83.884 107.452 84.0207 107.231C84.1573 107.01 84.1698 106.734 84.0535 106.502L83.3827 106.837ZM83.271 106.614L82.5846 106.916C82.5895 106.927 82.5947 106.938 82.6002 106.949L83.271 106.614ZM83.2035 106.479L82.5327 106.814C82.5379 106.825 82.5434 106.835 82.5491 106.845L83.2035 106.479ZM81.3748 102.821L82.0456 102.486C81.9186 102.232 81.6589 102.071 81.3748 102.071V102.821ZM72.4571 102.821L72.3631 103.565C72.3943 103.569 72.4257 103.571 72.4571 103.571V102.821ZM53.0681 102.821V103.571C53.0999 103.571 53.1317 103.569 53.1633 103.565L53.0681 102.821ZM44.0853 102.821V102.071C43.7853 102.071 43.5141 102.25 43.396 102.526L44.0853 102.821ZM42.3643 106.837L41.6749 106.542C41.5756 106.773 41.5993 107.039 41.7381 107.25C41.8769 107.46 42.1122 107.587 42.3643 107.587V106.837ZM42.3984 106.837L43.1279 107.011C43.1811 106.788 43.1292 106.552 42.987 106.372C42.8447 106.192 42.6279 106.087 42.3984 106.087V106.837ZM82.6327 107.124C82.6327 107.347 82.4153 107.797 81.3942 108.367C80.4362 108.902 79.0003 109.408 77.1614 109.842C73.4954 110.708 68.3928 111.25 62.7301 111.25V112.75C68.4735 112.75 73.6972 112.201 77.5061 111.302C79.4045 110.854 80.9931 110.309 82.1253 109.677C83.1943 109.08 84.1327 108.247 84.1327 107.124H82.6327ZM82.6192 107.016C82.6286 107.054 82.6327 107.09 82.6327 107.124H84.1327C84.1327 106.966 84.1132 106.81 84.0759 106.658L82.6192 107.016ZM83.3476 107.587H83.3827V106.087H83.3476V107.587ZM84.0535 106.502L83.9418 106.278L82.6002 106.949L82.7119 107.172L84.0535 106.502ZM82.5491 106.845C82.5631 106.87 82.5748 106.894 82.5846 106.916L83.9574 106.311C83.9274 106.243 83.8942 106.177 83.858 106.112L82.5491 106.845ZM83.8744 106.143L82.0456 102.486L80.704 103.157L82.5327 106.814L83.8744 106.143ZM81.3748 102.071H72.4571V103.571H81.3748V102.071ZM62.7301 102.998C66.2186 102.998 69.4987 103.204 72.3631 103.565L72.5511 102.077C69.6185 101.707 66.2754 101.498 62.7301 101.498V102.998ZM53.1633 103.565C55.9892 103.204 59.2415 102.998 62.7301 102.998V101.498C59.1848 101.498 55.8685 101.707 52.9729 102.077L53.1633 103.565ZM53.0681 102.071H44.0853V103.571H53.0681V102.071ZM43.396 102.526L41.6749 106.542L43.0536 107.132L44.7747 103.117L43.396 102.526ZM42.3643 107.587H42.3984V106.087H42.3643V107.587ZM43.1143 107.124C43.1143 107.088 43.1185 107.05 43.1279 107.011L41.6688 106.663C41.633 106.814 41.6143 106.967 41.6143 107.124H43.1143ZM62.7301 111.25C57.0672 111.25 52.0378 110.708 48.4454 109.843C46.6433 109.409 45.245 108.904 44.3153 108.371C43.3299 107.807 43.1143 107.358 43.1143 107.124H41.6143C41.6143 108.236 42.5186 109.071 43.5696 109.673C44.6763 110.307 46.2307 110.852 48.0944 111.301C51.8334 112.201 56.9868 112.75 62.7301 112.75V111.25Z" fill="black"/>
<ellipse cx="62.35" cy="102.642" rx="18.7172" ry="3.85354" fill="white" stroke="black" stroke-width="1.5"/>
<path d="M62.3506 93.2827V102.091" stroke="black" stroke-width="1.5"/>
<ellipse cx="60.1478" cy="48.692" rx="36.3333" ry="35.7828" fill="#EBF3FF" stroke="black" stroke-width="1.5"/>
<path fill-rule="evenodd" clip-rule="evenodd" d="M77.2247 80.2845C88.6834 74.2647 96.482 62.3752 96.482 48.6919C96.482 43.08 95.1703 37.7698 92.8323 33.0426C92.1871 32.3809 91.4678 31.7049 90.667 30.9864C82.4708 27.2008 72.4912 35.3043 68.9712 38.5575C66.7611 40.6001 70.267 42.8698 73.3688 44.878C75.1736 46.0464 76.8416 47.1263 77.1673 48.0214C78.6473 52.0883 80.9789 54.4834 82.8279 56.3826C85.7978 59.4332 87.5222 61.2045 82.4708 66.5706C79.3508 69.8849 77.5373 71.8478 77.2182 80.0274C77.2148 80.1149 77.2171 80.2007 77.2247 80.2845Z" fill="white"/>
<path d="M77.2247 80.2845L76.4778 80.3525L76.5796 81.4706L77.5735 80.9484L77.2247 80.2845ZM92.8323 33.0426L93.5045 32.7101L93.452 32.6039L93.3693 32.519L92.8323 33.0426ZM90.667 30.9864L91.1679 30.4282L91.084 30.3528L90.9815 30.3055L90.667 30.9864ZM68.9712 38.5575L69.4803 39.1083L68.9712 38.5575ZM73.3688 44.878L72.9612 45.5076L73.3688 44.878ZM77.1673 48.0214L77.8721 47.7649L77.1673 48.0214ZM82.8279 56.3826L83.3653 55.8594L82.8279 56.3826ZM82.4708 66.5706L83.0169 67.0847L82.4708 66.5706ZM77.2182 80.0274L76.4688 79.9981V79.9981L77.2182 80.0274ZM95.732 48.6919C95.732 62.0815 88.1015 73.7232 76.8759 79.6205L77.5735 80.9484C89.2652 74.8062 97.232 62.669 97.232 48.6919H95.732ZM92.16 33.3751C94.4481 38.0015 95.732 43.1982 95.732 48.6919H97.232C97.232 42.9618 95.8924 37.5381 93.5045 32.7101L92.16 33.3751ZM90.1661 31.5446C90.9597 32.2567 91.6658 32.9205 92.2953 33.5662L93.3693 32.519C92.7084 31.8412 91.9758 31.1532 91.1679 30.4282L90.1661 31.5446ZM69.4803 39.1083C71.2178 37.5025 74.5317 34.7179 78.3982 32.8046C82.2828 30.8823 86.5624 29.9168 90.3526 31.6673L90.9815 30.3055C86.5754 28.2705 81.7671 29.4639 77.7329 31.4602C73.6805 33.4656 70.2447 36.3594 68.4622 38.0067L69.4803 39.1083ZM73.7764 44.2484C72.1956 43.225 70.6389 42.2108 69.73 41.2229C69.2761 40.7295 69.0717 40.3336 69.034 40.0315C69.0038 39.7897 69.0651 39.492 69.4803 39.1083L68.4622 38.0067C67.7723 38.6443 67.4431 39.3964 67.5456 40.2173C67.6405 40.9781 68.0921 41.6581 68.6261 42.2385C69.693 43.3981 71.4403 44.5229 72.9612 45.5076L73.7764 44.2484ZM77.8721 47.7649C77.7411 47.4049 77.4993 47.0829 77.237 46.8036C76.9688 46.518 76.6393 46.2353 76.2813 45.9587C75.5681 45.4077 74.6707 44.8274 73.7764 44.2484L72.9612 45.5076C73.8717 46.097 74.7108 46.6409 75.3642 47.1457C75.6896 47.3971 75.9509 47.6252 76.1435 47.8303C76.3419 48.0417 76.4307 48.1903 76.4626 48.2779L77.8721 47.7649ZM83.3653 55.8594C81.5241 53.9682 79.2933 51.6705 77.8721 47.7649L76.4626 48.2779C78.0012 52.5062 80.4337 54.9985 82.2905 56.9057L83.3653 55.8594ZM83.0169 67.0847C85.5549 64.3886 86.6148 62.3802 86.4025 60.5231C86.2967 59.5981 85.883 58.7998 85.3391 58.0619C84.802 57.3332 84.0975 56.6115 83.3653 55.8594L82.2905 56.9057C83.0432 57.679 83.6679 58.3227 84.1316 58.9518C84.5885 59.5717 84.847 60.1236 84.9122 60.6935C85.0417 61.8263 84.4381 63.3866 81.9247 66.0565L83.0169 67.0847ZM77.9676 80.0566C78.1254 76.012 78.6509 73.5874 79.476 71.7869C80.3007 69.9872 81.4483 68.7509 83.0169 67.0847L81.9247 66.0565C80.3733 67.7046 79.0541 69.1069 78.1123 71.1621C77.1709 73.2165 76.6301 75.8632 76.4688 79.9981L77.9676 80.0566ZM77.9716 80.2165C77.967 80.1651 77.9655 80.1118 77.9676 80.0566L76.4688 79.9981C76.4641 80.1179 76.4672 80.2362 76.4778 80.3525L77.9716 80.2165Z" fill="black"/>
<path fill-rule="evenodd" clip-rule="evenodd" d="M49.273 58.8819C51.9585 56.714 55.2843 54.0293 55.1919 52.0237C54.9922 47.6921 53.2176 45.9632 51.8405 44.6216C50.6908 43.5015 49.8181 42.6513 50.37 40.7817C51.0333 38.5353 48.5645 37.6011 46.3725 36.7717C44.5552 36.084 42.928 35.4683 43.4336 34.2364C44.549 31.5187 52.1367 28.7895 59.5291 28.8426C66.9214 28.8957 69.3842 26.7386 69.087 24.3877C69.0214 23.868 68.8946 23.2529 68.7582 22.5913C68.2779 20.2603 67.6786 17.3525 69.2133 16.0084C69.7932 15.5004 70.1804 15.0041 70.4322 14.556C67.3893 13.6294 64.1714 13.0956 60.8361 13.0149C41.0449 12.5358 24.6126 28.1914 24.1336 47.9826C23.8624 59.1843 28.76 69.3099 36.6507 76.076L36.6721 76.0842C38.052 76.1811 40.9691 75.4539 41.5976 71.7699C41.6645 71.3779 41.7352 70.9862 41.8086 70.5974C42.6824 65.9722 44.1243 64.194 46.0048 61.8751C46.0985 61.7595 46.1934 61.6425 46.2893 61.5238C46.8314 60.8528 47.9777 59.9275 49.273 58.8819Z" fill="white"/>
<path d="M55.1919 52.0237L55.9411 51.9892L55.1919 52.0237ZM49.273 58.8819L48.8019 58.2983L48.8019 58.2983L49.273 58.8819ZM51.8405 44.6216L52.3639 44.0844L52.3639 44.0844L51.8405 44.6216ZM50.37 40.7817L51.0894 40.9941L50.37 40.7817ZM46.3725 36.7717L46.6379 36.0702L46.3725 36.7717ZM43.4336 34.2364L42.7398 33.9517L43.4336 34.2364ZM69.087 24.3877L69.8311 24.2937L69.8311 24.2937L69.087 24.3877ZM68.7582 22.5913L69.4928 22.4399L68.7582 22.5913ZM69.2133 16.0084L68.7191 15.4442L68.7191 15.4442L69.2133 16.0084ZM70.4322 14.556L71.0861 14.9234C71.1974 14.7253 71.2129 14.4875 71.1283 14.2767C71.0436 14.0658 70.868 13.9047 70.6507 13.8385L70.4322 14.556ZM36.6507 76.076L36.1624 76.6454C36.2284 76.7019 36.3036 76.7466 36.3848 76.7774L36.6507 76.076ZM36.6721 76.0842L36.4063 76.7855C36.4747 76.8114 36.5465 76.8272 36.6195 76.8323L36.6721 76.0842ZM41.5976 71.7699L40.8583 71.6438L40.8583 71.6438L41.5976 71.7699ZM41.8086 70.5974L41.0717 70.4582L41.8086 70.5974ZM46.0048 61.8751L46.5873 62.3475L46.5873 62.3475L46.0048 61.8751ZM46.2893 61.5238L45.7059 61.0524L46.2893 61.5238ZM54.4427 52.0583C54.4562 52.3508 54.3447 52.7441 54.0407 53.2505C53.7412 53.7494 53.2934 54.2942 52.7355 54.8701C51.618 56.0237 50.1537 57.2071 48.8019 58.2983L49.7441 59.4655C51.0778 58.3888 52.6192 57.146 53.8129 55.9138C54.4106 55.2968 54.9447 54.6589 55.3267 54.0226C55.7042 53.3939 55.9738 52.6995 55.9411 51.9892L54.4427 52.0583ZM51.3171 45.1588C52.0064 45.8303 52.7216 46.5316 53.3038 47.5685C53.8811 48.597 54.3476 49.9959 54.4427 52.0583L55.9411 51.9892C55.8365 49.7199 55.3159 48.0886 54.6117 46.8343C53.9124 45.5885 53.0517 44.7545 52.3639 44.0844L51.3171 45.1588ZM49.6507 40.5694C49.3294 41.6578 49.4061 42.5371 49.7962 43.3179C50.1569 44.0398 50.7666 44.6224 51.3171 45.1588L52.3639 44.0844C51.7647 43.5006 51.3632 43.0981 51.1381 42.6475C50.9424 42.2558 50.8587 41.7752 51.0894 40.9941L49.6507 40.5694ZM46.1071 37.4731C47.235 37.8999 48.2836 38.3038 48.9864 38.8411C49.3255 39.1004 49.5349 39.3559 49.6405 39.611C49.74 39.8513 49.7736 40.1531 49.6507 40.5694L51.0894 40.9941C51.2981 40.2872 51.2718 39.6297 51.0264 39.0372C50.7872 38.4594 50.3667 38.0083 49.8975 37.6495C48.9838 36.9508 47.7021 36.4729 46.6379 36.0702L46.1071 37.4731ZM42.7398 33.9517C42.5438 34.4293 42.5365 34.9154 42.7412 35.3659C42.9307 35.783 43.2673 36.0917 43.606 36.3254C44.2691 36.7831 45.2317 37.1419 46.1071 37.4731L46.6379 36.0702C45.696 35.7138 44.9363 35.421 44.458 35.0909C44.2259 34.9307 44.1369 34.8115 44.1068 34.7453C44.0918 34.7123 44.0707 34.6595 44.1275 34.5212L42.7398 33.9517ZM59.5345 28.0926C55.7523 28.0655 51.9232 28.7487 48.8842 29.791C47.3649 30.3121 46.0212 30.9304 44.9718 31.6102C43.9432 32.2765 43.1054 33.0607 42.7398 33.9517L44.1275 34.5212C44.3195 34.0533 44.8485 33.4773 45.7873 32.8691C46.7053 32.2745 47.9296 31.7042 49.3708 31.2099C52.2525 30.2215 55.9135 29.5666 59.5237 29.5926L59.5345 28.0926ZM68.343 24.4818C68.3984 24.9201 68.3255 25.33 68.1077 25.7104C67.8864 26.0969 67.4898 26.4967 66.8302 26.8595C65.4927 27.5952 63.1805 28.1188 59.5345 28.0926L59.5237 29.5926C63.2701 29.6195 65.8854 29.0912 67.5531 28.1738C68.396 27.7102 69.0215 27.1332 69.4094 26.4557C69.8008 25.7721 69.9243 25.0308 69.8311 24.2937L68.343 24.4818ZM68.0237 22.7427C68.1619 23.4133 68.2817 23.997 68.343 24.4818L69.8311 24.2937C69.761 23.739 69.6273 23.0925 69.4928 22.4399L68.0237 22.7427ZM68.7191 15.4442C67.6988 16.3378 67.4611 17.6861 67.4802 18.9412C67.4995 20.2114 67.7868 21.5933 68.0237 22.7427L69.4928 22.4399C69.2493 21.2584 68.9968 20.0208 68.98 18.9184C68.963 17.8008 69.193 17.0231 69.7074 16.5725L68.7191 15.4442ZM69.7784 14.1886C69.572 14.5559 69.241 14.987 68.7191 15.4442L69.7074 16.5725C70.3454 16.0137 70.7889 15.4523 71.0861 14.9234L69.7784 14.1886ZM60.818 13.7646C64.0847 13.8437 67.2352 14.3665 70.2137 15.2735L70.6507 13.8385C67.5433 12.8923 64.2581 12.3475 60.8543 12.2651L60.818 13.7646ZM24.8834 48.0008C25.3524 28.6236 41.4409 13.2956 60.818 13.7646L60.8543 12.2651C40.649 11.776 23.8729 27.7592 23.3838 47.9645L24.8834 48.0008ZM37.1389 75.5067C29.4118 68.8809 24.6179 58.9678 24.8834 48.0008L23.3838 47.9645C23.107 59.4008 28.1081 69.739 36.1624 76.6454L37.1389 75.5067ZM36.9379 75.3828L36.9165 75.3747L36.3848 76.7774L36.4063 76.7855L36.9379 75.3828ZM40.8583 71.6438C40.5787 73.2823 39.8107 74.2 39.0111 74.714C38.1839 75.2457 37.2748 75.3746 36.7246 75.336L36.6195 76.8323C37.4493 76.8906 38.6887 76.7044 39.8222 75.9758C40.9832 75.2294 41.9879 73.9416 42.3369 71.8961L40.8583 71.6438ZM41.0717 70.4582C40.9975 70.851 40.926 71.2471 40.8583 71.6438L42.3369 71.8961C42.403 71.5088 42.4729 71.1214 42.5456 70.7366L41.0717 70.4582ZM45.4222 61.4028C44.487 62.5561 43.6116 63.6324 42.8684 65.0166C42.1206 66.4093 41.5198 68.0857 41.0717 70.4582L42.5456 70.7366C42.9711 68.4839 43.5282 66.9586 44.19 65.7262C44.8563 64.4853 45.6421 63.5131 46.5873 62.3475L45.4222 61.4028ZM45.7059 61.0524C45.6105 61.1706 45.5161 61.287 45.4222 61.4028L46.5873 62.3475C46.681 62.232 46.7763 62.1145 46.8727 61.9951L45.7059 61.0524ZM48.8019 58.2983C47.5417 59.3156 46.3116 60.3028 45.7059 61.0524L46.8727 61.9951C47.3512 61.4029 48.4138 60.5394 49.7441 59.4655L48.8019 58.2983Z" fill="black"/>
<path d="M77.5787 6.50098C83.176 8.84397 88.2435 12.2914 92.4782 16.6371C96.713 20.9829 100.028 26.1378 102.226 31.7938C104.423 37.4498 105.458 43.4908 105.268 49.5557C105.077 55.6206 103.667 61.5849 101.119 67.0922C98.5718 72.5995 94.9403 77.5366 90.4417 81.6087C85.9431 85.6807 80.6696 88.8039 74.9366 90.7918C69.2036 92.7796 63.1287 93.5912 57.0749 93.1781C51.0211 92.765 45.1127 91.1356 39.7029 88.3874L41.7992 84.2607C46.6544 86.7272 51.9569 88.1895 57.39 88.5603C62.8231 88.931 68.2751 88.2027 73.4203 86.4186C78.5655 84.6346 83.2982 81.8316 87.3356 78.1771C91.3729 74.5226 94.6321 70.0917 96.9182 65.1491C99.2044 60.2065 100.471 54.8537 100.641 49.4107C100.812 43.9677 99.8833 38.5461 97.9112 33.47C95.9391 28.394 92.9639 23.7676 89.1633 19.8674C85.3627 15.9672 80.8149 12.8733 75.7915 10.7706L77.5787 6.50098Z" fill="black" stroke="black" stroke-width="1.5"/>
<path d="M104.358 58.1322C114.957 65.7598 120.738 72.5925 118.976 76.5614C115.709 83.9198 87.7511 78.6479 56.5303 64.7863C25.3095 50.9247 2.64848 33.7226 5.91548 26.3643C7.90976 21.8725 19.1046 22.0871 34.6259 26.0891" stroke="black" stroke-width="1.5"/>
<circle cx="41.0554" cy="23.8062" r="10" transform="rotate(-4.82953 41.0554 23.8062)" fill="#EBF3FF"/>
<path fill-rule="evenodd" clip-rule="evenodd" d="M48.7376 51.8438C51.385 51.136 60.572 28.9118 58.0964 19.6518C57.1461 16.0973 55.1589 13.0969 52.547 10.8889C51.2165 9.76411 49.7239 8.84495 48.1237 8.16295C44.6817 6.69591 40.7419 6.3262 36.8469 7.36751C27.5869 9.84317 22.087 19.3569 24.5627 28.6169C27.0383 37.877 46.0902 52.5516 48.7376 51.8438ZM43.4527 32.0766C47.8391 30.9039 50.4443 26.3974 49.2716 22.0111C48.0989 17.6247 43.5924 15.0195 39.2061 16.1922C34.8197 17.3649 32.2145 21.8714 33.3872 26.2577C34.5599 30.6441 39.0664 33.2493 43.4527 32.0766Z" fill="black"/>
<mask id="path-15-inside-1_201_2778" fill="white">
<path fill-rule="evenodd" clip-rule="evenodd" d="M47.4495 49.7344C50.0969 49.0266 59.2839 26.8025 56.8083 17.5424C55.858 13.988 53.8708 10.9875 51.2589 8.77954C49.9284 7.65474 48.4358 6.73558 46.8356 6.05357C43.3936 4.58653 39.4538 4.21683 35.5588 5.25813C26.2988 7.7338 20.7989 17.2475 23.2746 26.5076C25.7502 35.7676 44.8021 50.4422 47.4495 49.7344ZM42.1647 29.9672C46.551 28.7945 49.1562 24.288 47.9835 19.9017C46.8108 15.5153 42.3043 12.9101 37.918 14.0828C33.5316 15.2555 30.9265 19.762 32.0991 24.1484C33.2718 28.5347 37.7783 31.1399 42.1647 29.9672Z"/>
</mask>
<path fill-rule="evenodd" clip-rule="evenodd" d="M47.4495 49.7344C50.0969 49.0266 59.2839 26.8025 56.8083 17.5424C55.858 13.988 53.8708 10.9875 51.2589 8.77954C49.9284 7.65474 48.4358 6.73558 46.8356 6.05357C43.3936 4.58653 39.4538 4.21683 35.5588 5.25813C26.2988 7.7338 20.7989 17.2475 23.2746 26.5076C25.7502 35.7676 44.8021 50.4422 47.4495 49.7344ZM42.1647 29.9672C46.551 28.7945 49.1562 24.288 47.9835 19.9017C46.8108 15.5153 42.3043 12.9101 37.918 14.0828C33.5316 15.2555 30.9265 19.762 32.0991 24.1484C33.2718 28.5347 37.7783 31.1399 42.1647 29.9672Z" fill="white"/>
<path d="M51.2589 8.77954L52.2273 7.63403L51.2589 8.77954ZM46.8356 6.05357L47.4238 4.67367L46.8356 6.05357ZM55.3592 17.9298C55.895 19.9339 55.8263 22.8055 55.2823 26.1378C54.7447 29.4308 53.7705 33.0158 52.6302 36.3616C51.4899 39.7075 50.1979 42.772 49.0424 45.023C48.4623 46.1529 47.9348 47.0423 47.4963 47.6508C47.2759 47.9567 47.1019 48.158 46.9785 48.2766C46.8252 48.424 46.8577 48.34 47.0621 48.2853L47.8369 51.1835C48.3723 51.0404 48.7867 50.6998 49.0576 50.4393C49.3585 50.1501 49.6509 49.7923 49.9302 49.4047C50.4912 48.6262 51.0964 47.5908 51.7113 46.393C52.9456 43.9885 54.2919 40.7855 55.4698 37.3294C56.6478 33.8732 57.6716 30.1217 58.2431 26.6211C58.8081 23.1598 58.9594 19.7809 58.2574 17.155L55.3592 17.9298ZM50.2905 9.92505C52.6761 11.9417 54.4905 14.6806 55.3592 17.9298L58.2574 17.155C57.2255 13.2953 55.0655 10.0333 52.2273 7.63403L50.2905 9.92505ZM46.2475 7.43347C47.7102 8.05687 49.0746 8.8971 50.2905 9.92505L52.2273 7.63403C50.7823 6.41238 49.1614 5.41428 47.4238 4.67367L46.2475 7.43347ZM35.9463 6.70724C39.5061 5.75553 43.1028 6.09316 46.2475 7.43347L47.4238 4.67367C43.6844 3.07991 39.4015 2.67813 35.1714 3.80903L35.9463 6.70724ZM24.7237 26.1202C22.462 17.6604 27.4865 8.96894 35.9463 6.70724L35.1714 3.80903C25.111 6.49866 19.1358 16.8346 21.8255 26.895L24.7237 26.1202ZM47.0621 48.2853C47.2665 48.2306 47.3366 48.2873 47.1302 48.2361C46.9641 48.1949 46.7128 48.1072 46.3692 47.9522C45.6855 47.6436 44.7845 47.1362 43.718 46.4465C41.5934 45.0724 38.9444 43.0615 36.2865 40.7311C33.6287 38.4007 30.9955 35.7801 28.8863 33.1947C26.7521 30.5785 25.2595 28.1243 24.7237 26.1202L21.8255 26.895C22.5275 29.5209 24.3448 32.3735 26.5617 35.0911C28.8038 37.8394 31.5632 40.5795 34.3087 42.9868C37.0542 45.394 39.8193 47.4978 42.0889 48.9656C43.2194 49.6967 44.2606 50.2919 45.1352 50.6866C45.5707 50.8832 46.0026 51.0473 46.4077 51.1478C46.7724 51.2383 47.3016 51.3266 47.8369 51.1835L47.0621 48.2853ZM46.5344 20.2891C47.4931 23.8751 45.3633 27.5594 41.7772 28.5181L42.5521 31.4163C47.7387 30.0297 50.8193 24.7009 49.4326 19.5143L46.5344 20.2891ZM38.3054 15.5319C41.8914 14.5732 45.5757 16.7031 46.5344 20.2891L49.4326 19.5143C48.046 14.3276 42.7172 11.2471 37.5306 12.6337L38.3054 15.5319ZM33.5482 23.7609C32.5895 20.1749 34.7194 16.4907 38.3054 15.5319L37.5306 12.6337C32.3439 14.0204 29.2634 19.3491 30.65 24.5358L33.5482 23.7609ZM41.7772 28.5181C38.1912 29.4768 34.507 27.347 33.5482 23.7609L30.65 24.5358C32.0367 29.7224 37.3654 32.803 42.5521 31.4163L41.7772 28.5181Z" fill="black" mask="url(#path-15-inside-1_201_2778)"/>
</svg>
