<svg width="150" height="158" viewBox="0 0 150 158" fill="none" xmlns="http://www.w3.org/2000/svg">
<circle cx="75" cy="75" r="75" fill="#EBF3FF"/>
<rect x="44.4062" y="10.2397" width="84.4008" height="52.6295" rx="8" transform="rotate(-4.89874 44.4062 10.2397)" fill="#EBF3FF" stroke="black" stroke-width="1.5"/>
<path d="M93.6025 22.5083L122.19 20.2641M94.1879 29.3377L122.776 27.0935M100.752 37.1288C99.958 39.3263 99.5482 43.7184 104.265 43.7073C107.081 43.7007 109.484 41.4863 110.956 39.1448M110.956 39.1448C112.564 36.5852 113.059 33.8737 111.763 33.7281C109.731 33.4998 109.401 37.74 110.956 39.1448ZM110.956 39.1448C111.299 39.4553 111.735 39.6273 112.265 39.5819C115.192 39.331 116.474 31.3587 122.216 35.2892" stroke="black" stroke-width="1.5"/>
<path d="M59.986 33.2161C58.1717 38.1339 56.8434 39.4806 57.1871 43.4455L89.6214 40.6346C89.6075 37.6398 88.3958 34.9984 85.7209 32.4839C83.046 29.9693 84.388 25.6087 81.5489 18.3646C78.7098 11.1206 65.7849 12.2407 62.8432 17.9884C59.9015 23.736 62.1746 27.2841 59.986 33.2161Z" fill="black"/>
<path d="M68.571 19.3664C67.7429 21.4981 65.2246 23.6046 64.1946 24.3805L64.5563 28.5548C64.7097 30.3243 65.4233 31.9972 66.59 33.3223L67.3202 34.1517L67.6303 37.7296L77.1805 36.902L76.8704 33.324L77.451 32.4756C78.528 30.9014 79.0271 28.9916 78.8613 27.0785L78.5199 23.139C72.0152 22.8788 69.177 20.5155 68.571 19.3664Z" fill="white" stroke="black" stroke-width="1.5"/>
<path fill-rule="evenodd" clip-rule="evenodd" d="M96.0894 58.6327L56.8717 61.994C55.3353 62.1257 53.8631 61.8139 52.5815 61.1651L51.9714 54.1258C51.5284 49.0143 54.6692 44.2727 59.5484 42.6865L68.0799 39.9131L67.8637 37.4188L77.3422 36.5973L77.5584 39.0917L85.9491 40.3424C91.0311 41.0999 94.9293 45.2456 95.3729 50.3645L96.0894 58.6327Z" fill="#F6F6F6"/>
<path d="M96.0894 58.6327L96.1535 59.38L96.9015 59.3159L96.8366 58.568L96.0894 58.6327ZM52.5815 61.1651L51.8343 61.2299L51.8703 61.6457L52.2427 61.8342L52.5815 61.1651ZM51.9714 54.1258L51.2242 54.1905L51.9714 54.1258ZM59.5484 42.6865L59.3166 41.9733L59.5484 42.6865ZM68.0799 39.9131L68.3117 40.6264L68.8785 40.4421L68.8271 39.8484L68.0799 39.9131ZM67.8637 37.4188L67.799 36.6716L67.0518 36.7363L67.1165 37.4835L67.8637 37.4188ZM77.3422 36.5973L78.0894 36.5326L78.0246 35.7854L77.2774 35.8501L77.3422 36.5973ZM77.5584 39.0917L76.8112 39.1564L76.8623 39.7462L77.4478 39.8335L77.5584 39.0917ZM85.9491 40.3424L86.0597 39.6006L86.0597 39.6006L85.9491 40.3424ZM95.3729 50.3645L94.6257 50.4292L95.3729 50.3645ZM96.0254 57.8855L56.8077 61.2467L56.9358 62.7413L96.1535 59.38L96.0254 57.8855ZM56.8077 61.2467C55.4141 61.3662 54.0811 61.0836 52.9202 60.496L52.2427 61.8342C53.6451 62.5442 55.2564 62.8852 56.9358 62.7413L56.8077 61.2467ZM51.2242 54.1905L51.8343 61.2299L53.3287 61.1003L52.7186 54.061L51.2242 54.1905ZM59.3166 41.9733C54.1055 43.6673 50.7511 48.7315 51.2242 54.1905L52.7186 54.061C52.3058 49.2972 55.2329 44.878 59.7803 43.3998L59.3166 41.9733ZM67.848 39.1999L59.3166 41.9733L59.7803 43.3998L68.3117 40.6264L67.848 39.1999ZM67.1165 37.4835L67.3327 39.9779L68.8271 39.8484L68.6109 37.354L67.1165 37.4835ZM77.2774 35.8501L67.799 36.6716L67.9285 38.166L77.4069 37.3445L77.2774 35.8501ZM78.3056 39.0269L78.0894 36.5326L76.595 36.6621L76.8112 39.1564L78.3056 39.0269ZM86.0597 39.6006L77.6689 38.3499L77.4478 39.8335L85.8386 41.0842L86.0597 39.6006ZM96.1201 50.2997C95.6465 44.835 91.485 40.4093 86.0597 39.6006L85.8386 41.0842C90.5772 41.7905 94.212 45.6561 94.6257 50.4292L96.1201 50.2997ZM96.8366 58.568L96.1201 50.2997L94.6257 50.4292L95.3422 58.6975L96.8366 58.568Z" fill="black"/>
<path d="M106.226 122.206C110.782 122.206 116.245 120.904 120.269 115.192C123.667 110.369 124.26 105.708 124.22 101.908C124.2 101.187 124.182 100.514 124.147 99.9023C124.184 100.539 124.212 101.209 124.22 101.908C124.334 106.015 124.524 111.655 128.485 116.087C133.14 121.296 137.694 122.402 141.084 122.206C138.372 122.363 133.203 122.388 129.116 127.007C125.029 131.627 123.95 139.633 123.922 143.058C123.74 135.993 121.135 122.206 106.226 122.206Z" fill="#EBF3FF" stroke="black" stroke-width="1.5"/>
<path d="M8.5197 83.8362C10.4507 83.8362 12.7665 83.2841 14.4721 80.8633C16.1777 78.4424 16.2163 76.118 16.1159 74.3821C16.2163 76.118 15.9812 79.0343 17.9546 81.2424C19.9279 83.4505 21.8583 83.9194 23.2954 83.8363C22.1457 83.9028 19.9547 83.9134 18.2223 85.8713C16.4899 87.8293 16.0326 91.223 16.0204 92.675C15.9433 89.68 14.8394 83.8362 8.5197 83.8362Z" stroke="black" stroke-width="1.5"/>
<path d="M97.124 65.2529C95.3989 67.4892 87.2596 79.2274 83.5279 85.9043L97.4716 77.4395C98.9803 74.5344 102.092 68.4953 102.469 67.5794C102.94 66.4345 103.518 63.7275 101.979 63.2301C100.077 62.6151 98.4773 63.4985 97.124 65.2529Z" fill="white" stroke="black" stroke-width="1.5"/>
<path d="M36.2936 70.8125C35.0755 67.8768 33.3694 61.5107 36.2898 59.5316C39.9403 57.0579 44.829 64.7823 45.4935 66.3836C46.025 67.6646 52.6938 78.026 55.9618 83.0465C58.6145 87.6361 67.3792 94.8729 81.2172 87.1041C95.0552 79.3352 114.471 66.5531 122.449 61.1332C123.794 60.3173 127.002 59.0322 129.074 60.4184C129.208 60.5082 129.331 60.6003 129.442 60.6949C131.477 62.4258 129.703 64.982 125.386 69.1133C124.912 69.5666 124.105 70.3662 123.034 71.4399C122.739 71.736 122.423 72.0529 122.09 72.3892C123.427 71.5729 126.427 69.729 127.723 68.8838C129.228 67.9017 134.531 65.1618 136.338 67.3541C136.475 67.52 136.591 67.7142 136.685 67.9396C137.748 70.5016 132.323 75.1623 129.478 77.1724L82.96 112.584L49.1592 148.71L18.5407 127.56L44.9461 97.0762L36.818 72.4042L36.2936 70.8125Z" fill="white"/>
<path d="M36.2898 59.5316C33.3694 61.5107 35.0755 67.8768 36.2936 70.8125L36.818 72.4042M36.2898 59.5316C39.9403 57.0579 44.829 64.7823 45.4935 66.3836C46.025 67.6646 52.6938 78.026 55.9618 83.0465C58.6145 87.636 67.3792 94.8729 81.2172 87.1041C95.0552 79.3352 114.471 66.5531 122.449 61.1332C123.794 60.3173 127.002 59.0322 129.074 60.4184C129.208 60.5082 129.331 60.6003 129.442 60.6949M36.2898 59.5316C38.0125 62.6315 40.4349 66.8163 39.812 70.2747C39.4428 72.3242 37.4888 72.7094 36.818 72.4042M82.96 112.584L87.1328 108.124C96.5028 98.4891 114.322 80.2111 122.09 72.3892M82.96 112.584L49.1592 148.71L18.5407 127.56L44.9461 97.0762L36.818 72.4042M82.96 112.584L129.478 77.1724M129.478 77.1724C132.323 75.1623 137.748 70.5016 136.685 67.9396C136.591 67.7142 136.475 67.52 136.338 67.3541M129.478 77.1724C129.301 75.9933 129.604 73.0577 132.238 70.7479C134.871 68.4382 136.068 67.523 136.338 67.3541M122.09 72.3892C123.427 71.5729 126.427 69.729 127.723 68.8838C129.228 67.9017 134.531 65.1618 136.338 67.3541M122.09 72.3892C122.423 72.0529 122.739 71.736 123.034 71.4399M123.034 71.4399C124.105 70.3662 124.912 69.5666 125.386 69.1133C129.703 64.982 131.477 62.4258 129.442 60.6949M123.034 71.4399C122.287 70.4302 122.433 67.3559 124.521 64.7755C127.144 61.5346 129.045 60.8433 129.442 60.6949" stroke="black" stroke-width="1.5"/>
<ellipse cx="35.8864" cy="132.223" rx="33.7697" ry="9.66727" transform="rotate(29.5933 35.8864 132.223)" fill="black" stroke="black" stroke-width="1.5"/>
<path fill-rule="evenodd" clip-rule="evenodd" d="M15.4759 129.84L30.4798 113.503L63.3205 133.629L49.0825 148.761C43.7098 147.015 37.4829 144.247 31.112 140.629C25.0141 137.166 19.6526 133.417 15.4759 129.84Z" fill="#F6F6F6"/>
<path d="M30.4798 113.503L30.8717 112.864L30.3451 112.541L29.9274 112.996L30.4798 113.503ZM15.4759 129.84L14.9235 129.333L14.3982 129.905L14.988 130.41L15.4759 129.84ZM63.3205 133.629L63.8667 134.143L64.4986 133.472L63.7124 132.99L63.3205 133.629ZM49.0825 148.761L48.8507 149.475L49.3029 149.622L49.6287 149.275L49.0825 148.761ZM31.112 140.629L30.7416 141.281L31.112 140.629ZM29.9274 112.996L14.9235 129.333L16.0283 130.348L31.0322 114.01L29.9274 112.996ZM63.7124 132.99L30.8717 112.864L30.0879 114.143L62.9286 134.269L63.7124 132.99ZM49.6287 149.275L63.8667 134.143L62.7743 133.115L48.5363 148.247L49.6287 149.275ZM49.3143 148.048C43.997 146.32 37.8165 143.574 31.4824 139.977L30.7416 141.281C37.1494 144.92 43.4226 147.71 48.8507 149.475L49.3143 148.048ZM31.4824 139.977C25.4201 136.534 20.099 132.812 15.9637 129.271L14.988 130.41C19.2061 134.022 24.6082 137.798 30.7416 141.281L31.4824 139.977Z" fill="black"/>
</svg>
