<svg width="150" height="151" viewBox="0 0 150 151" fill="none" xmlns="http://www.w3.org/2000/svg">
<mask id="mask0_201_2179" style="mask-type:alpha" maskUnits="userSpaceOnUse" x="37" y="-3" width="76" height="153">
<path d="M51.6484 144.76C42.1107 145.374 39.7122 147.205 37.542 149.476L47.5697 17.4349L112.676 -3L106.989 149.476C103.733 145.459 99.9356 141.616 86.9143 140.568C77.3984 139.803 69.1909 145.11 66.2973 147.38C65.7548 146.856 59.7867 144.236 51.6484 144.76Z" fill="black"/>
</mask>
<g mask="url(#mask0_201_2179)">
<path d="M85.3007 32.3877L101.514 34.7401L96.8211 149.476H54.1357C52.1503 144.967 49.428 129.892 51.5457 105.663C53.6635 81.4329 67.6314 54.453 73.8081 46.6117L85.3007 32.3877Z" fill="#EBF3FF" stroke="black" stroke-width="1.5" stroke-linejoin="round"/>
<path d="M97.8683 20.6984C46.5399 58.3048 39.1056 120.369 46.4612 149.476H55.4885C44.7895 93.0256 69.1967 53.3338 87.2513 37.7512C54.8867 76.7961 60.8381 128.601 63.8472 149.476H68.1937C57.7621 84.3228 80.7873 44.9055 93.6039 34.223V149.476H102.966V2.76367L97.8683 6.29182V20.6984Z" fill="white" stroke="black" stroke-width="1.5" stroke-linejoin="round"/>
<path fill-rule="evenodd" clip-rule="evenodd" d="M68.0312 85.2163C62.4529 115.967 65.7069 140.869 68.0312 149.476H71.3517C69.9525 139.585 69.1649 130.564 68.8659 122.325L94.7539 124.686L93.9306 149.476H102.896V23.0103C101.475 24.2207 99.805 25.7956 97.9748 27.705L96.9388 58.8987L80.6449 55.7096C82.9978 50.7658 85.3542 46.7042 87.3511 43.2622C89.2901 39.9199 90.8903 37.1617 91.8193 34.7472C82.5173 46.3379 71.8672 64.0705 68.0312 85.2163ZM94.8707 121.169L95.7835 93.6859L70.4601 89.8355C69.2221 98.1562 68.5509 107.692 68.764 118.673L94.8707 121.169ZM95.9003 90.1674L71.0483 86.207C72.9979 75.1116 75.956 66.3083 79.0646 59.1759L96.8221 62.4125L95.9003 90.1674Z" fill="black"/>
</g>
<path d="M106.809 150C103.517 145.965 98.3595 140.568 86.9147 140.568C77.3658 140.568 69.1913 145.109 66.2977 147.38C65.7552 146.856 59.7871 144.236 51.6488 144.76C45.8337 145.135 41.2607 147.13 38.085 149.145" stroke="black" stroke-width="1.5"/>
<path d="M104.283 147.062C104.254 141.97 106.151 130.737 113.973 126.54" stroke="black" stroke-width="1.5" stroke-linejoin="round"/>
<path d="M106.043 126.509L114.733 126.164C114.733 126.164 112.238 124.466 110.428 124.503C108.534 124.542 106.043 126.509 106.043 126.509Z" fill="black" stroke="black" stroke-width="1.5" stroke-linejoin="round"/>
<path d="M114.991 125.526L121.152 123.787C121.152 123.787 119.053 123 117.763 123.337C116.413 123.69 114.991 125.526 114.991 125.526Z" fill="black" stroke="black" stroke-width="1.5" stroke-linejoin="round"/>
<path d="M113.776 121.383C112.346 120.182 107.933 121.378 107.933 121.378C107.933 121.378 110.883 122.084 112.465 123.133C113.637 123.91 115.082 125.276 115.082 125.276C115.082 125.276 115.143 122.529 113.776 121.383Z" fill="black" stroke="black" stroke-width="1.5" stroke-linejoin="round"/>
<path d="M117.488 126.303C118.763 127.2 118.581 130.881 118.581 130.881C118.581 130.881 117.438 128.701 116.262 127.657C115.391 126.883 113.974 126.005 113.974 126.005C113.974 126.005 116.27 125.446 117.488 126.303Z" fill="black" stroke="black" stroke-width="1.5" stroke-linejoin="round"/>
<path d="M29.404 48.4483C35.4806 47.61 37.7231 52.2908 38.0848 54.736C45.4635 53.0593 47.3082 57.8798 47.3082 60.4997L9.87207 60.4998C9.87207 57.1463 13.1274 57.0066 14.755 57.3559C14.755 56.8319 14.8636 55.0504 17.4678 54.2121C20.0721 53.3737 21.4465 55.4347 21.8082 56.308C21.8082 54.0374 23.3274 49.2867 29.404 48.4483Z" fill="#EBF3FF" stroke="black" stroke-width="1.5" stroke-linejoin="round"/>
<path d="M28.3193 66.1646H51.6491" stroke="black" stroke-width="1.5" stroke-linejoin="round"/>
<path d="M109.702 73.5H133.032" stroke="black" stroke-width="1.5" stroke-linejoin="round"/>
<path d="M117.298 68.2603H140.628" stroke="black" stroke-width="1.5" stroke-linejoin="round"/>
</svg>
