<svg width="188" height="168" viewBox="0 0 188 168" fill="none" xmlns="http://www.w3.org/2000/svg">
<circle cx="94" cy="83.668" r="75" fill="#EBF3FF"/>
<path fill-rule="evenodd" clip-rule="evenodd" d="M16 1.66797C7.71573 1.66797 1 8.38369 1 16.668V73.8569C1 82.1412 7.71573 88.8569 16 88.8569H28.5814L20 109.168L53.8488 88.8569H101C109.284 88.8569 116 82.1412 116 73.8569V16.668C116 8.3837 109.284 1.66797 101 1.66797H16Z" fill="white"/>
<path d="M28.5814 88.8569L29.2723 89.1488L29.7125 88.1069H28.5814V88.8569ZM20 109.168L19.3091 108.876L18.4142 110.994L20.3859 109.811L20 109.168ZM53.8488 88.8569V88.1069H53.6411L53.4629 88.2138L53.8488 88.8569ZM1.75 16.668C1.75 8.79791 8.12994 2.41797 16 2.41797V0.917969C7.30152 0.917969 0.25 7.96948 0.25 16.668H1.75ZM1.75 73.8569V16.668H0.25V73.8569H1.75ZM16 88.1069C8.12995 88.1069 1.75 81.727 1.75 73.8569H0.25C0.25 82.5554 7.30152 89.6069 16 89.6069V88.1069ZM28.5814 88.1069H16V89.6069H28.5814V88.1069ZM20.6909 109.46L29.2723 89.1488L27.8905 88.565L19.3091 108.876L20.6909 109.46ZM53.4629 88.2138L19.6141 108.525L20.3859 109.811L54.2347 89.5L53.4629 88.2138ZM101 88.1069H53.8488V89.6069H101V88.1069ZM115.25 73.8569C115.25 81.727 108.87 88.1069 101 88.1069V89.6069C109.698 89.6069 116.75 82.5554 116.75 73.8569H115.25ZM115.25 16.668V73.8569H116.75V16.668H115.25ZM101 2.41797C108.87 2.41797 115.25 8.79791 115.25 16.668H116.75C116.75 7.96948 109.698 0.917969 101 0.917969V2.41797ZM16 2.41797H101V0.917969H16V2.41797Z" fill="black"/>
<path d="M34.5 50.6683C29.9404 60.2019 27 62.6683 27 70.6683H93.5C94 64.6683 92 59.1683 87 53.6683C82 48.1683 85.5 39.6683 81 24.6683C76.5 9.66827 50 9.66827 43 20.6683C36 31.6683 40 39.1683 34.5 50.6683Z" fill="black"/>
<path d="M55.5 24.668C53.5 28.668 48.1667 32.3346 46 33.668V41.8346C46 45.2966 47.1228 48.6651 49.2 51.4346L50.5 53.168V60.168H69.5V53.168L70.7915 51.6181C73.1877 48.7427 74.5 45.1182 74.5 41.3752V33.668C61.7 32.068 56.5 27.0013 55.5 24.668Z" fill="white" stroke="black" stroke-width="1.5"/>
<path fill-rule="evenodd" clip-rule="evenodd" d="M103 88.7247V88.668C103 78.4069 95.959 69.4865 85.9786 67.1032L69.5 63.168V58.168H50.5V63.168L33.0477 67.2149C23.0664 69.5294 16 78.4219 16 88.668L16 88.8569H28.5814L20 109.168L53.8488 88.8569H101C101.678 88.8569 102.346 88.8119 103 88.7247Z" fill="#EBF3FF"/>
<path d="M103 88.7247L103.099 89.4682L103.75 89.3814V88.7247H103ZM85.9786 67.1032L85.8044 67.8326L85.9786 67.1032ZM69.5 63.168H68.75V63.76L69.3258 63.8975L69.5 63.168ZM69.5 58.168H70.25V57.418H69.5V58.168ZM50.5 58.168V57.418H49.75V58.168H50.5ZM50.5 63.168L50.6694 63.8986L51.25 63.764V63.168H50.5ZM33.0477 67.2149L32.8783 66.4843L33.0477 67.2149ZM16 88.668H15.25V88.668L16 88.668ZM16 88.8569L15.25 88.8569L15.25 89.6069H16V88.8569ZM28.5814 88.8569L29.2723 89.1488L29.7125 88.1069H28.5814V88.8569ZM20 109.168L19.3091 108.876L18.4142 110.994L20.3859 109.811L20 109.168ZM53.8488 88.8569V88.1069H53.6411L53.4629 88.2138L53.8488 88.8569ZM103.75 88.7247V88.668H102.25V88.7247H103.75ZM103.75 88.668C103.75 78.0598 96.4708 68.8377 86.1528 66.3737L85.8044 67.8326C95.4472 70.1354 102.25 78.754 102.25 88.668H103.75ZM86.1528 66.3737L69.6742 62.4385L69.3258 63.8975L85.8044 67.8326L86.1528 66.3737ZM70.25 63.168V58.168H68.75V63.168H70.25ZM69.5 57.418H50.5V58.918H69.5V57.418ZM49.75 58.168V63.168H51.25V58.168H49.75ZM50.3306 62.4374L32.8783 66.4843L33.2171 67.9455L50.6694 63.8986L50.3306 62.4374ZM32.8783 66.4843C22.5571 68.8776 15.25 78.0729 15.25 88.668H16.75C16.75 78.7708 23.5757 70.1812 33.2171 67.9455L32.8783 66.4843ZM15.25 88.668L15.25 88.8569L16.75 88.8569L16.75 88.668L15.25 88.668ZM16 89.6069H28.5814V88.1069H16V89.6069ZM27.8905 88.565L19.3091 108.876L20.6909 109.46L29.2723 89.1488L27.8905 88.565ZM20.3859 109.811L54.2347 89.5L53.4629 88.2138L19.6141 108.525L20.3859 109.811ZM53.8488 89.6069H101V88.1069H53.8488V89.6069ZM101 89.6069C101.711 89.6069 102.412 89.5597 103.099 89.4682L102.901 87.9813C102.279 88.0641 101.645 88.1069 101 88.1069V89.6069Z" fill="black"/>
<path fill-rule="evenodd" clip-rule="evenodd" d="M117.862 106.668C113.52 106.668 110 110.188 110 114.53V148.222C110 152.564 113.52 156.083 117.862 156.083H151.347L167.838 166.191L165.711 156.083H175.138C179.48 156.083 183 152.564 183 148.222V114.53C183 110.188 179.48 106.668 175.138 106.668H117.862Z" fill="black"/>
<path d="M151.347 156.083L151.739 155.444L151.559 155.333H151.347V156.083ZM167.838 166.191L167.447 166.83L168.931 167.74L168.572 166.037L167.838 166.191ZM165.711 156.083V155.333H164.786L164.977 156.238L165.711 156.083ZM110.75 114.53C110.75 110.602 113.934 107.418 117.862 107.418V105.918C113.106 105.918 109.25 109.773 109.25 114.53H110.75ZM110.75 148.222V114.53H109.25V148.222H110.75ZM117.862 155.333C113.934 155.333 110.75 152.149 110.75 148.222H109.25C109.25 152.978 113.106 156.833 117.862 156.833V155.333ZM151.347 155.333H117.862V156.833H151.347V155.333ZM168.23 165.552L151.739 155.444L150.955 156.723L167.447 166.83L168.23 165.552ZM164.977 156.238L167.105 166.346L168.572 166.037L166.444 155.929L164.977 156.238ZM175.138 155.333H165.711V156.833H175.138V155.333ZM182.25 148.222C182.25 152.149 179.066 155.333 175.138 155.333V156.833C179.894 156.833 183.75 152.978 183.75 148.222H182.25ZM182.25 114.53V148.222H183.75V114.53H182.25ZM175.138 107.418C179.066 107.418 182.25 110.602 182.25 114.53H183.75C183.75 109.773 179.894 105.918 175.138 105.918V107.418ZM117.862 107.418H175.138V105.918H117.862V107.418Z" fill="black"/>
<path fill-rule="evenodd" clip-rule="evenodd" d="M117.862 106.668C113.52 106.668 110 110.188 110 114.53V145.976C110 150.317 113.52 153.837 117.862 153.837H147.978L164.469 163.945L162.341 153.837H172.892C177.234 153.837 180.754 150.317 180.754 145.976V114.53C180.754 110.188 177.234 106.668 172.892 106.668H117.862Z" fill="#F6F6F6"/>
<path d="M147.978 153.837L148.37 153.198L148.189 153.087H147.978V153.837ZM164.469 163.945L164.077 164.584L165.562 165.494L165.203 163.79L164.469 163.945ZM162.341 153.837V153.087H161.417L161.607 153.992L162.341 153.837ZM110.75 114.53C110.75 110.602 113.934 107.418 117.862 107.418V105.918C113.106 105.918 109.25 109.773 109.25 114.53H110.75ZM110.75 145.976V114.53H109.25V145.976H110.75ZM117.862 153.087C113.934 153.087 110.75 149.903 110.75 145.976H109.25C109.25 150.732 113.106 154.587 117.862 154.587V153.087ZM147.978 153.087H117.862V154.587H147.978V153.087ZM164.861 163.305L148.37 153.198L147.586 154.477L164.077 164.584L164.861 163.305ZM161.607 153.992L163.735 164.099L165.203 163.79L163.075 153.683L161.607 153.992ZM172.892 153.087H162.341V154.587H172.892V153.087ZM180.004 145.976C180.004 149.903 176.82 153.087 172.892 153.087V154.587C177.648 154.587 181.504 150.732 181.504 145.976H180.004ZM180.004 114.53V145.976H181.504V114.53H180.004ZM172.892 107.418C176.82 107.418 180.004 110.602 180.004 114.53H181.504C181.504 109.773 177.648 105.918 172.892 105.918V107.418ZM117.862 107.418H172.892V105.918H117.862V107.418Z" fill="black"/>
<path d="M122.916 122.953H168.401" stroke="black" stroke-width="1.5"/>
<path d="M122.916 135.868H168.401" stroke="black" stroke-width="1.5"/>
<path d="M115.5 44.668H117.5C127.993 44.668 136.5 53.1746 136.5 63.668V78.168C136.5 88.6614 127.993 97.168 117.5 97.168H98.25C88.9992 97.168 81.5 104.667 81.5 113.918V113.918C81.5 123.169 88.9992 130.668 98.25 130.668H110" stroke="black" stroke-width="1.5"/>
<path d="M144 42.5442C149.5 42.5442 156.096 40.9717 160.954 34.0765C165.812 27.1813 165.921 20.5607 165.635 15.6166C165.921 20.5607 165.252 28.8672 170.873 35.1563C176.493 41.4454 181.991 42.7809 186.085 42.5442C182.81 42.7336 176.569 42.7639 171.635 48.3406C166.701 53.9174 165.398 63.5833 165.364 67.7192C165.144 59.1886 162 42.5442 144 42.5442Z" stroke="black" stroke-width="1.5"/>
<path d="M67.6022 136.495C64.6035 136.495 61.0074 135.637 58.3588 131.878C55.7102 128.119 55.6503 124.509 55.8062 121.814C55.6503 124.509 56.0153 129.038 52.9509 132.467C49.8866 135.896 46.8889 136.624 44.6572 136.495C46.4425 136.598 49.845 136.614 52.5352 139.655C55.2253 142.695 55.9356 147.965 55.9544 150.22C56.0741 145.569 57.7884 136.495 67.6022 136.495Z" stroke="black" stroke-width="1.5"/>
</svg>
