<svg width="191" height="156" viewBox="0 0 191 156" fill="none" xmlns="http://www.w3.org/2000/svg">
<path d="M39.3494 27.7476C43.9097 27.7476 49.3787 26.4438 53.4066 20.7266C57.4346 15.0095 57.5257 9.5201 57.2886 5.4207C57.5257 9.5201 56.9706 16.4074 61.6308 21.622C66.2911 26.8366 70.85 27.9439 74.2438 27.7476C71.5287 27.9047 66.3543 27.9298 62.2631 32.5537C58.172 37.1777 57.0918 45.1922 57.0632 48.6214C56.8811 41.5482 54.274 27.7476 39.3494 27.7476Z" stroke="black" stroke-width="1.5"/>
<path d="M121.82 106.943C118.821 106.943 115.225 106.086 112.577 102.327C109.928 98.5674 109.868 94.9578 110.024 92.2623C109.868 94.9578 110.233 99.4866 107.169 102.915C104.104 106.344 101.107 107.072 98.875 106.943C100.66 107.047 104.063 107.063 106.753 110.104C109.443 113.144 110.153 118.414 110.172 120.669C110.292 116.018 112.006 106.943 121.82 106.943Z" stroke="black" stroke-width="1.5"/>
<path d="M70.6221 97.1682C90.6221 93.1682 87.1221 84.1682 87.1221 68.6682C87.1221 53.1682 77.1221 9.16821 122.622 27.1682" stroke="black" stroke-width="1.5"/>
<rect x="9.14551" y="89.3926" width="66.6678" height="66.6678" rx="10" transform="rotate(-15.14 9.14551 89.3926)" fill="black"/>
<rect x="2.46191" y="85.5552" width="66.6678" height="66.6678" rx="10" transform="rotate(-15.14 2.46191 85.5552)" fill="white" stroke="black" stroke-width="1.5"/>
<path d="M21.9609 122.908C17.6102 131.319 23.0963 138.2 26.3832 140.589L69.732 115.038C64.7299 105.898 59.2478 107.984 55.533 104.535C51.8182 101.086 53.1509 93.5046 52.0927 91.5712C51.0346 89.6377 47.6809 81.4228 37.3734 86.3785C27.0659 91.3343 29.1061 97.9838 29.2461 106.587C29.386 115.19 27.3992 112.394 21.9609 122.908Z" fill="black" stroke="black" stroke-width="1.5"/>
<path fill-rule="evenodd" clip-rule="evenodd" d="M81.5218 128.399C80.5432 131.566 78.0119 134.179 74.5752 135.108L29.5272 147.297C28.5053 147.574 27.4775 147.681 26.4735 147.637L26.2909 140.938C26.1138 134.437 27.5874 127.89 32.1808 123.595C35.2529 120.722 39.5474 117.563 45.227 115.206C51.7089 112.516 58.7116 111.715 63.6623 111.535C67.8527 111.382 71.6943 113.745 74.122 117.365L81.5218 128.399Z" fill="#EBF3FF"/>
<path d="M81.5218 128.399L82.2384 128.62L82.344 128.278L82.1447 127.981L81.5218 128.399ZM26.4735 147.637L25.7237 147.657L25.7428 148.356L26.4405 148.386L26.4735 147.637ZM26.2909 140.938L25.5412 140.958L26.2909 140.938ZM32.1808 123.595L31.6686 123.047L32.1808 123.595ZM45.227 115.206L44.9395 114.513L45.227 115.206ZM63.6623 111.535L63.635 110.785L63.635 110.785L63.6623 111.535ZM74.122 117.365L73.4991 117.782L74.122 117.365ZM80.8052 128.177C79.8993 131.109 77.5575 133.525 74.3794 134.384L74.7711 135.832C78.4663 134.833 81.1871 132.023 82.2384 128.62L80.8052 128.177ZM74.3794 134.384L29.3313 146.573L29.7231 148.021L74.7711 135.832L74.3794 134.384ZM29.3313 146.573C28.3848 146.829 27.4342 146.929 26.5064 146.888L26.4405 148.386C27.5208 148.434 28.6258 148.318 29.7231 148.021L29.3313 146.573ZM25.5412 140.958L25.7237 147.657L27.2232 147.617L27.0406 140.917L25.5412 140.958ZM31.6686 123.047C26.8492 127.554 25.3614 134.36 25.5412 140.958L27.0406 140.917C26.8662 134.514 28.3256 128.227 32.6931 124.142L31.6686 123.047ZM44.9395 114.513C39.1636 116.91 34.7948 120.123 31.6686 123.047L32.6931 124.142C35.711 121.32 39.9313 118.216 45.5145 115.899L44.9395 114.513ZM63.635 110.785C58.6411 110.967 51.5381 111.774 44.9395 114.513L45.5145 115.899C51.8798 113.257 58.7822 112.463 63.6895 112.284L63.635 110.785ZM74.7449 116.947C72.2047 113.159 68.1379 110.621 63.635 110.785L63.6895 112.284C67.5675 112.143 71.1839 114.33 73.4991 117.782L74.7449 116.947ZM82.1447 127.981L74.7449 116.947L73.4991 117.782L80.8989 128.817L82.1447 127.981Z" fill="black"/>
<path d="M52.0925 91.5712C51.5139 89.5124 50.2062 88.2637 49.6247 87.8967C49.5451 88.1687 49.3396 89.88 47.247 91.4821C46.2792 92.223 43.924 93.7575 44.1199 96.6197C44.2799 98.9586 41.6758 98.491 39.3545 98.8193C38.4296 98.9501 37.6508 99.5347 37.3776 100.995C36.9415 103.325 39.5191 104.798 40.9209 105.465C41.3503 105.669 41.7009 106.007 41.9027 106.437L42.9533 108.679C44.4793 113.554 41.0304 117.269 39.3059 119.126C40.6448 119.764 44.3486 120.661 48.453 119.145C52.5575 117.63 52.9954 115.898 52.7012 115.222L49.3344 109.07C55.6325 107.222 54.4327 103.082 54.2822 102.25C54.0566 101.003 53.6718 100.3 54.6303 99.5474C55.5887 98.7945 56.2752 97.9619 55.8904 97.2589C55.5056 96.5558 52.8157 94.1448 52.0925 91.5712Z" fill="white" stroke="black" stroke-width="1.5"/>
<rect x="125.968" y="6.24365" width="66.6678" height="66.6678" rx="10" transform="rotate(19.16 125.968 6.24365)" fill="black"/>
<rect x="122.944" width="66.6678" height="66.6678" rx="10" transform="rotate(19.16 122.944 0)" fill="#EBF3FF" stroke="black" stroke-width="1.5"/>
<path fill-rule="evenodd" clip-rule="evenodd" d="M160.677 81.7277C158.75 82.2924 156.634 82.2834 154.592 81.5739L111.784 66.7001L124.361 55.3076C127.964 52.0443 132.128 49.4631 136.65 47.6899L143.587 44.97L151.058 47.1322L157.466 55.6044C162.388 62.1135 163.939 70.5768 161.645 78.4198L160.677 81.7277Z" fill="#F6F6F6"/>
<path d="M160.677 81.7277L160.888 82.4474C161.133 82.3755 161.325 82.1836 161.397 81.9382L160.677 81.7277ZM154.592 81.5739L154.838 80.8655L154.592 81.5739ZM111.784 66.7001L111.28 66.1443C111.084 66.3221 110.996 66.5902 111.049 66.8497C111.102 67.1093 111.288 67.3217 111.538 67.4086L111.784 66.7001ZM124.361 55.3076L123.857 54.7518L124.361 55.3076ZM136.65 47.6899L136.376 46.9917L136.376 46.9917L136.65 47.6899ZM143.587 44.97L143.796 44.2496C143.637 44.2036 143.468 44.2114 143.314 44.2718L143.587 44.97ZM151.058 47.1322L151.657 46.6798C151.559 46.5508 151.422 46.4568 151.267 46.4118L151.058 47.1322ZM157.466 55.6044L156.868 56.0568L157.466 55.6044ZM161.645 78.4198L162.365 78.6303L161.645 78.4198ZM160.466 81.0079C158.684 81.5302 156.728 81.5221 154.838 80.8655L154.346 82.2824C156.54 83.0448 158.816 83.0546 160.888 82.4474L160.466 81.0079ZM154.838 80.8655L112.03 65.9917L111.538 67.4086L154.346 82.2824L154.838 80.8655ZM123.857 54.7518L111.28 66.1443L112.287 67.256L124.864 55.8635L123.857 54.7518ZM136.376 46.9917C131.769 48.7981 127.527 51.4275 123.857 54.7518L124.864 55.8635C128.4 52.6611 132.486 50.1282 136.924 48.3882L136.376 46.9917ZM143.314 44.2718L136.376 46.9917L136.924 48.3882L143.861 45.6683L143.314 44.2718ZM151.267 46.4118L143.796 44.2496L143.379 45.6904L150.85 47.8527L151.267 46.4118ZM158.064 55.152L151.657 46.6798L150.46 47.5847L156.868 56.0568L158.064 55.152ZM162.365 78.6303C164.725 70.5599 163.13 61.8507 158.064 55.152L156.868 56.0568C161.647 62.3763 163.152 70.5937 160.925 78.2092L162.365 78.6303ZM161.397 81.9382L162.365 78.6303L160.925 78.2092L159.957 81.5171L161.397 81.9382Z" fill="black"/>
<path d="M155.785 40.4971C154.682 41.1505 153.461 43.3164 153.175 43.7207C148.751 41.8382 149.892 34.7788 150.83 32.0814C148.43 27.6487 144.338 18.9151 146.226 18.0163C148.587 16.893 152.134 16.9873 156.816 19.2617C161.497 21.5361 165.448 25.2841 163.763 31.3927C162.078 37.5014 157.163 39.6803 155.785 40.4971Z" fill="black" stroke="black" stroke-width="1.5" stroke-linejoin="round"/>
<path d="M138.205 46.7796L140.694 39.6162C139.341 39.1461 136.568 38.3996 135.82 36.1871C135.073 33.9745 137.541 30.6093 137.483 30.1548C137.467 30.0329 135.306 28.3138 136.029 27.4801C136.378 27.078 137.688 26.1271 139.051 25.1699C140.675 24.0297 141.802 22.332 143.006 20.7549C144.182 19.2141 145.58 18.2685 146.219 18.1022C146.513 20.3741 149.773 23.4596 154.79 25.8536L152.016 30.0973C154.612 29.4807 156.478 30.3459 155.797 32.9299C155.22 35.119 151.326 34.6313 150.829 36.6285C150.166 39.2957 152.419 42.0268 153.4 42.946L151.583 48.1734C150.673 48.508 148.724 50.4348 144.799 50.8677C140.173 51.3779 135.73 49.9558 134.45 48.8602L138.205 46.7796Z" fill="white" stroke="black" stroke-width="1.5" stroke-linejoin="round"/>
</svg>
