<svg width="109" height="158" viewBox="0 0 109 158" fill="none" xmlns="http://www.w3.org/2000/svg">
<path d="M2.96885 149.155C9.21379 144.925 44.8251 143.227 49.3042 143.401C76.642 143.401 105.833 145.493 107.223 149.155C108.856 153.454 97.5354 157 57.1811 157C16.4059 157 -3.98155 153.862 2.96885 149.155Z" fill="#F6F6F6" stroke="black" stroke-width="1.5" stroke-linejoin="round"/>
<path d="M53.779 150.718H25.6231C23.3179 133.955 20.0907 96.1285 25.6231 77.3946C31.1555 58.6606 43.7351 42.4604 49.3334 36.702L59.2127 35.5503L53.779 150.718Z" fill="#EBF3FF" stroke="black" stroke-width="1.5"/>
<path d="M31.7178 58.1716C34.8165 55.6106 44.7325 50.9494 59.6064 52.7934" stroke="black" stroke-width="1.5"/>
<path d="M28.7822 68.1965C31.881 65.6355 41.7969 60.9743 56.6709 62.8183" stroke="black" stroke-width="1.5"/>
<path d="M24.8682 78.2214C27.9669 75.6604 37.8829 70.9992 52.7568 72.8432" stroke="black" stroke-width="1.5"/>
<path d="M20.9541 88.2463C24.0528 85.6853 33.9688 81.0241 48.8428 82.8681" stroke="black" stroke-width="1.5"/>
<path d="M20.9541 98.2712C24.0528 95.7102 33.9688 91.049 48.8428 92.893" stroke="black" stroke-width="1.5"/>
<path d="M20.9541 108.296C24.0528 105.735 33.9688 101.074 48.8428 102.918" stroke="black" stroke-width="1.5"/>
<path d="M18.9971 118.321C22.0958 115.76 32.0118 111.099 46.8857 112.943" stroke="black" stroke-width="1.5"/>
<path d="M20.9541 128.346C24.0528 125.785 33.9688 121.124 48.8428 122.968" stroke="black" stroke-width="1.5"/>
<path d="M22.9111 138.077C26.0099 135.516 35.9258 130.855 50.7998 132.699" stroke="black" stroke-width="1.5"/>
<path d="M66.9733 33.4565L79.0881 42.2703L85.3878 150.718H48.0743C46.782 137.945 44.5852 106.649 46.1359 83.6568C47.6866 60.6643 52.5971 42.3981 54.8585 36.139L66.9733 33.4565Z" fill="black" stroke="black" stroke-width="1.5"/>
<path d="M81.6404 3.68038L88.5285 150.718H83.1164L79.0089 28.9525C68.2443 52.8461 67.3722 118.937 72.2923 150.718H68.3562C63.2158 116.168 66.5085 48.456 76.857 19.7626C57.3133 28.5696 33.4235 53.8417 26.0434 84.8575C20.4867 108.21 23.4193 139.486 27.5194 150.718H22.8426C20.6312 146.123 17.4051 123.781 18.6631 102.854C21.812 50.4721 59.7403 23.2088 78.5568 15.5506L77.7043 1L81.6404 3.68038Z" fill="#F6F6F6" stroke="black" stroke-width="1.5" stroke-linejoin="round"/>
</svg>
