<svg width="2242" height="333" viewBox="0 0 2242 333" fill="none" xmlns="http://www.w3.org/2000/svg">
<path d="M2220.88 4.5478C1969.36 -6.91011 1824.98 153.859 1804.85 145.437C1772.24 128.61 1686.68 24.4433 1666.34 94.5131C1641.8 179.047 1550.63 239.335 1435.62 248.348" stroke="black" stroke-width="1.5"/>
<path d="M4.13596 181.522C23.0364 122.475 99.6297 209.647 128.987 223.63C147.134 230.608 313.414 69.883 656.957 123.212C791.243 144.571 902.055 169.588 1164.97 238.051" stroke="black" stroke-width="1.5"/>
<path d="M1256.72 275.207C1260.85 273.096 1263.28 269.195 1265.62 263.417C1267.46 268.023 1269.83 272.601 1274.75 275.155C1270.14 278.233 1268.13 280.227 1265.35 287.443C1265.17 284.157 1261.63 277.761 1256.72 275.207Z" stroke="black" stroke-width="1.5"/>
<path d="M1287.02 244.958C1298.13 238.45 1304.54 226.517 1310.55 208.865C1315.84 222.87 1322.57 236.776 1336.1 244.47C1323.74 253.937 1318.38 260.051 1311.22 282.092C1310.54 272.082 1300.54 252.652 1287.02 244.958Z" stroke="black" stroke-width="1.5"/>
</svg>
