<svg width="86" height="61" viewBox="0 0 86 61" fill="none" xmlns="http://www.w3.org/2000/svg">
<rect x="0.855945" y="12.7162" width="77.5" height="47.7618" rx="7.25" transform="rotate(-8.80313 0.855945 12.7162)" fill="#EBF3FF" stroke="black" stroke-width="1.5"/>
<circle cx="22.3349" cy="26.6278" r="5.25" transform="rotate(-8.80313 22.3349 26.6278)" fill="black" stroke="#EBF3FF" stroke-width="1.5"/>
<path d="M31.1722 37.2888C33.2705 38.8243 34.734 41.0625 35.3064 43.5816L14.1114 46.864C13.895 44.2897 14.6131 41.7136 16.1485 39.6154C17.8323 37.3146 20.361 35.7769 23.1785 35.3406C25.996 34.9043 28.8714 35.605 31.1722 37.2888Z" fill="black" stroke="#EBF3FF" stroke-width="1.5"/>
<path d="M37.9834 19.8564L66.9544 15.582M39.0547 26.774L68.0257 22.4995M46.2849 34.2556C45.6282 36.5498 45.5161 41.0533 50.3208 40.714C53.1901 40.5114 55.4845 38.0881 56.8207 35.6001M56.8207 35.6001C58.2814 32.8804 58.597 30.0833 57.2668 30.0251C55.1808 29.9338 55.139 34.2769 56.8207 35.6001ZM56.8207 35.6001C57.1925 35.8926 57.6484 36.0375 58.185 35.9544C61.1497 35.4953 61.9018 27.2835 68.0257 30.8887" stroke="black" stroke-width="1.5"/>
</svg>
