<svg width="105" height="127" viewBox="0 0 105 127" fill="none" xmlns="http://www.w3.org/2000/svg">
<path d="M2.01117 119.713C7.01513 116.325 35.5498 114.964 39.1388 115.103C61.0442 115.103 84.4345 116.78 85.5484 119.713C86.8566 123.159 77.7857 126 45.4505 126C12.7781 126 -3.55806 123.485 2.01117 119.713Z" fill="#F6F6F6" stroke="black" stroke-width="1.5" stroke-linejoin="round"/>
<path d="M42.7244 120.966H20.1635C18.3164 107.534 15.7305 77.2248 20.1635 62.2136C24.5965 47.2025 34.6764 34.2215 39.1621 29.6074L47.0782 28.6846L42.7244 120.966Z" fill="#EBF3FF" stroke="black" stroke-width="1.5"/>
<path d="M25.0469 46.8108C27.5298 44.7586 35.4753 41.0237 47.3936 42.5012" stroke="black" stroke-width="1.5"/>
<path d="M22.6943 54.8435C25.1773 52.7913 33.1228 49.0564 45.041 50.534" stroke="black" stroke-width="1.5"/>
<path d="M19.5576 62.8762C22.0406 60.824 29.9861 57.0891 41.9043 58.5667" stroke="black" stroke-width="1.5"/>
<path d="M16.4219 70.9089C18.9048 68.8568 26.8503 65.1218 38.7686 66.5994" stroke="black" stroke-width="1.5"/>
<path d="M16.4219 78.9416C18.9048 76.8895 26.8503 73.1546 38.7686 74.6321" stroke="black" stroke-width="1.5"/>
<path d="M16.4219 86.9743C18.9048 84.9222 26.8503 81.1873 38.7686 82.6648" stroke="black" stroke-width="1.5"/>
<path d="M14.8535 95.007C17.3365 92.9549 25.282 89.22 37.2002 90.6975" stroke="black" stroke-width="1.5"/>
<path d="M16.4219 103.04C18.9048 100.988 26.8503 97.2527 38.7686 98.7303" stroke="black" stroke-width="1.5"/>
<path d="M17.9902 110.838C20.4732 108.785 28.4187 105.051 40.3369 106.528" stroke="black" stroke-width="1.5"/>
<path d="M53.2969 27.0068L63.0042 34.0692L68.052 120.967H38.1534C37.1179 110.731 35.3577 85.6549 36.6002 67.2314C37.8428 48.8079 41.7775 34.1715 43.5895 29.1562L53.2969 27.0068Z" fill="black" stroke="black" stroke-width="1.5"/>
<path d="M65.0491 3.14774L70.5684 120.966H66.2318L62.9405 23.3978C54.315 42.5434 53.6162 95.5004 57.5586 120.966H54.4047C50.2858 93.2818 52.9242 39.0256 61.2162 16.0342C45.5562 23.091 26.4138 43.3411 20.5002 68.1935C16.0477 86.9054 18.3976 111.966 21.6829 120.966H17.9354C16.1635 117.285 13.5785 99.382 14.5865 82.614C17.1096 40.6411 47.5009 18.7955 62.5783 12.6591L61.8952 1L65.0491 3.14774Z" fill="#F6F6F6" stroke="black" stroke-width="1.5" stroke-linejoin="round"/>
<path d="M89.6502 26.098C94.5198 25.27 96.3169 29.8928 96.6067 32.3077C102.52 30.6518 103.998 35.4126 103.998 37.9999L73.998 38C73.998 34.6881 76.6067 34.5502 77.9111 34.8951C77.9111 34.3777 77.998 32.6182 80.085 31.7903C82.172 30.9623 83.2734 32.9977 83.5632 33.8602C83.5632 31.6178 84.7806 26.9259 89.6502 26.098Z" fill="#EBF3FF" stroke="black" stroke-width="1.5" stroke-linejoin="round"/>
</svg>
