<svg width="127" height="132" viewBox="0 0 127 132" fill="none" xmlns="http://www.w3.org/2000/svg">
<circle cx="76.7626" cy="53.8972" r="41.1559" transform="rotate(-13.0964 76.7626 53.8972)" fill="black"/>
<path d="M107.135 106.456C107.373 107.481 107.143 108.623 106.408 109.852C105.671 111.084 104.449 112.36 102.799 113.592C99.5017 116.056 94.6138 118.262 88.9156 119.588C83.2174 120.913 77.8578 121.091 73.8114 120.336C71.7871 119.958 70.1276 119.353 68.922 118.572C67.7206 117.794 67.0096 116.871 66.7713 115.846C66.533 114.822 66.7632 113.679 67.4978 112.451C68.235 111.218 69.4571 109.943 71.1068 108.71C74.4042 106.246 79.2921 104.04 84.9903 102.715C90.6885 101.389 96.0481 101.211 100.094 101.966C102.119 102.344 103.778 102.949 104.984 103.73C106.185 104.508 106.896 105.432 107.135 106.456Z" fill="black" stroke="black" stroke-width="1.5"/>
<path d="M106.094 104.584C106.254 105.27 106.037 106.117 105.277 107.121C104.521 108.12 103.291 109.182 101.643 110.231C98.3526 112.327 93.5383 114.284 87.9819 115.577C82.4255 116.87 77.2418 117.238 73.3642 116.81C71.4218 116.596 69.8497 116.186 68.7302 115.623C67.6056 115.058 67.0367 114.394 66.8771 113.708C66.7174 113.021 66.9347 112.174 67.6944 111.171C68.4506 110.172 69.6803 109.11 71.3286 108.06C74.619 105.964 79.4332 104.007 84.9896 102.715C90.546 101.422 95.7298 101.053 99.6073 101.481C101.55 101.696 103.122 102.106 104.241 102.668C105.366 103.234 105.935 103.898 106.094 104.584Z" fill="white" stroke="black" stroke-width="1.5"/>
<path d="M75.7126 100.479C75.3962 100.553 75.1993 100.869 75.2729 101.185L77.4055 110.352C77.415 110.393 77.4285 110.432 77.4455 110.468C77.4503 110.526 77.4591 110.582 77.4722 110.639C77.8771 112.379 82.1812 112.865 87.0858 111.724C91.9903 110.583 95.6381 108.247 95.2332 106.507C95.2201 106.451 95.203 106.396 95.1819 106.342C95.181 106.302 95.176 106.261 95.1665 106.22L93.0339 97.0533C92.9603 96.7369 92.6441 96.5401 92.3277 96.6137L75.7126 100.479Z" fill="black"/>
<path d="M92.2362 96.9367C92.2676 97.0714 92.2458 97.3175 91.9545 97.7053C91.6663 98.089 91.1752 98.5231 90.4796 98.9685C89.0944 99.8555 87.041 100.697 84.6494 101.253C82.2577 101.81 80.0437 101.961 78.4093 101.777C77.5885 101.684 76.9563 101.511 76.5283 101.294C76.0958 101.075 75.9676 100.863 75.9362 100.729C75.9049 100.594 75.9267 100.348 76.218 99.9602C76.5062 99.5765 76.9973 99.1424 77.6929 98.697C79.078 97.81 81.1315 96.9685 83.5231 96.4121C85.9147 95.8557 88.1287 95.7045 89.7632 95.889C90.584 95.9816 91.2162 96.1543 91.6442 96.3714C92.0767 96.5908 92.2049 96.802 92.2362 96.9367Z" fill="white" stroke="black" stroke-width="1.5"/>
<path d="M86.4504 97.3125C86.5784 97.8623 86.299 98.4299 85.7686 98.6232C85.174 98.84 84.5361 99.0304 83.8666 99.1862C83.1971 99.3419 82.5406 99.4526 81.9114 99.5206C81.3502 99.5812 80.849 99.1952 80.7211 98.6453L78.2695 88.1074L83.9989 86.7745L86.4504 97.3125Z" fill="black"/>
<circle cx="73.2048" cy="53.3511" r="40" transform="rotate(-13.0964 73.2048 53.3511)" fill="#EBF3FF" stroke="black" stroke-width="1.5"/>
<path fill-rule="evenodd" clip-rule="evenodd" d="M112.22 44.5326C110.886 44.9172 108.658 44.8927 105.109 43.8153C96.6612 41.251 92.3642 42.2507 90.0525 43.9964C87.7409 45.742 80.053 49.0404 74.6897 45.4566C73.7136 44.8043 72.7039 44.1798 71.707 43.5633L71.7069 43.5632C67.2265 40.7923 63.005 38.1814 63.2499 33.9253C63.433 30.7432 65.0613 28.9191 67.0377 26.705C68.293 25.2987 69.6888 23.7351 70.9437 21.5664C73.2684 17.5489 72.512 14.6391 71.656 13.374C90.4569 12.6248 107.743 25.2849 112.164 44.2878C112.183 44.3694 112.202 44.451 112.22 44.5326ZM109.851 69.3903L109.828 69.291C108.284 64.8186 104.492 56.2189 101.672 57.5996C100.196 58.3227 99.5904 59.3734 99.0611 60.2923C98.3273 61.5662 97.7394 62.5869 95.1772 62.1303C93.6879 61.865 92.4219 61.3756 91.2159 60.9093C88.8504 59.9947 86.7154 59.1693 83.5782 60.2992C78.8415 62.005 72.766 67.0421 73.0127 69.4005C73.2594 71.7589 71.5545 80.0067 65.9982 79.4875C63.8684 79.2885 61.1403 77.8532 58.2134 76.3132C53.5047 73.8358 48.2812 71.0875 44.2058 72.7805C42.496 73.4907 41.1035 74.5146 39.986 75.6535C48.982 89.0476 65.6203 96.184 82.2683 92.311C95.047 89.3381 104.958 80.5472 109.851 69.3903Z" fill="white"/>
<path d="M105.109 43.8153L104.891 44.533L105.109 43.8153ZM112.22 44.5326L112.428 45.2533C112.81 45.1433 113.04 44.7546 112.952 44.3671L112.22 44.5326ZM90.0525 43.9964L90.5045 44.5949L90.0525 43.9964ZM74.6897 45.4566L75.1064 44.833L74.6897 45.4566ZM71.707 43.5633L72.1015 42.9254C72.096 42.9221 72.0905 42.9188 72.085 42.9155L71.707 43.5633ZM71.7069 43.5632L71.3124 44.2011C71.3178 44.2045 71.3233 44.2078 71.3288 44.211L71.7069 43.5632ZM63.2499 33.9253L63.9986 33.9684L63.2499 33.9253ZM67.0377 26.705L67.5972 27.2044L67.0377 26.705ZM70.9437 21.5664L71.5929 21.942L70.9437 21.5664ZM71.656 13.374L71.6262 12.6246C71.3542 12.6354 71.1095 12.7927 70.9867 13.0356C70.8639 13.2785 70.8823 13.5688 71.0349 13.7943L71.656 13.374ZM109.828 69.291L110.558 69.1211C110.552 69.0958 110.545 69.0708 110.537 69.0463L109.828 69.291ZM109.851 69.3903L110.538 69.6915C110.603 69.5433 110.618 69.378 110.581 69.2203L109.851 69.3903ZM101.672 57.5996L101.343 56.926L101.672 57.5996ZM99.0611 60.2923L98.4113 59.9179L99.0611 60.2923ZM95.1772 62.1303L95.3087 61.392L95.1772 62.1303ZM91.2159 60.9093L91.4864 60.2098L91.2159 60.9093ZM83.5782 60.2992L83.8323 61.0048L83.5782 60.2992ZM73.0127 69.4005L73.7586 69.3225L73.0127 69.4005ZM65.9982 79.4875L66.068 78.7408L65.9982 79.4875ZM58.2134 76.3132L58.5626 75.6495L58.5626 75.6495L58.2134 76.3132ZM44.2058 72.7805L44.4935 73.4731L44.4935 73.4731L44.2058 72.7805ZM39.986 75.6535L39.4507 75.1282C39.2015 75.3822 39.165 75.7763 39.3634 76.0717L39.986 75.6535ZM104.891 44.533C108.498 45.6279 110.891 45.6963 112.428 45.2533L112.013 43.8119C110.881 44.1382 108.819 44.1575 105.327 43.0976L104.891 44.533ZM90.5045 44.5949C92.5336 43.0626 96.5355 41.9967 104.891 44.533L105.327 43.0976C96.7868 40.5054 92.1948 41.4388 89.6006 43.3978L90.5045 44.5949ZM74.273 46.0802C77.1885 48.0283 80.6851 48.0752 83.6671 47.4595C86.6478 46.8442 89.2524 45.5405 90.5045 44.5949L89.6006 43.3978C88.5411 44.1979 86.1459 45.4162 83.3639 45.9905C80.5832 46.5646 77.5543 46.4687 75.1064 44.833L74.273 46.0802ZM71.3125 44.2012C72.3113 44.8189 73.3097 45.4365 74.273 46.0802L75.1064 44.833C74.1174 44.1721 73.0964 43.5408 72.1015 42.9254L71.3125 44.2012ZM71.3288 44.211L71.329 44.2111L72.085 42.9155L72.0849 42.9155L71.3288 44.211ZM62.5011 33.8822C62.3615 36.3086 63.5124 38.2244 65.1853 39.8406C66.8399 41.4391 69.092 42.8279 71.3124 44.2011L72.1014 42.9254C69.8414 41.5276 67.7426 40.2255 66.2275 38.7618C64.7308 37.3158 63.8934 35.7981 63.9986 33.9684L62.5011 33.8822ZM66.4782 26.2056C64.5136 28.4064 62.701 30.4092 62.5011 33.8822L63.9986 33.9684C64.165 31.0773 65.6091 29.4317 67.5972 27.2044L66.4782 26.2056ZM70.2946 21.1907C69.0822 23.2859 67.7339 24.7988 66.4782 26.2056L67.5972 27.2044C68.8521 25.7986 70.2953 24.1843 71.5929 21.942L70.2946 21.1907ZM71.0349 13.7943C71.7097 14.7917 72.4942 17.3894 70.2946 21.1907L71.5929 21.942C74.0426 17.7084 73.3143 14.4866 72.2772 12.9537L71.0349 13.7943ZM71.6859 14.1234C90.1338 13.3883 107.096 25.812 111.434 44.4577L112.895 44.1178C108.391 24.7579 90.78 11.8613 71.6262 12.6246L71.6859 14.1234ZM111.434 44.4577C111.452 44.5378 111.471 44.6179 111.489 44.6981L112.952 44.3671C112.933 44.284 112.914 44.2009 112.895 44.1178L111.434 44.4577ZM109.097 69.461L109.12 69.5602L110.581 69.2203L110.558 69.1211L109.097 69.461ZM102.002 58.2731C102.287 58.1336 102.719 58.1589 103.424 58.7784C104.11 59.3811 104.848 60.3847 105.582 61.631C107.041 64.1081 108.356 67.3249 109.119 69.5357L110.537 69.0463C109.756 66.7848 108.403 63.4655 106.875 60.8699C106.115 59.5797 105.28 58.4127 104.414 57.6516C103.567 56.9072 102.467 56.3752 101.343 56.926L102.002 58.2731ZM99.711 60.6666C100.233 59.7607 100.744 58.8895 102.002 58.2731L101.343 56.926C99.6477 57.756 98.948 58.9861 98.4113 59.9179L99.711 60.6666ZM95.0456 62.8687C96.4237 63.1142 97.4287 62.9908 98.2088 62.4921C98.9495 62.0186 99.3642 61.2687 99.711 60.6666L98.4113 59.9179C98.0243 60.5897 97.7781 60.9872 97.4009 61.2283C97.063 61.4443 96.4929 61.603 95.3087 61.392L95.0456 62.8687ZM90.9455 61.6088C92.1463 62.0731 93.4755 62.589 95.0456 62.8687L95.3087 61.392C93.9003 61.141 92.6976 60.678 91.4864 60.2098L90.9455 61.6088ZM83.8323 61.0048C86.6895 59.9758 88.5911 60.6986 90.9455 61.6088L91.4864 60.2098C89.1096 59.2909 86.7414 58.3628 83.3241 59.5935L83.8323 61.0048ZM73.7586 69.3225C73.7282 69.0318 73.9051 68.4759 74.4983 67.6668C75.0613 66.8989 75.8995 66.0372 76.9123 65.1767C78.9414 63.4528 81.5677 61.8204 83.8323 61.0048L83.3241 59.5935C80.852 60.4838 78.0722 62.2229 75.9411 64.0336C74.8737 64.9404 73.9433 65.8868 73.2885 66.7799C72.6639 67.6319 72.1739 68.59 72.2668 69.4785L73.7586 69.3225ZM65.9285 80.2343C69.1816 80.5383 71.2202 78.2397 72.3589 75.8452C72.9362 74.6313 73.317 73.3329 73.5385 72.1869C73.7578 71.0524 73.831 70.0141 73.7586 69.3225L72.2668 69.4785C72.3178 69.9661 72.2704 70.8432 72.0658 71.9023C71.8633 72.9497 71.5169 74.123 71.0043 75.201C69.9632 77.3903 68.3711 78.956 66.068 78.7408L65.9285 80.2343ZM57.8642 76.977C59.3217 77.7438 60.7603 78.5011 62.1036 79.0901C63.4401 79.6762 64.7426 80.1235 65.9285 80.2343L66.068 78.7408C65.124 78.6526 63.9976 78.2827 62.7059 77.7164C61.421 77.153 60.0321 76.4226 58.5626 75.6495L57.8642 76.977ZM44.4935 73.4731C46.2878 72.7277 48.4032 72.9329 50.7393 73.6959C53.0716 74.4576 55.4967 75.7313 57.8642 76.977L58.5626 75.6495C56.2214 74.4177 53.6804 73.0785 51.205 72.27C48.7332 71.4627 46.1992 71.1402 43.9181 72.0879L44.4935 73.4731ZM40.5213 76.1788C41.5776 75.1022 42.8882 74.14 44.4935 73.4731L43.9181 72.0879C42.1039 72.8415 40.6293 73.9269 39.4507 75.1282L40.5213 76.1788ZM82.0983 91.5805C65.7637 95.3806 49.4366 88.3794 40.6086 75.2353L39.3634 76.0717C48.5273 89.7158 65.4769 96.9873 82.4382 93.0415L82.0983 91.5805ZM109.164 69.089C104.362 80.0387 94.637 88.6635 82.0983 91.5805L82.4382 93.0415C95.457 90.0128 105.553 81.0557 110.538 69.6915L109.164 69.089Z" fill="black"/>
<ellipse cx="65.8469" cy="19.1284" rx="4.70588" ry="2.05882" transform="rotate(-13.0964 65.8469 19.1284)" fill="black"/>
<path d="M66.3137 11.4698L68.2191 19.6598C67.642 19.9565 66.934 20.2186 66.1422 20.4028C65.3504 20.587 64.5994 20.6643 63.9507 20.6528L62.0454 12.4628C61.7712 11.2841 62.5044 10.1063 63.6831 9.83212C64.8617 9.55791 66.0395 10.2911 66.3137 11.4698Z" fill="white" stroke="black" stroke-width="1.5"/>
<path fill-rule="evenodd" clip-rule="evenodd" d="M100.945 17.9369L102.607 0.673735L87.6385 9.43231L91.1128 11.6529L66.5675 50.4611L35.8628 35.4156C34.0445 34.5247 31.8532 34.9858 30.5483 36.534L8.20079 63.0462C7.0492 64.4124 7.22318 66.4535 8.58938 67.605C9.95559 68.7566 11.9967 68.5827 13.1482 67.2164L34.4595 41.9336L65.379 57.0843C67.4012 58.0752 69.8451 57.384 71.0488 55.4808L96.5651 15.1375L100.945 17.9369Z" fill="black"/>
<circle cx="42.6522" cy="90.7597" r="11.5706" transform="rotate(9.21574 42.6522 90.7597)" fill="#EBF3FF"/>
<path fill-rule="evenodd" clip-rule="evenodd" d="M43.4016 124.389C46.5719 124.338 63.1248 101.971 62.9462 90.882C62.8777 86.6254 61.4896 82.6995 59.1779 79.4877C58.0003 77.8515 56.583 76.4007 54.9784 75.1858C51.5267 72.5725 47.2082 71.0512 42.5438 71.1264C31.4545 71.3049 22.6096 80.4394 22.7882 91.5287C22.9668 102.618 40.2312 124.44 43.4016 124.389ZM43.02 100.716C48.2728 100.632 52.4625 96.305 52.3779 91.0521C52.2933 85.7993 47.9665 81.6096 42.7137 81.6942C37.4608 81.7788 33.2711 86.1056 33.3557 91.3585C33.4403 96.6113 37.7672 100.801 43.02 100.716Z" fill="black"/>
<mask id="path-15-inside-1_201_2823" fill="white">
<path fill-rule="evenodd" clip-rule="evenodd" d="M42.549 121.659C45.7194 121.608 62.2722 99.2419 62.0937 88.1525C62.0251 83.8959 60.637 79.97 58.3254 76.7582C57.1477 75.122 55.7305 73.6712 54.1258 72.4563C50.6742 69.8431 46.3557 68.3218 41.6913 68.3969C30.602 68.5754 21.7571 77.7099 21.9357 88.7992C22.1142 99.8886 39.3787 121.71 42.549 121.659ZM42.1673 97.987C47.4202 97.9024 51.6099 93.5755 51.5253 88.3227C51.4407 83.0699 47.1138 78.8802 41.861 78.9648C36.6082 79.0494 32.4185 83.3762 32.5031 88.629C32.5877 93.8819 36.9145 98.0716 42.1673 97.987Z"/>
</mask>
<path fill-rule="evenodd" clip-rule="evenodd" d="M42.549 121.659C45.7194 121.608 62.2722 99.2419 62.0937 88.1525C62.0251 83.8959 60.637 79.97 58.3254 76.7582C57.1477 75.122 55.7305 73.6712 54.1258 72.4563C50.6742 69.8431 46.3557 68.3218 41.6913 68.3969C30.602 68.5754 21.7571 77.7099 21.9357 88.7992C22.1142 99.8886 39.3787 121.71 42.549 121.659ZM42.1673 97.987C47.4202 97.9024 51.6099 93.5755 51.5253 88.3227C51.4407 83.0699 47.1138 78.8802 41.861 78.9648C36.6082 79.0494 32.4185 83.3762 32.5031 88.629C32.5877 93.8819 36.9145 98.0716 42.1673 97.987Z" fill="white"/>
<path d="M58.3254 76.7582L57.1079 77.6345L58.3254 76.7582ZM54.1258 72.4563L53.2204 73.6522L53.2204 73.6522L54.1258 72.4563ZM60.5939 88.1767C60.6333 90.6272 59.7339 93.8683 58.1835 97.4653C56.6489 101.026 54.5417 104.788 52.3173 108.231C50.0928 111.674 47.7752 114.761 45.8372 116.973C44.8649 118.083 44.0143 118.943 43.3387 119.513C42.9993 119.8 42.7354 119.987 42.5469 120.095C42.3223 120.224 42.3402 120.162 42.5249 120.159L42.5732 123.159C43.1542 123.15 43.6729 122.907 44.039 122.698C44.4412 122.467 44.8578 122.157 45.2742 121.806C46.1099 121.1 47.0712 120.117 48.0938 118.95C50.1455 116.608 52.5494 113.4 54.8371 109.859C57.1249 106.318 59.3206 102.406 60.9385 98.6528C62.5406 94.9357 63.6433 91.2225 63.5935 88.1284L60.5939 88.1767ZM57.1079 77.6345C59.2465 80.6058 60.5304 84.236 60.5939 88.1767L63.5935 88.1284C63.5198 83.5558 62.0276 79.3343 59.5428 75.882L57.1079 77.6345ZM53.2204 73.6522C54.7059 74.7769 56.0179 76.12 57.1079 77.6345L59.5428 75.882C58.2776 74.124 56.755 72.5655 55.0312 71.2604L53.2204 73.6522ZM41.7155 69.8967C46.033 69.8271 50.0264 71.2341 53.2204 73.6522L55.0312 71.2604C51.3219 68.452 46.6783 66.8164 41.6672 66.8971L41.7155 69.8967ZM23.4355 88.7751C23.2702 78.5141 31.4545 70.0619 41.7155 69.8967L41.6672 66.8971C29.7495 67.089 20.2439 76.9057 20.4358 88.8234L23.4355 88.7751ZM42.5249 120.159C42.7096 120.156 42.7294 120.217 42.5008 120.096C42.3089 119.994 42.0391 119.815 41.6907 119.54C40.9971 118.991 40.1192 118.16 39.1117 117.081C37.1035 114.933 34.6877 111.922 32.3535 108.553C30.0193 105.183 27.7922 101.491 26.1437 97.9813C24.4783 94.4361 23.4749 91.2256 23.4355 88.7751L20.4358 88.8234C20.4857 91.9175 21.7073 95.5932 23.4283 99.2568C25.1662 102.956 27.4868 106.795 29.8874 110.261C32.2879 113.726 34.7938 116.855 36.9199 119.13C37.9795 120.264 38.972 121.215 39.83 121.893C40.2575 122.231 40.6839 122.527 41.0933 122.745C41.466 122.943 41.9922 123.168 42.5732 123.159L42.5249 120.159ZM50.0255 88.3469C50.0967 92.7714 46.5677 96.4159 42.1432 96.4872L42.1915 99.4868C48.2726 99.3889 53.123 94.3797 53.0251 88.2986L50.0255 88.3469ZM41.8852 80.4646C46.3097 80.3933 49.9542 83.9223 50.0255 88.3469L53.0251 88.2986C52.9272 82.2174 47.918 77.367 41.8369 77.465L41.8852 80.4646ZM34.0029 88.6049C33.9316 84.1804 37.4606 80.5358 41.8852 80.4646L41.8369 77.465C35.7557 77.5629 30.9053 82.572 31.0033 88.6532L34.0029 88.6049ZM42.1432 96.4872C37.7187 96.5584 34.0741 93.0294 34.0029 88.6049L31.0033 88.6532C31.1012 94.7343 36.1103 99.5847 42.1915 99.4868L42.1432 96.4872Z" fill="black" mask="url(#path-15-inside-1_201_2823)"/>
</svg>
