<svg width="153" height="153" viewBox="0 0 153 153" fill="none" xmlns="http://www.w3.org/2000/svg">
<circle cx="75" cy="78" r="75" fill="#EBF3FF"/>
<path fill-rule="evenodd" clip-rule="evenodd" d="M100.521 1C108.805 1 115.521 7.71571 115.521 16V40.6463C115.521 48.9306 108.805 55.6463 100.521 55.6463H97.9713L97.9713 68L82.1572 55.6463H58.4434C50.1591 55.6463 43.4434 48.9306 43.4434 40.6463V16C43.4434 7.71573 50.1591 1 58.4434 1H100.521Z" fill="#F6F6F6"/>
<path d="M97.9713 55.6463H97.2213L97.2213 54.8963H97.9713V55.6463ZM97.9713 68H98.7213L98.7213 69.5376L97.5096 68.591L97.9713 68ZM82.1572 55.6463V54.8963H82.4154L82.6189 55.0553L82.1572 55.6463ZM114.771 16C114.771 8.12993 108.391 1.75 100.521 1.75V0.25C109.219 0.25 116.271 7.3015 116.271 16H114.771ZM114.771 40.6463V16H116.271V40.6463H114.771ZM100.521 54.8963C108.391 54.8963 114.771 48.5164 114.771 40.6463H116.271C116.271 49.3448 109.219 56.3963 100.521 56.3963V54.8963ZM97.9713 54.8963H100.521V56.3963H97.9713V54.8963ZM97.2213 68L97.2213 55.6463H98.7213L98.7213 68H97.2213ZM82.6189 55.0553L98.433 67.409L97.5096 68.591L81.6955 56.2373L82.6189 55.0553ZM58.4434 54.8963H82.1572V56.3963H58.4434V54.8963ZM44.1934 40.6463C44.1934 48.5164 50.5734 54.8963 58.4434 54.8963V56.3963C49.7449 56.3963 42.6934 49.3448 42.6934 40.6463H44.1934ZM44.1934 16V40.6463H42.6934V16H44.1934ZM58.4434 1.75C50.5733 1.75 44.1934 8.12994 44.1934 16H42.6934C42.6934 7.30152 49.7449 0.25 58.4434 0.25V1.75ZM100.521 1.75H58.4434V0.25H100.521V1.75Z" fill="black"/>
<path d="M47.301 91.0237L31.5669 93.9289L38.0318 134.375L81.1745 127.225C88.126 126.072 94.6309 123.026 99.9499 118.404C107.215 112.092 115.482 104.783 117.057 102.496C119.302 99.2339 117.962 97.0747 117.011 96.4029C117.903 95.5666 118.605 94.8901 119.035 94.4448C122.023 91.3509 125.412 87.6744 124.557 85.7985C123.873 84.2977 122.391 84.1646 121.735 84.2857L124.424 81.8143C127.503 79.212 132.094 73.7882 129.091 71.292C126.255 68.9347 120.962 72.1151 118.89 73.684C119.519 72.3002 119.709 70.7858 118.622 69.6659C116.613 67.5963 112.787 68.3588 110.082 70.226C105.722 73.2342 95.5202 80.033 87.9861 85.4917C80.4521 90.9505 70.9436 95.0789 67.1312 96.4608C70.757 92.2322 79.0252 82.672 83.0917 78.2602C88.1749 72.7456 87.5393 69.3037 85.7011 67.6094C84.2306 66.2538 80.4993 67.8919 78.8175 68.8804L47.301 91.0237Z" fill="white"/>
<path d="M83.6976 103.571V103.571C91.8671 98.3407 99.5722 92.4183 106.728 85.869L116.852 76.6026C117.507 75.9372 118.356 74.8576 118.89 73.684M118.89 73.684C119.519 72.3002 119.709 70.7858 118.622 69.6659C116.613 67.5963 112.787 68.3588 110.082 70.226C105.722 73.2342 95.5202 80.033 87.9861 85.4917C80.4521 90.9505 70.9436 95.0789 67.1312 96.4608C70.757 92.2322 79.0252 82.672 83.0917 78.2602C88.1749 72.7456 87.5393 69.3037 85.7011 67.6094C84.2306 66.2538 80.4993 67.8919 78.8175 68.8804L47.301 91.0237L31.5669 93.9289L38.0318 134.375L81.1745 127.225C88.126 126.072 94.6309 123.026 99.9499 118.404C107.215 112.092 115.482 104.783 117.057 102.496C119.302 99.2339 117.962 97.0747 117.011 96.4029M118.89 73.684C120.962 72.1151 126.255 68.9347 129.091 71.292C132.094 73.7882 127.503 79.212 124.424 81.8143L116.25 89.3274C109.248 95.763 101.782 101.675 93.9133 107.016L87.2078 111.567M121.735 84.2857C122.391 84.1646 123.873 84.2977 124.557 85.7985C125.412 87.6744 122.023 91.3509 119.035 94.4448C118.605 94.8901 117.903 95.5666 117.011 96.4029M89.9428 118.629L100.745 111.042C104.928 107.35 112.944 100.216 117.011 96.4029" stroke="black" stroke-width="1.5"/>
<ellipse cx="23.3943" cy="115.833" rx="11.2754" ry="33.0132" transform="rotate(-19.8476 23.3943 115.833)" fill="black"/>
<mask id="path-7-inside-1_201_2439" fill="white">
<path fill-rule="evenodd" clip-rule="evenodd" d="M8.00428 97.7182L33.9383 92.9296L41.5646 134.231L21.8678 137.868C18.5812 133.118 15.3733 126.822 12.7887 119.662C9.87585 111.592 8.27385 103.862 8.00428 97.7182Z"/>
</mask>
<path fill-rule="evenodd" clip-rule="evenodd" d="M8.00428 97.7182L33.9383 92.9296L41.5646 134.231L21.8678 137.868C18.5812 133.118 15.3733 126.822 12.7887 119.662C9.87585 111.592 8.27385 103.862 8.00428 97.7182Z" fill="#F6F6F6"/>
<path d="M8.00428 97.7182L7.73191 96.2431L6.44851 96.4801L6.50572 97.7839L8.00428 97.7182ZM33.9383 92.9296L35.4134 92.6572L35.141 91.1821L33.666 91.4545L33.9383 92.9296ZM41.5646 134.231L41.8369 135.706L43.312 135.434L43.0396 133.959L41.5646 134.231ZM21.8678 137.868L20.6342 138.722L21.1861 139.52L22.1402 139.343L21.8678 137.868ZM12.7887 119.662L14.1996 119.153L12.7887 119.662ZM8.27664 99.1932L34.2107 94.4046L33.666 91.4545L7.73191 96.2431L8.27664 99.1932ZM32.4633 93.2019L40.0895 134.504L43.0396 133.959L35.4134 92.6572L32.4633 93.2019ZM41.2922 132.756L21.5954 136.393L22.1402 139.343L41.8369 135.706L41.2922 132.756ZM23.1014 137.015C19.9006 132.388 16.748 126.213 14.1996 119.153L11.3778 120.171C13.9985 127.432 17.2619 133.847 20.6342 138.722L23.1014 137.015ZM14.1996 119.153C11.326 111.192 9.76436 103.613 9.50283 97.6524L6.50572 97.7839C6.78335 104.111 8.42571 111.993 11.3778 120.171L14.1996 119.153Z" fill="black" mask="url(#path-7-inside-1_201_2439)"/>
<path d="M73.371 72.4287C73.7467 73.5457 75.5254 75.285 79.6344 73.306C83.7434 71.327 85.8397 69.279 86.3742 68.5023" stroke="black" stroke-width="1.5"/>
<path d="M112.479 80.4606C111.836 79.7319 111.049 77.6739 113.046 75.2713C115.043 72.8688 118.044 71.1284 119.294 70.5585M123.531 82.4875C122.858 81.5949 122.01 79.2091 124.007 76.8066C126.004 74.4041 128.737 73.052 129.855 72.6762M118.645 94.5757C118.299 93.6226 117.929 91.2504 119.212 89.3865C120.815 87.0566 124.076 85.4377 124.658 85.8386M113.176 106.263C112.727 105.668 112.329 103.877 114.325 101.475C116.322 99.0721 117.866 98.6177 118.388 98.6908" stroke="black" stroke-width="1.5"/>
<path d="M66.5343 20.6758C63.3764 26.709 74.5166 37.4058 80.4815 42C86.4463 37.4058 97.5865 26.709 94.4286 20.6758C90.4813 13.1344 82.0604 19.1155 80.4815 21.716C78.9026 19.1155 70.4816 13.1344 66.5343 20.6758Z" fill="black"/>
<path d="M116.669 120.206C121.225 120.206 126.688 118.904 130.712 113.192C134.111 108.369 134.704 103.708 134.663 99.9081C134.643 99.1873 134.625 98.5138 134.59 97.9023C134.627 98.5388 134.656 99.2089 134.663 99.9081C134.778 104.015 134.968 109.655 138.928 114.087C143.583 119.296 148.138 120.402 151.528 120.206C148.816 120.363 143.646 120.388 139.56 125.007C135.473 129.627 134.394 137.633 134.365 141.058C134.183 133.993 131.579 120.206 116.669 120.206Z" fill="#EBF3FF" stroke="black" stroke-width="1.5"/>
<path d="M3.16868 43.7285C5.86371 43.7285 9.09575 42.958 11.4762 39.5793C13.8566 36.2006 13.9104 32.9565 13.7703 30.5338C13.9104 32.9565 13.5824 37.0267 16.3365 40.1084C19.0906 43.1901 21.7848 43.8445 23.7905 43.7285C22.1859 43.8213 19.128 43.8361 16.7102 46.5688C14.2924 49.3014 13.6541 54.0378 13.6371 56.0644C13.5295 51.8844 11.9888 43.7285 3.16868 43.7285Z" stroke="black" stroke-width="1.5"/>
</svg>
