<svg width="99" height="117" viewBox="0 0 99 117" fill="none" xmlns="http://www.w3.org/2000/svg">
<path d="M5 109L18.3323 95.4375L30.1263 109L48.5864 85.2056L53.2014 90.8332L94.7582 33M94.7582 33L96 41.6935M94.7582 33L86.0659 34.2419" stroke="black" stroke-width="1.5"/>
<circle cx="63.7168" cy="81.7998" r="35" fill="black"/>
<circle cx="61.2168" cy="79.2998" r="32.75" fill="#F6F6F6" stroke="black" stroke-width="1.5"/>
<circle cx="61.2168" cy="79.2998" r="27.75" fill="#F6F6F6" stroke="black" stroke-width="1.5"/>
<path d="M51.7819 81.3847L49.1944 83.1039C48.9221 83.2848 48.848 83.6522 49.0289 83.9246C49.2099 84.1969 49.5773 84.271 49.8496 84.0901L52.223 82.5132L52.7648 83.5178C53.0076 83.968 53.272 84.4087 53.557 84.8376C53.842 85.2665 54.1458 85.681 54.4667 86.0793L55.1828 86.9681L52.8095 88.545C52.5371 88.7259 52.463 89.0933 52.644 89.3657C52.8249 89.638 53.1923 89.7121 53.4647 89.5312L56.0522 87.812L56.6492 88.3159C57.4669 89.006 58.3445 89.6047 59.2652 90.0965C61.5089 91.2952 63.9239 91.8126 66.2065 91.5572C68.4932 91.3013 70.5318 90.2817 72.0527 88.6236C73.5715 86.9677 74.49 84.7675 74.7151 82.3177C74.745 81.9921 74.5053 81.7039 74.1797 81.674C73.8541 81.644 73.566 81.8837 73.536 82.2093L73.8613 82.2392L73.536 82.2093C73.3317 84.4327 72.5036 86.3804 71.1801 87.8233C69.8586 89.2641 68.0861 90.1555 66.0749 90.3805C64.0601 90.606 61.8838 90.1531 59.8231 89.0522C59.2739 88.7588 58.7409 88.4236 58.2286 88.0509L57.0182 87.1702L64.3469 82.3011C64.6192 82.1201 64.6933 81.7527 64.5124 81.4804C64.3314 81.208 63.964 81.1339 63.6917 81.3149L56.1922 86.2975L55.5937 85.5856C55.2203 85.1414 54.869 84.6728 54.5432 84.1824C54.2173 83.6919 53.9215 83.1865 53.6567 82.6702L53.2323 81.8426L62.0921 75.9562C62.3644 75.7753 62.4385 75.4078 62.2576 75.1355C62.0767 74.8632 61.7092 74.7891 61.4369 74.97L52.7479 80.7429L52.4051 79.2858C52.26 78.6691 52.1576 78.0479 52.0999 77.4279C51.8837 75.1016 52.3095 72.9198 53.2981 71.1499C54.2849 69.383 55.7935 68.0945 57.6339 67.4345C59.4769 66.7736 61.5934 66.7649 63.7222 67.4382C64.0339 67.5368 64.3665 67.364 64.4651 67.0522C64.5637 66.7405 64.3909 66.4079 64.0792 66.3093C61.7336 65.5674 59.3493 65.5615 57.2342 66.32C55.1163 67.0795 53.3864 68.5637 52.2644 70.5725C51.1444 72.5778 50.6855 75.0046 50.921 77.5375C51.0176 78.5768 51.2295 79.6179 51.5488 80.6391L51.7819 81.3847Z" fill="black" stroke="black" stroke-width="0.857396"/>
<path d="M42.3119 11.4531C42.7086 20.4407 38.7001 38.0423 36.6463 45.7196C28.3832 51.7074 12.0082 54.5002 4.91637 51.322C-2.1755 48.1438 -0.61403 35.9225 6.61188 30.9382C12.3926 26.9508 23.4607 33.8231 28.2722 37.7576C24.6984 34.4104 17.4294 26.8294 16.9433 23.2835C16.7755 22.0594 17.2221 20.9454 17.9774 19.9757C20.525 16.7049 23.7938 13.5955 25.4077 9.77664C26.2261 7.84026 27.3434 5.73715 28.8307 3.74746C33.3526 -2.30176 41.816 0.21858 42.3119 11.4531Z" fill="black"/>
<path d="M47.7269 15.395C48.1236 24.3826 44.1151 41.9842 42.0613 49.6615C33.7982 55.6493 17.4233 58.4421 10.3314 55.2639C3.23954 52.0857 4.80101 39.8644 12.0269 34.8801C17.8076 30.8927 28.8758 37.765 33.6872 41.6995C30.1135 38.3523 22.8444 30.7713 22.3584 27.2253C22.1906 26.0013 22.6371 24.8873 23.3925 23.9175C25.9401 20.6468 29.2089 17.5374 30.8228 13.7185C31.6411 11.7822 32.7584 9.67905 34.2457 7.68936C38.7676 1.64014 47.231 4.16047 47.7269 15.395Z" fill="#EBF3FF" stroke="black" stroke-width="1.5"/>
<path d="M41.857 49.6584C42.5651 47.9691 43.9646 45.6107 44.9849 45.6275C47.3656 45.6666 44.3678 48.6791 42.8549 51.0356C35.9133 59.4264 26.6188 66.0776 28.0407 62.3589C29.1781 59.3839 37.7255 52.6523 41.857 49.6584Z" fill="black"/>
<path d="M45.5294 45.6362C45.7023 42.0103 47.4868 34.9649 50.1741 32.1047C53.6365 28.4195 55.6325 31.1738 54.5954 32.1773" stroke="black" stroke-width="1.5"/>
<path d="M45.1348 46.1708C46.8122 43.1649 51.3014 37.9358 54.7906 36.6415C59.2862 34.9739 59.8184 38.1551 58.5142 38.5695" stroke="black" stroke-width="1.5"/>
</svg>
