<svg width="75" height="63" viewBox="0 0 75 63" fill="none" xmlns="http://www.w3.org/2000/svg">
<path fill-rule="evenodd" clip-rule="evenodd" d="M8.86154 1.66797C4.51973 1.66797 1 5.1877 1 9.5295V43.2218C1 47.5636 4.51973 51.0834 8.86154 51.0834H42.347L58.8385 61.191L56.7105 51.0834H66.1385C70.4803 51.0834 74 47.5636 74 43.2218V9.52951C74 5.1877 70.4803 1.66797 66.1385 1.66797H8.86154Z" fill="black"/>
<path d="M42.347 51.0834L42.7389 50.4439L42.5585 50.3334H42.347V51.0834ZM58.8385 61.191L58.4465 61.8305L59.9311 62.7404L59.5724 61.0365L58.8385 61.191ZM56.7105 51.0834V50.3334H55.7862L55.9766 51.2379L56.7105 51.0834ZM1.75 9.5295C1.75 5.60191 4.93394 2.41797 8.86154 2.41797V0.917969C4.10552 0.917969 0.25 4.77348 0.25 9.5295H1.75ZM1.75 43.2218V9.5295H0.25V43.2218H1.75ZM8.86154 50.3334C4.93395 50.3334 1.75 47.1494 1.75 43.2218H0.25C0.25 47.9778 4.10552 51.8334 8.86154 51.8334V50.3334ZM42.347 50.3334H8.86154V51.8334H42.347V50.3334ZM59.2304 60.5516L42.7389 50.4439L41.9551 51.7228L58.4465 61.8305L59.2304 60.5516ZM55.9766 51.2379L58.1045 61.3456L59.5724 61.0365L57.4444 50.9288L55.9766 51.2379ZM66.1385 50.3334H56.7105V51.8334H66.1385V50.3334ZM73.25 43.2218C73.25 47.1494 70.0661 50.3334 66.1385 50.3334V51.8334C70.8945 51.8334 74.75 47.9778 74.75 43.2218H73.25ZM73.25 9.52951V43.2218H74.75V9.52951H73.25ZM66.1385 2.41797C70.066 2.41797 73.25 5.60191 73.25 9.52951H74.75C74.75 4.77349 70.8945 0.917969 66.1385 0.917969V2.41797ZM8.86154 2.41797H66.1385V0.917969H8.86154V2.41797Z" fill="black"/>
<path fill-rule="evenodd" clip-rule="evenodd" d="M8.86154 1.66797C4.51973 1.66797 1 5.18771 1 9.52951V40.9757C1 45.3175 4.51972 48.8372 8.86153 48.8372H38.9777L55.4692 58.9449L53.3413 48.8372H63.8923C68.2341 48.8372 71.7538 45.3175 71.7538 40.9757V9.52951C71.7538 5.1877 68.2341 1.66797 63.8923 1.66797H8.86154Z" fill="#F6F6F6"/>
<path d="M38.9777 48.8372L39.3697 48.1978L39.1893 48.0872H38.9777V48.8372ZM55.4692 58.9449L55.0773 59.5843L56.5618 60.4942L56.2031 58.7904L55.4692 58.9449ZM53.3413 48.8372V48.0872H52.417L52.6074 48.9917L53.3413 48.8372ZM1.75 9.52951C1.75 5.60192 4.93395 2.41797 8.86154 2.41797V0.917969C4.10552 0.917969 0.25 4.77349 0.25 9.52951H1.75ZM1.75 40.9757V9.52951H0.25V40.9757H1.75ZM8.86153 48.0872C4.93394 48.0872 1.75 44.9033 1.75 40.9757H0.25C0.25 45.7317 4.10551 49.5872 8.86153 49.5872V48.0872ZM38.9777 48.0872H8.86153V49.5872H38.9777V48.0872ZM55.8612 58.3054L39.3697 48.1978L38.5858 49.4767L55.0773 59.5843L55.8612 58.3054ZM52.6074 48.9917L54.7353 59.0994L56.2031 58.7904L54.0752 48.6827L52.6074 48.9917ZM63.8923 48.0872H53.3413V49.5872H63.8923V48.0872ZM71.0038 40.9757C71.0038 44.9033 67.8199 48.0872 63.8923 48.0872V49.5872C68.6483 49.5872 72.5038 45.7317 72.5038 40.9757H71.0038ZM71.0038 9.52951V40.9757H72.5038V9.52951H71.0038ZM63.8923 2.41797C67.8199 2.41797 71.0038 5.60191 71.0038 9.52951H72.5038C72.5038 4.77349 68.6483 0.917969 63.8923 0.917969V2.41797ZM8.86154 2.41797H63.8923V0.917969H8.86154V2.41797Z" fill="black"/>
<path d="M13.916 17.9526H59.4006" stroke="black" stroke-width="1.5"/>
<path d="M13.916 30.8682H59.4006" stroke="black" stroke-width="1.5"/>
</svg>
