<svg width="150" height="150" viewBox="0 0 150 150" fill="none" xmlns="http://www.w3.org/2000/svg">
<circle cx="75" cy="75" r="75" fill="#EBF3FF"/>
<path d="M63.3243 33.2887L63.762 49.7813L58.5102 50.5143L57.1973 18.9951C64.1996 21.9271 79.6632 40.2522 86.5197 49.0483L80.8303 47.9488C76.8914 42.4512 72.0773 36.5872 67.7008 32.9222L63.3243 33.2887Z" fill="black" stroke="black" stroke-width="1.5"/>
<path fill-rule="evenodd" clip-rule="evenodd" d="M77.7668 47.2158L59.8232 50.1478V139.511C61.2477 139.433 62.7099 139.428 64.1997 139.511C74.9485 140.115 78.1975 141.35 80.36 142.173C80.522 142.234 80.6779 142.294 80.8303 142.35C83.4899 141.354 87.5235 140.411 91.9963 140.121C94.6965 128.924 95.6841 110.121 93.5222 94.1281C90.8963 74.7035 83.8939 58.9439 77.7668 47.2158Z" fill="#EBF3FF"/>
<path d="M59.8232 50.1478L59.7023 49.4077C59.3396 49.4669 59.0732 49.7803 59.0732 50.1478H59.8232ZM77.7668 47.2158L78.4316 46.8685C78.2818 46.5818 77.9651 46.4235 77.6459 46.4756L77.7668 47.2158ZM59.8232 139.511H59.0732C59.0732 139.717 59.158 139.914 59.3076 140.056C59.4572 140.197 59.6585 140.271 59.8643 140.26L59.8232 139.511ZM64.1997 139.511L64.1577 140.26H64.1577L64.1997 139.511ZM80.36 142.173L80.6266 141.472H80.6266L80.36 142.173ZM80.8303 142.35L80.5697 143.053C80.7387 143.116 80.9246 143.116 81.0934 143.053L80.8303 142.35ZM91.9963 140.121L92.0447 140.87C92.3725 140.848 92.6484 140.616 92.7254 140.297L91.9963 140.121ZM93.5222 94.1281L94.2654 94.0276L93.5222 94.1281ZM59.9442 50.888L77.8878 47.956L77.6459 46.4756L59.7023 49.4077L59.9442 50.888ZM60.5732 139.511V50.1478H59.0732V139.511H60.5732ZM64.2418 138.763C62.7227 138.677 61.2327 138.683 59.7822 138.762L59.8643 140.26C61.2626 140.183 62.697 140.178 64.1577 140.26L64.2418 138.763ZM80.6266 141.472C78.3815 140.618 75.0553 139.37 64.2418 138.763L64.1577 140.26C74.8418 140.86 78.0134 142.083 80.0934 142.874L80.6266 141.472ZM81.091 141.647C80.942 141.592 80.7891 141.534 80.6266 141.472L80.0934 142.874C80.2548 142.935 80.4137 142.996 80.5697 143.053L81.091 141.647ZM91.9479 139.373C87.4076 139.666 83.3011 140.624 80.5672 141.648L81.0934 143.053C83.6788 142.084 87.6394 141.155 92.0447 140.87L91.9479 139.373ZM92.7789 94.2285C94.9302 110.142 93.9428 128.851 91.2672 139.945L92.7254 140.297C95.4503 128.998 96.4381 110.1 94.2654 94.0276L92.7789 94.2285ZM77.1021 47.5631C83.2101 59.2546 90.1695 74.9261 92.7789 94.2285L94.2654 94.0276C91.623 74.4808 84.5777 58.6331 78.4316 46.8685L77.1021 47.5631Z" fill="black"/>
<path d="M39.2539 146C42.7551 143.567 52.6459 138.863 64.1999 139.511C75.7538 140.16 78.6423 141.539 80.8305 142.35C87.687 139.782 103.676 137.565 112.779 146" stroke="black" stroke-width="1.5"/>
<path d="M27 85.6785C29.0837 84.6342 33.6758 83.3136 35.3743 86.3859C36.0033 84.971 38.5353 82.3839 43.6306 83.3541" stroke="black" stroke-width="1.5" stroke-linejoin="round"/>
<path d="M36.6279 93.2203C37.9587 93.0463 40.761 93.2203 41.3246 95.3077C42.0683 94.1249 44.0957 92.0513 46.2562 93.2203" stroke="black" stroke-width="1.5" stroke-linejoin="round"/>
<path d="M114.017 41.2137C118.856 40.452 120.641 44.7048 120.929 46.9264C126.804 45.403 128.273 49.7828 128.273 52.1631L98.4658 52.1632C98.4658 49.1164 101.058 48.9894 102.354 49.3068C102.354 48.8307 102.44 47.2121 104.514 46.4504C106.587 45.6887 107.682 47.5612 107.969 48.3547C107.969 46.2917 109.179 41.9754 114.017 41.2137Z" fill="#EBF3FF" stroke="black" stroke-width="1.5" stroke-linejoin="round"/>
<path d="M119.982 58.0752H138.801" stroke="black" stroke-width="1.5" stroke-linejoin="round"/>
<path fill-rule="evenodd" clip-rule="evenodd" d="M92.1158 140.114C94.9577 129.47 97.3219 107.867 90.897 82.4C84.3323 56.3784 77.7676 47.2158 77.7676 47.2158L86.5205 49.0483C91.6264 55.1567 102.801 72.5044 106.652 93.0285C110.152 111.677 106.931 131.535 104.343 141.332C100.36 140.137 96.0701 139.869 92.1158 140.114Z" fill="black"/>
<path d="M90.897 82.4L91.6242 82.2165L90.897 82.4ZM92.1158 140.114L91.3912 139.92C91.3289 140.153 91.3826 140.402 91.5354 140.589C91.6882 140.775 91.9214 140.877 92.1622 140.862L92.1158 140.114ZM77.7676 47.2158L77.9213 46.4817C77.6186 46.4184 77.3082 46.5472 77.1393 46.8062C76.9704 47.0652 76.9778 47.4013 77.1579 47.6526L77.7676 47.2158ZM86.5205 49.0483L87.096 48.5673C86.9878 48.4379 86.8393 48.3488 86.6742 48.3142L86.5205 49.0483ZM106.652 93.0285L105.915 93.1669L106.652 93.0285ZM104.343 141.332L104.127 142.051C104.322 142.109 104.532 142.086 104.71 141.987C104.887 141.887 105.016 141.72 105.068 141.524L104.343 141.332ZM90.1698 82.5835C96.5616 107.92 94.2022 129.393 91.3912 139.92L92.8404 140.307C95.7132 129.548 98.0823 107.815 91.6242 82.2165L90.1698 82.5835ZM77.7676 47.2158C77.1579 47.6526 77.1577 47.6524 77.1576 47.6522C77.1576 47.6522 77.1575 47.652 77.1575 47.652C77.1574 47.6519 77.1575 47.652 77.1576 47.6522C77.1579 47.6527 77.1586 47.6537 77.1597 47.6552C77.1619 47.6583 77.1657 47.6637 77.1711 47.6714C77.1818 47.6868 77.1987 47.7113 77.2217 47.7452C77.2676 47.8131 77.3376 47.9187 77.4303 48.0638C77.6155 48.354 77.8909 48.8025 78.2436 49.4241C78.949 50.6675 79.9637 52.604 81.1851 55.3542C83.6278 60.8546 86.8968 69.6098 90.1698 82.5835L91.6242 82.2165C88.3325 69.1686 85.0368 60.3316 82.556 54.7454C81.3155 51.9522 80.2788 49.9718 79.5482 48.684C79.1829 48.0401 78.8941 47.5694 78.6947 47.2569C78.595 47.1006 78.5176 46.9839 78.4642 46.9049C78.4374 46.8654 78.4167 46.8353 78.4021 46.8144C78.3949 46.8039 78.3891 46.7958 78.385 46.7899C78.3829 46.787 78.3812 46.7846 78.3799 46.7828C78.3793 46.7819 78.3787 46.7811 78.3783 46.7805C78.3781 46.7802 78.3778 46.7798 78.3777 46.7796C78.3775 46.7793 78.3772 46.779 77.7676 47.2158ZM86.6742 48.3142L77.9213 46.4817L77.6139 47.9499L86.3669 49.7824L86.6742 48.3142ZM107.389 92.8902C103.509 72.2102 92.2624 54.748 87.096 48.5673L85.9451 49.5293C90.9905 55.5653 102.093 72.7987 105.915 93.1669L107.389 92.8902ZM105.068 141.524C107.672 131.667 110.917 111.688 107.389 92.8902L105.915 93.1669C109.386 111.665 106.19 131.403 103.618 141.141L105.068 141.524ZM104.559 140.614C100.468 139.386 96.085 139.116 92.0694 139.365L92.1622 140.862C96.0552 140.621 100.252 140.888 104.127 142.051L104.559 140.614Z" fill="black"/>
<path fill-rule="evenodd" clip-rule="evenodd" d="M59.3862 26.6916L60.3321 58.3741L75.4185 55.1346C69.8306 42.6723 63.4609 32.3156 59.3862 26.6916ZM61.2393 88.7637L60.4246 61.4751L76.7016 58.0674C80.2623 66.4148 83.3873 75.5746 85.2179 84.8135L61.2393 88.7637ZM61.3308 91.8303L62.2976 124.213L87.4925 121.693C87.8232 113.949 87.6571 104.461 86.5204 93.395C86.3365 91.6038 86.0936 89.8071 85.798 88.0102L61.3308 91.8303ZM62.7527 139.457L62.3875 127.227L87.3303 124.77C86.8726 132.036 85.9826 137.535 85.1345 141.1C86.9719 140.689 89.0451 140.356 91.2396 140.177C93.7329 127.91 94.1263 109.147 92.2099 92.2955C89.584 69.2058 75.7261 33.9476 59.3862 20.8275V8L55.0098 10.2035V140.055C57.4437 139.64 60.0458 139.407 62.7527 139.457Z" fill="white"/>
<path d="M60.3321 58.3741L59.5824 58.3965C59.589 58.619 59.6942 58.8271 59.8694 58.9644C60.0447 59.1018 60.2719 59.1541 60.4895 59.1074L60.3321 58.3741ZM59.3862 26.6916L59.9936 26.2516C59.8004 25.985 59.456 25.8755 59.1443 25.9817C58.8327 26.0879 58.6268 26.3849 58.6366 26.714L59.3862 26.6916ZM75.4185 55.1346L75.576 55.8679C75.7973 55.8204 75.9853 55.6755 76.0876 55.4736C76.1899 55.2716 76.1955 55.0343 76.1029 54.8278L75.4185 55.1346ZM60.4246 61.4751L60.271 60.741C59.9153 60.8155 59.6641 61.1342 59.675 61.4975L60.4246 61.4751ZM61.2393 88.7637L60.4896 88.7861C60.4961 89.0023 60.5956 89.2052 60.7626 89.3427C60.9295 89.4802 61.1478 89.5389 61.3612 89.5038L61.2393 88.7637ZM76.7016 58.0674L77.3914 57.7731C77.2511 57.4441 76.898 57.26 76.5479 57.3333L76.7016 58.0674ZM85.2179 84.8135L85.3399 85.5535C85.5403 85.5205 85.7187 85.4076 85.8344 85.2406C85.9501 85.0737 85.9931 84.8669 85.9536 84.6677L85.2179 84.8135ZM62.2976 124.213L61.5479 124.235C61.5541 124.443 61.6464 124.639 61.8027 124.776C61.9589 124.914 62.1652 124.98 62.3722 124.959L62.2976 124.213ZM61.3308 91.8303L61.2151 91.0893C60.8416 91.1476 60.5699 91.4748 60.5812 91.8527L61.3308 91.8303ZM87.4925 121.693L87.5671 122.44C87.9383 122.403 88.2259 122.098 88.2418 121.725L87.4925 121.693ZM86.5204 93.395L85.7744 93.4716L86.5204 93.395ZM85.798 88.0102L86.5381 87.8885C86.4713 87.4821 86.0893 87.2057 85.6823 87.2692L85.798 88.0102ZM62.3875 127.227L62.314 126.481C61.9216 126.519 61.6261 126.855 61.6379 127.249L62.3875 127.227ZM62.7527 139.457L62.7387 140.207C62.9439 140.211 63.1417 140.131 63.286 139.985C63.4302 139.839 63.5084 139.64 63.5023 139.435L62.7527 139.457ZM87.3303 124.77L88.0788 124.817C88.0926 124.597 88.0094 124.383 87.8512 124.23C87.693 124.077 87.4756 124.002 87.2568 124.023L87.3303 124.77ZM85.1345 141.1L84.4049 140.927C84.345 141.178 84.419 141.443 84.6007 141.627C84.7824 141.811 85.0461 141.889 85.2985 141.832L85.1345 141.1ZM91.2396 140.177L91.3007 140.924C91.6334 140.897 91.9081 140.653 91.9745 140.326L91.2396 140.177ZM92.2099 92.2955L91.4647 92.3802L92.2099 92.2955ZM59.3862 20.8275H58.6362C58.6362 21.0549 58.7394 21.27 58.9167 21.4124L59.3862 20.8275ZM59.3862 8H60.1362C60.1362 7.73969 60.0013 7.498 59.7797 7.36146C59.558 7.22492 59.2815 7.21306 59.049 7.33012L59.3862 8ZM55.0098 10.2035L54.6725 9.53363C54.4194 9.66104 54.2598 9.92018 54.2598 10.2035H55.0098ZM55.0098 140.055H54.2598C54.2598 140.276 54.3572 140.485 54.526 140.628C54.6948 140.77 54.9179 140.831 55.1357 140.794L55.0098 140.055ZM61.0817 58.3517L60.1359 26.6692L58.6366 26.714L59.5824 58.3965L61.0817 58.3517ZM75.2611 54.4014L60.1746 57.6408L60.4895 59.1074L75.576 55.8679L75.2611 54.4014ZM58.7789 27.1316C62.8231 32.7134 69.167 43.0255 74.7342 55.4415L76.1029 54.8278C70.4942 42.3191 64.0988 31.9177 59.9936 26.2516L58.7789 27.1316ZM59.675 61.4975L60.4896 88.7861L61.989 88.7414L61.1743 61.4527L59.675 61.4975ZM76.5479 57.3333L60.271 60.741L60.5783 62.2092L76.8553 58.8014L76.5479 57.3333ZM85.9536 84.6677C84.1104 75.3649 80.9666 66.1544 77.3914 57.7731L76.0117 58.3616C79.558 66.6752 82.6643 75.7843 84.4822 84.9592L85.9536 84.6677ZM61.3612 89.5038L85.3399 85.5535L85.096 84.0734L61.1174 88.0237L61.3612 89.5038ZM63.0472 124.19L62.0805 91.8079L60.5812 91.8527L61.5479 124.235L63.0472 124.19ZM87.4178 120.947L62.2229 123.467L62.3722 124.959L87.5671 122.44L87.4178 120.947ZM85.7744 93.4716C86.9074 104.502 87.0723 113.954 86.7431 121.661L88.2418 121.725C88.5741 113.945 88.4069 104.42 87.2665 93.3183L85.7744 93.4716ZM85.058 88.1319C85.3512 89.9148 85.592 91.6965 85.7744 93.4716L87.2665 93.3183C87.0809 91.5112 86.8359 89.6994 86.5381 87.8885L85.058 88.1319ZM61.4465 92.5713L85.9137 88.7512L85.6823 87.2692L61.2151 91.0893L61.4465 92.5713ZM61.6379 127.249L62.003 139.48L63.5023 139.435L63.1372 127.205L61.6379 127.249ZM87.2568 124.023L62.314 126.481L62.4611 127.973L87.4038 125.516L87.2568 124.023ZM85.8642 141.274C86.7238 137.66 87.6189 132.118 88.0788 124.817L86.5818 124.723C86.1262 131.955 85.2413 137.411 84.4049 140.927L85.8642 141.274ZM91.1784 139.429C88.948 139.612 86.8405 139.949 84.9706 140.368L85.2985 141.832C87.1034 141.428 89.1422 141.101 91.3007 140.924L91.1784 139.429ZM91.4647 92.3802C93.3751 109.178 92.978 127.859 90.5046 140.027L91.9745 140.326C94.4879 127.961 94.8775 109.115 92.9551 92.2107L91.4647 92.3802ZM58.9167 21.4124C66.9441 27.858 74.4341 39.8184 80.2536 53.1235C86.065 66.4098 90.1618 80.9238 91.4647 92.3802L92.9551 92.2107C91.6321 80.5775 87.487 65.9176 81.6279 52.5224C75.7771 39.1459 68.1682 26.9172 59.8558 20.2427L58.9167 21.4124ZM58.6362 8V20.8275H60.1362V8H58.6362ZM55.347 10.8734L59.7235 8.66988L59.049 7.33012L54.6725 9.53363L55.347 10.8734ZM55.7598 140.055V10.2035H54.2598V140.055H55.7598ZM62.7666 138.707C60.0079 138.656 57.3589 138.894 54.8838 139.315L55.1357 140.794C57.5286 140.386 60.0836 140.158 62.7387 140.207L62.7666 138.707Z" fill="black"/>
</svg>
