<svg width="150" height="161" viewBox="0 0 150 161" fill="none" xmlns="http://www.w3.org/2000/svg">
<circle cx="75" cy="86" r="75" fill="#EBF3FF"/>
<path d="M62.4301 27.5713L62.8899 44.9005L57.3717 45.6707L55.9922 12.5527C63.3498 15.6335 79.5977 34.8881 86.802 44.1303L80.824 42.9751C76.6853 37.1987 71.627 31.0372 67.0285 27.1863L62.4301 27.5713Z" fill="black" stroke="black" stroke-width="1.5"/>
<path fill-rule="evenodd" clip-rule="evenodd" d="M77.6047 42.2051L58.751 45.2858V139.182C60.2476 139.1 61.784 139.094 63.3494 139.182C74.6435 139.817 78.0572 141.115 80.3295 141.979C80.4997 142.043 80.6634 142.106 80.8237 142.165C83.6181 141.118 87.8563 140.127 92.556 139.823C95.3932 128.058 96.4309 108.301 94.1593 91.4969C91.4002 71.087 84.0426 54.528 77.6047 42.2051Z" fill="#EBF3FF"/>
<path d="M58.751 45.2858L58.63 44.5456C58.2673 44.6049 58.001 44.9183 58.001 45.2858H58.751ZM77.6047 42.2051L78.2695 41.8578C78.1197 41.5711 77.803 41.4127 77.4838 41.4649L77.6047 42.2051ZM58.751 139.182H58.001C58.001 139.388 58.0857 139.585 58.2353 139.727C58.385 139.868 58.5863 139.942 58.792 139.931L58.751 139.182ZM63.3494 139.182L63.3915 138.434H63.3915L63.3494 139.182ZM80.3295 141.979L80.0629 142.68L80.0629 142.68L80.3295 141.979ZM80.8237 142.165L80.563 142.868C80.732 142.931 80.918 142.931 81.0868 142.867L80.8237 142.165ZM92.556 139.823L92.6044 140.572C92.9322 140.55 93.2081 140.318 93.2851 139.999L92.556 139.823ZM94.1593 91.4969L93.416 91.5974L94.1593 91.4969ZM58.8719 46.026L77.7257 42.9453L77.4838 41.4649L58.63 44.5456L58.8719 46.026ZM59.501 139.182V45.2858H58.001V139.182H59.501ZM63.3915 138.434C61.7969 138.344 60.2327 138.35 58.71 138.433L58.792 139.931C60.2626 139.85 61.7712 139.845 63.3074 139.931L63.3915 138.434ZM80.596 141.278C78.2413 140.382 74.7502 139.071 63.3915 138.434L63.3074 139.931C74.5367 140.562 77.8732 141.847 80.0629 142.68L80.596 141.278ZM81.0843 141.462C80.9276 141.404 80.7668 141.343 80.596 141.278L80.0629 142.68C80.2325 142.744 80.3993 142.808 80.563 142.868L81.0843 141.462ZM92.5076 139.075C87.7404 139.383 83.4293 140.388 80.5606 141.463L81.0868 142.867C83.807 141.848 87.9723 140.871 92.6044 140.572L92.5076 139.075ZM93.416 91.5974C95.6769 108.322 94.6394 127.985 91.8269 139.647L93.2851 139.999C96.147 128.132 97.1848 108.28 94.9025 91.3965L93.416 91.5974ZM76.94 42.5524C83.3588 54.8388 90.6734 71.3097 93.416 91.5974L94.9025 91.3965C92.1269 70.8644 84.7264 54.2173 78.2695 41.8578L76.94 42.5524Z" fill="black"/>
<path d="M37.1387 146C40.8175 143.443 51.21 138.5 63.35 139.182C75.49 139.864 78.525 141.313 80.8242 142.165C88.0285 139.466 104.828 137.137 114.393 146" stroke="black" stroke-width="1.5"/>
<path d="M24.2627 82.6187C26.4521 81.5214 31.2772 80.1339 33.0618 83.362C33.7227 81.8754 36.3831 79.1569 41.7369 80.1764" stroke="black" stroke-width="1.5" stroke-linejoin="round"/>
<path d="M34.3789 90.543C35.7771 90.3602 38.7217 90.543 39.3139 92.7363C40.0952 91.4935 42.2255 89.3147 44.4956 90.543" stroke="black" stroke-width="1.5" stroke-linejoin="round"/>
<path d="M115.694 35.8984C120.778 35.0981 122.654 39.5666 122.956 41.901C129.129 40.3003 130.673 44.9022 130.673 47.4033L99.3535 47.4033C99.3535 44.202 102.077 44.0686 103.439 44.4021C103.439 43.9019 103.529 42.2011 105.708 41.4008C107.887 40.6005 109.037 42.568 109.339 43.4016C109.339 41.234 110.61 36.6988 115.694 35.8984Z" fill="#EBF3FF" stroke="black" stroke-width="1.5" stroke-linejoin="round"/>
<path d="M121.962 53.6152H141.735" stroke="black" stroke-width="1.5" stroke-linejoin="round"/>
<path fill-rule="evenodd" clip-rule="evenodd" d="M92.6815 139.815C95.6675 128.632 98.1517 105.933 91.4009 79.174C84.5032 51.8324 77.6055 42.2051 77.6055 42.2051L86.8024 44.1305C92.1673 50.5487 103.909 68.7764 107.955 90.3416C111.632 109.936 108.248 130.801 105.529 141.096C101.344 139.84 96.8364 139.558 92.6815 139.815Z" fill="black"/>
<path d="M91.4009 79.174L90.6737 79.3574L91.4009 79.174ZM92.6815 139.815L91.9569 139.622C91.8946 139.855 91.9483 140.104 92.1011 140.29C92.2539 140.477 92.4871 140.579 92.7279 140.564L92.6815 139.815ZM77.6055 42.2051L77.7592 41.471C77.4565 41.4076 77.146 41.5365 76.9772 41.7955C76.8083 42.0545 76.8157 42.3906 76.9958 42.6419L77.6055 42.2051ZM86.8024 44.1305L87.3779 43.6495C87.2697 43.5201 87.1211 43.431 86.9561 43.3964L86.8024 44.1305ZM107.955 90.3416L107.218 90.48L107.955 90.3416ZM105.529 141.096L105.313 141.814C105.508 141.872 105.718 141.849 105.895 141.75C106.073 141.651 106.202 141.484 106.254 141.287L105.529 141.096ZM90.6737 79.3574C97.3914 105.985 94.912 128.554 91.9569 139.622L93.4061 140.009C96.4231 128.71 98.912 105.881 92.1281 78.9905L90.6737 79.3574ZM77.6055 42.2051C76.9958 42.6419 76.9956 42.6417 76.9955 42.6415C76.9955 42.6415 76.9954 42.6413 76.9954 42.6413C76.9953 42.6412 76.9954 42.6413 76.9956 42.6416C76.9959 42.6421 76.9967 42.6431 76.9979 42.6448C77.0002 42.6482 77.0043 42.6539 77.0099 42.662C77.0213 42.6783 77.0391 42.7042 77.0634 42.74C77.1118 42.8117 77.1856 42.9229 77.2831 43.0756C77.4781 43.3811 77.7678 43.8529 78.1387 44.5067C78.8805 45.8142 79.9473 47.8501 81.2311 50.7408C83.7987 56.5225 87.2342 65.7238 90.6737 79.3574L92.1281 78.9905C88.6699 65.2826 85.2077 55.9995 82.602 50.132C81.2991 47.1983 80.2104 45.1185 79.4433 43.7665C79.0598 43.0905 78.7567 42.5965 78.5476 42.2687C78.443 42.1048 78.3618 41.9824 78.3059 41.8997C78.2779 41.8583 78.2562 41.8269 78.241 41.805C78.2334 41.7941 78.2274 41.7856 78.2231 41.7795C78.221 41.7764 78.2192 41.774 78.2179 41.7721C78.2172 41.7712 78.2167 41.7704 78.2162 41.7697C78.216 41.7694 78.2157 41.7691 78.2156 41.7689C78.2153 41.7686 78.2151 41.7683 77.6055 42.2051ZM86.9561 43.3964L77.7592 41.471L77.4518 42.9392L86.6487 44.8646L86.9561 43.3964ZM108.693 90.2033C104.617 68.4822 92.8032 50.1401 87.3779 43.6495L86.227 44.6115C91.5314 50.9574 103.201 69.0707 107.218 90.48L108.693 90.2033ZM106.254 141.287C108.989 130.934 112.397 109.947 108.693 90.2033L107.218 90.48C110.867 109.924 107.507 130.669 104.804 140.904L106.254 141.287ZM105.745 140.377C101.452 139.089 96.8513 138.805 92.6351 139.067L92.7279 140.564C96.8215 140.31 101.236 140.59 105.313 141.814L105.745 140.377Z" fill="black"/>
<path fill-rule="evenodd" clip-rule="evenodd" d="M58.2918 20.6397L59.2856 53.9293L75.1374 50.5255C69.266 37.4311 62.5732 26.549 58.2918 20.6397ZM60.2389 85.8605L59.3829 57.1876L76.4855 53.607C80.2268 62.3779 83.5104 72.0023 85.4338 81.7098L60.2389 85.8605ZM60.3351 89.0826L61.3508 123.108L87.8237 120.461C88.1712 112.323 87.9967 102.354 86.8024 90.7266C86.6091 88.8446 86.3539 86.9568 86.0434 85.0687L60.3351 89.0826ZM61.829 139.125L61.4454 126.275L87.6533 123.693C87.1724 131.328 86.2373 137.106 85.3462 140.852C87.2768 140.419 89.4551 140.07 91.7609 139.881C94.3808 126.993 94.7941 107.277 92.7804 89.5713C90.0213 65.3105 75.4605 28.2638 58.2918 14.4782V1L53.6934 3.31528V139.753C56.2508 139.317 58.9848 139.073 61.829 139.125Z" fill="white"/>
<path d="M59.2856 53.9293L58.536 53.9517C58.5426 54.1742 58.6478 54.3823 58.823 54.5196C58.9982 54.657 59.2254 54.7093 59.4431 54.6626L59.2856 53.9293ZM58.2918 20.6397L58.8992 20.1997C58.706 19.9331 58.3616 19.8236 58.0499 19.9298C57.7383 20.036 57.5323 20.333 57.5422 20.6621L58.2918 20.6397ZM75.1374 50.5255L75.2948 51.2588C75.5161 51.2113 75.7041 51.0664 75.8064 50.8644C75.9087 50.6625 75.9143 50.4252 75.8217 50.2187L75.1374 50.5255ZM59.3829 57.1876L59.2292 56.4535C58.8735 56.528 58.6224 56.8467 58.6332 57.21L59.3829 57.1876ZM60.2389 85.8605L59.4892 85.8828C59.4957 86.0991 59.5952 86.302 59.7621 86.4395C59.9291 86.577 60.1474 86.6357 60.3608 86.6005L60.2389 85.8605ZM76.4855 53.607L77.1753 53.3127C77.035 52.9837 76.6819 52.7996 76.3318 52.8729L76.4855 53.607ZM85.4338 81.7098L85.5558 82.4498C85.7562 82.4168 85.9346 82.3039 86.0503 82.137C86.166 81.97 86.209 81.7633 86.1695 81.564L85.4338 81.7098ZM61.3508 123.108L60.6012 123.13C60.6074 123.338 60.6996 123.534 60.8559 123.671C61.0122 123.808 61.2185 123.875 61.4254 123.854L61.3508 123.108ZM60.3351 89.0826L60.2194 88.3416C59.8458 88.3999 59.5741 88.7271 59.5854 89.105L60.3351 89.0826ZM87.8237 120.461L87.8984 121.207C88.2696 121.17 88.5571 120.865 88.573 120.493L87.8237 120.461ZM86.8024 90.7266L87.5485 90.65L86.8024 90.7266ZM86.0434 85.0687L86.7834 84.947C86.7166 84.5406 86.3346 84.2642 85.9277 84.3277L86.0434 85.0687ZM61.4454 126.275L61.3718 125.528C60.9794 125.567 60.6839 125.903 60.6957 126.297L61.4454 126.275ZM61.829 139.125L61.815 139.875C62.0202 139.879 62.218 139.799 62.3623 139.653C62.5066 139.507 62.5848 139.308 62.5787 139.103L61.829 139.125ZM87.6533 123.693L88.4019 123.74C88.4157 123.52 88.3325 123.306 88.1742 123.153C88.016 123 87.7987 122.925 87.5798 122.946L87.6533 123.693ZM85.3462 140.852L84.6166 140.678C84.5567 140.93 84.6307 141.194 84.8124 141.379C84.9941 141.563 85.2578 141.64 85.5102 141.584L85.3462 140.852ZM91.7609 139.881L91.8221 140.629C92.1547 140.602 92.4294 140.358 92.4959 140.031L91.7609 139.881ZM92.7804 89.5713L92.0352 89.6561L92.7804 89.5713ZM58.2918 14.4782H57.5418C57.5418 14.7056 57.645 14.9207 57.8223 15.063L58.2918 14.4782ZM58.2918 1H59.0418C59.0418 0.739695 58.9069 0.498005 58.6852 0.361463C58.4636 0.224921 58.1871 0.213057 57.9546 0.330117L58.2918 1ZM53.6934 3.31528L53.3561 2.6454C53.103 2.77281 52.9434 3.03196 52.9434 3.31528H53.6934ZM53.6934 139.753H52.9434C52.9434 139.974 53.0408 140.184 53.2096 140.326C53.3784 140.469 53.6015 140.53 53.8193 140.492L53.6934 139.753ZM60.0353 53.9069L59.0415 20.6173L57.5422 20.6621L58.536 53.9517L60.0353 53.9069ZM74.9799 49.7922L59.1282 53.196L59.4431 54.6626L75.2948 51.2588L74.9799 49.7922ZM57.6845 21.0798C61.9353 26.9468 68.6024 37.7842 74.453 50.8324L75.8217 50.2187C69.9295 37.0779 63.2111 26.1511 58.8992 20.1997L57.6845 21.0798ZM58.6332 57.21L59.4892 85.8828L60.9885 85.8381L60.1326 57.1652L58.6332 57.21ZM76.3318 52.8729L59.2292 56.4535L59.5366 57.9217L76.6392 54.3411L76.3318 52.8729ZM86.1695 81.564C84.2334 71.7926 80.9311 62.1174 77.1753 53.3127L75.7956 53.9013C79.5225 62.6383 82.7874 72.212 84.6981 81.8556L86.1695 81.564ZM60.3608 86.6005L85.5558 82.4498L85.3119 80.9698L60.117 85.1204L60.3608 86.6005ZM62.1005 123.085L61.0847 89.0602L59.5854 89.105L60.6012 123.13L62.1005 123.085ZM87.7491 119.714L61.2762 122.361L61.4254 123.854L87.8984 121.207L87.7491 119.714ZM86.0563 90.8032C87.247 102.394 87.4203 112.328 87.0744 120.429L88.573 120.493C88.9221 112.319 88.7465 102.313 87.5485 90.65L86.0563 90.8032ZM85.3033 85.1904C85.6115 87.0645 85.8647 88.9373 86.0563 90.8032L87.5485 90.65C87.3535 88.752 87.0962 86.8491 86.7834 84.947L85.3033 85.1904ZM60.4508 89.8236L86.1591 85.8097L85.9277 84.3277L60.2194 88.3416L60.4508 89.8236ZM60.6957 126.297L61.0793 139.148L62.5787 139.103L62.195 126.252L60.6957 126.297ZM87.5798 122.946L61.3718 125.528L61.5189 127.021L87.7269 124.439L87.5798 122.946ZM86.0758 141.025C86.9785 137.231 87.9187 131.41 88.4019 123.74L86.9048 123.646C86.426 131.246 85.496 136.981 84.6166 140.678L86.0758 141.025ZM91.6997 139.134C89.358 139.325 87.1453 139.68 85.1822 140.12L85.5102 141.584C87.4082 141.158 89.5522 140.814 91.8221 140.629L91.6997 139.134ZM92.0352 89.6561C94.0428 107.309 93.6258 126.942 91.0259 139.732L92.4959 140.031C95.1357 127.044 95.5453 107.246 93.5256 89.4866L92.0352 89.6561ZM57.8223 15.063C66.2641 21.8414 74.137 34.4153 80.2526 48.3971C86.3599 62.3601 90.6657 77.614 92.0352 89.6561L93.5256 89.4866C92.136 77.2678 87.7819 61.8679 81.6269 47.796C75.4801 33.7428 67.4882 20.9006 58.7614 13.8934L57.8223 15.063ZM57.5418 1V14.4782H59.0418V1H57.5418ZM54.0306 3.98516L58.6291 1.66988L57.9546 0.330117L53.3561 2.6454L54.0306 3.98516ZM54.4434 139.753V3.31528H52.9434V139.753H54.4434ZM61.843 138.376C58.947 138.322 56.1659 138.571 53.5674 139.014L53.8193 140.492C56.3357 140.064 59.0226 139.823 61.815 139.875L61.843 138.376Z" fill="black"/>
</svg>
