<svg width="176" height="161" viewBox="0 0 176 161" fill="none" xmlns="http://www.w3.org/2000/svg">
<path fill-rule="evenodd" clip-rule="evenodd" d="M20.6191 61.2251C12.3349 61.2251 5.61914 67.9408 5.61914 76.2251V126.774C5.61914 135.058 12.3349 141.774 20.6192 141.774H30.6164L17.1671 155.919L22.7102 161L54.4571 141.774H96.8607C105.145 141.774 111.861 135.058 111.861 126.774V76.2251C111.861 67.9408 105.145 61.2251 96.8607 61.2251H20.6191Z" fill="black"/>
<path fill-rule="evenodd" clip-rule="evenodd" d="M16 55C7.71573 55 1 61.7157 1 70V120.549C1 128.833 7.71575 135.549 16 135.549H26.4808L18.553 154.313L49.824 135.549H92.2416C100.526 135.549 107.242 128.833 107.242 120.549V70C107.242 61.7157 100.526 55 92.2415 55H16Z" fill="white"/>
<path d="M26.4808 135.549L27.1717 135.84L27.6119 134.799H26.4808V135.549ZM18.553 154.313L17.8621 154.021L16.9672 156.139L18.9389 154.956L18.553 154.313ZM49.824 135.549V134.799H49.6162L49.4381 134.905L49.824 135.549ZM1.75 70C1.75 62.1299 8.12994 55.75 16 55.75V54.25C7.30152 54.25 0.25 61.3015 0.25 70H1.75ZM1.75 120.549V70H0.25V120.549H1.75ZM16 134.799C8.12996 134.799 1.75 128.419 1.75 120.549H0.25C0.25 129.247 7.30153 136.299 16 136.299V134.799ZM26.4808 134.799H16V136.299H26.4808V134.799ZM19.2438 154.605L27.1717 135.84L25.79 135.257L17.8621 154.021L19.2438 154.605ZM49.4381 134.905L18.1671 153.67L18.9389 154.956L50.2099 136.192L49.4381 134.905ZM92.2416 134.799H49.824V136.299H92.2416V134.799ZM106.492 120.549C106.492 128.419 100.112 134.799 92.2416 134.799V136.299C100.94 136.299 107.992 129.247 107.992 120.549H106.492ZM106.492 70V120.549H107.992V70H106.492ZM92.2415 55.75C100.112 55.75 106.492 62.1299 106.492 70H107.992C107.992 61.3015 100.94 54.25 92.2415 54.25V55.75ZM16 55.75H92.2415V54.25H16V55.75Z" fill="black"/>
<path d="M32.9916 82.8813C27.8737 92.5344 45.9286 109.649 55.5957 117C65.2629 109.649 83.3177 92.5344 78.1998 82.8813C71.8024 70.815 58.1546 80.3848 55.5957 84.5457C53.0368 80.3848 39.389 70.815 32.9916 82.8813Z" fill="#EBF3FF" stroke="black" stroke-width="1.5"/>
<path fill-rule="evenodd" clip-rule="evenodd" d="M109.291 1C104.949 1 101.43 4.51973 101.43 8.86153V42.5538C101.43 46.8957 104.949 50.4154 109.291 50.4154H142.777L159.268 60.5231L157.14 50.4154H166.568C170.91 50.4154 174.43 46.8957 174.43 42.5539V8.86154C174.43 4.51973 170.91 1 166.568 1H109.291Z" fill="black"/>
<path d="M142.777 50.4154L143.169 49.7759L142.988 49.6654H142.777V50.4154ZM159.268 60.5231L158.876 61.1625L160.361 62.0724L160.002 60.3686L159.268 60.5231ZM157.14 50.4154V49.6654H156.216L156.406 50.5699L157.14 50.4154ZM102.18 8.86153C102.18 4.93394 105.364 1.75 109.291 1.75V0.25C104.535 0.25 100.68 4.10551 100.68 8.86153H102.18ZM102.18 42.5538V8.86153H100.68V42.5538H102.18ZM109.291 49.6654C105.364 49.6654 102.18 46.4814 102.18 42.5538H100.68C100.68 47.3099 104.535 51.1654 109.291 51.1654V49.6654ZM142.777 49.6654H109.291V51.1654H142.777V49.6654ZM159.66 59.8836L143.169 49.7759L142.385 51.0548L158.876 61.1625L159.66 59.8836ZM156.406 50.5699L158.534 60.6776L160.002 60.3686L157.874 50.2609L156.406 50.5699ZM166.568 49.6654H157.14V51.1654H166.568V49.6654ZM173.68 42.5539C173.68 46.4814 170.496 49.6654 166.568 49.6654V51.1654C171.324 51.1654 175.18 47.3099 175.18 42.5539H173.68ZM173.68 8.86154V42.5539H175.18V8.86154H173.68ZM166.568 1.75C170.496 1.75 173.68 4.93395 173.68 8.86154H175.18C175.18 4.10552 171.324 0.25 166.568 0.25V1.75ZM109.291 1.75H166.568V0.25H109.291V1.75Z" fill="black"/>
<path fill-rule="evenodd" clip-rule="evenodd" d="M109.291 1C104.949 1 101.43 4.51974 101.43 8.86155V40.3077C101.43 44.6495 104.949 48.1692 109.291 48.1692H139.407L155.899 58.2769L153.771 48.1692H164.322C168.664 48.1692 172.184 44.6495 172.184 40.3077V8.86154C172.184 4.51973 168.664 1 164.322 1H109.291Z" fill="#EBF3FF"/>
<path d="M139.407 48.1692L139.799 47.5298L139.619 47.4192H139.407V48.1692ZM155.899 58.2769L155.507 58.9164L156.992 59.8262L156.633 58.1224L155.899 58.2769ZM153.771 48.1692V47.4192H152.847L153.037 48.3237L153.771 48.1692ZM102.18 8.86155C102.18 4.93395 105.364 1.75 109.291 1.75V0.25C104.535 0.25 100.68 4.10552 100.68 8.86155H102.18ZM102.18 40.3077V8.86155H100.68V40.3077H102.18ZM109.291 47.4192C105.364 47.4192 102.18 44.2353 102.18 40.3077H100.68C100.68 45.0637 104.535 48.9192 109.291 48.9192V47.4192ZM139.407 47.4192H109.291V48.9192H139.407V47.4192ZM156.291 57.6375L139.799 47.5298L139.016 48.8087L155.507 58.9164L156.291 57.6375ZM153.037 48.3237L155.165 58.4314L156.633 58.1224L154.505 48.0147L153.037 48.3237ZM164.322 47.4192H153.771V48.9192H164.322V47.4192ZM171.434 40.3077C171.434 44.2353 168.25 47.4192 164.322 47.4192V48.9192C169.078 48.9192 172.934 45.0637 172.934 40.3077H171.434ZM171.434 8.86154V40.3077H172.934V8.86154H171.434ZM164.322 1.75C168.25 1.75 171.434 4.93394 171.434 8.86154H172.934C172.934 4.10552 169.078 0.25 164.322 0.25V1.75ZM109.291 1.75H164.322V0.25H109.291V1.75Z" fill="black"/>
<path d="M114.346 17.2847H159.83" stroke="black" stroke-width="1.5"/>
<path d="M114.346 30.2002H159.83" stroke="black" stroke-width="1.5"/>
<path d="M14.4542 22.4635C14.6038 22.0029 15.2555 22.0029 15.4052 22.4635L16.5013 25.8369C16.5682 26.0429 16.7602 26.1824 16.9768 26.1824H20.5238C21.0081 26.1824 21.2095 26.8022 20.8177 27.0869L17.9481 29.1717C17.7729 29.2991 17.6995 29.5247 17.7665 29.7307L18.8625 33.1041C19.0122 33.5648 18.485 33.9478 18.0931 33.6631L15.2236 31.5783C15.0483 31.4509 14.811 31.4509 14.6358 31.5783L11.7662 33.6631C11.3744 33.9478 10.8472 33.5648 10.9968 33.1041L12.0929 29.7307C12.1598 29.5247 12.0865 29.2991 11.9113 29.1717L9.04171 27.0869C8.64986 26.8022 8.85124 26.1824 9.33561 26.1824H12.8826C13.0992 26.1824 13.2912 26.0429 13.3581 25.8369L14.4542 22.4635Z" fill="black" stroke="black" stroke-width="0.5"/>
<path d="M31.4542 22.4635C31.6038 22.0029 32.2555 22.0029 32.4052 22.4635L33.5013 25.8369C33.5682 26.0429 33.7602 26.1824 33.9768 26.1824H37.5238C38.0081 26.1824 38.2095 26.8022 37.8177 27.0869L34.9481 29.1717C34.7729 29.2991 34.6995 29.5247 34.7665 29.7307L35.8625 33.1041C36.0122 33.5648 35.485 33.9478 35.0931 33.6631L32.2236 31.5783C32.0483 31.4509 31.811 31.4509 31.6358 31.5783L28.7662 33.6631C28.3744 33.9478 27.8472 33.5648 27.9968 33.1041L29.0929 29.7307C29.1598 29.5247 29.0865 29.2991 28.9113 29.1717L26.0417 27.0869C25.6499 26.8022 25.8512 26.1824 26.3356 26.1824H29.8826C30.0992 26.1824 30.2912 26.0429 30.3581 25.8369L31.4542 22.4635Z" fill="black" stroke="black" stroke-width="0.5"/>
<path d="M47.9573 22.3631C48.1126 21.9148 48.7467 21.9148 48.9021 22.3631L50.1093 25.8461C50.179 26.0474 50.3687 26.1824 50.5817 26.1824H54.4159C54.908 26.1824 55.1041 26.8186 54.6974 27.0956L51.6521 29.1698C51.4655 29.297 51.3872 29.5334 51.4612 29.7468L52.6372 33.1402C52.7949 33.5952 52.2814 33.9882 51.8833 33.7171L48.7112 31.5565C48.5413 31.4408 48.318 31.4408 48.1482 31.5565L44.976 33.7171C44.578 33.9882 44.0644 33.5952 44.2221 33.1402L45.3982 29.7468C45.4722 29.5334 45.3939 29.297 45.2073 29.1698L42.162 27.0956C41.7553 26.8186 41.9513 26.1824 42.4435 26.1824H46.2777C46.4907 26.1824 46.6804 26.0474 46.7501 25.8461L47.9573 22.3631Z" fill="black" stroke="black" stroke-width="0.5"/>
<path d="M64.4542 22.4635C64.6038 22.0029 65.2555 22.0029 65.4052 22.4635L66.5013 25.8369C66.5682 26.0429 66.7602 26.1824 66.9768 26.1824H70.5238C71.0081 26.1824 71.2095 26.8022 70.8177 27.0869L67.9481 29.1717C67.7729 29.2991 67.6995 29.5247 67.7665 29.7307L68.8625 33.1041C69.0122 33.5648 68.485 33.9478 68.0931 33.6631L65.2236 31.5783C65.0483 31.4509 64.811 31.4509 64.6358 31.5783L61.7662 33.6631C61.3744 33.9478 60.8472 33.5648 60.9968 33.1041L62.0929 29.7307C62.1598 29.5247 62.0865 29.2991 61.9113 29.1717L59.0417 27.0869C58.6499 26.8022 58.8512 26.1824 59.3356 26.1824H62.8826C63.0992 26.1824 63.2912 26.0429 63.3581 25.8369L64.4542 22.4635Z" fill="black" stroke="black" stroke-width="0.5"/>
<path d="M80.4542 22.4635C80.6038 22.0029 81.2555 22.0029 81.4052 22.4635L82.5013 25.8369C82.5682 26.0429 82.7602 26.1824 82.9768 26.1824H86.5238C87.0081 26.1824 87.2095 26.8022 86.8177 27.0869L83.9481 29.1717C83.7729 29.2991 83.6995 29.5247 83.7665 29.7307L84.8625 33.1041C85.0122 33.5648 84.485 33.9478 84.0931 33.6631L81.2236 31.5783C81.0483 31.4509 80.811 31.4509 80.6358 31.5783L77.7662 33.6631C77.3744 33.9478 76.8472 33.5648 76.9968 33.1041L78.0929 29.7307C78.1598 29.5247 78.0865 29.2991 77.9113 29.1717L75.0417 27.0869C74.6499 26.8022 74.8512 26.1824 75.3356 26.1824H78.8826C79.0992 26.1824 79.2912 26.0429 79.3581 25.8369L80.4542 22.4635Z" fill="black" stroke="black" stroke-width="0.5"/>
</svg>
