<svg width="104" height="134" viewBox="0 0 104 134" fill="none" xmlns="http://www.w3.org/2000/svg">
<path d="M84.938 38.0742C89.5853 37.4468 91.3004 40.9499 91.5771 42.7798C97.2203 41.525 98.6311 45.1326 98.6311 47.0932L70 47.0932C70 44.5836 72.4896 44.4791 73.7345 44.7405C73.7345 44.3483 73.8175 43.0151 75.8092 42.3877C77.8009 41.7603 78.8521 43.3027 79.1287 43.9562C79.1287 42.257 80.2906 38.7017 84.938 38.0742Z" fill="#EBF3FF" stroke="black" stroke-width="1.5" stroke-linejoin="round"/>
<path d="M85.7676 49.8379H103.61" stroke="black" stroke-width="1.5" stroke-linejoin="round"/>
<path d="M42 114.006V126.099H67V119.472L65 119.19L64.2222 97.9709H62.6349V75.012L59.8571 74.6195V49.5021L57.0794 48.3425V36.7471L54.3016 34.5605L51.127 36.7471V40.3914L48.9444 41.4847V67.359H47.1587V91.0468H44.5794V114.006H42Z" fill="#F6F6F6"/>
<path d="M47.1587 114.006H44.5794M44.5794 114.006H42V126.099H67V119.472L61.8413 118.743M44.5794 114.006V91.0468H47.1587M51.127 91.0468H47.1587M47.1587 91.0468V67.359H48.9444M50.7302 67.359H48.9444M48.9444 67.359V41.4847L51.127 40.3914V36.7471L54.3016 34.5605L57.0794 36.7471V48.4088M55.4921 47.6799L59.8571 49.5021V74.6475M57.4762 74.2831L62.6349 75.012V97.9709M60.6508 97.9709H64.2222L65 119.19" stroke="black" stroke-width="1.5"/>
<path d="M52 26.1255V36.4286L54.9167 34.5887L57 36.0606V29.8052L55.75 28.7013V14.3506L55.3333 13.9827V6.62338H54.5L53.6667 7.35931V15.4545L52.8333 16.1905V25.7576L52 26.1255Z" fill="black"/>
<path d="M54.5 6.62338L53.6667 7.35931V15.4545L52.8333 16.1905V25.7576L52 26.1255V36.4286L54.9167 34.5887L57 36.0606V29.8052L55.75 28.7013V14.3506L55.3333 13.9827V6.62338H54.5ZM54.5 6.62338V0" stroke="black" stroke-width="1.5"/>
<path fill-rule="evenodd" clip-rule="evenodd" d="M64.3308 127.5H66.677V119.811L64.3308 119.445V127.5ZM64.3306 119.445L63.9396 98.2593H62.3753V75.2468L60.0291 74.9337V97.8939H61.5934L61.9844 119.08L64.3306 119.445ZM59.6379 74.8293L57.2917 74.5162V49.3121L54.5543 48.2163V35.9824L56.9005 36.8927V48.5816L59.6379 49.6774V74.8293Z" fill="black"/>
<path d="M64.3308 127.5H63.5808V128.25H64.3308V127.5ZM66.677 127.5V128.25H67.427V127.5H66.677ZM66.677 119.811H67.427V119.168L66.7924 119.07L66.677 119.811ZM64.3308 119.445L64.4462 118.704L63.5808 118.57V119.445H64.3308ZM64.3306 119.445L64.2153 120.186L65.097 120.324L65.0805 119.431L64.3306 119.445ZM63.9396 98.2593L64.6894 98.2454L64.6759 97.5093H63.9396V98.2593ZM62.3753 98.2593H61.6253V99.0093H62.3753V98.2593ZM62.3753 75.2468H63.1253V74.5902L62.4745 74.5034L62.3753 75.2468ZM60.0291 74.9337L60.1283 74.1903L59.2791 74.077V74.9337H60.0291ZM60.0291 97.8939H59.2791V98.6439H60.0291V97.8939ZM61.5934 97.8939L62.3433 97.8801L62.3297 97.1439H61.5934V97.8939ZM61.9844 119.08L61.2346 119.094L61.2462 119.724L61.8691 119.821L61.9844 119.08ZM59.6379 74.8293L59.5387 75.5727L60.3879 75.686V74.8293H59.6379ZM57.2917 74.5162H56.5417V75.1728L57.1925 75.2596L57.2917 74.5162ZM57.2917 49.3121H58.0417V48.8045L57.5704 48.6158L57.2917 49.3121ZM54.5543 48.2163H53.8043V48.7239L54.2755 48.9125L54.5543 48.2163ZM54.5543 35.9824L54.8256 35.2832L53.8043 34.887V35.9824H54.5543ZM56.9005 36.8927H57.6505V36.3792L57.1718 36.1935L56.9005 36.8927ZM56.9005 48.5816H56.1505V49.0892L56.6217 49.2779L56.9005 48.5816ZM59.6379 49.6774H60.3879V49.1698L59.9166 48.9811L59.6379 49.6774ZM64.3308 128.25H66.677V126.75H64.3308V128.25ZM67.427 127.5V119.811H65.927V127.5H67.427ZM66.7924 119.07L64.4462 118.704L64.2154 120.186L66.5616 120.552L66.7924 119.07ZM65.0808 127.5V119.445H63.5808V127.5H65.0808ZM65.0805 119.431L64.6894 98.2454L63.1897 98.2731L63.5808 119.459L65.0805 119.431ZM63.9396 97.5093H62.3753V99.0093H63.9396V97.5093ZM63.1253 98.2593V75.2468H61.6253V98.2593H63.1253ZM62.4745 74.5034L60.1283 74.1903L59.9299 75.6772L62.2761 75.9902L62.4745 74.5034ZM60.7791 97.8939V74.9337H59.2791V97.8939H60.7791ZM61.5934 97.1439H60.0291V98.6439H61.5934V97.1439ZM62.7343 119.066L62.3433 97.8801L60.8435 97.9078L61.2346 119.094L62.7343 119.066ZM64.446 118.704L62.0998 118.339L61.8691 119.821L64.2153 120.186L64.446 118.704ZM59.7371 74.0859L57.3909 73.7728L57.1925 75.2596L59.5387 75.5727L59.7371 74.0859ZM58.0417 74.5162V49.3121H56.5417V74.5162H58.0417ZM57.5704 48.6158L54.833 47.52L54.2755 48.9125L57.013 50.0084L57.5704 48.6158ZM55.3043 48.2163V35.9824H53.8043V48.2163H55.3043ZM57.1718 36.1935L54.8256 35.2832L54.283 36.6816L56.6292 37.5919L57.1718 36.1935ZM57.6505 48.5816V36.8927H56.1505V48.5816H57.6505ZM59.9166 48.9811L57.1792 47.8853L56.6217 49.2779L59.3592 50.3737L59.9166 48.9811ZM60.3879 74.8293V49.6774H58.8879V74.8293H60.3879ZM44.582 114.716H44.7777V113.216H44.582V114.716Z" fill="black"/>
<path d="M39.2609 103.204C26.2754 101.479 21.4831 111.11 20.7102 116.141C4.94203 112.691 1 122.61 1 128L81 128C81 121.1 74.0435 120.813 70.5653 121.532C70.5652 120.453 70.3333 116.788 64.7681 115.063C59.2029 113.338 56.2657 117.579 55.4928 119.375C55.4928 114.704 52.2464 104.929 39.2609 103.204Z" fill="#EBF3FF" stroke="black" stroke-width="1.5" stroke-linejoin="round"/>
<path d="M45 133H93" stroke="black" stroke-width="1.5" stroke-linejoin="round"/>
<path d="M16 59.453C17.9756 58.4432 22.3295 57.1663 23.9398 60.137C24.5363 58.7689 26.9369 56.2673 31.7679 57.2054" stroke="black" stroke-width="1.5" stroke-linejoin="round"/>
<path d="M25.1289 66.7455C26.3906 66.5773 29.0476 66.7455 29.582 68.7639C30.287 67.6201 32.2093 65.6152 34.2577 66.7455" stroke="black" stroke-width="1.5" stroke-linejoin="round"/>
</svg>
