<svg width="117" height="92" viewBox="0 0 117 92" fill="none" xmlns="http://www.w3.org/2000/svg">
<path d="M0.759802 24.3808C3.58296 24.3808 6.96865 23.5736 9.46225 20.0343C11.5683 17.0451 11.9358 14.1565 11.9108 11.8019C11.8984 11.3552 11.8874 10.9378 11.8655 10.5588C11.8883 10.9533 11.9062 11.3685 11.9108 11.8019C11.9816 14.3468 12.0994 17.8424 14.5536 20.5886C17.4387 23.8168 20.261 24.5023 22.362 24.3808C20.6812 24.478 17.4778 24.4936 14.9451 27.3561C12.4123 30.2187 11.7437 35.1802 11.7259 37.3032C11.6132 32.9244 9.99924 24.3808 0.759802 24.3808Z" fill="#EBF3FF" stroke="black" stroke-width="1.5"/>
<path d="M105.597 82.0514C103.654 82.0514 101.324 81.4958 99.6074 79.0598C98.1578 77.0023 97.9048 75.0141 97.9221 73.3934C97.9306 73.086 97.9382 72.7987 97.9533 72.5379C97.9376 72.8094 97.9252 73.0952 97.9221 73.3934C97.8733 75.1451 97.7923 77.5511 96.103 79.4413C94.1173 81.6632 92.1747 82.135 90.7286 82.0514C91.8855 82.1183 94.0903 82.129 95.8336 84.0993C97.5768 86.0695 98.0371 89.4845 98.0493 90.9457C98.1269 87.9319 99.2378 82.0514 105.597 82.0514Z" fill="#EBF3FF" stroke="black" stroke-width="1.5"/>
<path d="M14 83.2552L27 70L38.5 83.2552L56.5 60L61 65.5L100.546 8M100.546 8L101.757 16.4966M100.546 8L92.0703 9.21379" stroke="black" stroke-width="1.5"/>
<path d="M44.2488 4.18675C57.3042 10.5621 55.6905 36.452 54.5673 49.0573C48.7959 53.3171 43.1259 61.0948 38.1773 63.0736C34.0547 64.7221 24.1596 59.3634 24.9841 49.0573C25.6437 40.8123 34.8794 37.9266 40.6508 38.3389C38.1773 36.2776 31.2666 31.1384 34.0549 24.3225C36.8135 17.5792 36.1536 11.2917 37.4976 6.81561C38.3417 4.00443 41.6113 2.89879 44.2488 4.18675Z" fill="black"/>
<path d="M104.297 34.1604C91.1093 26.7085 68.9762 40.4262 59.408 48.7491C59.3448 55.9221 58.8499 68.4949 60.1512 73.6632C61.2352 77.9689 71.3804 82.8375 79.2423 76.1228C85.5318 70.751 82.4496 61.579 78.7294 57.1473C81.8498 57.9409 90.0663 60.5216 93.9496 54.2646C97.7915 48.0741 103.27 44.9193 106.106 41.2047C107.887 38.8717 106.853 35.6043 104.297 34.1604Z" fill="black"/>
<path d="M60.751 37.9268C62.8444 36.9906 64.8673 33.3459 67.0311 30.1168C70.1008 25.536 72.788 21.8913 74.8813 23.4533C76.5561 24.7029 74.8813 26.5773 73.8347 26.5773" stroke="black" stroke-width="1.5"/>
<path d="M41.3277 1.26143C55.1 7.56843 56.9782 33.54 55.8526 46.1715C50.0812 50.4314 40.1904 58.2091 35.2418 60.1879C31.1191 61.8363 21.2241 56.4776 22.0485 46.1715C22.7081 37.9266 31.9438 35.0409 37.7153 35.4531C35.2418 33.3919 28.331 28.2526 31.1193 21.4368C33.8779 14.6935 33.2181 8.40598 34.5621 3.92987C35.4061 1.11868 38.659 0.0393317 41.3277 1.26143Z" fill="#EBF3FF" stroke="black" stroke-width="1.5"/>
<path d="M101.362 31.2751C88.1738 23.8232 66.0406 37.5409 56.4724 45.8638C56.4092 53.0368 55.9144 65.6097 57.2156 70.778C58.2996 75.0836 68.4448 79.9522 76.3067 73.2375C82.5962 67.8658 79.514 58.6938 75.7939 54.2621C78.9143 55.0556 87.1307 57.6364 91.014 51.3793C94.856 45.1889 100.335 42.0341 103.171 38.3194C104.952 35.9865 103.917 32.7191 101.362 31.2751Z" fill="#EBF3FF" stroke="black" stroke-width="1.5"/>
<path d="M59.9268 37.1022C60.0791 31.3591 59.9268 20.2557 62.6693 17.9584C64.9548 16.044 66.326 18.9156 65.4118 19.8728" stroke="black" stroke-width="1.5"/>
<path d="M56.9494 45.5103C54.3386 54.3868 48.411 66.5648 46.3225 65.547C44.2339 64.5292 50.6837 51.2539 55.3832 44.9882C56.9494 39.7667 60.2587 35.0962 61.2956 35.6015C62.3326 36.1068 59.5602 41.8552 56.9494 45.5103Z" fill="black"/>
</svg>
