<svg width="218" height="157" viewBox="0 0 218 157" fill="none" xmlns="http://www.w3.org/2000/svg">
<circle cx="115.557" cy="78" r="75" fill="#EBF3FF"/>
<path d="M210.436 74.9111C209.543 84.0815 201.324 90.2287 186.249 87.9045C171.174 85.5802 159.699 90.9541 152.8 97.154C145.9 103.354 136.619 103.946 133.28 97.3496C129.385 89.6542 136.855 82.4751 146.735 83.1096C156.615 83.7441 157.865 95.9467 171.587 97.0787C180.735 97.8334 183.577 83.0791 175.473 79.5211C167.37 75.9631 163.025 81.5641 144.035 89.5686C125.045 97.5731 118.353 87.9044 108.013 92.5208C99.523 96.3113 101.241 108.777 112.976 115.268C120.057 119.184 133.28 123.126 133.28 133.466" stroke="black" stroke-width="1.5"/>
<path d="M152.783 39.2062C157.338 39.2062 162.802 37.9037 166.825 32.1925C170.224 27.3689 170.817 22.7076 170.777 18.9081C170.756 18.1873 170.739 17.5138 170.703 16.9023C170.74 17.5388 170.769 18.2089 170.777 18.9081C170.891 23.0148 171.081 28.6555 175.041 33.0869C179.697 38.2961 184.251 39.4023 187.641 39.2062C184.929 39.3631 179.76 39.3881 175.673 44.0073C171.586 48.6265 170.507 56.6327 170.478 60.0584C170.296 52.9926 167.692 39.2062 152.783 39.2062Z" fill="#EBF3FF" stroke="black" stroke-width="1.5"/>
<path d="M89.282 142.729C91.977 142.729 95.209 141.958 97.5895 138.579C99.9699 135.201 100.024 131.956 99.8836 129.534C100.024 131.956 99.6957 136.027 102.45 139.108C105.204 142.19 107.898 142.845 109.904 142.729C108.299 142.821 105.241 142.836 102.823 145.569C100.406 148.301 99.7673 153.038 99.7504 155.064C99.6428 150.884 98.1021 142.729 89.282 142.729Z" stroke="black" stroke-width="1.5"/>
<ellipse cx="47.4015" cy="103.842" rx="39.3926" ry="11.3343" transform="rotate(52.5721 47.4015 103.842)" fill="black"/>
<path d="M81.6769 100.072L55.7335 125.947L34.9303 84.7947C43.1536 76.934 50.7889 69.6033 51.7207 68.6056C53.701 66.4851 63.5324 53.8323 71.583 44.9921C79.6336 36.1518 100.991 25.2286 102.454 24.5415C104.405 23.6254 108.894 22.4102 110.039 24.8486C111.051 27.0032 109.084 29.3643 108.099 30.2238L86.8917 46.4665L104.478 40.2576C108.221 39.0432 117.006 36.2733 122.204 34.909C128.702 33.2037 130.047 34.4994 130.864 35.604C131.68 36.7087 131.85 39.6051 129.153 41.467C126.995 42.9564 118.667 46.207 114.772 47.6461C115.99 47.3731 117.214 47.1288 118.443 46.9102C123.949 45.9311 132.786 44.0467 134.399 43.7651C137.425 43.237 140.385 43.7106 140.949 46.939C141.477 49.9647 135.028 52.4975 132.599 53.2412C131.296 53.6403 110.916 59.1556 100.921 62.0132C102.755 61.6428 104.652 61.7411 106.438 62.2991C110.126 63.4518 113.415 65.6329 115.72 68.7345C120.252 74.8318 125.75 82.946 126.882 84.7947C128.157 86.8747 127.063 92.1502 120.971 89.9518C116.312 88.2706 113.047 83.8519 109.781 79.4332C106.516 75.0146 95.9645 72.8269 93.2784 79.1479C89.6745 87.6284 103.633 87.976 107.036 88.1629C111.007 88.3811 124.892 90.9161 124.078 95.9331C123.084 102.055 116.183 101.292 112.928 101.332L81.6769 100.072Z" fill="white"/>
<path d="M100.921 62.0132L91.4837 63.9195M100.921 62.0132C102.755 61.6428 104.652 61.7411 106.438 62.2991C110.126 63.4518 113.415 65.6329 115.72 68.7345C120.252 74.8318 125.75 82.946 126.882 84.7947C128.157 86.8747 127.063 92.1502 120.971 89.9518C116.312 88.2706 113.047 83.8519 109.781 79.4332C106.516 75.0146 95.9645 72.8269 93.2784 79.1479C89.6745 87.6284 103.633 87.976 107.036 88.1629C111.007 88.3811 124.892 90.9161 124.078 95.9331C123.084 102.055 116.183 101.292 112.928 101.332L81.6769 100.072L55.7335 125.947L34.9303 84.7947C43.1536 76.934 50.7889 69.6033 51.7207 68.6056C53.701 66.4851 63.5324 53.8323 71.583 44.9921C79.6336 36.1518 100.991 25.2286 102.454 24.5415C104.405 23.6254 108.894 22.4102 110.039 24.8486C111.051 27.0032 109.084 29.3643 108.099 30.2238L86.8917 46.4665M100.921 62.0132C110.916 59.1556 131.296 53.6403 132.599 53.2412C135.028 52.4975 141.477 49.9647 140.949 46.939C140.385 43.7106 137.425 43.237 134.399 43.7651C132.786 44.0467 123.949 45.9311 118.443 46.9102C117.214 47.1288 115.99 47.3731 114.772 47.6461M88.7073 55.9005L107.934 49.529C110.18 48.7845 112.464 48.1637 114.772 47.6461M114.772 47.6461C118.667 46.207 126.995 42.9564 129.153 41.467C131.85 39.6051 131.68 36.7087 130.864 35.604C130.047 34.4994 128.702 33.2037 122.204 34.909C117.006 36.2733 108.221 39.0432 104.478 40.2576L86.8917 46.4665M84.0551 47.468L86.8917 46.4665" stroke="black" stroke-width="1.5"/>
<path d="M111.982 101.396C112.174 100.115 113.333 97.4281 116.43 96.9258C119.527 96.4235 122.452 97.0739 123.527 97.4619M126.406 89.4831C124.797 87.9572 121.641 84.2804 121.896 81.78C122.15 79.2797 123.083 79.2384 123.518 79.5302M127.86 45.0507C128.209 45.5815 129.336 46.7982 131.056 47.419C132.776 48.0397 138.216 47.0327 140.721 46.4515M119.408 35.9251C120.115 36.5852 122.01 37.9172 123.937 37.9646C125.864 38.012 129.511 36.7359 131.094 36.0919M99.5292 25.9159C100.16 26.4135 101.831 27.3945 103.471 27.3385C105.111 27.2824 108.534 25.6553 110.04 24.8488" stroke="black" stroke-width="1.5"/>
<mask id="path-9-inside-1_201_2277" fill="white">
<path fill-rule="evenodd" clip-rule="evenodd" d="M54.2242 127.831C49.1844 123.494 43.6712 117.617 38.4005 110.73C33.5899 104.445 29.6441 98.1837 26.81 92.5784L38.7641 80.9408L71.9049 110.317L54.2242 127.831Z"/>
</mask>
<path fill-rule="evenodd" clip-rule="evenodd" d="M54.2242 127.831C49.1844 123.494 43.6712 117.617 38.4005 110.73C33.5899 104.445 29.6441 98.1837 26.81 92.5784L38.7641 80.9408L71.9049 110.317L54.2242 127.831Z" fill="#F5F5F5"/>
<path d="M54.2242 127.831L53.2458 128.968L54.2958 129.872L55.2799 128.897L54.2242 127.831ZM38.4005 110.73L37.2093 111.642L38.4005 110.73ZM26.81 92.5784L25.7636 91.5036L24.9743 92.272L25.4714 93.2552L26.81 92.5784ZM38.7641 80.9408L39.759 79.8183L38.7162 78.8939L37.7177 79.866L38.7641 80.9408ZM71.9049 110.317L72.9606 111.382L74.0977 110.256L72.8999 109.194L71.9049 110.317ZM55.2026 126.694C50.2536 122.435 44.81 116.637 39.5916 109.819L37.2093 111.642C42.5324 118.597 48.1153 124.553 53.2458 128.968L55.2026 126.694ZM39.5916 109.819C34.8297 103.596 30.9356 97.4137 28.1486 91.9015L25.4714 93.2552C28.3526 98.9537 32.3501 105.293 37.2093 111.642L39.5916 109.819ZM27.8563 93.6532L39.8104 82.0156L37.7177 79.866L25.7636 91.5036L27.8563 93.6532ZM37.7691 82.0633L70.9099 111.439L72.8999 109.194L39.759 79.8183L37.7691 82.0633ZM70.8493 109.251L53.1686 126.765L55.2799 128.897L72.9606 111.382L70.8493 109.251Z" fill="black" mask="url(#path-9-inside-1_201_2277)"/>
</svg>
