<svg width="122" height="142" viewBox="0 0 122 142" fill="none" xmlns="http://www.w3.org/2000/svg">
<mask id="mask0_201_2630" style="mask-type:alpha" maskUnits="userSpaceOnUse" x="26" y="0" width="70" height="141">
<path d="M39.5 136.171C30.7104 136.737 28.5 138.425 26.5 140.517L35.7412 18.8322L95.7412 0L90.5 140.517C87.5 136.815 84 133.274 72 132.308C63.2304 131.602 55.6667 136.493 53 138.586C52.5 138.103 47 135.688 39.5 136.171Z" fill="black"/>
</mask>
<g mask="url(#mask0_201_2630)">
<path d="M67.8502 44.9077L82.7923 47.0756L81.1297 140.517H41.7922C39.9626 136.362 37.4538 122.47 39.4054 100.14C41.357 77.8108 54.2294 52.947 59.9217 45.7207L67.8502 44.9077Z" fill="#EBF3FF" stroke="black" stroke-width="1.5" stroke-linejoin="round"/>
<path d="M82.0947 21.8396C34.7921 56.4965 27.9409 113.693 34.7196 140.517H43.0389C33.179 88.494 55.6719 51.9154 72.3105 37.5549C42.4843 73.5375 47.9688 121.279 50.7419 140.517H54.7475C45.1341 80.4738 66.3535 44.1481 78.1648 34.3035V140.517H86.7922V5.31152L82.0947 8.56296V21.8396Z" fill="white" stroke="black" stroke-width="1.5" stroke-linejoin="round"/>
<path fill-rule="evenodd" clip-rule="evenodd" d="M54.5983 81.2973C49.4575 109.636 52.4563 132.585 54.5983 140.517H57.6583C56.3688 131.401 55.643 123.088 55.3674 115.495L79.225 117.672L78.4663 140.517H86.7283V23.9702C85.4191 25.0858 83.88 26.5371 82.1933 28.2968L81.2386 57.0439L66.2226 54.1049C68.391 49.5489 70.5625 45.8058 72.4028 42.6338C74.1898 39.5536 75.6644 37.0118 76.5206 34.7867C67.9482 45.4682 58.1333 61.81 54.5983 81.2973ZM79.3327 114.431L80.1739 89.1027L56.8366 85.5543C55.6957 93.2224 55.0772 102.01 55.2735 112.13L79.3327 114.431ZM80.2815 85.8601L57.3787 82.2104C59.1754 71.9852 61.9015 63.8724 64.7663 57.2994L81.131 60.2821L80.2815 85.8601Z" fill="black"/>
</g>
<path d="M90.3337 141C87.3004 137.282 82.5471 132.308 72 132.308C63.2 132.308 55.6667 136.493 53 138.586C52.5 138.103 47 135.688 39.5 136.171C34.141 136.516 29.9267 138.355 27 140.212" stroke="black" stroke-width="1.5"/>
<path d="M88.0064 138.293C87.9795 133.6 89.728 123.248 96.9364 119.38" stroke="black" stroke-width="1.5" stroke-linejoin="round"/>
<path d="M94.5167 125.206L97.9582 118.215C97.9582 118.215 98.5478 120.871 97.8617 122.34C97.1435 123.877 94.5167 125.206 94.5167 125.206Z" fill="black" stroke="black" stroke-width="1.5" stroke-linejoin="round"/>
<path d="M89.6278 119.351L97.6366 119.033C97.6366 119.033 95.3374 117.468 93.6695 117.502C91.9234 117.538 89.6278 119.351 89.6278 119.351Z" fill="black" stroke="black" stroke-width="1.5" stroke-linejoin="round"/>
<path d="M97.8749 118.446L103.553 116.843C103.553 116.843 101.618 116.117 100.429 116.428C99.1854 116.753 97.8749 118.446 97.8749 118.446Z" fill="black" stroke="black" stroke-width="1.5" stroke-linejoin="round"/>
<path d="M96.7551 114.627C95.4369 113.521 91.3698 114.623 91.3698 114.623C91.3698 114.623 94.0891 115.273 95.5466 116.24C96.6264 116.956 97.9589 118.215 97.9589 118.215C97.9589 118.215 98.0143 115.684 96.7551 114.627Z" fill="black" stroke="black" stroke-width="1.5" stroke-linejoin="round"/>
<path d="M100.175 119.162C101.35 119.989 101.182 123.381 101.182 123.381C101.182 123.381 100.129 121.371 99.0452 120.409C98.2424 119.696 96.9369 118.887 96.9369 118.887C96.9369 118.887 99.0527 118.372 100.175 119.162Z" fill="black" stroke="black" stroke-width="1.5" stroke-linejoin="round"/>
<path d="M30.5837 138.418C30.5837 138.418 31.5592 130.238 26.7561 125.656" stroke="black" stroke-width="1.5" stroke-linejoin="round"/>
<path d="M27.3365 130.765L26.2152 124.521C26.2152 124.521 25.1453 126.49 25.3518 127.794C25.568 129.158 27.3365 130.765 27.3365 130.765Z" fill="black" stroke="black" stroke-width="1.5" stroke-linejoin="round"/>
<path d="M32.5259 127.187L26.2832 125.234C26.2832 125.234 28.4526 124.489 29.76 124.87C31.1287 125.269 32.5259 127.187 32.5259 127.187Z" fill="black" stroke="black" stroke-width="1.5" stroke-linejoin="round"/>
<path d="M26.2288 124.721L22.1169 122.251C22.1169 122.251 23.8078 122.09 24.6741 122.587C25.581 123.108 26.2288 124.721 26.2288 124.721Z" fill="black" stroke="black" stroke-width="1.5" stroke-linejoin="round"/>
<path d="M27.9815 121.948C29.273 121.355 32.229 123.088 32.229 123.088C32.229 123.088 29.9366 123.023 28.5671 123.476C27.5525 123.811 26.2151 124.521 26.2151 124.521C26.2151 124.521 26.7479 122.513 27.9815 121.948Z" fill="black" stroke="black" stroke-width="1.5" stroke-linejoin="round"/>
<path d="M24.2517 124.796C23.1368 125.198 22.4968 127.909 22.4968 127.909C22.4968 127.909 23.785 126.548 24.8586 126.02C25.6539 125.628 26.8678 125.267 26.8678 125.267C26.8678 125.267 25.3167 124.412 24.2517 124.796Z" fill="black" stroke="black" stroke-width="1.5" stroke-linejoin="round"/>
<path d="M19 47.4132C24.6 46.6406 26.6666 50.9543 27 53.2077C33.8 51.6625 35.5 56.105 35.5 58.5194L1 58.5194C1 55.429 3.99998 55.3002 5.49998 55.6222C5.5 55.1393 5.6 53.4975 8 52.7249C10.4 51.9523 11.6666 53.8516 12 54.6564C12 52.5639 13.4 48.1858 19 47.4132Z" fill="#EBF3FF" stroke="black" stroke-width="1.5" stroke-linejoin="round"/>
<path d="M18 63.7397H39.5" stroke="black" stroke-width="1.5" stroke-linejoin="round"/>
<path d="M93 70.5H114.5" stroke="black" stroke-width="1.5" stroke-linejoin="round"/>
<path d="M100 65.6714H121.5" stroke="black" stroke-width="1.5" stroke-linejoin="round"/>
</svg>
