<svg width="131" height="75" viewBox="0 0 131 75" fill="none" xmlns="http://www.w3.org/2000/svg">
<path d="M78.1299 36.8835V36.8835C87.1133 33.2236 95.7656 28.7986 103.991 23.6575L115.63 16.3835C116.395 15.8481 117.426 14.9406 118.164 13.8835M118.164 13.8835C119.034 12.6369 119.496 11.1821 118.63 9.88345C117.03 7.48345 113.13 7.53863 110.13 8.88345C105.297 11.0501 94.0299 15.8835 85.6299 19.8835C77.2299 23.8835 67.1299 26.2168 63.1299 26.8835C67.4632 23.3835 77.3299 15.4835 82.1299 11.8835C88.1299 7.38345 88.1299 3.88344 86.6299 1.88344C85.4299 0.283443 81.4632 1.21678 79.6299 1.88344L44.6166 17.936H28.6166L27.6299 58.8835L71.3538 59.6857C78.3989 59.815 85.3489 58 91.4187 54.4212C99.7095 49.5328 109.166 43.8472 111.13 41.8835C113.93 39.0835 113.004 36.7168 112.191 35.8835M118.164 13.8835C120.486 12.7168 126.269 10.5504 128.63 13.3835C131.13 16.3835 125.63 20.8835 122.13 22.8835L112.727 28.7874C104.673 33.8446 96.2583 38.3027 87.5504 42.1257L80.1299 45.3835M119.037 24.8255C119.704 24.8255 121.137 25.2255 121.537 26.8255C122.037 28.8255 118.037 31.8255 114.537 34.3255C114.033 34.6853 113.22 35.223 112.191 35.8835M81.537 52.8255L93.537 47.3255C98.321 44.4551 107.499 38.8944 112.191 35.8835" stroke="black" stroke-width="1.5"/>
<ellipse cx="15.8537" cy="39.8267" rx="11.2754" ry="33.0132" transform="rotate(8.17244 15.8537 39.8267)" fill="black"/>
<mask id="path-3-inside-1_201_2324" fill="white">
<path fill-rule="evenodd" clip-rule="evenodd" d="M10.4153 17.3833H31.1294V59.3833H4.25724C3.47526 53.5048 3.55842 46.1229 4.69281 38.2239C5.85629 30.1223 7.92782 22.8539 10.4153 17.3833Z"/>
</mask>
<path fill-rule="evenodd" clip-rule="evenodd" d="M10.4153 17.3833H31.1294V59.3833H4.25724C3.47526 53.5048 3.55842 46.1229 4.69281 38.2239C5.85629 30.1223 7.92782 22.8539 10.4153 17.3833Z" fill="#F6F6F6"/>
<path d="M10.4153 17.3833V15.8833H9.44956L9.04982 16.7624L10.4153 17.3833ZM31.1294 17.3833H32.6294V15.8833H31.1294V17.3833ZM31.1294 59.3833V60.8833H32.6294V59.3833H31.1294ZM4.25724 59.3833L2.77033 59.5811L2.94356 60.8833H4.25724V59.3833ZM4.69281 38.2239L3.20804 38.0106L4.69281 38.2239ZM10.4153 18.8833H31.1294V15.8833H10.4153V18.8833ZM29.6294 17.3833V59.3833H32.6294V17.3833H29.6294ZM31.1294 57.8833H4.25724V60.8833H31.1294V57.8833ZM5.74414 59.1855C4.98361 53.4682 5.05886 46.227 6.17758 38.4371L3.20804 38.0106C2.05799 46.0188 1.96691 53.5414 2.77033 59.5811L5.74414 59.1855ZM6.17758 38.4371C7.32511 30.4465 9.36349 23.3204 11.7808 18.0042L9.04982 16.7624C6.49216 22.3874 4.38747 29.798 3.20804 38.0106L6.17758 38.4371Z" fill="black" mask="url(#path-3-inside-1_201_2324)"/>
<path d="M73.6299 4.3833C73.7965 5.54997 75.2299 7.5833 79.6299 6.3833C84.0299 5.1833 86.4632 3.54997 87.1299 2.8833" stroke="black" stroke-width="1.5"/>
<path d="M110.629 19.3833C110.129 18.55 109.729 16.3833 112.129 14.3833C114.529 12.3833 117.796 11.2166 119.129 10.8833M121.129 23.3833C120.629 22.3833 120.229 19.8833 122.629 17.8833C125.029 15.8833 127.962 15.05 129.129 14.8833M114.129 34.3833C113.962 33.3833 114.029 30.9833 115.629 29.3833C117.629 27.3833 121.129 26.3833 121.629 26.8833M106.629 44.8833C106.296 44.2166 106.229 42.3833 108.629 40.3833C111.029 38.3833 112.629 38.2166 113.129 38.3833" stroke="black" stroke-width="1.5"/>
</svg>
