<svg width="172" height="129" viewBox="0 0 172 129" fill="none" xmlns="http://www.w3.org/2000/svg">
<path fill-rule="evenodd" clip-rule="evenodd" d="M28 37.3843C18.6112 37.3843 11 44.9954 11 54.3843V95.6871C11 105.076 18.6111 112.687 28 112.687H33.1822L26.3484 129L53.2428 112.687H95.5319C104.921 112.687 112.532 105.076 112.532 95.6871V54.3843C112.532 44.9954 104.921 37.3843 95.5319 37.3843H28Z" fill="black"/>
<path fill-rule="evenodd" clip-rule="evenodd" d="M25.04 34C17.2859 34 11 40.2859 11 48.04V95.2628C11 103.017 17.2859 109.303 25.04 109.303H28.9517L22.118 125.616L49.0121 109.303H94.2614C102.015 109.303 108.301 103.017 108.301 95.2628V48.04C108.301 40.2859 102.015 34 94.2614 34H25.04Z" fill="white"/>
<path d="M28.9517 109.303L29.6435 109.593L30.079 108.553H28.9517V109.303ZM22.118 125.616L21.4262 125.326L20.5351 127.453L22.5069 126.257L22.118 125.616ZM49.0121 109.303V108.553H48.8024L48.6231 108.662L49.0121 109.303ZM11.75 48.04C11.75 40.7001 17.7001 34.75 25.04 34.75V33.25C16.8717 33.25 10.25 39.8717 10.25 48.04H11.75ZM11.75 95.2628V48.04H10.25V95.2628H11.75ZM25.04 108.553C17.7001 108.553 11.75 102.603 11.75 95.2628H10.25C10.25 103.431 16.8717 110.053 25.04 110.053V108.553ZM28.9517 108.553H25.04V110.053H28.9517V108.553ZM22.8097 125.905L29.6435 109.593L28.26 109.013L21.4262 125.326L22.8097 125.905ZM48.6231 108.662L21.729 124.974L22.5069 126.257L49.401 109.944L48.6231 108.662ZM94.2614 108.553H49.0121V110.053H94.2614V108.553ZM107.551 95.2628C107.551 102.603 101.601 108.553 94.2614 108.553V110.053C102.43 110.053 109.051 103.431 109.051 95.2628H107.551ZM107.551 48.04V95.2628H109.051V48.04H107.551ZM94.2614 34.75C101.601 34.75 107.551 40.7001 107.551 48.04H109.051C109.051 39.8717 102.43 33.25 94.2614 33.25V34.75ZM25.04 34.75H94.2614V33.25H25.04V34.75Z" fill="black"/>
<path d="M32.3689 78.7567C23.6817 85.1675 25.8264 94.9684 27.9846 99.0675L85.193 94.7741C84.6818 82.9059 78.0236 82.278 75.9618 76.879C73.9 71.48 79.0827 64.397 78.9746 61.8865C78.8664 59.3759 79.5751 49.2844 66.5362 49.16C53.4973 49.0357 52.2339 56.8645 48.0428 65.734C43.8516 74.6036 43.228 70.7432 32.3689 78.7567Z" fill="black"/>
<path fill-rule="evenodd" clip-rule="evenodd" d="M90.2739 109.167L87.4985 98.938C86.2915 94.4891 83.5126 90.5913 79.3157 88.6848C74.6065 86.5455 67.648 84.0728 59.784 83.5211C54.0539 83.1192 49.0087 83.6943 44.8508 84.6247C36.1455 86.5726 30.252 93.8704 26.696 102.052L24.4482 107.223L23.6375 109.167H29.0076L22.1172 125.616L49.2344 109.167H90.2739Z" fill="#EBF3FF"/>
<path d="M90.2739 109.167V109.917H91.2545L90.9977 108.971L90.2739 109.167ZM87.4985 98.938L88.2223 98.7416L87.4985 98.938ZM79.3157 88.6848L79.0055 89.3676L79.3157 88.6848ZM59.784 83.5211L59.7315 84.2693L59.784 83.5211ZM44.8508 84.6247L45.0146 85.3566L44.8508 84.6247ZM26.696 102.052L27.3838 102.351H27.3838L26.696 102.052ZM24.4482 107.223L23.7603 106.924L23.756 106.934L24.4482 107.223ZM23.6375 109.167L22.9452 108.879L22.5121 109.917H23.6375V109.167ZM29.0076 109.167L29.6994 109.457L30.135 108.417H29.0076V109.167ZM22.1172 125.616L21.4254 125.326L20.5344 127.453L22.5061 126.257L22.1172 125.616ZM49.2344 109.167V108.417H49.0247L48.8455 108.526L49.2344 109.167ZM90.9977 108.971L88.2223 98.7416L86.7747 99.1344L89.5501 109.364L90.9977 108.971ZM88.2223 98.7416C86.9706 94.128 84.0699 90.0207 79.6259 88.0019L79.0055 89.3676C82.9553 91.1619 85.6123 94.8502 86.7747 99.1344L88.2223 98.7416ZM79.6259 88.0019C74.8681 85.8405 67.8195 83.3329 59.8365 82.773L59.7315 84.2693C67.4765 84.8126 74.3449 87.2504 79.0055 89.3676L79.6259 88.0019ZM59.8365 82.773C54.0253 82.3654 48.907 82.9485 44.687 83.8928L45.0146 85.3566C49.1105 84.4401 54.0825 83.8731 59.7315 84.2693L59.8365 82.773ZM44.687 83.8928C35.6417 85.9168 29.6059 93.4754 26.0082 101.753L27.3838 102.351C30.8981 94.2654 36.6492 87.2285 45.0146 85.3566L44.687 83.8928ZM26.0082 101.753L23.7604 106.924L25.1361 107.522L27.3838 102.351L26.0082 101.753ZM23.756 106.934L22.9452 108.879L24.3297 109.456L25.1404 107.512L23.756 106.934ZM23.6375 109.917H29.0076V108.417H23.6375V109.917ZM28.3159 108.878L21.4254 125.326L22.8089 125.905L29.6994 109.457L28.3159 108.878ZM22.5061 126.257L49.6234 109.809L48.8455 108.526L21.7282 124.974L22.5061 126.257ZM49.2344 109.917H90.2739V108.417H49.2344V109.917Z" fill="black"/>
<path d="M78.974 61.8868C79.4196 59.4895 78.7112 57.5536 78.3013 56.8852C78.0829 57.1233 77.0105 58.7701 74.0631 59.3544C72.7001 59.6246 69.5181 60.0075 68.2765 63.0335C68.0423 63.6043 67.7892 64.0513 67.5321 64.3984C66.548 65.7272 64.9537 64.6534 63.6475 63.6396C62.3205 62.6097 60.6667 62.1213 59.1766 64.1114C57.4086 66.4727 59.8257 69.5974 60.8257 70.8118C60.9889 71.0101 61.0762 71.2589 61.0713 71.5157L61.008 74.7795C60.1126 80.5345 54.7136 82.5964 52.0141 83.6273C53.0621 84.9541 56.3985 87.7372 61.3598 88.2552C66.3211 88.7732 67.6415 87.2224 67.6816 86.3823L67.3375 78.3941C74.7098 79.6771 75.5685 74.8383 75.8335 73.9123C76.231 72.5232 76.1916 71.6103 77.5512 71.323C78.9108 71.0358 80.0323 70.5302 79.993 69.6173C79.9537 68.7043 78.4171 64.8833 78.974 61.8868Z" fill="white" stroke="black" stroke-width="1.5"/>
<path fill-rule="evenodd" clip-rule="evenodd" d="M98.8615 1C94.5197 1 91 4.51973 91 8.86153V42.5538C91 46.8957 94.5197 50.4154 98.8615 50.4154H132.347L148.838 60.5231L146.711 50.4154H156.138C160.48 50.4154 164 46.8957 164 42.5539V8.86154C164 4.51973 160.48 1 156.138 1H98.8615Z" fill="black"/>
<path d="M132.347 50.4154L132.739 49.7759L132.559 49.6654H132.347V50.4154ZM148.838 60.5231L148.447 61.1625L149.931 62.0724L149.572 60.3686L148.838 60.5231ZM146.711 50.4154V49.6654H145.786L145.977 50.5699L146.711 50.4154ZM91.75 8.86153C91.75 4.93394 94.9339 1.75 98.8615 1.75V0.25C94.1055 0.25 90.25 4.10551 90.25 8.86153H91.75ZM91.75 42.5538V8.86153H90.25V42.5538H91.75ZM98.8615 49.6654C94.9339 49.6654 91.75 46.4814 91.75 42.5538H90.25C90.25 47.3099 94.1055 51.1654 98.8615 51.1654V49.6654ZM132.347 49.6654H98.8615V51.1654H132.347V49.6654ZM149.23 59.8836L132.739 49.7759L131.955 51.0548L148.447 61.1625L149.23 59.8836ZM145.977 50.5699L148.105 60.6776L149.572 60.3686L147.444 50.2609L145.977 50.5699ZM156.138 49.6654H146.711V51.1654H156.138V49.6654ZM163.25 42.5539C163.25 46.4814 160.066 49.6654 156.138 49.6654V51.1654C160.894 51.1654 164.75 47.3099 164.75 42.5539H163.25ZM163.25 8.86154V42.5539H164.75V8.86154H163.25ZM156.138 1.75C160.066 1.75 163.25 4.93395 163.25 8.86154H164.75C164.75 4.10552 160.894 0.25 156.138 0.25V1.75ZM98.8615 1.75H156.138V0.25H98.8615V1.75Z" fill="black"/>
<path fill-rule="evenodd" clip-rule="evenodd" d="M98.8615 1C94.5197 1 91 4.51974 91 8.86155V40.3077C91 44.6495 94.5197 48.1692 98.8615 48.1692H128.978L145.469 58.2769L143.341 48.1692H153.892C158.234 48.1692 161.754 44.6495 161.754 40.3077V8.86154C161.754 4.51973 158.234 1 153.892 1H98.8615Z" fill="#EBF3FF"/>
<path d="M128.978 48.1692L129.37 47.5298L129.189 47.4192H128.978V48.1692ZM145.469 58.2769L145.077 58.9164L146.562 59.8262L146.203 58.1224L145.469 58.2769ZM143.341 48.1692V47.4192H142.417L142.607 48.3237L143.341 48.1692ZM91.75 8.86155C91.75 4.93395 94.9339 1.75 98.8615 1.75V0.25C94.1055 0.25 90.25 4.10552 90.25 8.86155H91.75ZM91.75 40.3077V8.86155H90.25V40.3077H91.75ZM98.8615 47.4192C94.9339 47.4192 91.75 44.2353 91.75 40.3077H90.25C90.25 45.0637 94.1055 48.9192 98.8615 48.9192V47.4192ZM128.978 47.4192H98.8615V48.9192H128.978V47.4192ZM145.861 57.6375L129.37 47.5298L128.586 48.8087L145.077 58.9164L145.861 57.6375ZM142.607 48.3237L144.735 58.4314L146.203 58.1224L144.075 48.0147L142.607 48.3237ZM153.892 47.4192H143.341V48.9192H153.892V47.4192ZM161.004 40.3077C161.004 44.2353 157.82 47.4192 153.892 47.4192V48.9192C158.648 48.9192 162.504 45.0637 162.504 40.3077H161.004ZM161.004 8.86154V40.3077H162.504V8.86154H161.004ZM153.892 1.75C157.82 1.75 161.004 4.93394 161.004 8.86154H162.504C162.504 4.10552 158.648 0.25 153.892 0.25V1.75ZM98.8615 1.75H153.892V0.25H98.8615V1.75Z" fill="black"/>
<path d="M126 78H171.485" stroke="black" stroke-width="1.5"/>
<path d="M126 90.915H171.485" stroke="black" stroke-width="1.5"/>
<path d="M7.02447 8.46353C7.17415 8.00287 7.82585 8.00287 7.97553 8.46353L9.0716 11.8369C9.13854 12.0429 9.33051 12.1824 9.54713 12.1824H13.0941C13.5784 12.1824 13.7798 12.8022 13.388 13.0869L10.5184 15.1717C10.3432 15.2991 10.2699 15.5247 10.3368 15.7307L11.4329 19.1041C11.5825 19.5648 11.0553 19.9478 10.6634 19.6631L7.79389 17.5783C7.61865 17.4509 7.38135 17.4509 7.20611 17.5783L4.33656 19.6631C3.9447 19.9478 3.41746 19.5648 3.56714 19.1041L4.66321 15.7307C4.73015 15.5247 4.65682 15.2991 4.48157 15.1717L1.61203 13.0869C1.22017 12.8022 1.42156 12.1824 1.90592 12.1824H5.45287C5.66949 12.1824 5.86146 12.0429 5.9284 11.8369L7.02447 8.46353Z" fill="black" stroke="black" stroke-width="0.5"/>
<path d="M24.0245 8.46353C24.1741 8.00287 24.8259 8.00287 24.9755 8.46353L26.0716 11.8369C26.1385 12.0429 26.3305 12.1824 26.5471 12.1824H30.0941C30.5784 12.1824 30.7798 12.8022 30.388 13.0869L27.5184 15.1717C27.3432 15.2991 27.2699 15.5247 27.3368 15.7307L28.4329 19.1041C28.5825 19.5648 28.0553 19.9478 27.6634 19.6631L24.7939 17.5783C24.6186 17.4509 24.3814 17.4509 24.2061 17.5783L21.3366 19.6631C20.9447 19.9478 20.4175 19.5648 20.5671 19.1041L21.6632 15.7307C21.7301 15.5247 21.6568 15.2991 21.4816 15.1717L18.612 13.0869C18.2202 12.8022 18.4216 12.1824 18.9059 12.1824H22.4529C22.6695 12.1824 22.8615 12.0429 22.9284 11.8369L24.0245 8.46353Z" fill="black" stroke="black" stroke-width="0.5"/>
<path d="M40.5276 8.36312C40.683 7.91476 41.317 7.91476 41.4724 8.36312L42.6796 11.8461C42.7493 12.0474 42.939 12.1824 43.152 12.1824H46.9862C47.4783 12.1824 47.6744 12.8186 47.2677 13.0956L44.2224 15.1698C44.0358 15.297 43.9575 15.5334 44.0315 15.7468L45.2075 19.1402C45.3653 19.5952 44.8517 19.9882 44.4536 19.7171L41.2815 17.5565C41.1117 17.4408 40.8883 17.4408 40.7185 17.5565L37.5464 19.7171C37.1483 19.9882 36.6347 19.5952 36.7925 19.1402L37.9685 15.7468C38.0425 15.5334 37.9642 15.297 37.7776 15.1698L34.7323 13.0956C34.3256 12.8186 34.5217 12.1824 35.0138 12.1824H38.848C39.061 12.1824 39.2507 12.0474 39.3204 11.8461L40.5276 8.36312Z" fill="black" stroke="black" stroke-width="0.5"/>
<path d="M57.0245 8.46353C57.1741 8.00287 57.8259 8.00287 57.9755 8.46353L59.0716 11.8369C59.1385 12.0429 59.3305 12.1824 59.5471 12.1824H63.0941C63.5784 12.1824 63.7798 12.8022 63.388 13.0869L60.5184 15.1717C60.3432 15.2991 60.2699 15.5247 60.3368 15.7307L61.4329 19.1041C61.5825 19.5648 61.0553 19.9478 60.6634 19.6631L57.7939 17.5783C57.6186 17.4509 57.3814 17.4509 57.2061 17.5783L54.3366 19.6631C53.9447 19.9478 53.4175 19.5648 53.5671 19.1041L54.6632 15.7307C54.7301 15.5247 54.6568 15.2991 54.4816 15.1717L51.612 13.0869C51.2202 12.8022 51.4216 12.1824 51.9059 12.1824H55.4529C55.6695 12.1824 55.8615 12.0429 55.9284 11.8369L57.0245 8.46353Z" fill="black" stroke="black" stroke-width="0.5"/>
<path d="M73.0245 8.46353C73.1741 8.00287 73.8259 8.00287 73.9755 8.46353L75.0716 11.8369C75.1385 12.0429 75.3305 12.1824 75.5471 12.1824H79.0941C79.5784 12.1824 79.7798 12.8022 79.388 13.0869L76.5184 15.1717C76.3432 15.2991 76.2699 15.5247 76.3368 15.7307L77.4329 19.1041C77.5825 19.5648 77.0553 19.9478 76.6634 19.6631L73.7939 17.5783C73.6186 17.4509 73.3814 17.4509 73.2061 17.5783L70.3366 19.6631C69.9447 19.9478 69.4175 19.5648 69.5671 19.1041L70.6632 15.7307C70.7301 15.5247 70.6568 15.2991 70.4816 15.1717L67.612 13.0869C67.2202 12.8022 67.4216 12.1824 67.9059 12.1824H71.4529C71.6695 12.1824 71.8615 12.0429 71.9284 11.8369L73.0245 8.46353Z" fill="black" stroke="black" stroke-width="0.5"/>
<path d="M113.534 18.5288C110.485 24.3207 121.241 34.5895 127 39C132.759 34.5895 143.515 24.3207 140.466 18.5288C136.655 11.289 128.524 17.0309 127 19.5274C125.476 17.0309 117.345 11.289 113.534 18.5288Z" fill="black" stroke="#EBF3FF" stroke-width="1.5"/>
</svg>
