<svg width="176" height="230" viewBox="0 0 176 230" fill="none" xmlns="http://www.w3.org/2000/svg">
<path d="M1.49609 29.9144C10.4676 25.4287 16.0747 16.4572 21.6819 3C25.0462 14.2143 29.5319 25.4287 39.6248 32.1573C29.5319 38.8859 25.0462 43.3716 18.3176 60.1931C18.3176 52.3431 11.589 36.643 1.49609 29.9144Z" stroke="black" stroke-width="1.5"/>
<circle cx="171.438" cy="208.787" r="2.24287" transform="rotate(-24.4887 171.438 208.787)" stroke="black" stroke-width="1.5"/>
<circle cx="169.182" cy="85.2853" r="4.48574" transform="rotate(-24.4887 169.182 85.2853)" stroke="black" stroke-width="1.5"/>
<mask id="path-4-inside-1_201_1606" fill="white">
<path d="M42.0808 197.291C19.3924 179.753 15.2166 147.144 32.7539 124.456C50.2912 101.767 82.9006 97.5914 105.589 115.129C128.277 132.666 132.453 165.275 114.916 187.964C97.3785 210.652 64.7692 214.828 42.0808 197.291ZM86.279 140.11C77.3876 133.238 64.6084 134.874 57.7357 143.766C50.863 152.657 52.4995 165.436 61.3908 172.309C70.2821 179.181 83.0614 177.545 89.934 168.654C96.8067 159.762 95.1703 146.983 86.279 140.11Z"/>
</mask>
<path d="M42.0808 197.291C19.3924 179.753 15.2166 147.144 32.7539 124.456C50.2912 101.767 82.9006 97.5914 105.589 115.129C128.277 132.666 132.453 165.275 114.916 187.964C97.3785 210.652 64.7692 214.828 42.0808 197.291ZM86.279 140.11C77.3876 133.238 64.6084 134.874 57.7357 143.766C50.863 152.657 52.4995 165.436 61.3908 172.309C70.2821 179.181 83.0614 177.545 89.934 168.654C96.8067 159.762 95.1703 146.983 86.279 140.11Z" fill="white" stroke="black" stroke-width="3" mask="url(#path-4-inside-1_201_1606)"/>
<mask id="path-5-inside-2_201_1606" fill="white">
<path d="M41.5895 115.513C33.7472 121.727 27.8673 130.074 24.6571 139.551C21.4469 149.028 21.0432 159.23 23.4946 168.931L54.1179 161.192C53.1578 157.393 53.3159 153.397 54.5732 149.685C55.8306 145.973 58.1336 142.704 61.2052 140.27L41.5895 115.513Z"/>
</mask>
<path d="M41.5895 115.513C33.7472 121.727 27.8673 130.074 24.6571 139.551C21.4469 149.028 21.0432 159.23 23.4946 168.931L54.1179 161.192C53.1578 157.393 53.3159 153.397 54.5732 149.685C55.8306 145.973 58.1336 142.704 61.2052 140.27L41.5895 115.513Z" fill="#EBF3FF" stroke="black" stroke-width="3" mask="url(#path-5-inside-2_201_1606)"/>
<path d="M22.3327 162.805C23.6371 172.991 27.9328 182.562 34.6764 190.306C41.4201 198.051 50.309 203.622 60.2189 206.315C70.1289 209.008 80.6148 208.702 90.3508 205.436C100.087 202.169 108.635 196.089 114.916 187.964L90.5185 169.106C87.968 172.405 84.4962 174.875 80.5423 176.201C76.5883 177.528 72.3298 177.652 68.3052 176.558C64.2806 175.465 60.6707 173.202 57.932 170.057C55.1933 166.912 53.4488 163.025 52.919 158.888L22.3327 162.805Z" fill="black"/>
</svg>
