<svg width="229" height="218" viewBox="0 0 229 218" fill="none" xmlns="http://www.w3.org/2000/svg">
<path d="M70.4993 73.9999C65.1403 55.359 52.9198 58.6769 44.9993 60.314C60.7876 46.7761 100.398 24.858 147.907 54.9999C192.906 83.5484 195.819 127.848 188.136 152.232C187.835 153.19 186.407 153.097 186.055 152.158C181.234 139.283 165.217 136.191 158.144 138.534C157.538 138.735 156.85 138.404 156.67 137.791C151.288 119.449 132.747 118.911 124.436 120.324C123.908 120.414 123.395 120.081 123.255 119.564C117.967 100.067 104.296 95.3883 96.4993 96.9999C91.4007 76.7167 78.4198 72.3628 70.4993 73.9999Z" fill="black"/>
<path d="M66.5315 153.235L64.5803 156.483C62.7329 159.557 63.7278 163.547 66.8023 165.394V165.394C69.8768 167.242 73.8668 166.247 75.7141 163.172L115.017 97.7611" stroke="black" stroke-width="1.5"/>
<path d="M68.1127 77.7012C62.1783 60.6518 47.1742 56.9268 39.8971 58.8537C53.8769 45.4642 93.5183 24.2661 139.214 49.8464C184.505 75.2005 189.557 122.66 184.637 145.821C180.757 130.631 161.407 126.582 155.268 130.069C149.491 111.48 131.226 114.46 123.948 116.387C118.172 97.7979 102.174 97.0043 94.8967 98.9311C89.1202 80.3421 75.3897 75.7744 68.1127 77.7012Z" fill="#EBF3FF" stroke="black" stroke-width="1.5" stroke-linejoin="round"/>
<path fill-rule="evenodd" clip-rule="evenodd" d="M67.845 77.3218C67.8846 77.4309 67.9238 77.5407 67.9625 77.651C75.2523 75.7436 89.018 80.3353 94.8815 98.8898L94.9715 98.9606C95.1258 98.9208 95.2839 98.8823 95.4457 98.8451C108.648 74.5887 132.719 57.6722 142.69 51.9473C142.685 51.9447 142.681 51.9421 142.677 51.9395C117.522 42.4655 82.1286 64.6309 67.845 77.3218Z" fill="white"/>
<path d="M67.9625 77.651L67.2549 77.8996C67.3843 78.2679 67.7747 78.4754 68.1524 78.3766L67.9625 77.651ZM67.845 77.3218L67.3469 76.7611C67.1172 76.9652 67.0352 77.2887 67.14 77.5776L67.845 77.3218ZM94.8815 98.8898L94.1663 99.1157C94.2117 99.2594 94.2993 99.386 94.4176 99.4791L94.8815 98.8898ZM94.9715 98.9606L94.5076 99.55C94.6914 99.6946 94.9322 99.7452 95.1586 99.6868L94.9715 98.9606ZM95.4457 98.8451L95.6136 99.5761C95.823 99.528 96.0017 99.3924 96.1045 99.2036L95.4457 98.8451ZM142.69 51.9473L143.063 52.5977C143.293 52.4659 143.436 52.2229 143.44 51.9583C143.444 51.6936 143.308 51.4465 143.082 51.3081L142.69 51.9473ZM142.677 51.9395L143.069 51.3002C143.029 51.2753 142.986 51.2544 142.941 51.2376L142.677 51.9395ZM68.6702 77.4024C68.6305 77.2897 68.5905 77.1775 68.5501 77.066L67.14 77.5776C67.1787 77.6843 67.217 77.7916 67.2549 77.8996L68.6702 77.4024ZM95.5966 98.6638C89.6391 79.8114 75.5282 74.8962 67.7727 76.9254L68.1524 78.3766C74.9765 76.591 88.397 80.8591 94.1663 99.1157L95.5966 98.6638ZM94.4176 99.4791L94.5076 99.55L95.4353 98.3712L95.3453 98.3004L94.4176 99.4791ZM95.2778 98.1141C95.1097 98.1528 94.9451 98.1929 94.7843 98.2343L95.1586 99.6868C95.3064 99.6488 95.4581 99.6118 95.6136 99.5761L95.2778 98.1141ZM96.1045 99.2036C109.211 75.1228 133.145 58.2922 143.063 52.5977L142.316 51.2969C132.293 57.0522 108.085 74.0546 94.787 98.4866L96.1045 99.2036ZM142.285 52.5788C142.289 52.5813 142.293 52.5839 142.297 52.5865L143.082 51.3081C143.078 51.3055 143.073 51.3028 143.069 51.3002L142.285 52.5788ZM142.941 51.2376C130.087 46.3964 114.721 49.6625 100.887 55.6301C87.0273 61.6089 74.5413 70.3689 67.3469 76.7611L68.3432 77.8825C75.4323 71.5838 87.7848 62.9157 101.481 57.0075C115.203 51.0882 130.112 48.0086 142.413 52.6413L142.941 51.2376Z" fill="black"/>
<path fill-rule="evenodd" clip-rule="evenodd" d="M155.764 129.384C155.649 129.399 155.535 129.415 155.42 129.432C153.651 122.15 143.117 112.181 124.053 115.595L123.949 115.549C123.911 115.395 123.87 115.238 123.826 115.078C138.89 92.2908 142.374 63.3463 142.692 51.9488C142.696 51.9513 142.7 51.9537 142.704 51.9562C162.907 69.6736 160.161 110.984 155.764 129.384Z" fill="white"/>
<path d="M155.42 129.432L155.528 130.174L154.852 130.273L154.691 129.609L155.42 129.432ZM155.764 129.384L156.493 129.558L156.374 130.057L155.865 130.127L155.764 129.384ZM124.053 115.595L124.186 116.333L123.96 116.374L123.75 116.281L124.053 115.595ZM123.949 115.549L123.645 116.235L123.309 116.086L123.221 115.729L123.949 115.549ZM123.826 115.078L123.103 115.277L123.012 114.949L123.2 114.665L123.826 115.078ZM142.692 51.9488L141.942 51.928L141.977 50.6585L143.072 51.3024L142.692 51.9488ZM142.704 51.9562L143.085 51.3098L143.146 51.3457L143.199 51.3923L142.704 51.9562ZM155.311 128.69C155.428 128.673 155.546 128.656 155.662 128.64L155.865 130.127C155.753 130.142 155.641 130.158 155.528 130.174L155.311 128.69ZM123.921 114.857C143.289 111.388 154.267 121.51 156.148 129.255L154.691 129.609C153.035 122.791 142.944 112.974 124.186 116.333L123.921 114.857ZM123.75 116.281L123.645 116.235L124.252 114.863L124.357 114.909L123.75 116.281ZM124.549 114.879C124.595 115.045 124.637 115.209 124.677 115.369L123.221 115.729C123.184 115.581 123.145 115.43 123.103 115.277L124.549 114.879ZM123.2 114.665C138.153 92.0458 141.626 63.2643 141.942 51.928L143.442 51.9697C143.122 63.4282 139.627 92.5358 124.452 115.492L123.2 114.665ZM142.324 52.6026C142.32 52.6001 142.316 52.5977 142.312 52.5953L143.072 51.3024C143.076 51.3049 143.08 51.3073 143.085 51.3098L142.324 52.6026ZM143.199 51.3923C153.521 60.4445 157.912 75.4445 159.206 90.3491C160.503 105.28 158.708 120.289 156.493 129.558L155.034 129.209C157.216 120.079 158.993 105.232 157.712 90.4789C156.428 75.6991 152.09 61.1853 142.21 52.52L143.199 51.3923Z" fill="black"/>
<path d="M142.613 51.8338L147.63 43.4834" stroke="black" stroke-width="1.5"/>
<rect x="30" y="134.637" width="99.1469" height="61.8247" rx="8" transform="rotate(-4.89874 30 134.637)" fill="black"/>
<rect x="24.6689" y="130.637" width="99.1469" height="61.8247" rx="8" transform="rotate(-4.89874 24.6689 130.637)" fill="white" stroke="black" stroke-width="1.5"/>
<path d="M82.4609 145.049L116.043 142.413M83.1485 153.071L116.731 150.435M90.86 162.224C89.9268 164.805 89.4454 169.965 94.9859 169.952C98.2946 169.944 101.118 167.343 102.846 164.592M102.846 164.592C104.735 161.585 105.316 158.4 103.794 158.229C101.408 157.961 101.019 162.942 102.846 164.592ZM102.846 164.592C103.25 164.957 103.761 165.159 104.384 165.105C107.822 164.811 109.328 155.446 116.074 160.063" stroke="black" stroke-width="1.5"/>
<path d="M42.9714 157.627C40.84 163.404 39.2797 164.986 39.6834 169.644L77.7845 166.342C77.7682 162.824 76.3448 159.721 73.2026 156.767C70.0603 153.813 71.6367 148.691 68.3016 140.181C64.9665 131.671 49.7834 132.987 46.3277 139.739C42.8721 146.491 45.5423 150.659 42.9714 157.627Z" fill="black"/>
<path d="M53.0566 141.358C52.0839 143.862 49.1255 146.336 47.9156 147.248L48.3406 152.151C48.5207 154.23 49.359 156.195 50.7296 157.752L51.5874 158.726L51.9516 162.929L63.1704 161.957L62.8061 157.754L63.4881 156.757C64.7533 154.908 65.3396 152.664 65.1448 150.417L64.7437 145.789C57.1026 145.484 53.7685 142.707 53.0566 141.358Z" fill="white" stroke="black" stroke-width="1.5"/>
<path fill-rule="evenodd" clip-rule="evenodd" d="M85.3813 187.485L37.9191 191.553C36.6527 191.661 35.4299 191.468 34.3216 191.034L33.5551 182.19C33.0348 176.186 36.7242 170.616 42.456 168.752L52.478 165.494L52.2241 162.564L63.3586 161.599L63.6125 164.529L73.4693 165.999C79.4391 166.888 84.0184 171.758 84.5395 177.772L85.3813 187.485Z" fill="#EBF3FF"/>
<path d="M85.3813 187.485L85.4453 188.232L86.1933 188.168L86.1285 187.42L85.3813 187.485ZM34.3216 191.034L33.5744 191.099L33.6145 191.562L34.0479 191.732L34.3216 191.034ZM33.5551 182.19L32.8079 182.255L33.5551 182.19ZM42.456 168.752L42.6879 169.466L42.456 168.752ZM52.478 165.494L52.7099 166.208L53.2767 166.023L53.2252 165.43L52.478 165.494ZM52.2241 162.564L52.1593 161.817L51.4121 161.882L51.4769 162.629L52.2241 162.564ZM63.3586 161.599L64.1058 161.534L64.041 160.787L63.2938 160.852L63.3586 161.599ZM63.6125 164.529L62.8653 164.594L62.9164 165.184L63.502 165.271L63.6125 164.529ZM73.4693 165.999L73.3587 166.74L73.4693 165.999ZM84.5395 177.772L83.7923 177.836L84.5395 177.772ZM85.3172 186.737L37.855 190.805L37.9831 192.3L85.4453 188.232L85.3172 186.737ZM37.855 190.805C36.706 190.904 35.5987 190.729 34.5952 190.336L34.0479 191.732C35.2612 192.208 36.5993 192.418 37.9831 192.3L37.855 190.805ZM32.8079 182.255L33.5744 191.099L35.0687 190.969L34.3023 182.125L32.8079 182.255ZM42.2241 168.039C36.1605 170.01 32.2574 175.903 32.8079 182.255L34.3023 182.125C33.8121 176.469 37.288 171.221 42.6879 169.466L42.2241 168.039ZM52.2461 164.781L42.2241 168.039L42.6879 169.466L52.7099 166.208L52.2461 164.781ZM51.4769 162.629L51.7308 165.559L53.2252 165.43L52.9713 162.499L51.4769 162.629ZM63.2938 160.852L52.1593 161.817L52.2888 163.311L63.4233 162.346L63.2938 160.852ZM64.3597 164.465L64.1058 161.534L62.6114 161.664L62.8653 164.594L64.3597 164.465ZM73.5799 165.257L63.7231 163.788L63.502 165.271L73.3587 166.74L73.5799 165.257ZM85.2867 177.707C84.7356 171.348 79.893 166.198 73.5799 165.257L73.3587 166.74C78.9853 167.579 83.3012 172.169 83.7923 177.836L85.2867 177.707ZM86.1285 187.42L85.2867 177.707L83.7923 177.836L84.6341 187.549L86.1285 187.42Z" fill="black"/>
</svg>
