<svg width="151" height="152" viewBox="0 0 151 152" fill="none" xmlns="http://www.w3.org/2000/svg">
<circle cx="75" cy="76.9961" r="75" fill="#EBF3FF"/>
<path d="M98.9014 42.437L103.523 44.7037L69.1999 114.694" stroke="black" stroke-width="1.5"/>
<path d="M137.436 34.3771C128.727 32.5762 120.131 31.391 111.816 35.8182L127.483 21.153C135.075 21.9196 137.113 30.8589 137.436 34.3771Z" fill="black" stroke="black" stroke-width="1.5"/>
<path d="M109.908 22.0571C103.411 26.1679 101.276 39.6592 101.276 39.6592L108.228 43.0687C113.252 35.5043 124.92 25.78 130.127 21.8634C130.127 21.8634 116.527 17.8695 109.908 22.0571Z" fill="white" stroke="black" stroke-width="1.5" stroke-linejoin="round"/>
<path d="M74.6139 53.2199C77.8782 52.5337 90.7497 52.442 95.1624 51.4042L83.7516 64.2603C78.2981 63.7815 74.516 56.8312 74.6139 53.2199Z" fill="black" stroke="black" stroke-width="1.5"/>
<path d="M82.5893 64.253C90.6404 60.003 97.1386 48.2107 99.9878 43.2359L106.629 45.5603C107.491 46.9623 107.82 49.4329 107.889 51.8884C107.99 55.5318 105.688 58.7064 102.445 60.3691L101.749 60.7258C95.8455 63.7521 89.1835 64.9786 82.5893 64.253Z" fill="white" stroke="black" stroke-width="1.5" stroke-linejoin="round"/>
<path d="M111.71 65.366L118.446 52.2856C122.356 54.8434 129.565 60.4631 127.121 62.4792C124.677 64.4953 115.829 65.2437 111.71 65.366Z" fill="black" stroke="black" stroke-width="1.5"/>
<path d="M95.3692 14.2376L92.7373 35.4717C88.8275 32.9139 80.6365 27.6746 82.0315 24.83C84.46 19.8778 91.2508 14.3598 95.3692 14.2376Z" fill="black" stroke="black" stroke-width="1.5"/>
<path d="M126.851 45.2452C121.802 38.8377 112.59 39.808 108.601 41.538L105.657 47.5413C116.865 50.7438 124.976 57.9769 127.308 61.8509C129.594 59.6955 131.9 51.6526 126.851 45.2452Z" fill="white" stroke="black" stroke-width="1.5"/>
<path d="M81.7693 41.9698C85.6291 46.7189 96.112 45.7041 100.1 43.974L103.044 37.9708C91.837 34.7683 85.4381 27.2508 83.1059 23.3768C80.8203 25.5323 78.4488 37.8842 81.7693 41.9698Z" fill="white" stroke="black" stroke-width="1.5"/>
<circle cx="103.644" cy="42.459" r="5.14789" transform="rotate(26.1234 103.644 42.459)" fill="#F6F6F6" stroke="black" stroke-width="1.5"/>
<path d="M135.058 42.5016C137.255 44.4151 140.566 50.2818 136.233 58.4398M137.177 38.5618C138.835 39.7742 142.24 43.0832 142.589 46.6205" stroke="black" stroke-width="1.5"/>
<path d="M76.5564 44.33C74.3595 42.4164 71.0487 36.5498 75.381 28.3918M74.4376 48.2697C72.7788 47.0574 69.3739 43.7483 69.0249 40.2111" stroke="black" stroke-width="1.5"/>
<path fill-rule="evenodd" clip-rule="evenodd" d="M22.7713 128.181C22.8434 127.078 23.7977 126.242 24.9012 126.316L103.991 131.633C105.09 131.707 106.042 130.879 106.12 129.78L109.533 82.008L109.661 80.2124C109.727 79.2843 110.528 78.5822 111.456 78.6373C112.401 78.6934 113.118 79.5106 113.051 80.4546L112.628 86.3665L109.216 134.139C109.138 135.237 108.186 136.066 107.087 135.992L24.6237 130.448C23.5231 130.374 22.6902 129.423 22.7621 128.322L22.7713 128.181Z" fill="black"/>
<path d="M109.533 82.008L110.281 82.0614V82.0614L109.533 82.008ZM112.628 86.3665L111.88 86.3131V86.3131L112.628 86.3665ZM24.6237 130.448L24.5734 131.196L24.6237 130.448ZM113.051 80.4546L113.799 80.508L113.051 80.4546ZM109.661 80.2124L108.913 80.159L109.661 80.2124ZM109.216 134.139L109.964 134.192L109.216 134.139ZM24.9012 126.316L24.9515 125.568L24.9012 126.316ZM22.7713 128.181L22.0229 128.132L22.7713 128.181ZM103.991 131.633L103.941 132.381L103.991 131.633ZM106.12 129.78L106.869 129.834L106.12 129.78ZM104.042 130.885L24.9515 125.568L24.8509 127.064L103.941 132.381L104.042 130.885ZM108.785 81.9545L105.372 129.727L106.869 129.834L110.281 82.0614L108.785 81.9545ZM108.913 80.159L108.785 81.9545L110.281 82.0614L110.409 80.2659L108.913 80.159ZM112.303 80.4011L111.88 86.3131L113.376 86.4199L113.799 80.508L112.303 80.4011ZM111.88 86.3131L108.468 134.085L109.964 134.192L113.376 86.4199L111.88 86.3131ZM107.137 135.243L24.674 129.7L24.5734 131.196L107.037 136.74L107.137 135.243ZM23.5105 128.371L23.5197 128.23L22.0229 128.132L22.0137 128.273L23.5105 128.371ZM24.674 129.7C23.9862 129.653 23.4656 129.059 23.5105 128.371L22.0137 128.273C21.9148 129.787 23.0601 131.094 24.5734 131.196L24.674 129.7ZM111.412 79.386C111.94 79.4173 112.34 79.8738 112.303 80.4011L113.799 80.508C113.896 79.1473 112.863 77.9695 111.501 77.8886L111.412 79.386ZM110.409 80.2659C110.446 79.7474 110.893 79.3552 111.412 79.386L111.501 77.8886C110.162 77.8091 109.008 78.8212 108.913 80.159L110.409 80.2659ZM108.468 134.085C108.419 134.772 107.824 135.29 107.137 135.243L107.037 136.74C108.548 136.842 109.856 135.703 109.964 134.192L108.468 134.085ZM24.9515 125.568C23.4342 125.466 22.1221 126.615 22.0229 128.132L23.5197 128.23C23.5648 127.54 24.1612 127.018 24.8509 127.064L24.9515 125.568ZM103.941 132.381C105.452 132.483 106.761 131.344 106.869 129.834L105.372 129.727C105.323 130.413 104.728 130.931 104.042 130.885L103.941 132.381Z" fill="black"/>
<path fill-rule="evenodd" clip-rule="evenodd" d="M20.1287 125.377C20.0575 126.477 20.8895 127.427 21.989 127.502L104.128 133.08C105.228 133.154 106.181 132.325 106.259 131.225L109.659 83.139L23.2152 77.6563L20.1287 125.377Z" fill="#EBF3FF"/>
<path d="M110.06 77.4728C110.138 76.3653 109.299 75.406 108.191 75.3357L25.7126 70.1067C24.6123 70.0369 23.663 70.8708 23.5904 71.971L23.2152 77.6563L109.659 83.139L110.06 77.4728Z" fill="white"/>
<path d="M23.2152 77.6563L23.5904 71.971C23.663 70.8708 24.6123 70.0369 25.7126 70.1067L108.191 75.3357C109.299 75.406 110.138 76.3653 110.06 77.4728L109.659 83.139M23.2152 77.6563L20.1287 125.377C20.0575 126.477 20.8895 127.427 21.989 127.502L104.128 133.08C105.228 133.154 106.181 132.325 106.259 131.225L109.659 83.139M23.2152 77.6563L109.659 83.139" stroke="black" stroke-width="1.5"/>
<path d="M70.0367 88.9609L32.6836 86.8302C31.5979 86.7682 30.6617 87.5852 30.576 88.6693L28.529 114.551C28.4411 115.663 29.2798 116.632 30.3929 116.705L67.7553 119.137C68.8477 119.209 69.7943 118.388 69.8792 117.297L71.9168 91.1129C72.0037 89.9955 71.1556 89.0248 70.0367 88.9609Z" fill="white" stroke="black" stroke-width="1.5"/>
<path d="M32.0889 110.897L37.6478 105.232C38.0398 104.833 38.6833 104.833 39.0752 105.233L43.8882 110.136C44.2924 110.548 44.9603 110.534 45.3459 110.104L53.6627 100.843C54.0546 100.407 54.7364 100.4 55.1371 100.828L57.2825 103.122C57.6727 103.539 58.3323 103.546 58.7302 103.136L68.2855 93.2983M68.2855 93.2983V97.8523M68.2855 93.2983L63.565 93.7123" stroke="black" stroke-width="1.5"/>
<path d="M77.6543 93.2285L102.762 94.1584" stroke="black" stroke-width="1.5"/>
<path d="M76.7246 100.668L102.762 102.528" stroke="black" stroke-width="1.5"/>
<path d="M76.7246 109.037L102.762 110.897" stroke="black" stroke-width="1.5"/>
<path d="M75.7949 116.476L102.762 119.266" stroke="black" stroke-width="1.5"/>
</svg>
