<svg width="161" height="156" viewBox="0 0 161 156" fill="none" xmlns="http://www.w3.org/2000/svg">
<circle cx="75" cy="81" r="75" fill="#EBF3FF"/>
<path d="M124.226 91.2062C128.782 91.2062 134.245 89.9037 138.269 84.1925C141.667 79.3689 142.26 74.7076 142.22 70.9081C142.2 70.1873 142.182 69.5138 142.147 68.9023C142.184 69.5388 142.212 70.2089 142.22 70.9081C142.334 75.0148 142.524 80.6555 146.485 85.0869C151.14 90.2961 155.694 91.4023 159.084 91.2062C156.372 91.3631 151.203 91.3881 147.116 96.0073C143.029 100.627 141.95 108.633 141.922 112.058C141.74 104.993 139.135 91.2062 124.226 91.2062Z" fill="#EBF3FF" stroke="black" stroke-width="1.5"/>
<path d="M43.5197 61.8367C45.4507 61.8367 47.7665 61.2846 49.4721 58.8638C51.1777 56.4429 51.2163 54.1185 51.1159 52.3826C51.2163 54.1185 50.9812 57.0348 52.9546 59.2429C54.9279 61.451 56.8583 61.9199 58.2954 61.8367C57.1457 61.9032 54.9547 61.9139 53.2223 63.8718C51.4899 65.8298 51.0326 69.2234 51.0204 70.6755C50.9433 67.6805 49.8394 61.8367 43.5197 61.8367Z" stroke="black" stroke-width="1.5"/>
<path d="M61.2687 90.5H41V131.667L79.1244 131.924C86.5267 131.974 93.9587 130.731 100.114 126.619C102.63 124.938 105.014 123.171 106.873 121.683C111.197 118.221 110.111 114.028 109.028 112.364C114.305 106.706 111.209 101.714 109.914 99.7166C110.786 97.5681 110.862 95.1818 110.275 92.9384C108.95 87.8696 107.356 80.4732 105.86 75.4209C103.968 69.0308 102.144 67.3053 100.793 67.1005C97.2795 66.568 95.05 70.0958 95.3878 73.7568L96.9887 86.6005C97.4851 90.5826 96.8497 94.7367 94.3062 97.8407C90.573 102.397 85.4877 105.842 80.524 102.712C72.0787 97.3869 86.6046 82.7429 90.3206 78.4162C94.0365 74.0896 95.3878 69.4718 92.3475 66.102C90.1855 63.7057 86.2668 65.7692 84.9156 67.1005L61.2687 90.5Z" fill="white"/>
<path d="M93.6987 117.689L109.914 99.7166M109.914 99.7166V99.7166C110.786 97.5681 110.862 95.1818 110.275 92.9384C108.95 87.8696 107.356 80.4732 105.86 75.4209C103.968 69.0308 102.144 67.3053 100.793 67.1005C97.2795 66.568 95.05 70.0958 95.3878 73.7568L96.9887 86.6005C97.4851 90.5826 96.8497 94.7367 94.3062 97.8407C90.573 102.397 85.4877 105.842 80.524 102.712C72.0787 97.3869 86.6046 82.7429 90.3206 78.4162C94.0365 74.0896 95.3878 69.4718 92.3475 66.102C90.1855 63.7057 86.2668 65.7692 84.9156 67.1005L61.2687 90.5H41V131.667L79.1244 131.924C86.5267 131.974 93.9587 130.731 100.114 126.619C102.63 124.938 105.014 123.171 106.873 121.683C111.197 118.221 110.111 114.028 109.028 112.364M109.914 99.7166C111.209 101.714 114.305 106.706 109.028 112.364M109.028 112.364C108.684 112.732 109.515 111.869 109.028 112.364ZM109.028 112.364C105.828 115.616 99.5285 120.843 96.4012 123.347" stroke="black" stroke-width="1.5"/>
<path d="M106 78.5082C105.133 79.2961 102.747 79.1836 101.446 77.8328C99.1687 75.4688 98.8434 70.6284 98.1928 67.0262M79 73.1049C79.9759 73.6677 82.4482 74.3882 84.5301 72.7672C86.612 71.1462 89.5181 66.9137 90.7108 65" stroke="black" stroke-width="1.5"/>
<ellipse cx="30.2871" cy="112.639" rx="11.5431" ry="37.2058" transform="rotate(-14.1481 30.2871 112.639)" fill="black"/>
<mask id="path-8-inside-1_201_2486" fill="white">
<path fill-rule="evenodd" clip-rule="evenodd" d="M24.9071 132.605C22.7073 127.647 20.6945 121.809 19.094 115.46C17.4052 108.761 16.3905 102.345 16.0225 96.7208V89.8022H45.3513V132.371L24.9071 132.605Z"/>
</mask>
<path fill-rule="evenodd" clip-rule="evenodd" d="M24.9071 132.605C22.7073 127.647 20.6945 121.809 19.094 115.46C17.4052 108.761 16.3905 102.345 16.0225 96.7208V89.8022H45.3513V132.371L24.9071 132.605Z" fill="#F6F6F6"/>
<path d="M24.9071 132.605L23.536 133.213L23.9366 134.116L24.9242 134.105L24.9071 132.605ZM19.094 115.46L20.5485 115.093L19.094 115.46ZM16.0225 96.7208H14.5225V96.7698L14.5257 96.8187L16.0225 96.7208ZM16.0225 89.8022V88.3022H14.5225V89.8022H16.0225ZM45.3513 89.8022H46.8513V88.3022H45.3513V89.8022ZM45.3513 132.371L45.3685 133.871L46.8513 133.854V132.371H45.3513ZM26.2782 131.996C24.1162 127.124 22.1301 121.368 20.5485 115.093L17.6395 115.827C19.2588 122.251 21.2983 128.17 23.536 133.213L26.2782 131.996ZM20.5485 115.093C18.8795 108.473 17.8808 102.147 17.5193 96.6228L14.5257 96.8187C14.9003 102.543 15.931 109.049 17.6395 115.827L20.5485 115.093ZM14.5225 89.8022V96.7208H17.5225V89.8022H14.5225ZM45.3513 88.3022H16.0225V91.3022H45.3513V88.3022ZM46.8513 132.371V89.8022H43.8513V132.371H46.8513ZM24.9242 134.105L45.3685 133.871L45.3342 130.871L24.89 131.105L24.9242 134.105Z" fill="black" mask="url(#path-8-inside-1_201_2486)"/>
<path d="M85.5557 88.3147V90.7776C85.5557 93.1095 87.446 94.9998 89.7779 94.9998V94.9998C92.1098 94.9998 94.0001 93.1095 94.0001 90.7776V41.1665" stroke="black" stroke-width="1.5"/>
<path d="M61.1456 45.693C52.1298 38.179 42.5214 41.1271 39.1113 44.6375C42.4185 32.4951 57.4114 7.40895 91.441 6.36355C125.17 5.32739 143.876 30.0831 148.889 44.6375C141.641 37.4722 129.502 41.6944 127.248 45.693C117.805 37.2682 108.624 45.0452 105.214 48.5555C95.7708 40.1307 86.5899 45.0452 83.1798 48.5555C73.7366 40.1307 64.5556 42.1827 61.1456 45.693Z" fill="#F6F6F6" stroke="black" stroke-width="1.5" stroke-linejoin="round"/>
<path fill-rule="evenodd" clip-rule="evenodd" d="M60.8691 45.1452C60.9277 45.1922 60.9863 45.2397 61.0448 45.2876C64.4685 41.822 73.6771 39.7938 83.1572 48.0792L83.231 48.0885C83.3037 48.0154 83.3789 47.9418 83.4567 47.8677C82.692 30.125 90.4418 12.8284 94.0812 6.37069C94.078 6.37066 94.0748 6.37063 94.0717 6.37061C76.8813 9.47948 64.5796 33.4193 60.8691 45.1452Z" fill="#EBF3FF"/>
<path d="M61.0448 45.2876L60.5694 45.8677L61.098 46.301L61.5784 45.8147L61.0448 45.2876ZM60.8691 45.1452L60.1541 44.9189L59.9992 45.4085L60.3996 45.73L60.8691 45.1452ZM83.1572 48.0792L82.6637 48.644L82.8365 48.795L83.0642 48.8235L83.1572 48.0792ZM83.231 48.0885L83.138 48.8327L83.5031 48.8783L83.7626 48.6175L83.231 48.0885ZM83.4567 47.8677L83.9741 48.4106L84.2207 48.1756L84.206 47.8354L83.4567 47.8677ZM94.0812 6.37069L94.7346 6.73892L95.3581 5.63255L94.0882 5.62073L94.0812 6.37069ZM94.0717 6.37061L94.0785 5.62064L94.0078 5.61999L93.9382 5.63258L94.0717 6.37061ZM61.5202 44.7076C61.4597 44.658 61.3992 44.6089 61.3386 44.5603L60.3996 45.73C60.4563 45.7755 60.5128 45.8214 60.5694 45.8677L61.5202 44.7076ZM83.6508 47.5145C73.9372 39.0251 64.2705 40.9552 60.5112 44.7606L61.5784 45.8147C64.6665 42.6887 73.417 40.5626 82.6637 48.644L83.6508 47.5145ZM83.0642 48.8235L83.138 48.8327L83.324 47.3443L83.2502 47.335L83.0642 48.8235ZM82.9392 47.3248C82.8568 47.4033 82.7768 47.4816 82.6994 47.5594L83.7626 48.6175C83.8305 48.5492 83.9011 48.4802 83.9741 48.4106L82.9392 47.3248ZM84.206 47.8354C83.45 30.2946 91.1252 13.1434 94.7346 6.73892L93.4278 6.00247C89.7584 12.5134 81.934 29.9554 82.7074 47.9L84.206 47.8354ZM94.0648 7.12057C94.0679 7.1206 94.0711 7.12063 94.0742 7.12066L94.0882 5.62073C94.0849 5.6207 94.0817 5.62067 94.0785 5.62064L94.0648 7.12057ZM93.9382 5.63258C85.0543 7.23923 77.5332 14.1961 71.8084 22.086C66.0679 29.9976 62.0308 38.9881 60.1541 44.9189L61.5842 45.3714C63.4179 39.5763 67.3869 30.7339 73.0225 22.967C78.6737 15.1783 85.8986 8.61086 94.2051 7.10863L93.9382 5.63258Z" fill="black"/>
<path fill-rule="evenodd" clip-rule="evenodd" d="M127.296 45.1452C127.237 45.1922 127.179 45.2397 127.12 45.2876C123.697 41.822 114.488 39.7938 105.008 48.0792L104.934 48.0885C104.861 48.0154 104.786 47.9418 104.708 47.8677C105.473 30.125 97.7233 12.8284 94.0839 6.37069C94.087 6.37066 94.0902 6.37063 94.0934 6.37061C111.284 9.47948 123.585 33.4193 127.296 45.1452Z" fill="#EBF3FF"/>
<path d="M127.12 45.2876L127.596 45.8677L127.067 46.301L126.587 45.8147L127.12 45.2876ZM127.296 45.1452L128.011 44.9189L128.166 45.4085L127.765 45.73L127.296 45.1452ZM105.008 48.0792L105.501 48.644L105.329 48.795L105.101 48.8235L105.008 48.0792ZM104.934 48.0885L105.027 48.8327L104.662 48.8783L104.402 48.6175L104.934 48.0885ZM104.708 47.8677L104.191 48.4106L103.944 48.1756L103.959 47.8354L104.708 47.8677ZM94.0839 6.37069L93.4305 6.73892L92.807 5.63255L94.0769 5.62073L94.0839 6.37069ZM94.0934 6.37061L94.0865 5.62064L94.1572 5.61999L94.2269 5.63258L94.0934 6.37061ZM126.645 44.7076C126.705 44.658 126.766 44.6089 126.826 44.5603L127.765 45.73C127.709 45.7755 127.652 45.8214 127.596 45.8677L126.645 44.7076ZM104.514 47.5145C114.228 39.0251 123.895 40.9552 127.654 44.7606L126.587 45.8147C123.499 42.6887 114.748 40.5626 105.501 48.644L104.514 47.5145ZM105.101 48.8235L105.027 48.8327L104.841 47.3443L104.915 47.335L105.101 48.8235ZM105.226 47.3248C105.308 47.4033 105.388 47.4816 105.466 47.5594L104.402 48.6175C104.334 48.5492 104.264 48.4802 104.191 48.4106L105.226 47.3248ZM103.959 47.8354C104.715 30.2946 97.0399 13.1434 93.4305 6.73892L94.7373 6.00247C98.4066 12.5134 106.231 29.9554 105.458 47.9L103.959 47.8354ZM94.1003 7.12057C94.0971 7.1206 94.094 7.12063 94.0909 7.12066L94.0769 5.62073C94.0801 5.6207 94.0833 5.62067 94.0865 5.62064L94.1003 7.12057ZM94.2269 5.63258C103.111 7.23923 110.632 14.1961 116.357 22.086C122.097 29.9976 126.134 38.9881 128.011 44.9189L126.581 45.3714C124.747 39.5763 120.778 30.7339 115.143 22.967C109.491 15.1783 102.266 8.61086 93.9599 7.10863L94.2269 5.63258Z" fill="black"/>
<path d="M94 6.33333V0" stroke="black" stroke-width="1.5"/>
</svg>
