<svg width="114" height="132" viewBox="0 0 114 132" fill="none" xmlns="http://www.w3.org/2000/svg">
<ellipse cx="35.8356" cy="95.3895" rx="13.122" ry="37.9553" transform="rotate(-44.0962 35.8356 95.3895)" fill="black" stroke="black" stroke-width="1.5"/>
<path d="M112.396 6.4998C111.396 10.4998 99.8959 15.4998 90.3959 26.395C91.3958 30.728 92.5957 41.6933 89.3966 48.8933C92.295 47.398 95.0633 43.165 99.3959 34.4998C105.396 22.4998 111.396 26.4998 111.396 29.4998C111.396 32.4998 108.896 41.4998 107.396 45.4998C105.667 50.1107 101.896 60.4998 94.3959 69.4998C86.8959 78.4998 68.3959 93.4998 62.3959 99.4998C57.5959 104.3 49.4392 113.666 45.2725 118.5C30.4725 109.7 18.4392 94.4998 14.2725 87.9998C18.1059 83.8332 25.4959 75.6998 29.8959 70.4998C35.3959 63.9998 38.3959 54.4998 41.3959 45.4998C44.3959 36.4998 50.8959 26.9998 54.3959 21.9998C57.1959 17.9998 60.8959 19.3332 62.3959 20.4998C65.9959 16.0998 70.8959 16.9998 72.8959 17.9998C76.4959 13.9998 81.0625 15.3331 82.8959 16.4998C89.3959 9.99982 103.396 1.9998 107.396 0.999803C111.396 -0.000197291 113.396 2.4998 112.396 6.4998Z" fill="white"/>
<path d="M90.3959 26.395C81.149 36.9998 81.3959 48.4998 85.8959 49.4998C90.3959 49.9998 93.3959 46.4998 99.3959 34.4998C105.396 22.4998 111.396 26.4998 111.396 29.4998C111.396 32.4998 108.896 41.4998 107.396 45.4998C105.667 50.1107 101.896 60.4998 94.3959 69.4998C86.8959 78.4998 68.3959 93.4998 62.3959 99.4998C57.5959 104.3 49.4392 113.666 45.2725 118.5C30.4725 109.7 18.4392 94.4998 14.2725 87.9998C18.1059 83.8332 25.4959 75.6998 29.8959 70.4998C35.3959 63.9998 38.3959 54.4998 41.3959 45.4998C44.3959 36.4998 50.8959 26.9998 54.3959 21.9998C57.1959 17.9998 60.8959 19.3332 62.3959 20.4998M90.3959 26.395C99.8959 15.4998 111.396 10.4998 112.396 6.4998C113.396 2.4998 111.396 -0.000197262 107.396 0.999803C103.396 1.9998 89.3959 9.99982 82.8959 16.4998M90.3959 26.395C91.3959 30.7283 92.5959 41.695 89.3959 48.895M82.8959 16.4998C77.6959 21.6998 71.0625 32.3332 68.3959 36.9998M82.8959 16.4998C81.0625 15.3332 76.4959 13.9998 72.8959 17.9998M72.8959 17.9998C69.2959 21.9998 63.7292 30.6665 61.3959 34.4998M72.8959 17.9998C70.8959 16.9998 65.9959 16.0998 62.3959 20.4998M62.3959 20.4998C58.7959 24.8998 54.8959 30.6665 53.3959 32.9998" stroke="black" stroke-width="1.5"/>
<path fill-rule="evenodd" clip-rule="evenodd" d="M13.9473 88.3544C18.106 83.817 25.6829 75.4643 29.7539 70.667L61.7933 100.109C57.1643 104.831 49.0602 114.035 44.7516 119.009C38.9 115.754 32.4809 110.785 26.4111 104.521C21.2204 99.1636 16.9847 93.581 13.9473 88.3544Z" fill="#F6F6F6"/>
<path d="M13.9473 88.3544L13.3944 87.8477L13.0216 88.2543L13.2988 88.7313L13.9473 88.3544ZM29.7539 70.667L30.2614 70.1147L29.6869 69.5868L29.1821 70.1817L29.7539 70.667ZM61.7933 100.109L62.3289 100.634L62.8711 100.08L62.3007 99.5563L61.7933 100.109ZM44.7516 119.009L44.387 119.665L44.9196 119.961L45.3185 119.5L44.7516 119.009ZM26.4111 104.521L26.9497 103.999L26.4111 104.521ZM14.5002 88.8612C18.658 84.3248 26.2442 75.9621 30.3258 71.1523L29.1821 70.1817C25.1217 74.9665 17.5541 83.3092 13.3944 87.8477L14.5002 88.8612ZM29.2465 71.2192L61.2858 100.661L62.3007 99.5563L30.2614 70.1147L29.2465 71.2192ZM61.2577 99.5835C56.6101 104.325 48.4915 113.546 44.1847 118.518L45.3185 119.5C49.629 114.523 57.7186 105.337 62.3289 100.634L61.2577 99.5835ZM45.1162 118.354C39.3388 115.14 32.9769 110.219 26.9497 103.999L25.8725 105.043C31.9849 111.351 38.4613 116.368 44.387 119.665L45.1162 118.354ZM26.9497 103.999C21.7965 98.6803 17.5993 93.1458 14.5957 87.9776L13.2988 88.7313C16.3702 94.0163 20.6443 99.6468 25.8725 105.043L26.9497 103.999Z" fill="black"/>
<path d="M100 4.5C99.8336 5.33333 100.234 7.5 103.034 7.5C105.834 7.5 109.867 3.83333 111.534 2" stroke="black" stroke-width="1.5"/>
<path d="M109.5 39C108.333 39.5 106 39.8 106 37C106 34.2 108.667 29.1667 110 27" stroke="black" stroke-width="1.5"/>
</svg>
