<svg width="124" height="106" viewBox="0 0 124 106" fill="none" xmlns="http://www.w3.org/2000/svg">
<path d="M0.998047 88.2571L13.998 75.002L25.498 88.2571L43.498 65.002L47.998 70.502L87.544 13.002M87.544 13.002L88.7548 21.4985M87.544 13.002L79.0683 14.2157" stroke="black" stroke-width="1.5"/>
<path d="M65.4908 24.5647C60.7261 22.3339 55.4981 21.2841 50.2488 21.499L52.3384 54.2069L52.3664 54.6458L51.997 54.8846L25.0856 72.2785L27.9444 76.962C31.7426 80.9171 36.4726 83.8567 41.7016 85.5109C46.9561 87.1732 52.5449 87.4841 57.9513 86.4146C63.3577 85.3452 68.4073 82.9301 72.6332 79.3925C76.8592 75.8549 80.1251 71.309 82.129 66.175C84.1329 61.0411 84.8102 55.4848 84.0983 50.0198C83.3864 44.5548 81.3082 39.3574 78.0558 34.9082C74.8035 30.459 70.482 26.9015 65.4908 24.5647Z" fill="black" stroke="black" stroke-width="1.5"/>
<mask id="path-3-inside-1_201_2292" fill="white">
<path d="M23.9791 71.6991C27.8726 75.7568 32.7311 78.7709 38.1052 80.4627C43.4794 82.1546 49.1958 82.4697 54.7262 81.3788C60.2565 80.288 65.4221 77.8264 69.7457 74.2216C74.0692 70.6168 77.411 65.9852 79.4621 60.755C81.5133 55.5247 82.2077 49.8646 81.481 44.2979C80.7543 38.7311 78.63 33.4374 75.3045 28.9061C71.9791 24.3749 67.5598 20.7522 62.4551 18.3731C57.3505 15.9941 51.7252 14.9353 46.0994 15.2947L48.2282 48.6208L23.9791 71.6991Z"/>
</mask>
<path d="M23.9791 71.6991C27.8726 75.7568 32.7311 78.7709 38.1052 80.4627C43.4794 82.1546 49.1958 82.4697 54.7262 81.3788C60.2565 80.288 65.4221 77.8264 69.7457 74.2216C74.0692 70.6168 77.411 65.9852 79.4621 60.755C81.5133 55.5247 82.2077 49.8646 81.481 44.2979C80.7543 38.7311 78.63 33.4374 75.3045 28.9061C71.9791 24.3749 67.5598 20.7522 62.4551 18.3731C57.3505 15.9941 51.7252 14.9353 46.0994 15.2947L48.2282 48.6208L23.9791 71.6991Z" fill="#F6F6F6" stroke="black" stroke-width="3" mask="url(#path-3-inside-1_201_2292)"/>
<path d="M38.4702 48.9475L37.5934 41.8879C29.3656 37.4658 12.3403 30.9565 9.51284 39.9138C6.68543 48.8711 12.8975 59.6509 15.9666 64.6926L38.4702 48.9475Z" fill="black"/>
<path d="M36.8153 41.5205L13.9787 57.4422C11.3705 53.4814 9.79827 48.9243 9.41234 44.1896C9.00608 39.2054 9.92898 34.2026 12.0869 29.6915C14.2449 25.1804 17.5606 21.3223 21.6961 18.5106C25.6246 15.8397 30.1592 14.204 34.8798 13.7489L36.8153 41.5205Z" fill="#F6F6F6" stroke="black" stroke-width="1.5"/>
<path d="M55.8639 104.514L46.0627 83.4263C46.0627 83.4263 53.2993 72.6583 68.153 67.6045C82.6211 62.6819 81.238 71.4432 107.922 58.8632L115.778 81.9226C91.5546 91.4833 92.8259 86.2521 79.0134 90.5214C67.9635 93.9368 58.9763 101.273 55.8639 104.514Z" fill="white" stroke="black" stroke-width="1.5"/>
<path d="M59.5875 92.9583L49.7863 71.8702C49.7863 71.8702 57.0229 61.1022 71.8766 56.0483C86.3448 51.1257 84.9617 59.8871 111.646 47.3071L119.502 70.3665C95.2783 79.9272 96.5495 74.6959 82.7371 78.9652C71.6871 82.3806 62.6999 89.717 59.5875 92.9583Z" fill="#EBF3FF" stroke="black" stroke-width="1.5"/>
<ellipse cx="83.5625" cy="66.0255" rx="8.67077" ry="5.36762" transform="rotate(-18.8124 83.5625 66.0255)" fill="black" stroke="black" stroke-width="1.5"/>
<path d="M103.311 51.0103C104.487 54.4639 108.591 56.1906 112.476 54.867C113.013 54.684 113.518 54.4522 113.987 54.1795" stroke="black" stroke-width="1.5"/>
<path d="M55.1839 65.9496C55.9761 66.6384 56.5904 67.5174 56.9425 68.551C58.1013 71.9524 55.9889 75.7602 52.2131 77.1392" stroke="black" stroke-width="1.5"/>
<path d="M56.318 85.9213C57.2285 84.6993 58.5542 83.7051 60.1732 83.1536C63.5341 82.0086 67.0582 83.1461 68.7099 85.7093" stroke="black" stroke-width="1.5"/>
<path d="M117.288 63.8693C116.751 63.9392 116.209 64.0639 115.672 64.2469C111.786 65.5705 109.591 69.4433 110.767 72.8969C110.836 73.0979 110.914 73.293 111.002 73.482" stroke="black" stroke-width="1.5"/>
</svg>
