<svg width="126" height="111" viewBox="0 0 126 111" fill="none" xmlns="http://www.w3.org/2000/svg">
<path fill-rule="evenodd" clip-rule="evenodd" d="M110.62 9.90625C118.374 9.90625 124.66 16.1922 124.66 23.9463V74.7062C124.66 82.4603 118.374 88.7462 110.62 88.7462H94.3762L102.52 108.186L70.4703 88.7462H15.04C7.28592 88.7462 1 82.4603 1 74.7062V23.9462C1 16.1922 7.28592 9.90625 15.04 9.90625H110.62Z" fill="#F6F6F6"/>
<mask id="mask0_201_2421" style="mask-type:alpha" maskUnits="userSpaceOnUse" x="1" y="9" width="124" height="100">
<path fill-rule="evenodd" clip-rule="evenodd" d="M110.62 9.90625C118.374 9.90625 124.66 16.1922 124.66 23.9463V74.7062C124.66 82.4603 118.374 88.7462 110.62 88.7462H94.3764L102.52 108.186L70.4706 88.7462H15.0402C7.28613 88.7462 1.00021 82.4603 1.00021 74.7062V23.9462C1.00021 16.1922 7.28613 9.90625 15.0402 9.90625H110.62Z" fill="#F6F6F6"/>
</mask>
<g mask="url(#mask0_201_2421)">
<path d="M49.33 58.2363L34.21 89.0163V106.296H105.76V89.0163L105.265 72.3729C104.727 61.612 99.1235 51.742 90.1586 45.7654L78.4899 37.9863L68.2299 38.5263L60.7527 44.9159C55.8781 49.0815 52.4106 52.6129 49.33 58.2363Z" fill="#F6F6F6" stroke="black" stroke-width="1.5"/>
<path fill-rule="evenodd" clip-rule="evenodd" d="M49.9764 57.0962H100.77C100.477 56.5885 100.172 56.0883 99.8538 55.5962H50.9008C50.5877 56.08 50.2799 56.5792 49.9764 57.0962ZM55.7913 49.4961H94.8128C94.2728 48.9791 93.7144 48.4788 93.1382 47.9961H57.3105C56.7871 48.4935 56.2814 48.9918 55.7913 49.4961ZM103.855 64.2362H46.3826L45.6457 65.7362H104.271C104.144 65.2324 104.005 64.7323 103.855 64.2362ZM105.28 72.8762H42.1384L41.4015 74.3762H105.325L105.28 72.8762ZM105.537 81.5162H37.8942L37.1573 83.0162H105.582L105.537 81.5162ZM105.76 90.1562H34.21V91.6562H105.76V90.1562ZM105.76 98.7962H34.21V100.296H105.76V98.7962Z" fill="black"/>
<path d="M47.9799 90.6362L48.4401 82.5362L40.1499 77.1362L33.1299 90.6362H47.9799Z" fill="white" stroke="black" stroke-width="1.5"/>
<path d="M89.29 111.696V82.2661H105.76V111.696H89.29Z" fill="white" stroke="black" stroke-width="1.5"/>
</g>
<path d="M82.0001 28.2659C80.9201 29.5619 80.2901 31.1459 80.1101 31.7759C73.8461 31.3439 72.2801 23.6759 72.2801 19.8959C67.4201 15.3959 58.1861 5.90993 60.1301 3.96593C62.5601 1.53593 67.4201 0.455931 74.1701 1.26593C80.9201 2.07593 87.4001 5.04593 87.9401 13.4159C88.4801 21.7859 83.3501 26.6459 82.0001 28.2659Z" fill="black" stroke="black" stroke-width="1.5"/>
<path d="M62.8297 43.1158V33.1258C60.9396 33.1258 57.1601 33.3958 55.27 30.9658C53.38 28.5358 54.9988 23.2813 54.7297 22.7408C54.6575 22.5958 51.2197 21.3908 51.7597 20.0408C52.1045 19.1789 54.1347 16.39 55.764 14.1552C56.4979 13.1486 56.8469 11.9278 57.0442 10.6978C57.5956 7.26025 59.4834 4.57664 60.3997 3.96582C61.7496 6.66582 67.1496 9.09582 74.4396 9.90582L72.8197 16.3858C75.7897 14.4958 78.4897 14.7659 78.7597 18.2758C78.9884 21.2493 73.9242 22.3258 74.1697 25.0258C74.4975 28.6318 78.4897 31.0558 80.1097 31.7758V39.0658C79.1197 39.8758 76.5206 43.0031 72.0097 44.4658C66.52 46.2458 63.09 45.5559 61.02 44.7458L62.8297 43.1158Z" fill="white" stroke="black" stroke-width="1.5" stroke-linejoin="round"/>
<path d="M86.86 9.90625H110.62C118.374 9.90625 124.66 16.1922 124.66 23.9462V74.7062C124.66 82.4603 118.374 88.7462 110.62 88.7462H94.3762L102.52 108.186L70.4702 88.7462H15.04C7.28592 88.7462 1 82.4603 1 74.7062V23.9462C1 16.1922 7.28592 9.90625 15.04 9.90625H57.16" stroke="black" stroke-width="1.5"/>
</svg>
