<svg width="150" height="150" viewBox="0 0 150 150" fill="none" xmlns="http://www.w3.org/2000/svg">
<circle cx="75" cy="75" r="75" fill="#EBF3FF"/>
<path d="M58.1836 102.121L98.1836 17.2729" stroke="black" stroke-width="1.5"/>
<path fill-rule="evenodd" clip-rule="evenodd" d="M79.2072 130C91.7644 130 101.944 127.597 101.944 124.632C101.944 124.526 101.931 124.42 101.905 124.316H101.944L101.821 124.069C101.799 124.02 101.775 123.971 101.747 123.922L99.7335 119.895H89.9152C86.7243 119.492 83.0788 119.263 79.2072 119.263C75.3357 119.263 71.7201 119.492 68.5708 119.895H58.6809L56.7861 124.316H56.8237C56.7988 124.42 56.7862 124.526 56.7862 124.632C56.7862 127.597 66.65 130 79.2072 130Z" fill="black"/>
<path d="M101.905 124.316V123.566C101.675 123.566 101.457 123.672 101.315 123.853C101.173 124.034 101.122 124.271 101.177 124.495L101.905 124.316ZM101.944 124.316V125.066C102.204 125.066 102.445 124.931 102.582 124.71C102.719 124.489 102.731 124.213 102.615 123.98L101.944 124.316ZM101.821 124.069L101.134 124.372C101.139 124.383 101.144 124.393 101.15 124.404L101.821 124.069ZM101.747 123.922L101.077 124.258C101.082 124.268 101.087 124.278 101.093 124.288L101.747 123.922ZM99.7335 119.895L100.404 119.559C100.277 119.305 100.018 119.145 99.7335 119.145V119.895ZM89.9152 119.895L89.8212 120.639C89.8524 120.643 89.8838 120.645 89.9152 120.645V119.895ZM68.5708 119.895V120.645C68.6026 120.645 68.6344 120.643 68.666 120.639L68.5708 119.895ZM58.6809 119.895V119.145C58.3808 119.145 58.1097 119.323 57.9915 119.599L58.6809 119.895ZM56.7861 124.316L56.0968 124.02C55.9975 124.252 56.0212 124.518 56.16 124.729C56.2988 124.939 56.534 125.066 56.7861 125.066V124.316ZM56.8237 124.316L57.5533 124.49C57.6065 124.266 57.5545 124.031 57.4123 123.851C57.2701 123.671 57.0532 123.566 56.8237 123.566V124.316ZM101.194 124.632C101.194 124.923 100.918 125.437 99.7917 126.066C98.7283 126.66 97.1398 127.219 95.1122 127.698C91.0691 128.652 85.4455 129.25 79.2072 129.25V130.75C85.5262 130.75 91.271 130.146 95.4569 129.158C97.544 128.665 99.2852 128.067 100.523 127.376C101.697 126.72 102.694 125.823 102.694 124.632H101.194ZM101.177 124.495C101.189 124.542 101.194 124.588 101.194 124.632H102.694C102.694 124.463 102.673 124.298 102.634 124.137L101.177 124.495ZM101.905 125.066H101.944V123.566H101.905V125.066ZM102.615 123.98L102.491 123.733L101.15 124.404L101.273 124.651L102.615 123.98ZM101.093 124.288C101.109 124.317 101.123 124.345 101.134 124.372L102.507 123.766C102.475 123.695 102.44 123.625 102.402 123.556L101.093 124.288ZM102.418 123.587L100.404 119.559L99.0627 120.23L101.077 124.258L102.418 123.587ZM99.7335 119.145H89.9152V120.645H99.7335V119.145ZM79.2072 120.013C83.0504 120.013 86.6644 120.24 89.8212 120.639L90.0091 119.151C86.7842 118.743 83.1071 118.513 79.2072 118.513V120.013ZM68.666 120.639C71.7805 120.24 75.364 120.013 79.2072 120.013V118.513C75.3073 118.513 71.6598 118.743 68.4756 119.151L68.666 120.639ZM68.5708 119.145H58.6809V120.645H68.5708V119.145ZM57.9915 119.599L56.0968 124.02L57.4755 124.611L59.3702 120.19L57.9915 119.599ZM56.7861 125.066H56.8237V123.566H56.7861V125.066ZM57.5362 124.632C57.5362 124.586 57.5416 124.539 57.5533 124.49L56.0941 124.142C56.056 124.302 56.0362 124.465 56.0362 124.632H57.5362ZM79.2072 129.25C72.9688 129.25 67.4255 128.652 63.4633 127.698C61.4762 127.22 59.9288 126.662 58.8964 126.07C57.8083 125.447 57.5362 124.934 57.5362 124.632H56.0362C56.0362 125.812 56.997 126.711 58.1507 127.372C59.3602 128.065 61.0636 128.664 63.1122 129.157C67.2212 130.146 72.8884 130.75 79.2072 130.75V129.25Z" fill="black"/>
<ellipse cx="78.7897" cy="119.697" rx="20.6061" ry="4.24242" fill="white" stroke="black" stroke-width="1.5"/>
<path d="M78.7891 109.394V119.091" stroke="black" stroke-width="1.5"/>
<ellipse cx="76.3652" cy="60.3031" rx="40" ry="39.3939" fill="#EBF3FF" stroke="black" stroke-width="1.5"/>
<path fill-rule="evenodd" clip-rule="evenodd" d="M101.501 90.9489C110.567 83.727 116.365 72.6816 116.365 60.3027C116.365 51.0703 113.14 42.5797 107.739 35.8638C101.234 37.334 95.1209 42.3902 92.4319 44.8754C89.9987 47.1241 93.8584 49.6229 97.2733 51.8337C99.2602 53.1201 101.097 54.3089 101.455 55.2943C103.084 59.7717 105.651 62.4084 107.687 64.4993C110.957 67.8578 112.855 69.8079 107.294 75.7155C103.823 79.4019 101.821 81.5698 101.501 90.8118C101.499 90.858 101.499 90.9037 101.501 90.9489Z" fill="white"/>
<path d="M101.501 90.9489L100.751 90.9739L100.801 92.4652L101.968 91.5355L101.501 90.9489ZM107.739 35.8638L108.324 35.3938L108.03 35.0291L107.574 35.1322L107.739 35.8638ZM92.4319 44.8754L91.9228 44.3246L92.4319 44.8754ZM97.2733 51.8337L96.8657 52.4633L97.2733 51.8337ZM101.455 55.2943L102.16 55.0379L101.455 55.2943ZM107.687 64.4993L107.15 65.0225L107.687 64.4993ZM107.294 75.7155L107.84 76.2296L107.294 75.7155ZM101.501 90.8118L102.25 90.8378L102.25 90.8378L101.501 90.8118ZM115.615 60.3027C115.615 72.4411 109.931 83.2749 101.033 90.3622L101.968 91.5355C111.204 84.179 117.115 72.9221 117.115 60.3027H115.615ZM107.155 36.3338C112.453 42.9221 115.615 51.2484 115.615 60.3027H117.115C117.115 50.8922 113.827 42.2372 108.324 35.3938L107.155 36.3338ZM92.9409 45.4262C95.6201 42.95 101.608 38.0184 107.905 36.5953L107.574 35.1322C100.86 36.6496 94.6216 41.8303 91.9228 44.3246L92.9409 45.4262ZM97.6809 51.2041C95.9435 50.0794 94.2202 48.9573 93.2115 47.861C92.7077 47.3134 92.4703 46.8632 92.4259 46.5075C92.389 46.212 92.47 45.8614 92.9409 45.4262L91.9228 44.3246C91.1772 45.0137 90.8282 45.8187 90.9374 46.6933C91.0391 47.5077 91.5238 48.242 92.1076 48.8766C93.2743 50.1446 95.1882 51.3773 96.8657 52.4633L97.6809 51.2041ZM102.16 55.0379C102.021 54.6553 101.762 54.3095 101.477 54.0054C101.185 53.695 100.826 53.3866 100.433 53.0834C99.6512 52.4791 98.6662 51.8421 97.6809 51.2041L96.8657 52.4633C97.8672 53.1117 98.7939 53.7123 99.5163 54.2704C99.8761 54.5484 100.167 54.8023 100.383 55.0322C100.605 55.2683 100.71 55.4407 100.75 55.5508L102.16 55.0379ZM108.224 63.9761C106.197 61.8933 103.73 59.3539 102.16 55.0379L100.75 55.5508C102.438 60.1895 105.106 62.9236 107.15 65.0225L108.224 63.9761ZM107.84 76.2296C110.633 73.2627 111.777 71.0742 111.547 69.0663C111.433 68.0658 110.985 67.1994 110.391 66.393C109.803 65.5958 109.031 64.8052 108.224 63.9761L107.15 65.0225C107.977 65.8726 108.669 66.5853 109.183 67.2829C109.691 67.9713 109.983 68.5914 110.057 69.2367C110.204 70.5203 109.516 72.2607 106.748 75.2014L107.84 76.2296ZM102.25 90.8378C102.409 86.2602 102.983 83.5191 103.9 81.4889C104.815 79.461 106.096 78.0817 107.84 76.2296L106.748 75.2014C105.021 77.0357 103.566 78.5836 102.533 80.8717C101.5 83.1575 100.913 86.1214 100.751 90.7858L102.25 90.8378ZM102.25 90.9239C102.249 90.8957 102.249 90.867 102.25 90.8378L100.751 90.7858C100.749 90.849 100.749 90.9117 100.751 90.9739L102.25 90.9239Z" fill="black"/>
<path fill-rule="evenodd" clip-rule="evenodd" d="M73.6545 67.8606C73.6565 67.38 73.6072 66.9205 73.5081 66.5C72.4989 62.2168 70.4891 59.2702 68.8055 56.802C67.1503 54.3754 65.8105 52.4111 66.0471 50.0935C66.3081 47.5376 63.4578 47.0295 60.927 46.5784C58.8288 46.2043 56.9502 45.8695 57.2462 44.4392C57.8993 41.2839 65.5278 36.8079 73.5081 35.371C81.4883 33.9341 83.7073 31.1108 82.9118 28.6364C82.7359 28.0894 82.475 27.4519 82.1942 26.7662C81.4777 25.0159 80.6326 22.9518 80.7473 21.2782C79.5549 21.1403 78.3459 21.0553 77.1224 21.0257C55.334 20.4983 37.2434 37.7339 36.716 59.5223C36.3325 75.3663 45.3416 89.2549 58.6639 95.8567C59.7465 95.0022 60.6671 93.5625 60.6296 91.2708C60.6261 91.0541 59.0307 88.3774 57.4263 85.6855C55.8017 82.9597 54.1678 80.2183 54.1681 80C54.17 78.564 54.8552 77.8773 55.9091 77.5551C57.3248 77.1223 58.9358 76.7514 60.596 76.3691C66.7724 74.9471 73.6305 73.3681 73.6545 67.8606Z" fill="white"/>
<path d="M73.5081 66.5L72.7781 66.672L72.7781 66.672L73.5081 66.5ZM73.6545 67.8606L74.4044 67.8639L74.4044 67.8639L73.6545 67.8606ZM68.8055 56.802L69.4251 56.3794L68.8055 56.802ZM66.0471 50.0935L66.7933 50.1697L66.0471 50.0935ZM60.927 46.5784L60.7954 47.3167L60.927 46.5784ZM57.2462 44.4392L56.5118 44.2872L56.5118 44.2872L57.2462 44.4392ZM73.5081 35.371L73.3752 34.6329L73.5081 35.371ZM82.9118 28.6364L82.1978 28.866L82.1978 28.866L82.9118 28.6364ZM82.1942 26.7662L81.5002 27.0504L81.5002 27.0504L82.1942 26.7662ZM80.7473 21.2782L81.4956 21.3295C81.5229 20.9299 81.2314 20.5792 80.8335 20.5332L80.7473 21.2782ZM58.6639 95.8567L58.3309 96.5287C58.5906 96.6574 58.9012 96.625 59.1286 96.4454L58.6639 95.8567ZM60.6296 91.2708L61.3795 91.2586L61.3795 91.2586L60.6296 91.2708ZM57.4263 85.6855L58.0706 85.3016L57.4263 85.6855ZM54.1681 80L54.9181 80.001L54.9181 80.001L54.1681 80ZM55.9091 77.5551L56.1283 78.2723L55.9091 77.5551ZM60.596 76.3691L60.7643 77.1L60.7643 77.1L60.596 76.3691ZM72.7781 66.672C72.8622 67.029 72.9063 67.4291 72.9045 67.8574L74.4044 67.8639C74.4068 67.3308 74.3521 66.8121 74.2381 66.328L72.7781 66.672ZM68.1859 57.2247C69.8676 59.6902 71.8037 62.5364 72.7781 66.672L74.2381 66.328C73.1941 61.8971 71.1105 58.8503 69.4251 56.3794L68.1859 57.2247ZM65.301 50.0173C65.0312 52.6602 66.5766 54.8653 68.1859 57.2247L69.4251 56.3794C67.724 53.8855 66.5899 52.162 66.7933 50.1697L65.301 50.0173ZM60.7954 47.3167C62.0943 47.5483 63.3182 47.7731 64.196 48.2162C64.621 48.4307 64.9102 48.6713 65.0849 48.9391C65.2508 49.1936 65.3509 49.5291 65.301 50.0173L66.7933 50.1697C66.8739 49.38 66.7155 48.6935 66.3413 48.1197C65.9758 47.5593 65.4432 47.1655 64.8719 46.8771C63.7571 46.3144 62.2904 46.0596 61.0586 45.84L60.7954 47.3167ZM56.5118 44.2872C56.4006 44.8243 56.4885 45.329 56.7875 45.7551C57.0654 46.1512 57.4771 46.4091 57.8838 46.5901C58.6813 46.945 59.7813 47.136 60.7954 47.3167L61.0586 45.84C59.9744 45.6467 59.086 45.4833 58.4937 45.2197C58.2054 45.0914 58.0719 44.9741 58.0153 44.8934C57.9797 44.8427 57.9438 44.7693 57.9806 44.5912L56.5118 44.2872ZM73.3752 34.6329C69.3004 35.3666 65.3182 36.8742 62.2596 38.6082C60.7306 39.4751 59.4122 40.4099 58.4237 41.3496C57.4532 42.2723 56.7214 43.2744 56.5118 44.2872L57.9806 44.5912C58.0976 44.0263 58.5643 43.2857 59.4572 42.4368C60.3322 41.6049 61.5421 40.7393 62.9994 39.9131C65.9133 38.2611 69.7355 36.8123 73.641 36.1091L73.3752 34.6329ZM82.1978 28.866C82.3506 29.3412 82.3554 29.8141 82.1919 30.2842C82.0262 30.7609 81.6701 31.2825 81.0245 31.8135C79.7172 32.8885 77.3159 33.9233 73.3752 34.6329L73.641 36.1091C77.6805 35.3818 80.3788 34.2865 81.9772 32.9721C82.7844 32.3083 83.3328 31.5704 83.6087 30.7769C83.8869 29.9768 83.8708 29.1689 83.6258 28.4069L82.1978 28.866ZM81.5002 27.0504C81.7844 27.7446 82.0327 28.3525 82.1978 28.866L83.6258 28.4069C83.4392 27.8263 83.1655 27.1592 82.8883 26.4821L81.5002 27.0504ZM79.9991 21.227C79.9326 22.1971 80.1446 23.2333 80.4414 24.2112C80.7399 25.1947 81.1443 26.1811 81.5002 27.0504L82.8883 26.4821C82.5276 25.6011 82.1512 24.6802 81.8767 23.7756C81.6005 22.8655 81.4474 22.0329 81.4956 21.3295L79.9991 21.227ZM77.1043 21.7755C78.3049 21.8046 79.4913 21.888 80.6611 22.0233L80.8335 20.5332C79.6185 20.3927 78.3868 20.3061 77.1406 20.2759L77.1043 21.7755ZM37.4657 59.5405C37.9831 38.1661 55.7299 21.2581 77.1043 21.7755L77.1406 20.2759C54.938 19.7385 36.5036 37.3016 35.9662 59.5042L37.4657 59.5405ZM58.9969 95.1847C45.9261 88.7075 37.0896 75.0822 37.4657 59.5405L35.9662 59.5042C35.5754 75.6504 44.7571 89.8022 58.3309 96.5287L58.9969 95.1847ZM59.8797 91.2831C59.9133 93.3369 59.1014 94.5559 58.1992 95.268L59.1286 96.4454C60.3915 95.4485 61.4209 93.788 61.3795 91.2586L59.8797 91.2831ZM56.7821 86.0695C57.585 87.4168 58.3825 88.7548 58.9797 89.7831C59.2788 90.2979 59.5241 90.7291 59.6937 91.0423C59.7791 91.2001 59.8406 91.3194 59.8793 91.4007C59.899 91.4423 59.9077 91.4635 59.9099 91.4693C59.9259 91.5112 59.8819 91.4187 59.8797 91.2831L61.3795 91.2586C61.3769 91.0959 61.32 90.9571 61.3114 90.9347C61.2891 90.8761 61.2616 90.8149 61.2343 90.7573C61.1787 90.6403 61.1025 90.4939 61.0128 90.3282C60.8321 89.9945 60.5776 89.5476 60.2768 89.0297C59.6744 87.9925 58.872 86.6462 58.0706 85.3016L56.7821 86.0695ZM53.4181 79.999C53.4178 80.1683 53.4769 80.313 53.485 80.3346C53.5076 80.3944 53.5355 80.457 53.5633 80.5157C53.6197 80.6351 53.6973 80.7846 53.7888 80.9538C53.9729 81.2945 54.2326 81.7508 54.5392 82.279C55.1534 83.3369 55.9705 84.7079 56.7821 86.0695L58.0706 85.3016C57.2574 83.9373 56.4453 82.5747 55.8364 81.5259C55.5316 81.0008 55.2813 80.5605 55.1084 80.2405C55.0213 80.0794 54.9586 79.9576 54.9194 79.8747C54.8993 79.8322 54.8906 79.8108 54.8885 79.8052C54.8719 79.7613 54.9183 79.859 54.9181 80.001L53.4181 79.999ZM55.6898 76.8379C55.0662 77.0285 54.4778 77.3499 54.0512 77.9006C53.6218 78.4548 53.4192 79.1601 53.4181 79.999L54.9181 80.001C54.9189 79.404 55.0598 79.0478 55.237 78.8192C55.4169 78.5869 55.698 78.4039 56.1283 78.2723L55.6898 76.8379ZM60.4277 75.6382C58.7741 76.019 57.1357 76.3958 55.6898 76.8379L56.1283 78.2723C57.5139 77.8487 59.0974 77.4838 60.7643 77.1L60.4277 75.6382ZM72.9045 67.8574C72.8942 70.2095 71.461 71.7788 69.0935 72.9778C66.7021 74.1891 63.542 74.9212 60.4277 75.6382L60.7643 77.1C63.8263 76.395 67.1835 75.6266 69.7713 74.316C72.383 72.9932 74.3907 71.0192 74.4044 67.8639L72.9045 67.8574Z" fill="black"/>
<path d="M95.5545 13.8543C101.717 16.4337 107.295 20.229 111.958 25.0134C116.62 29.7977 120.269 35.4728 122.689 41.6996C125.108 47.9264 126.247 54.577 126.038 61.254C125.828 67.9309 124.275 74.4971 121.471 80.5602C118.666 86.6232 114.668 92.0587 109.716 96.5416C104.763 101.025 98.9573 104.463 92.6457 106.651C86.3341 108.84 79.6461 109.733 72.9814 109.279C66.3167 108.824 59.812 107.03 53.8563 104.004L56.1642 99.4614C61.5093 102.177 67.347 103.787 73.3283 104.195C79.3097 104.603 85.3119 103.801 90.9764 101.837C96.6408 99.873 101.851 96.7871 106.296 92.7638C110.741 88.7405 114.329 83.8624 116.846 78.421C119.363 72.9796 120.757 67.0867 120.944 61.0943C121.132 55.102 120.11 49.1333 117.939 43.545C115.768 37.9566 112.492 32.8634 108.308 28.5696C104.124 24.2759 99.1172 20.8697 93.5869 18.5547L95.5545 13.8543Z" fill="black" stroke="black" stroke-width="1.5"/>
<path d="M90.6056 72.9259C89.7899 69.7858 96.0432 69.7858 99.2718 70.1783C103.35 71.7484 101.821 74.496 99.2718 76.8511C96.7229 79.2062 93.1545 85.879 90.6056 84.3089C88.0567 82.7388 91.6251 76.8511 90.6056 72.9259Z" fill="white" stroke="black" stroke-width="1.5"/>
<circle cx="56.2295" cy="35.7073" r="11.0998" transform="rotate(-5.54935 56.2295 35.7073)" fill="#EBF3FF"/>
<path fill-rule="evenodd" clip-rule="evenodd" d="M65.1466 66.719C68.0751 65.8965 77.9618 41.102 75.0849 30.8589C73.9806 26.9271 71.7332 23.6247 68.8036 21.2104C67.3112 19.9806 65.6417 18.9812 63.8562 18.2466C60.0154 16.6663 55.6375 16.3109 51.3291 17.521C41.0859 20.3978 35.1144 31.0337 37.9912 41.2768C40.8681 51.52 62.2182 67.5414 65.1466 66.719ZM59.0054 44.8533C63.8574 43.4906 66.686 38.4525 65.3233 33.6005C63.9606 28.7485 58.9226 25.9199 54.0705 27.2826C49.2185 28.6453 46.3899 33.6833 47.7526 38.5353C49.1153 43.3874 54.1534 46.216 59.0054 44.8533Z" fill="black"/>
<mask id="path-16-inside-1_201_2225" fill="white">
<path fill-rule="evenodd" clip-rule="evenodd" d="M63.6886 64.3957C66.617 63.5732 76.5037 38.7788 73.6269 28.5356C72.5226 24.6038 70.2752 21.3014 67.3456 18.8872C65.8531 17.6573 64.1837 16.658 62.3982 15.9233C58.5574 14.3431 54.1795 13.9877 49.8711 15.1978C39.6279 18.0746 33.6564 28.7104 36.5332 38.9536C39.4101 49.1967 60.7601 65.2182 63.6886 64.3957ZM57.5473 42.53C62.3993 41.1673 65.228 36.1293 63.8652 31.2772C62.5025 26.4252 57.4645 23.5966 52.6125 24.9593C47.7605 26.322 44.9318 31.3601 46.2945 36.2121C47.6573 41.0641 52.6953 43.8927 57.5473 42.53Z"/>
</mask>
<path fill-rule="evenodd" clip-rule="evenodd" d="M63.6886 64.3957C66.617 63.5732 76.5037 38.7788 73.6269 28.5356C72.5226 24.6038 70.2752 21.3014 67.3456 18.8872C65.8531 17.6573 64.1837 16.658 62.3982 15.9233C58.5574 14.3431 54.1795 13.9877 49.8711 15.1978C39.6279 18.0746 33.6564 28.7104 36.5332 38.9536C39.4101 49.1967 60.7601 65.2182 63.6886 64.3957ZM57.5473 42.53C62.3993 41.1673 65.228 36.1293 63.8652 31.2772C62.5025 26.4252 57.4645 23.5966 52.6125 24.9593C47.7605 26.322 44.9318 31.3601 46.2945 36.2121C47.6573 41.0641 52.6953 43.8927 57.5473 42.53Z" fill="white"/>
<path d="M67.3456 18.8872L66.3916 20.0448L67.3456 18.8872ZM62.3982 15.9233L62.9689 14.5362L62.9689 14.5362L62.3982 15.9233ZM72.1828 28.9412C72.815 31.1922 72.7746 34.4082 72.2162 38.1214C71.6638 41.7952 70.6299 45.7969 69.409 49.5324C68.188 53.268 66.7938 56.6949 65.5385 59.2178C64.9086 60.4838 64.3314 61.4863 63.8465 62.1773C63.603 62.5243 63.4062 62.7589 63.2613 62.9018C63.0869 63.0738 63.0974 63.0037 63.283 62.9516L64.0942 65.8398C64.6458 65.6849 65.0768 65.3247 65.3675 65.0382C65.6877 64.7225 66.0008 64.33 66.3023 63.9004C66.9074 63.038 67.5605 61.8885 68.2244 60.5542C69.5566 57.8768 71.0034 54.3107 72.2605 50.4644C73.5177 46.6181 74.5991 42.4492 75.1828 38.5675C75.7606 34.725 75.8773 31.0006 75.071 28.13L72.1828 28.9412ZM66.3916 20.0448C69.0926 22.2705 71.164 25.3136 72.1828 28.9412L75.071 28.13C73.8813 23.894 71.4578 20.3323 68.2995 17.7296L66.3916 20.0448ZM61.8274 17.3105C63.4747 17.9883 65.015 18.9103 66.3916 20.0448L68.2995 17.7296C66.6913 16.4044 64.8927 15.3277 62.9689 14.5362L61.8274 17.3105ZM50.2767 16.6419C54.2511 15.5256 58.2856 15.8533 61.8274 17.3105L62.9689 14.5362C58.8292 12.8329 54.1079 12.4498 49.4655 13.7536L50.2767 16.6419ZM37.9773 38.548C35.3245 29.1024 40.8311 19.2947 50.2767 16.6419L49.4655 13.7536C38.4248 16.8545 31.9882 28.3185 35.0891 39.3592L37.9773 38.548ZM63.283 62.9516C63.4686 62.8995 63.5141 62.9538 63.2756 62.8978C63.0775 62.8513 62.7874 62.7534 62.3987 62.5839C61.6251 62.2464 60.6102 61.691 59.4134 60.9381C57.0281 59.4377 54.0535 57.2377 51.0662 54.6841C48.079 52.1305 45.1128 49.2522 42.7284 46.4032C40.3185 43.5237 38.6095 40.799 37.9773 38.548L35.0891 39.3592C35.8953 42.2298 37.9339 45.3489 40.4278 48.3286C42.9472 51.3389 46.0409 54.3351 49.1169 56.9644C52.1927 59.5937 55.2846 61.8851 57.816 63.4775C59.0775 64.271 60.2335 64.9124 61.1992 65.3336C61.6803 65.5435 62.1519 65.7155 62.5897 65.8183C62.9871 65.9116 63.5425 65.9948 64.0942 65.8398L63.283 62.9516ZM62.4211 31.6828C63.5598 35.7373 61.1962 39.9472 57.1417 41.0859L57.9529 43.9741C63.6025 42.3874 66.8961 36.5212 65.3094 30.8717L62.4211 31.6828ZM53.0181 26.4034C57.0725 25.2647 61.2824 27.6284 62.4211 31.6828L65.3094 30.8717C63.7227 25.2221 57.8565 21.9285 52.2069 23.5152L53.0181 26.4034ZM47.7387 35.8065C46.6 31.752 48.9636 27.5422 53.0181 26.4034L52.2069 23.5152C46.5573 25.1019 43.2637 30.9681 44.8504 36.6177L47.7387 35.8065ZM57.1417 41.0859C53.0873 42.2246 48.8774 39.8609 47.7387 35.8065L44.8504 36.6177C46.4371 42.2672 52.3033 45.5609 57.9529 43.9741L57.1417 41.0859Z" fill="black" mask="url(#path-16-inside-1_201_2225)"/>
</svg>
