<svg width="89" height="53" viewBox="0 0 89 53" fill="none" xmlns="http://www.w3.org/2000/svg">
<path fill-rule="evenodd" clip-rule="evenodd" d="M88 31.0568V31C88 20.739 80.959 11.8186 70.9786 9.43519L54.5 5.5V0.5H35.5V5.5L18.0477 9.54692C8.0664 11.8614 1 20.7539 1 31L1 31.1889H13.5814L5 51.5L38.8488 31.1889H86C86.6781 31.1889 87.3457 31.1439 88 31.0568Z" fill="#EBF3FF"/>
<path d="M88 31.0568L88.066 31.5524L88.5 31.4946V31.0568H88ZM70.9786 9.43519L70.8625 9.92152L70.9786 9.43519ZM54.5 5.5H54V5.89466L54.3839 5.98633L54.5 5.5ZM54.5 0.5H55V0H54.5V0.5ZM35.5 0.5V0H35V0.5H35.5ZM35.5 5.5L35.6129 5.98708L36 5.89732V5.5H35.5ZM18.0477 9.54692L17.9347 9.05984L18.0477 9.54692ZM1 31H0.5V31L1 31ZM1 31.1889L0.500003 31.1889L0.50001 31.6889H1V31.1889ZM13.5814 31.1889L14.042 31.3835L14.3354 30.6889H13.5814V31.1889ZM5 51.5L4.53942 51.3054L3.94283 52.7175L5.25726 51.9287L5 51.5ZM38.8488 31.1889V30.6889H38.7103L38.5916 30.7602L38.8488 31.1889ZM88.5 31.0568V31H87.5V31.0568H88.5ZM88.5 31C88.5 20.5076 81.3002 11.386 71.0948 8.94887L70.8625 9.92152C80.6178 12.2511 87.5 20.9704 87.5 31H88.5ZM71.0948 8.94887L54.6161 5.01367L54.3839 5.98633L70.8625 9.92152L71.0948 8.94887ZM55 5.5V0.5H54V5.5H55ZM54.5 0H35.5V1H54.5V0ZM35 0.5V5.5H36V0.5H35ZM35.3871 5.01292L17.9347 9.05984L18.1606 10.034L35.6129 5.98708L35.3871 5.01292ZM17.9347 9.05984C7.72684 11.4269 0.5 20.5213 0.5 31H1.5C1.5 20.9865 8.40596 12.2959 18.1606 10.034L17.9347 9.05984ZM0.5 31L0.500003 31.1889L1.5 31.1889L1.5 31L0.5 31ZM1 31.6889H13.5814V30.6889H1V31.6889ZM13.1208 30.9943L4.53942 51.3054L5.46058 51.6946L14.042 31.3835L13.1208 30.9943ZM5.25726 51.9287L39.1061 31.6177L38.5916 30.7602L4.74274 51.0713L5.25726 51.9287ZM38.8488 31.6889H86V30.6889H38.8488V31.6889ZM86 31.6889C86.7003 31.6889 87.3899 31.6425 88.066 31.5524L87.934 30.5611C87.3015 30.6454 86.656 30.6889 86 30.6889V31.6889Z" fill="black"/>
</svg>
