<svg width="89" height="55" viewBox="0 0 89 55" fill="none" xmlns="http://www.w3.org/2000/svg">
<path fill-rule="evenodd" clip-rule="evenodd" d="M88 32.0568V32C88 21.739 80.959 12.8186 70.9786 10.4352L54.5 6.5V1.5H35.5V6.5L18.0477 10.5469C8.0664 12.8614 1 21.7539 1 32L1 32.1889H13.5814L5 52.5L38.8488 32.1889H86C86.6781 32.1889 87.3457 32.1439 88 32.0568Z" fill="#EBF3FF"/>
<path d="M88 32.0568L88.0991 32.8002L88.75 32.7135V32.0568H88ZM70.9786 10.4352L70.8044 11.1647L70.9786 10.4352ZM54.5 6.5H53.75V7.09198L54.3258 7.22949L54.5 6.5ZM54.5 1.5H55.25V0.75H54.5V1.5ZM35.5 1.5V0.75H34.75V1.5H35.5ZM35.5 6.5L35.6694 7.23061L36.25 7.09599V6.5H35.5ZM18.0477 10.5469L17.8783 9.8163L18.0477 10.5469ZM1 32H0.25V32L1 32ZM1 32.1889L0.250003 32.189L0.250014 32.9389H1V32.1889ZM13.5814 32.1889L14.2723 32.4808L14.7125 31.4389H13.5814V32.1889ZM5 52.5L4.30913 52.2081L3.41424 54.3262L5.3859 53.1431L5 52.5ZM38.8488 32.1889V31.4389H38.6411L38.4629 31.5458L38.8488 32.1889ZM88.75 32.0568V32H87.25V32.0568H88.75ZM88.75 32C88.75 21.3919 81.4708 12.1697 71.1528 9.70571L70.8044 11.1647C80.4472 13.4674 87.25 22.0861 87.25 32H88.75ZM71.1528 9.70571L54.6742 5.77051L54.3258 7.22949L70.8044 11.1647L71.1528 9.70571ZM55.25 6.5V1.5H53.75V6.5H55.25ZM54.5 0.75H35.5V2.25H54.5V0.75ZM34.75 1.5V6.5H36.25V1.5H34.75ZM35.3306 5.76939L17.8783 9.8163L18.2171 11.2775L35.6694 7.23061L35.3306 5.76939ZM17.8783 9.8163C7.55706 12.2096 0.25 21.405 0.25 32H1.75C1.75 22.1028 8.57575 13.5132 18.2171 11.2775L17.8783 9.8163ZM0.25 32L0.250003 32.189L1.75 32.1889L1.75 32L0.25 32ZM1 32.9389H13.5814V31.4389H1V32.9389ZM12.8905 31.8971L4.30913 52.2081L5.69087 52.7919L14.2723 32.4808L12.8905 31.8971ZM5.3859 53.1431L39.2347 32.832L38.4629 31.5458L4.6141 51.8569L5.3859 53.1431ZM38.8488 32.9389H86V31.4389H38.8488V32.9389ZM86 32.9389C86.7113 32.9389 87.412 32.8917 88.0991 32.8002L87.9009 31.3133C87.2794 31.3962 86.6449 31.4389 86 31.4389V32.9389Z" fill="black"/>
</svg>
