<svg width="89" height="54" viewBox="0 0 89 54" fill="none" xmlns="http://www.w3.org/2000/svg">
<path fill-rule="evenodd" clip-rule="evenodd" d="M88 31.7247V31.668C88 21.4069 80.959 12.4865 70.9786 10.1032L54.5 6.16797V1.16797H35.5V6.16797L18.0477 10.2149C8.0664 12.5294 1 21.4219 1 31.668L1 31.8569H13.5814L5 52.168L38.8488 31.8569H86C86.6781 31.8569 87.3457 31.8119 88 31.7247Z" fill="#EBF3FF"/>
<path d="M88 31.7247L88.0991 32.4682L88.75 32.3814V31.7247H88ZM70.9786 10.1032L70.8044 10.8326L70.9786 10.1032ZM54.5 6.16797H53.75V6.75995L54.3258 6.89746L54.5 6.16797ZM54.5 1.16797H55.25V0.417969H54.5V1.16797ZM35.5 1.16797V0.417969H34.75V1.16797H35.5ZM35.5 6.16797L35.6694 6.89858L36.25 6.76396V6.16797H35.5ZM18.0477 10.2149L17.8783 9.48427L18.0477 10.2149ZM1 31.668H0.25V31.668L1 31.668ZM1 31.8569L0.250003 31.8569L0.250014 32.6069H1V31.8569ZM13.5814 31.8569L14.2723 32.1488L14.7125 31.1069H13.5814V31.8569ZM5 52.168L4.30913 51.8761L3.41424 53.9942L5.3859 52.8111L5 52.168ZM38.8488 31.8569V31.1069H38.6411L38.4629 31.2138L38.8488 31.8569ZM88.75 31.7247V31.668H87.25V31.7247H88.75ZM88.75 31.668C88.75 21.0598 81.4708 11.8377 71.1528 9.37367L70.8044 10.8326C80.4472 13.1354 87.25 21.754 87.25 31.668H88.75ZM71.1528 9.37367L54.6742 5.43848L54.3258 6.89746L70.8044 10.8326L71.1528 9.37367ZM55.25 6.16797V1.16797H53.75V6.16797H55.25ZM54.5 0.417969H35.5V1.91797H54.5V0.417969ZM34.75 1.16797V6.16797H36.25V1.16797H34.75ZM35.3306 5.43735L17.8783 9.48427L18.2171 10.9455L35.6694 6.89858L35.3306 5.43735ZM17.8783 9.48427C7.55706 11.8776 0.25 21.0729 0.25 31.668H1.75C1.75 21.7708 8.57575 13.1812 18.2171 10.9455L17.8783 9.48427ZM0.25 31.668L0.250003 31.8569L1.75 31.8569L1.75 31.668L0.25 31.668ZM1 32.6069H13.5814V31.1069H1V32.6069ZM12.8905 31.565L4.30913 51.8761L5.69087 52.4599L14.2723 32.1488L12.8905 31.565ZM5.3859 52.8111L39.2347 32.5L38.4629 31.2138L4.6141 51.5249L5.3859 52.8111ZM38.8488 32.6069H86V31.1069H38.8488V32.6069ZM86 32.6069C86.7113 32.6069 87.412 32.5597 88.0991 32.4682L87.9009 30.9813C87.2794 31.0641 86.6449 31.1069 86 31.1069V32.6069Z" fill="black"/>
</svg>
