<svg width="117" height="111" viewBox="0 0 117 111" fill="none" xmlns="http://www.w3.org/2000/svg">
<path d="M28.5814 88.1889L29.2723 88.4808L29.7125 87.4389H28.5814V88.1889ZM20 108.5L19.3091 108.208L18.4142 110.326L20.3859 109.143L20 108.5ZM53.8488 88.1889V87.4389H53.6411L53.4629 87.5458L53.8488 88.1889ZM1.75 16C1.75 8.12994 8.12994 1.75 16 1.75V0.25C7.30152 0.25 0.25 7.30151 0.25 16H1.75ZM1.75 73.1889V16H0.25V73.1889H1.75ZM16 87.4389C8.12995 87.4389 1.75 81.059 1.75 73.1889H0.25C0.25 81.8874 7.30152 88.9389 16 88.9389V87.4389ZM28.5814 87.4389H16V88.9389H28.5814V87.4389ZM20.6909 108.792L29.2723 88.4808L27.8905 87.897L19.3091 108.208L20.6909 108.792ZM53.4629 87.5458L19.6141 107.857L20.3859 109.143L54.2347 88.832L53.4629 87.5458ZM101 87.4389H53.8488V88.9389H101V87.4389ZM115.25 73.1889C115.25 81.059 108.87 87.4389 101 87.4389V88.9389C109.698 88.9389 116.75 81.8874 116.75 73.1889H115.25ZM115.25 16V73.1889H116.75V16H115.25ZM101 1.75C108.87 1.75 115.25 8.12994 115.25 16H116.75C116.75 7.30152 109.698 0.25 101 0.25V1.75ZM16 1.75H101V0.25H16V1.75Z" fill="black"/>
</svg>
