<svg width="117" height="111" viewBox="0 0 117 111" fill="none" xmlns="http://www.w3.org/2000/svg">
<path fill-rule="evenodd" clip-rule="evenodd" d="M16 1.66797C7.71573 1.66797 1 8.38369 1 16.668V73.8569C1 82.1412 7.71573 88.8569 16 88.8569H28.5814L20 109.168L53.8488 88.8569H101C109.284 88.8569 116 82.1412 116 73.8569V16.668C116 8.3837 109.284 1.66797 101 1.66797H16Z" fill="white"/>
<path d="M28.5814 88.8569L29.2723 89.1488L29.7125 88.1069H28.5814V88.8569ZM20 109.168L19.3091 108.876L18.4142 110.994L20.3859 109.811L20 109.168ZM53.8488 88.8569V88.1069H53.6411L53.4629 88.2138L53.8488 88.8569ZM1.75 16.668C1.75 8.79791 8.12994 2.41797 16 2.41797V0.917969C7.30152 0.917969 0.25 7.96948 0.25 16.668H1.75ZM1.75 73.8569V16.668H0.25V73.8569H1.75ZM16 88.1069C8.12995 88.1069 1.75 81.727 1.75 73.8569H0.25C0.25 82.5554 7.30152 89.6069 16 89.6069V88.1069ZM28.5814 88.1069H16V89.6069H28.5814V88.1069ZM20.6909 109.46L29.2723 89.1488L27.8905 88.565L19.3091 108.876L20.6909 109.46ZM53.4629 88.2138L19.6141 108.525L20.3859 109.811L54.2347 89.5L53.4629 88.2138ZM101 88.1069H53.8488V89.6069H101V88.1069ZM115.25 73.8569C115.25 81.727 108.87 88.1069 101 88.1069V89.6069C109.698 89.6069 116.75 82.5554 116.75 73.8569H115.25ZM115.25 16.668V73.8569H116.75V16.668H115.25ZM101 2.41797C108.87 2.41797 115.25 8.79791 115.25 16.668H116.75C116.75 7.96948 109.698 0.917969 101 0.917969V2.41797ZM16 2.41797H101V0.917969H16V2.41797Z" fill="black"/>
</svg>
