<svg width="117" height="110" viewBox="0 0 117 110" fill="none" xmlns="http://www.w3.org/2000/svg">
<path d="M28.5814 88.1889L29.042 88.3835L29.3354 87.6889H28.5814V88.1889ZM20 108.5L19.5394 108.305L18.9428 109.717L20.2573 108.929L20 108.5ZM53.8488 88.1889V87.6889H53.7103L53.5916 87.7602L53.8488 88.1889ZM1.5 16C1.5 7.99187 7.99187 1.5 16 1.5V0.5C7.43959 0.5 0.5 7.43958 0.5 16H1.5ZM1.5 73.1889V16H0.5V73.1889H1.5ZM16 87.6889C7.99187 87.6889 1.5 81.1971 1.5 73.1889H0.5C0.5 81.7494 7.43959 88.6889 16 88.6889V87.6889ZM28.5814 87.6889H16V88.6889H28.5814V87.6889ZM20.4606 108.695L29.042 88.3835L28.1208 87.9943L19.5394 108.305L20.4606 108.695ZM53.5916 87.7602L19.7427 108.071L20.2573 108.929L54.1061 88.6177L53.5916 87.7602ZM101 87.6889H53.8488V88.6889H101V87.6889ZM115.5 73.1889C115.5 81.1971 109.008 87.6889 101 87.6889V88.6889C109.56 88.6889 116.5 81.7494 116.5 73.1889H115.5ZM115.5 16V73.1889H116.5V16H115.5ZM101 1.5C109.008 1.5 115.5 7.99187 115.5 16H116.5C116.5 7.43959 109.56 0.5 101 0.5V1.5ZM16 1.5H101V0.5H16V1.5Z" fill="black"/>
</svg>
