<svg width="208" height="172" viewBox="0 0 208 172" fill="none" xmlns="http://www.w3.org/2000/svg">
<circle cx="101" cy="77.0601" r="75" fill="#EBF3FF"/>
<path d="M27.8137 70.8057L28.5054 71.0955L28.941 70.0557H27.8137V70.8057ZM20.603 88.0181L19.9113 87.7283L19.0202 89.8553L20.992 88.6593L20.603 88.0181ZM48.9803 70.8057V70.0557H48.7706L48.5913 70.1644L48.9803 70.8057ZM1.75 15.04C1.75 7.70013 7.70013 1.75 15.04 1.75V0.25C6.87171 0.25 0.25 6.87171 0.25 15.04H1.75ZM1.75 56.7657V15.04H0.25V56.7657H1.75ZM15.04 70.0557C7.70013 70.0557 1.75 64.1055 1.75 56.7657H0.25C0.25 64.934 6.8717 71.5557 15.04 71.5557V70.0557ZM27.8137 70.0557H15.04V71.5557H27.8137V70.0557ZM21.2948 88.3079L28.5054 71.0955L27.1219 70.5159L19.9113 87.7283L21.2948 88.3079ZM48.5913 70.1644L20.2141 87.3768L20.992 88.6593L49.3692 71.4469L48.5913 70.1644ZM96.4497 70.0557H48.9803V71.5557H96.4497V70.0557ZM109.74 56.7657C109.74 64.1055 103.79 70.0557 96.4497 70.0557V71.5557C104.618 71.5557 111.24 64.934 111.24 56.7657H109.74ZM109.74 15.04V56.7657H111.24V15.04H109.74ZM96.4497 1.75C103.79 1.75 109.74 7.70013 109.74 15.04H111.24C111.24 6.87171 104.618 0.25 96.4497 0.25V1.75ZM15.04 1.75H96.4497V0.25H15.04V1.75Z" fill="black"/>
<path d="M31.3306 38.9829C22.2397 45.6915 24.4841 55.9478 26.7426 60.2373L86.6089 55.7444C86.074 43.3248 79.1065 42.6678 76.9489 37.0179C74.7913 31.3681 80.2148 23.956 80.1016 21.3288C79.9885 18.7016 80.73 8.14123 67.0853 8.0111C53.4406 7.88097 52.1185 16.0735 47.7327 25.3551C43.3468 34.6368 42.6943 30.5971 31.3306 38.9829Z" fill="black"/>
<path fill-rule="evenodd" clip-rule="evenodd" d="M91.926 70.8058L88.9346 59.7804C87.7276 55.3316 84.947 51.4365 80.7596 49.5092C75.8296 47.2402 68.418 44.5572 60.0195 43.9681C53.7339 43.5272 48.2359 44.2097 43.7693 45.2663C35.0883 47.3199 29.2034 54.5958 25.6474 62.777L23.042 68.7712L22.1936 70.8058H27.8131L20.6025 88.0181L48.9797 70.8058H91.926Z" fill="#EBF3FF"/>
<path d="M91.926 70.8058V71.5558H92.9066L92.6498 70.6094L91.926 70.8058ZM88.9346 59.7804L88.2108 59.9768L88.9346 59.7804ZM80.7596 49.5092L81.0732 48.8279L80.7596 49.5092ZM60.0195 43.9681L59.967 44.7163L60.0195 43.9681ZM43.7693 45.2663L43.5966 44.5365V44.5365L43.7693 45.2663ZM25.6474 62.777L26.3352 63.0759L25.6474 62.777ZM23.042 68.7712L22.3541 68.4722L22.3498 68.4826L23.042 68.7712ZM22.1936 70.8058L21.5014 70.5171L21.0683 71.5558H22.1936V70.8058ZM27.8131 70.8058L28.5049 71.0956L28.9405 70.0558H27.8131V70.8058ZM20.6025 88.0181L19.9108 87.7283L19.0197 89.8554L20.9915 88.6594L20.6025 88.0181ZM48.9797 70.8058V70.0558H48.77L48.5907 70.1645L48.9797 70.8058ZM92.6498 70.6094L89.6584 59.584L88.2108 59.9768L91.2021 71.0022L92.6498 70.6094ZM89.6584 59.584C88.4065 54.9698 85.5044 50.8674 81.0732 48.8279L80.446 50.1905C84.3897 52.0056 87.0486 55.6935 88.2108 59.9768L89.6584 59.584ZM81.0732 48.8279C76.0947 46.5366 68.5918 43.8175 60.072 43.2199L59.967 44.7163C68.2443 45.2969 75.5645 47.9438 80.446 50.1905L81.0732 48.8279ZM60.072 43.2199C53.7014 42.7731 48.1271 43.4648 43.5966 44.5365L43.9419 45.9962C48.3447 44.9547 53.7665 44.2813 59.967 44.7163L60.072 43.2199ZM43.5966 44.5365C34.5836 46.6686 28.5582 54.1986 24.9596 62.478L26.3352 63.0759C29.8485 54.993 35.5929 47.9712 43.9419 45.9962L43.5966 44.5365ZM24.9596 62.478L22.3541 68.4723L23.7298 69.0702L26.3352 63.0759L24.9596 62.478ZM22.3498 68.4826L21.5014 70.5171L22.8858 71.0944L23.7342 69.0599L22.3498 68.4826ZM22.1936 71.5558H27.8131V70.0558H22.1936V71.5558ZM27.1214 70.516L19.9108 87.7283L21.2943 88.3079L28.5049 71.0956L27.1214 70.516ZM20.9915 88.6594L49.3686 71.447L48.5907 70.1645L20.2136 87.3769L20.9915 88.6594ZM48.9797 71.5558H91.926V70.0558H48.9797V71.5558Z" fill="black"/>
<path d="M80.101 21.3285C80.5672 18.8199 79.8259 16.794 79.397 16.0946C79.1685 16.3437 78.0463 18.067 74.9619 18.6784C73.5356 18.9612 70.2057 19.3619 68.9064 22.5285C68.6399 23.1781 68.35 23.6745 68.0566 24.05C67.0386 25.3529 65.4441 24.2703 64.1545 23.2354C62.7508 22.109 60.9777 21.5276 59.3837 23.6565C57.5264 26.1372 60.0829 29.423 61.1217 30.6831C61.2851 30.8812 61.3718 31.1296 61.3668 31.3863L61.3003 34.8202C60.3633 40.8427 54.7135 43.0003 51.8885 44.0791C52.9852 45.4675 56.4766 48.38 61.6684 48.922C66.8603 49.4641 68.242 47.8413 68.2839 46.9621L67.9238 38.6027C75.6387 39.9454 76.5372 34.8818 76.8145 33.9127C77.2305 32.4591 77.1893 31.5037 78.6121 31.2032C80.0348 30.9026 81.2085 30.3735 81.1673 29.4181C81.1262 28.4628 79.5182 24.4642 80.101 21.3285Z" fill="white" stroke="black" stroke-width="1.5"/>
<path fill-rule="evenodd" clip-rule="evenodd" d="M190.729 83.042C198.483 83.042 204.769 89.3279 204.769 97.082V138.808C204.769 146.562 198.483 152.848 190.729 152.848H177.956L185.166 170.06L156.789 152.848H109.319C101.565 152.848 95.2793 146.562 95.2793 138.808V97.082C95.2793 89.3279 101.565 83.042 109.319 83.042H190.729Z" fill="#F6F6F6"/>
<mask id="mask0_201_2535" style="mask-type:alpha" maskUnits="userSpaceOnUse" x="95" y="83" width="110" height="88">
<path fill-rule="evenodd" clip-rule="evenodd" d="M190.729 83.042C198.483 83.042 204.769 89.3279 204.769 97.082V138.808C204.769 146.562 198.483 152.848 190.729 152.848H177.955L185.166 170.06L156.789 152.848H109.319C101.565 152.848 95.2789 146.562 95.2789 138.808V97.082C95.2789 89.3279 101.565 83.042 109.319 83.042H190.729Z" fill="#F6F6F6"/>
</mask>
<g mask="url(#mask0_201_2535)">
<path d="M138.071 125.834L124.684 153.087V168.387H188.035V153.087L187.597 138.351C187.12 128.823 182.159 120.084 174.221 114.792L163.89 107.904L154.805 108.382L148.185 114.04C143.869 117.728 140.799 120.855 138.071 125.834Z" fill="#F6F6F6" stroke="black" stroke-width="1.5"/>
<path fill-rule="evenodd" clip-rule="evenodd" d="M138.593 124.91H183.666C183.375 124.402 183.069 123.901 182.749 123.41H139.518C139.204 123.892 138.896 124.391 138.593 124.91ZM143.709 118.181H178.431C177.893 117.662 177.335 117.162 176.756 116.681H145.228C144.702 117.178 144.197 117.676 143.709 118.181ZM186.322 131.06H135.504L134.767 132.56H186.738C186.612 132.056 186.473 131.556 186.322 131.06ZM187.607 138.71H131.746L131.009 140.21H187.652L187.607 138.71ZM187.835 146.36H127.988L127.251 147.86H187.879L187.835 146.36ZM188.035 154.01H124.684V155.51H188.035V154.01ZM188.035 161.66H124.684V163.16H188.035V161.66Z" fill="black"/>
<path d="M136.876 154.521L137.283 147.349L129.943 142.568L123.728 154.521H136.876Z" fill="white" stroke="black" stroke-width="1.5"/>
<path d="M173.452 173.168V147.11H188.035V173.168H173.452Z" fill="white" stroke="black" stroke-width="1.5"/>
</g>
<path d="M166.683 98.9807C165.722 100.118 165.162 101.507 165.002 102.06C159.432 101.681 158.04 94.9539 158.04 91.6376C153.718 87.6897 145.507 79.3676 147.236 77.6621C149.396 75.5302 153.718 74.5827 159.72 75.2934C165.722 76.004 171.485 78.6096 171.965 85.9527C172.445 93.2957 167.883 97.5595 166.683 98.9807Z" fill="black" stroke="black" stroke-width="1.5"/>
<path d="M149.793 112.867V103.985C148.129 103.985 144.803 104.225 143.14 102.065C141.477 99.9041 142.901 95.2325 142.664 94.7521C142.601 94.6231 139.575 93.5518 140.051 92.3516C140.346 91.6063 142.044 89.2407 143.456 87.2837C144.179 86.2814 144.519 85.0678 144.734 83.8507C145.257 80.8881 146.865 78.5915 147.654 78.0601C148.842 80.4605 153.595 82.6209 160.01 83.341L158.584 89.1021C161.198 87.4218 163.574 87.6619 163.812 90.7824C164.013 93.426 159.556 94.3831 159.773 96.7835C160.061 99.9894 163.574 102.145 165 102.785V109.266C164.129 109.986 161.841 112.766 157.872 114.067C153.04 115.649 150.022 115.036 148.2 114.316L149.793 112.867Z" fill="white" stroke="black" stroke-width="1.5" stroke-linejoin="round"/>
<path d="M171.376 83.0601H192.511C199.408 83.0601 205 88.6245 205 95.4886V140.423C205 147.287 199.408 152.851 192.511 152.851H178.061L185.306 170.06L156.796 152.851H107.489C100.592 152.851 95 147.287 95 140.423V95.4886C95 88.6245 100.592 83.0601 107.489 83.0601H144.956" stroke="black" stroke-width="1.5"/>
<circle cx="30" cy="106.06" r="5" fill="black"/>
<circle cx="50" cy="106.06" r="5" fill="black"/>
<circle cx="71" cy="106.06" r="5" fill="black"/>
<path d="M134.024 42.5236C134.174 42.0629 134.826 42.0629 134.976 42.5236L136.072 45.8969C136.139 46.103 136.331 46.2424 136.547 46.2424H140.094C140.578 46.2424 140.78 46.8622 140.388 47.1469L137.518 49.2318C137.343 49.3591 137.27 49.5848 137.337 49.7908L138.433 53.1642C138.583 53.6248 138.055 54.0079 137.663 53.7232L134.794 51.6383C134.619 51.511 134.381 51.511 134.206 51.6383L131.337 53.7232C130.945 54.0079 130.417 53.6248 130.567 53.1642L131.663 49.7908C131.73 49.5848 131.657 49.3591 131.482 49.2318L128.612 47.1469C128.22 46.8622 128.422 46.2424 128.906 46.2424H132.453C132.669 46.2424 132.861 46.103 132.928 45.8969L134.024 42.5236Z" fill="black" stroke="black" stroke-width="0.5"/>
<path d="M151.024 42.5236C151.174 42.0629 151.826 42.0629 151.976 42.5236L153.072 45.8969C153.139 46.103 153.331 46.2424 153.547 46.2424H157.094C157.578 46.2424 157.78 46.8622 157.388 47.1469L154.518 49.2318C154.343 49.3591 154.27 49.5848 154.337 49.7908L155.433 53.1642C155.583 53.6248 155.055 54.0079 154.663 53.7232L151.794 51.6383C151.619 51.511 151.381 51.511 151.206 51.6383L148.337 53.7232C147.945 54.0079 147.417 53.6248 147.567 53.1642L148.663 49.7908C148.73 49.5848 148.657 49.3591 148.482 49.2318L145.612 47.1469C145.22 46.8622 145.422 46.2424 145.906 46.2424H149.453C149.669 46.2424 149.861 46.103 149.928 45.8969L151.024 42.5236Z" fill="black" stroke="black" stroke-width="0.5"/>
<path d="M167.528 42.4232C167.683 41.9748 168.317 41.9748 168.472 42.4232L169.68 45.9062C169.749 46.1075 169.939 46.2424 170.152 46.2424H173.986C174.478 46.2424 174.674 46.8786 174.268 47.1557L171.222 49.2299C171.036 49.357 170.958 49.5935 171.031 49.8069L172.208 53.2002C172.365 53.6553 171.852 54.0483 171.454 53.7772L168.281 51.6165C168.112 51.5009 167.888 51.5009 167.719 51.6165L164.546 53.7772C164.148 54.0483 163.635 53.6553 163.792 53.2002L164.969 49.8069C165.042 49.5935 164.964 49.357 164.778 49.2299L161.732 47.1557C161.326 46.8786 161.522 46.2424 162.014 46.2424H165.848C166.061 46.2424 166.251 46.1075 166.32 45.9062L167.528 42.4232Z" fill="black" stroke="black" stroke-width="0.5"/>
<path d="M184.024 42.5236C184.174 42.0629 184.826 42.0629 184.976 42.5236L186.072 45.8969C186.139 46.103 186.331 46.2424 186.547 46.2424H190.094C190.578 46.2424 190.78 46.8622 190.388 47.1469L187.518 49.2318C187.343 49.3591 187.27 49.5848 187.337 49.7908L188.433 53.1642C188.583 53.6248 188.055 54.0079 187.663 53.7232L184.794 51.6383C184.619 51.511 184.381 51.511 184.206 51.6383L181.337 53.7232C180.945 54.0079 180.417 53.6248 180.567 53.1642L181.663 49.7908C181.73 49.5848 181.657 49.3591 181.482 49.2318L178.612 47.1469C178.22 46.8622 178.422 46.2424 178.906 46.2424H182.453C182.669 46.2424 182.861 46.103 182.928 45.8969L184.024 42.5236Z" fill="black" stroke="black" stroke-width="0.5"/>
<path d="M200.024 42.5236C200.174 42.0629 200.826 42.0629 200.976 42.5236L202.072 45.8969C202.139 46.103 202.331 46.2424 202.547 46.2424H206.094C206.578 46.2424 206.78 46.8622 206.388 47.1469L203.518 49.2318C203.343 49.3591 203.27 49.5848 203.337 49.7908L204.433 53.1642C204.583 53.6248 204.055 54.0079 203.663 53.7232L200.794 51.6383C200.619 51.511 200.381 51.511 200.206 51.6383L197.337 53.7232C196.945 54.0079 196.417 53.6248 196.567 53.1642L197.663 49.7908C197.73 49.5848 197.657 49.3591 197.482 49.2318L194.612 47.1469C194.22 46.8622 194.422 46.2424 194.906 46.2424H198.453C198.669 46.2424 198.861 46.103 198.928 45.8969L200.024 42.5236Z" fill="black" stroke="black" stroke-width="0.5"/>
</svg>
