<svg width="85" height="82" viewBox="0 0 85 82" fill="none" xmlns="http://www.w3.org/2000/svg">
<rect width="85" height="82" fill="#C4C4C4"/>
<g id="Desktop" clip-path="url(#clip0_0_1)">
<rect width="1920" height="12107" transform="translate(-1693 -1129)" fill="white"/>
<g id="2" clip-path="url(#clip1_0_1)">
<g id="Group 512580">
<g id="Group 512569">
<path id="Vector 2672" d="M2.61926 69.2385C6.74494 67.1308 9.18158 63.2355 11.515 57.4652C13.3589 62.0652 15.7313 66.6361 20.6437 69.1866C16.041 72.2609 14.0297 74.2522 11.2451 81.4577C11.0645 78.1766 7.53158 71.789 2.61926 69.2385Z" stroke="black" stroke-width="1.5"/>
<path id="Vector 2673" d="M32.9108 39.029C44.0228 32.5304 50.4308 20.6145 56.4481 2.98648C61.738 16.9719 68.4657 30.8591 81.992 38.5425C69.6375 47.9955 64.2768 54.1009 57.1145 76.1114C56.431 66.1151 46.4371 46.7124 32.9108 39.029Z" stroke="black" stroke-width="1.5"/>
</g>
</g>
</g>
</g>
<defs>
<clipPath id="clip0_0_1">
<rect width="1920" height="12107" fill="white" transform="translate(-1693 -1129)"/>
</clipPath>
<clipPath id="clip1_0_1">
<rect width="1920" height="1066" fill="white" transform="translate(-1693 -149)"/>
</clipPath>
</defs>
</svg>
