<svg width="363" height="194" viewBox="0 0 363 194" fill="none" xmlns="http://www.w3.org/2000/svg">
<circle cx="181" cy="89" r="75" fill="#EBF3FF"/>
<path d="M147.5 119.048C146.3 118.248 140.667 113.715 138 111.548L118.5 123.048V137.048L137 146.048C138 147.048 141 149.048 145 149.048C149 149.048 149.826 146.275 149.739 144.889C150.179 144.993 150.6 145.048 151 145.048C156.2 145.048 157.178 141.715 157.012 140.548C161.153 141.562 163.84 138.907 163 135.548C162 131.548 149 120.048 147.5 119.048Z" fill="white"/>
<path d="M157.012 140.548C161.153 141.562 163.84 138.907 163 135.548C162 131.548 149 120.048 147.5 119.048C146.3 118.248 140.667 113.715 138 111.548L118.5 123.048V137.048L137 146.048C138 147.048 141 149.048 145 149.048C149 149.048 149.826 146.275 149.739 144.889M157.012 140.548C156.223 140.355 155.38 140.028 154.5 139.548C151.136 137.713 144.637 132.255 139.825 127.999C137.308 125.772 134.228 124.268 130.908 123.744L126.5 123.048M157.012 140.548C157.178 141.715 156.2 145.048 151 145.048C150.6 145.048 150.179 144.993 149.739 144.889M123 129.548L126.535 130.078C130.696 130.702 134.433 132.894 137.374 135.904C141.218 139.838 146.101 144.03 149.739 144.889" stroke="black" stroke-width="1.5"/>
<path d="M107.957 150.015C120.263 164.996 125.834 180.759 120.4 185.222C114.967 189.685 100.587 181.158 88.2811 166.177C75.9756 151.195 70.5001 127.691 72.5002 126.048C73.109 125.548 95.6516 135.034 107.957 150.015Z" fill="black"/>
<path d="M1 99.0481C21.5 104.381 68.5 119.648 92.5 138.048C122.5 161.048 127 180.548 120 185.048C113 189.548 99.5 178.048 92.5 171.048C85.5 164.048 67.5 140.548 72.5 116.048C77.5 91.5481 138.142 104.269 199 116.048C237.862 123.57 277.95 104.732 292.257 73.6716M362 104.048C350.833 106.381 321.7 104.048 294.5 76.0481C293.732 75.2578 292.985 74.4655 292.257 73.6716M292.257 73.6716C260.749 39.3062 266.169 2.02549 273.5 1.04807C281 0.0480729 301 14.5481 297.5 54.0481C296.885 60.9899 295.069 67.5668 292.257 73.6716Z" stroke="black" stroke-width="1.5"/>
<path d="M297.5 54.0481C301 14.5481 281 0.0480728 273.5 1.04807C266.249 2.01485 260.867 38.4987 291.241 72.5481L292.257 73.6716C295.069 67.5668 296.885 60.9899 297.5 54.0481Z" fill="black"/>
<path d="M292.257 73.6716C295.069 67.5668 296.885 60.9899 297.5 54.0481C301 14.5481 281 0.0480728 273.5 1.04807C266.249 2.01485 260.867 38.4987 291.241 72.5481M292.257 73.6716C291.914 73.2974 291.575 72.9229 291.241 72.5481M292.257 73.6716L291.241 72.5481" stroke="black" stroke-width="1.5"/>
<path d="M181.725 96.2764C184.42 96.2764 187.652 95.5058 190.033 92.1271C192.413 88.7484 192.467 85.5043 192.327 83.0817C192.467 85.5043 192.139 89.5745 194.893 92.6563C197.647 95.738 200.341 96.3924 202.347 96.2764C200.743 96.3692 197.685 96.384 195.267 99.1166C192.849 101.849 192.211 106.586 192.194 108.612C192.086 104.432 190.545 96.2764 181.725 96.2764Z" stroke="black" stroke-width="1.5"/>
<path d="M248 31L281.5 19L292 53L248 72.9591C247.608 75.0662 244.763 78.8936 239.801 78.5725C240.883 78.7392 242.5 79.772 242.5 82.0481C242.5 86.0481 237 86.5481 234.5 86.5481H221.5C218 86.5481 214.5 86.0481 213 82.5481C211.8 79.7481 212.667 76.839 213.5 75.6723C208.999 73.5142 210.595 66.9865 212 64.0082C211.173 62.8463 211.059 61.7015 211.188 61.0481C206.447 63.4523 201.729 65.8997 200 66.5481C196 68.0481 188.5 71.0481 186.5 67.5481C184.9 64.7481 188 61.0481 192 58.5481L207.228 49.2035C211.736 46.4376 216.455 44.0336 221.343 42.0141L248 31Z" fill="white"/>
<path d="M239.5 78.5481C240.58 77.7078 243.159 75.6457 246.5 72.9591M239.5 78.5481C236.526 80.8237 231.756 84.1335 228.5 83.0481C226.937 82.5273 224.999 80.6047 226.833 77.0481M239.5 78.5481C239.722 78.3778 239.291 78.7105 239.5 78.5481ZM239.5 78.5481C240.549 78.5481 242.5 79.5481 242.5 82.0481C242.5 86.0481 237 86.5481 234.5 86.5481C231 86.5481 224.3 86.5481 221.5 86.5481C218 86.5481 214.5 86.0481 213 82.5481C211.8 79.7481 212.667 76.839 213.5 75.6723M239.5 78.5481L246.5 72.9591M239.5 78.5481C244.648 79.0481 247.6 75.1086 248 72.9591M268.5 52.5481C261.734 58.0306 254.292 66.6933 246.5 72.9591M211.188 61.0481C206.447 63.4523 201.729 65.8997 200 66.5481C196 68.0481 188.5 71.0481 186.5 67.5481C184.9 64.7481 188 61.0481 192 58.5481L207.228 49.2035C211.736 46.4376 216.455 44.0336 221.343 42.0141L248 31L281.5 19L292 53L248 72.9591M211.188 61.0481C214.673 59.2807 218.17 57.5367 220.5 56.5481C221.794 55.9993 223.477 55.2926 225.37 54.5481C232.985 51.552 238.977 50.9437 241.5 54.5481C245 59.5481 234 68.5481 229 74.0481C227.994 75.1541 227.294 76.1529 226.833 77.0481M211.188 61.0481C211.059 61.7015 211.173 62.8463 212 64.0082M236.5 66.322C231 66.822 219.5 68.1481 215.5 66.5481C213.74 65.8442 212.65 64.9209 212 64.0082M212 64.0082C210.5 67.1882 208.782 74.4145 214.5 76.0481C218 77.0481 226.833 77.0481 226.833 77.0481M248 72.9591C248 72.4954 248 72.3889 248 71.7522" stroke="black" stroke-width="1.5"/>
<path d="M226.5 80.5479C228 78.7145 231.6 75.0479 234 75.0479C237 75.0479 238 78.5479 236.5 80.5479M186.5 66.5479C190.167 65.2145 197.6 61.9479 198 59.5479C198.4 57.1479 196.167 56.5479 195 56.5479" stroke="black" stroke-width="1.5"/>
<path d="M124.5 125.048C119.037 132.462 125.5 140.202 131.5 136.048C138 131.548 146 121.048 149 118.048C152 115.048 155 111.548 158.5 113.548C161.5 115.262 160 119.548 158.5 122.048L145.163 143.165C142.076 148.053 138.212 152.424 133.4 155.627C128.368 158.977 123.294 162.019 122.5 162.548C121 163.548 110.836 174.048 110.836 174.048C100.669 165.215 85.5 146.048 85.5 146.048C85.5 146.048 90.9372 138.799 97.1201 131.25C102.228 125.014 108.213 119.576 114.602 114.662L131 102.048C134.5 99.7149 142.9 93.9483 146.5 91.5482C150.5 88.8813 154.804 87.7305 157 89.0482C159.5 90.5482 158.5 94.6481 155.5 97.0481C152.739 99.2567 131.5 115.548 124.5 125.048Z" fill="white" stroke="black" stroke-width="1.5"/>
<path d="M153.5 114.048C150.833 116.881 147.8 122.048 151 124.048C154.2 126.048 158 121.215 160 118.048M145.5 92.5479C145.333 93.5479 145.6 94.6479 148 95.0479C150.4 95.4479 155.667 92.2145 158 90.0479" stroke="black" stroke-width="1.5"/>
<path fill-rule="evenodd" clip-rule="evenodd" d="M79.2793 153.003L87.9711 142.5L114.471 170.5L104.264 181.221C101.121 179.081 97.8094 176.32 94.5196 173.05L87.3116 164.977C84.1071 160.946 81.4026 156.876 79.2793 153.003Z" fill="#F6F6F6"/>
<path d="M87.9711 142.5L88.5158 141.984L87.9335 141.369L87.3933 142.022L87.9711 142.5ZM79.2793 153.003L78.7015 152.524L78.3769 152.917L78.6216 153.363L79.2793 153.003ZM114.471 170.5L115.014 171.017L115.505 170.502L115.016 169.984L114.471 170.5ZM104.264 181.221L103.841 181.841L104.368 182.2L104.807 181.738L104.264 181.221ZM94.5196 173.05L93.9602 173.549L93.9751 173.566L93.9909 173.582L94.5196 173.05ZM87.3116 164.977L86.7245 165.443L86.7378 165.46L86.7521 165.476L87.3116 164.977ZM87.3933 142.022L78.7015 152.524L79.8571 153.481L88.5489 142.978L87.3933 142.022ZM115.016 169.984L88.5158 141.984L87.4264 143.016L113.926 171.016L115.016 169.984ZM104.807 181.738L115.014 171.017L113.928 169.983L103.72 180.704L104.807 181.738ZM104.686 180.601C101.587 178.491 98.3105 175.76 95.0484 172.518L93.9909 173.582C97.3083 176.879 100.655 179.671 103.841 181.841L104.686 180.601ZM86.7521 165.476L93.9602 173.549L95.0791 172.55L87.871 164.477L86.7521 165.476ZM87.8987 164.51C84.7187 160.51 82.0383 156.475 79.937 152.642L78.6216 153.363C80.7669 157.277 83.4956 161.382 86.7245 165.443L87.8987 164.51Z" fill="black"/>
<path d="M135.227 61.23C139.788 61.23 145.257 59.9262 149.285 54.2091C153.313 48.4919 153.404 43.0025 153.167 38.9031C153.404 43.0025 152.849 49.8898 157.509 55.1044C162.169 60.319 166.728 61.4264 170.122 61.2301C167.407 61.3871 162.232 61.4122 158.141 66.0361C154.05 70.6601 152.97 78.6746 152.941 82.1038C152.759 75.0307 150.152 61.23 135.227 61.23Z" stroke="black" stroke-width="1.5"/>
<path fill-rule="evenodd" clip-rule="evenodd" d="M291.126 14.8579L265 25L275.5 60.5L297.712 51.2503C298.74 34.8039 295.595 22.9237 291.126 14.8579Z" fill="#F6F6F6"/>
<path d="M265 25L264.729 24.3008L264.085 24.5506L264.281 25.2127L265 25ZM291.126 14.8579L291.782 14.4945L291.465 13.9219L290.855 14.1587L291.126 14.8579ZM275.5 60.5L274.781 60.7127L275.018 61.5133L275.788 61.1923L275.5 60.5ZM297.712 51.2503L298 51.9427L298.431 51.7632L298.46 51.2971L297.712 51.2503ZM265.271 25.6991L291.398 15.5571L290.855 14.1587L264.729 24.3008L265.271 25.6991ZM276.219 60.2873L265.719 24.7873L264.281 25.2127L274.781 60.7127L276.219 60.2873ZM297.424 50.558L275.212 59.8076L275.788 61.1923L298 51.9427L297.424 50.558ZM298.46 51.2971C299.496 34.7326 296.331 22.7054 291.782 14.4945L290.47 15.2214C294.858 23.142 297.984 34.8752 296.963 51.2036L298.46 51.2971Z" fill="black"/>
</svg>
